<?xml version="1.0" encoding="utf-8"?>
<!-- Generator: Adobe Illustrator 21.0.0, SVG Export Plug-In . SVG Version: 6.00 Build 0)  -->
<svg version="1.1" id="Слой_1" xmlns="http://www.w3.org/2000/svg" xmlns:xlink="http://www.w3.org/1999/xlink" x="0px" y="0px"
	 viewBox="0 0 70 70" style="enable-background:new 0 0 70 70;" xml:space="preserve">
<g>
	<g>
		<path d="M59.7,10.3C53.1,3.6,44.3,0,35,0c-9.3,0-18.1,3.6-24.7,10.3C3.6,16.9,0,25.7,0,35c0,9.3,3.6,18.1,10.3,24.8
			C16.9,66.4,25.7,70,35,70c9.3,0,18.1-3.6,24.7-10.3C66.4,53.1,70,44.3,70,35C70,25.7,66.4,16.9,59.7,10.3z M35,65.8
			C18,65.8,4.2,52,4.2,35C4.2,18,18,4.2,35,4.2C52,4.2,65.8,18,65.8,35C65.8,52,52,65.8,35,65.8z M35,9.5C20.9,9.5,9.5,20.9,9.5,35
			c0,14.1,11.5,25.5,25.5,25.5S60.5,49.1,60.5,35C60.5,20.9,49.1,9.5,35,9.5z M35,56.3c-11.8,0-21.3-9.6-21.3-21.3
			S23.2,13.7,35,13.7c11.8,0,21.3,9.6,21.3,21.3S46.8,56.3,35,56.3z M37.1,34.1V20.8c0-1.2-0.9-2.1-2.1-2.1c-1.2,0-2.1,0.9-2.1,2.1
			v13.8c0,0.1,0,0.1,0,0.2c-0.1,0.6,0.1,1.2,0.6,1.7l9.8,9.8c0.4,0.4,1,0.6,1.5,0.6c0.5,0,1.1-0.2,1.5-0.6c0.8-0.8,0.8-2.2,0-3
			L37.1,34.1z"/>
	</g>
</g>
</svg>
