<?xml version="1.0" encoding="utf-8"?>
<!-- Generator: Adobe Illustrator 21.0.0, SVG Export Plug-In . SVG Version: 6.00 Build 0)  -->
<svg version="1.1" id="Слой_1" xmlns="http://www.w3.org/2000/svg" xmlns:xlink="http://www.w3.org/1999/xlink" x="0px" y="0px"
	 viewBox="0 0 70 70" style="enable-background:new 0 0 70 70;" xml:space="preserve">
<path d="M59.4,10.6C52.9,4.1,44.2,0.5,35,0.5c-9.2,0-17.9,3.6-24.4,10.1C4.1,17.1,0.5,25.8,0.5,35c0,9.2,3.6,17.9,10.1,24.4
	c6.5,6.5,15.2,10.1,24.4,10.1c9.2,0,17.9-3.6,24.4-10.1c6.5-6.5,10.1-15.2,10.1-24.4C69.5,25.8,65.9,17.1,59.4,10.6z M60.7,51.4
	H49.3L44,44.9l3.5-10.8l8.9-3.8l9,6.6C65.1,42.2,63.4,47.1,60.7,51.4z M20.7,51.4l-11.4,0c-2.7-4.2-4.4-9.2-4.7-14.5l9-6.6l8.9,3.8
	L26,44.9L20.7,51.4z M8.6,19.8l2.4,7.4l-6.3,4.6C5.2,27.5,6.5,23.4,8.6,19.8z M29.8,43.3l-3.2-9.9l8.5-6.1l8.5,6.1l-3.2,9.9H29.8z
	 M59,27.2l2.4-7.4c2.1,3.7,3.4,7.7,3.9,12L59,27.2z M58.5,15.6L55,26.5l-8.9,3.8L37,23.7V13.3l9.2-6.6c3.8,1.5,7.4,3.8,10.4,6.8
	C57.2,14.2,57.9,14.9,58.5,15.6z M41.3,5.2L35,9.8l-6.3-4.6c2-0.4,4.1-0.7,6.3-0.7C37.1,4.5,39.2,4.8,41.3,5.2z M23.8,6.7l9.1,6.6
	v10.4l-9.1,6.6L15,26.5l-3.5-10.8C14.8,11.7,19,8.6,23.8,6.7z M12.4,55.4h7.8l2.4,7.4C18.7,61.1,15.2,58.5,12.4,55.4z M27.4,64.5
	l-3.5-10.7l5.4-6.5h11.5l5.4,6.5l-3.5,10.7c-2.4,0.6-5,1-7.6,1C32.4,65.5,29.8,65.1,27.4,64.5z M47.4,62.8l2.4-7.4h7.8
	C54.8,58.5,51.3,61.1,47.4,62.8z"/>
</svg>
