<?xml version="1.0" encoding="utf-8"?>
<!-- Generator: Adobe Illustrator 21.0.0, SVG Export Plug-In . SVG Version: 6.00 Build 0)  -->
<svg version="1.1" id="Слой_1" xmlns="http://www.w3.org/2000/svg" xmlns:xlink="http://www.w3.org/1999/xlink" x="0px" y="0px"
	 viewBox="0 0 70 70" style="enable-background:new 0 0 70 70;" xml:space="preserve">
<path d="M58.5,11.5c-6.4-6.4-15-10-24-10s-17.6,3.5-24,10c-6.4,6.4-10,15-10,24c0,9.1,3.5,17.6,10,24c6.3,6.3,14.7,9.9,23.7,10
	c0,0,0,0,0,0h0c0,0,0,0,0,0c0.1,0,0.2,0,0.3,0c9.1,0,17.6-3.5,24-10c6.4-6.4,10-15,10-24C68.5,26.4,65,17.9,58.5,11.5z M32.2,65.4
	c-6.5-0.5-12.6-3-17.5-7.3l42.4-42.4c4.3,4.9,6.9,11,7.3,17.5c-3.7,0.2-7.4,1-10.9,2.4c-4.3,1.7-8.1,4.2-11.4,7.5
	c-3.3,3.3-5.8,7.1-7.5,11.4C33.2,58,32.4,61.7,32.2,65.4z M4.6,37.8c3.7-0.2,7.4-1,10.9-2.4c4.3-1.7,8.1-4.2,11.4-7.5
	c3.3-3.3,5.8-7.1,7.5-11.4c1.4-3.5,2.2-7.1,2.4-10.9c6.5,0.5,12.6,3,17.5,7.3L11.9,55.3C7.6,50.4,5.1,44.3,4.6,37.8z M13.3,14.3
	C18.5,9,25.4,5.9,32.8,5.5C32.4,12.9,29.3,19.8,24,25c-5.3,5.3-12.1,8.3-19.5,8.7C4.9,26.4,8,19.5,13.3,14.3z M55.7,56.7
	c-5.3,5.3-12.1,8.3-19.5,8.7c0.4-7.4,3.5-14.2,8.7-19.5c5.3-5.3,12.1-8.3,19.5-8.7C64.1,44.6,61,51.5,55.7,56.7z"/>
</svg>
