<?xml version="1.0" encoding="utf-8"?>
<!-- Generator: Adobe Illustrator 21.0.0, SVG Export Plug-In . SVG Version: 6.00 Build 0)  -->
<svg version="1.1" id="Слой_1" xmlns="http://www.w3.org/2000/svg" xmlns:xlink="http://www.w3.org/1999/xlink" x="0px" y="0px"
	 viewBox="0 0 70 70" style="enable-background:new 0 0 70 70;" xml:space="preserve">
<g>
	<g>
		<path d="M69,12.8c-0.9-0.6-2.1-0.2-2.7,0.7l-5.5,9.2h-6.5l7.2-12c0.6-0.9,0.3-2.1-0.7-2.7c-0.9-0.5-2.1-0.2-2.7,0.7L37,44.2
			c-2,3.4-5.8,5.5-9.7,5.5h-19c-1.1,0-2.1,0.5-2.7,1.4l-4.9,6.6c-0.7,1-0.9,2.4-0.3,3.5c0.6,1.1,1.7,1.8,3,1.8h29.3
			c5.3,0,10.3-2.8,13.1-7.4l24-40.1C70.3,14.6,70,13.4,69,12.8z M42.3,53.6c-2,3.4-5.8,5.5-9.7,5.5H4.4l4.1-5.5h18.8
			c5.3,0,10.3-2.8,13.1-7.4l7.2-12H54L42.3,53.6z M56.3,30.3h-6.5l2.2-3.7h6.5L56.3,30.3z M18.6,46.7c5.3,0,11.5-1.3,11.5-5v-6
			c0-3.7-6.2-5-11.5-5C13.2,30.7,7,32,7,35.7v6C7,45.4,13.2,46.7,18.6,46.7z M18.6,34.5c3.4,0,5.9,0.6,7.1,1.1
			c-1.2,0.5-3.6,1.1-7.1,1.1c-3.4,0-5.9-0.6-7.1-1.1C12.7,35.2,15.1,34.5,18.6,34.5z M10.9,39.6c2.9,1,6.6,1.1,7.6,1.1
			c1,0,4.7-0.1,7.6-1.1v1.7c-0.7,0.6-3.4,1.5-7.6,1.5c-4.2,0-6.9-0.9-7.6-1.5V39.6z"/>
	</g>
</g>
</svg>
