<?xml version="1.0" encoding="utf-8"?>
<!-- Generator: Adobe Illustrator 21.0.0, SVG Export Plug-In . SVG Version: 6.00 Build 0)  -->
<svg version="1.1" id="Слой_1" xmlns="http://www.w3.org/2000/svg" xmlns:xlink="http://www.w3.org/1999/xlink" x="0px" y="0px"
	 viewBox="0 0 70 70" style="enable-background:new 0 0 70 70;" xml:space="preserve">
<path d="M59.7,10.3C53.1,3.6,44.3,0,35,0c-9.3,0-18.1,3.6-24.7,10.3C3.6,16.9,0,25.7,0,35c0,9.3,3.6,18.1,10.3,24.7
	C16.9,66.4,25.7,70,35,70c9.3,0,18.1-3.6,24.7-10.3C66.4,53.1,70,44.3,70,35C70,25.7,66.4,16.9,59.7,10.3z M56.7,13
	C51,18.7,43.1,22,35,22c-8.1,0-16-3.2-21.7-8.9C18.9,7.5,26.5,4.1,35,4.1C43.5,4.1,51.1,7.5,56.7,13z M10.6,16.1
	c6.5,6.3,15.3,9.9,24.4,9.9c9.1,0,17.9-3.6,24.4-9.9c4,5.2,6.5,11.8,6.5,18.9s-2.4,13.7-6.5,18.9c-6.5-6.3-15.3-10-24.4-10
	c-9.1,0-17.9,3.6-24.4,10c-4-5.2-6.5-11.8-6.5-18.9S6.5,21.3,10.6,16.1z M13.3,57C19,51.3,26.9,48,35,48c8.1,0,16,3.2,21.7,8.9
	c-5.6,5.5-13.3,8.9-21.7,8.9C26.5,65.9,18.9,62.5,13.3,57z"/>
</svg>
