<?xml version="1.0" encoding="utf-8"?>
<!-- Generator: Adobe Illustrator 21.0.0, SVG Export Plug-In . SVG Version: 6.00 Build 0)  -->
<svg version="1.1" id="Слой_1" xmlns="http://www.w3.org/2000/svg" xmlns:xlink="http://www.w3.org/1999/xlink" x="0px" y="0px"
	 viewBox="0 0 70 70" style="enable-background:new 0 0 70 70;" xml:space="preserve">
<path d="M69.4,16.4c-0.9-4.1-2.8-7.5-5.5-10.3c-4-4-9.6-6.1-16.2-6.1c-4.2,0-8.6,0.9-12.9,2.5c0,0,0,0-0.1,0
	c-6.8,2.5-13.6,6.9-19.4,12.8C7.7,22.9,2.5,32,0.7,41.1c-0.9,4.5-0.9,8.7-0.1,12.5c0.9,4.1,2.8,7.5,5.5,10.3c4,4,9.6,6.1,16.2,6.1h0
	c4.2,0,8.6-0.9,13-2.5c0,0,0,0,0,0c6.8-2.5,13.6-6.9,19.4-12.8c7.6-7.6,12.8-16.8,14.6-25.8C70.2,24.5,70.2,20.2,69.4,16.4z
	 M65.3,28.1c-0.2,0.9-0.4,1.7-0.6,2.6L53.4,19.5l8.9-8.9C65.6,14.9,66.7,21.1,65.3,28.1z M59.4,7.7l-8.9,8.9L39.3,5.3
	c2.9-0.8,5.7-1.2,8.4-1.2C52.3,4.1,56.3,5.3,59.4,7.7z M18.2,18.2c5.1-5.1,10.9-9,16.8-11.4l12.7,12.7l-4.9,4.9l-2.4-2.4
	c-0.8-0.8-2.1-0.8-2.9,0c-0.8,0.8-0.8,2.1,0,2.9l2.4,2.4L35,32.1l-2.4-2.4c-0.8-0.8-2.1-0.8-2.9,0c-0.8,0.8-0.8,2.1,0,2.9l2.4,2.4
	l-4.9,4.9l-2.4-2.4c-0.8-0.8-2.1-0.8-2.9,0c-0.8,0.8-0.8,2.1,0,2.9l2.4,2.4l-4.9,4.9L6.8,35C9.2,29,13.1,23.3,18.2,18.2z M4.7,41.9
	c0.2-0.9,0.4-1.7,0.6-2.6l11.2,11.2l-8.9,8.9C4.4,55.1,3.3,48.9,4.7,41.9z M22.3,65.9c-4.6,0-8.6-1.2-11.7-3.6l8.9-8.9l11.3,11.3
	C27.9,65.5,25,65.9,22.3,65.9z M51.8,51.8c-5.1,5.1-10.9,9-16.8,11.4L22.4,50.5l4.9-4.9l2.4,2.4c0.4,0.4,0.9,0.6,1.5,0.6
	c0.5,0,1-0.2,1.4-0.6c0.8-0.8,0.8-2.1,0-2.9l-2.4-2.4l4.9-4.9l2.4,2.4c0.4,0.4,0.9,0.6,1.5,0.6c0.5,0,1-0.2,1.4-0.6
	c0.8-0.8,0.8-2.1,0-2.9L37.9,35l4.9-4.9l2.4,2.4c0.4,0.4,0.9,0.6,1.4,0.6c0.5,0,1-0.2,1.5-0.6c0.8-0.8,0.8-2.1,0-2.9l-2.4-2.4
	l4.9-4.9L63.2,35C60.8,41,56.9,46.7,51.8,51.8z"/>
</svg>
