<?xml version="1.0" encoding="utf-8"?>
<!-- Generator: Adobe Illustrator 21.0.0, SVG Export Plug-In . SVG Version: 6.00 Build 0)  -->
<svg version="1.1" id="Слой_1" xmlns="http://www.w3.org/2000/svg" xmlns:xlink="http://www.w3.org/1999/xlink" x="0px" y="0px"
	 viewBox="0 0 70 70" style="enable-background:new 0 0 70 70;" xml:space="preserve">
<path d="M69.9,13c-0.3-0.7-0.9-1.3-1.7-1.4l-8.8-1.2l-1.5-8.8c-0.1-0.8-0.7-1.4-1.4-1.6c-0.7-0.2-1.6,0-2.1,0.5l-4,4.1
	c-4.8-2.5-10.3-3.9-15.9-3.9c-9.2,0-17.9,3.6-24.4,10.1C3.6,17.5,0,26.2,0,35.4s3.6,17.9,10.1,24.5C16.6,66.4,25.3,70,34.6,70
	c9.2,0,17.9-3.6,24.4-10.1c6.5-6.5,10.1-15.2,10.1-24.5c0-5.6-1.3-11.1-3.9-15.9l4.2-4.3C70,14.6,70.1,13.8,69.9,13z M59.4,19.5
	l-7.8-1l-1.3-7.7l4.1-4.2l1,6.2c0.2,0.9,0.9,1.6,1.8,1.7l6.2,0.8L59.4,19.5z M4.2,35.4C4.2,18.6,17.8,5,34.6,5c4.6,0,8.9,1,12.8,2.8
	l-0.7,0.7C46.2,9,46,9.7,46.1,10.4l0.9,5.1c-3.6-2.3-7.9-3.6-12.4-3.6c-13,0-23.5,10.6-23.5,23.5c0,13,10.5,23.5,23.5,23.5
	c13,0,23.5-10.6,23.5-23.5c0-4.6-1.3-8.8-3.5-12.4l5.4,0.7c0.1,0,0.2,0,0.3,0c0.6,0,1.1-0.2,1.5-0.6l0.4-0.5
	c1.8,3.9,2.8,8.2,2.8,12.8c0,16.8-13.6,30.4-30.4,30.4S4.2,52.2,4.2,35.4z M42.2,35.4c0,4.2-3.4,7.6-7.6,7.6c-4.2,0-7.6-3.4-7.6-7.6
	c0-4.2,3.4-7.6,7.6-7.6c1.4,0,2.6,0.4,3.8,1l-5.2,5.2c-0.8,0.8-0.8,2.1,0,2.9c0.4,0.4,0.9,0.6,1.5,0.6c0.5,0,1.1-0.2,1.5-0.6
	l5.2-5.2C41.8,32.8,42.2,34.1,42.2,35.4z M41.3,25.8c-1.9-1.4-4.3-2.2-6.8-2.2c-6.5,0-11.8,5.3-11.8,11.8c0,6.5,5.3,11.8,11.8,11.8
	c6.5,0,11.8-5.3,11.8-11.8c0-2.5-0.8-4.8-2.1-6.7l5.4-5.4c2.6,3.3,4.2,7.5,4.2,12c0,10.7-8.7,19.4-19.4,19.4s-19.3-8.7-19.3-19.4
	c0-10.7,8.7-19.4,19.3-19.4c4.6,0,8.9,1.6,12.2,4.4L41.3,25.8z"/>
</svg>
