<?xml version="1.0" encoding="utf-8"?>
<!-- Generator: Adobe Illustrator 21.0.0, SVG Export Plug-In . SVG Version: 6.00 Build 0)  -->
<svg version="1.1" id="Слой_1" xmlns="http://www.w3.org/2000/svg" xmlns:xlink="http://www.w3.org/1999/xlink" x="0px" y="0px"
	 viewBox="0 0 70 70" style="enable-background:new 0 0 70 70;" xml:space="preserve">
<g>
	<g>
		<path d="M55.4,26.2h-1.7v-6.1C53.6,9,44.9,0,34.3,0C23.6,0,14.9,9,14.9,20.1v6.1h-1.7c-3.1,0-5.6,2.6-5.6,5.8v32.2
			c0,3.2,2.5,5.8,5.6,5.8h42.2c3.1,0,5.6-2.6,5.6-5.8V32C60.9,28.8,58.4,26.2,55.4,26.2z M18.9,20.1c0-8.8,6.9-16,15.4-16
			c8.5,0,15.4,7.2,15.4,16v6.1H42V20c0-4.4-3.4-7.9-7.6-7.9h-0.3c-4.2,0-7.6,3.6-7.6,7.9v6.2h-7.6V20.1z M38.1,20v6.2h-7.6V20
			c0-2.1,1.6-3.8,3.6-3.8h0.3C36.4,16.2,38.1,17.9,38.1,20z M56.9,64.2c0,0.9-0.7,1.6-1.6,1.6H13.2c-0.9,0-1.6-0.7-1.6-1.6V32
			c0-0.9,0.7-1.6,1.6-1.6h42.2c0.9,0,1.6,0.7,1.6,1.6V64.2z M34.3,37.2c-4.1,0-7.4,3.5-7.4,7.7c0,3.5,2.3,6.5,5.4,7.4v4.5
			c0,1.1,0.9,2.1,2,2.1c1.1,0,2-0.9,2-2.1v-4.5c3.1-0.9,5.4-3.9,5.4-7.4C41.7,40.7,38.3,37.2,34.3,37.2z M34.3,48.5
			c-1.9,0-3.4-1.6-3.4-3.6c0-2,1.5-3.6,3.4-3.6c1.9,0,3.4,1.6,3.4,3.6C37.7,46.9,36.1,48.5,34.3,48.5z"/>
	</g>
</g>
</svg>
