<?xml version="1.0" encoding="utf-8"?>
<!-- Generator: Adobe Illustrator 21.0.0, SVG Export Plug-In . SVG Version: 6.00 Build 0)  -->
<svg version="1.1" id="Слой_1" xmlns="http://www.w3.org/2000/svg" xmlns:xlink="http://www.w3.org/1999/xlink" x="0px" y="0px"
	 viewBox="0 0 70 70" style="enable-background:new 0 0 70 70;" xml:space="preserve">
<g>
	<g>
		<path d="M67.9,4.6H2.4c-1.2,0-2.1,0.9-2.1,2.1v58.2c0,1.1,0.9,2.1,2.1,2.1h65.5c1.2,0,2.1-0.9,2.1-2.1V6.7
			C70,5.6,69.1,4.6,67.9,4.6z M65.8,62.8H4.5V21.7h61.3V62.8z M65.8,17.5H4.5V8.8h61.3V17.5z M9.1,15.2h26c1.2,0,2.1-0.9,2.1-2.1
			c0-1.1-0.9-2.1-2.1-2.1h-26C7.9,11.1,7,12,7,13.2C7,14.3,7.9,15.2,9.1,15.2z M53.9,15.2c1.2,0,2.1-0.9,2.1-2.1
			c0-1.1-0.9-2.1-2.1-2.1c-1.2,0-2.1,0.9-2.1,2.1C51.8,14.3,52.8,15.2,53.9,15.2z M60.1,15.2c1.2,0,2.1-0.9,2.1-2.1
			c0-1.1-0.9-2.1-2.1-2.1c-1.2,0-2.1,0.9-2.1,2.1C58,14.3,58.9,15.2,60.1,15.2z M26.6,41.2c4.1,0,7.5-3.3,7.5-7.4
			c0-4.1-3.4-7.4-7.5-7.4c-4.1,0-7.5,3.3-7.5,7.4C19.1,37.9,22.5,41.2,26.6,41.2z M26.6,30.6c1.8,0,3.3,1.4,3.3,3.2
			c0,1.8-1.5,3.2-3.3,3.2c-1.8,0-3.3-1.4-3.3-3.2C23.3,32,24.8,30.6,26.6,30.6z M36.2,50.6c0,4.1,3.4,7.4,7.5,7.4
			c4.1,0,7.5-3.3,7.5-7.4c0-4.1-3.3-7.4-7.5-7.4C39.5,43.2,36.2,46.5,36.2,50.6z M47,50.6c0,1.8-1.5,3.2-3.3,3.2
			c-1.8,0-3.3-1.4-3.3-3.2c0-1.8,1.5-3.2,3.3-3.2C45.5,47.4,47,48.8,47,50.6z M24.6,52.6c0.8,0.8,2.2,0.8,3,0l18.1-17.8
			c0.8-0.8,0.8-2.1,0-2.9c-0.8-0.8-2.2-0.8-3,0L24.6,49.7C23.8,50.5,23.8,51.8,24.6,52.6z"/>
	</g>
</g>
</svg>
