<?xml version="1.0" encoding="utf-8"?>
<!-- Generator: Adobe Illustrator 21.0.0, SVG Export Plug-In . SVG Version: 6.00 Build 0)  -->
<svg version="1.1" id="Слой_1" xmlns="http://www.w3.org/2000/svg" xmlns:xlink="http://www.w3.org/1999/xlink" x="0px" y="0px"
	 viewBox="0 0 70 70" style="enable-background:new 0 0 70 70;" xml:space="preserve">
<g>
	<g>
		<path d="M22.5,41.7c1-0.4,2.2,0.1,3.3,1.4c0.7,0.9,2,1,2.8,0.2c0.9-0.7,1-2,0.2-2.8c-1.1-1.3-2.4-2.2-3.7-2.6v-2.3
			c0-1.1-0.9-2-2-2c-1.1,0-2,0.9-2,2v2.4c0,0,0,0-0.1,0c-2.4,0.9-4,3.2-4,5.7c0,1.6,0.6,3.1,1.7,4.3c1.2,1.2,2.7,1.9,4.3,1.9
			c1.1,0,2,0.9,2,2c0,0.8-0.5,1.5-1.2,1.9c-0.9,0.4-2,0.1-3-0.9c-0.8-0.8-2.1-0.8-2.9,0c-0.8,0.8-0.8,2.1,0,2.9
			c0.9,0.9,1.9,1.5,3,1.9v2.4c0,1.1,0.9,2,2,2c1.1,0,2-0.9,2-2v-2.4c2.5-0.9,4-3.2,4-5.7c0-3.3-2.7-6.1-6.1-6.1c-1.1,0-2-1-2-2.2
			C21.2,42.7,21.7,42,22.5,41.7z M63.4,3.5C59.7,1.9,54.8,1,49.7,1C39.1,1,29.4,4.9,29.4,11.1v15.2c-2-0.6-4.1-0.9-6.2-0.9
			c-5.9,0-11.5,2.3-15.7,6.6C3.3,36.2,1,41.8,1,47.8C1,60,11,70,23.2,70c4.1,0,8-1.1,11.5-3.2c3.8,2,9.1,3.2,15,3.2
			c5.1,0,10-0.9,13.7-2.5c4.3-1.9,6.6-4.6,6.6-7.6V11.1C70,8.1,67.7,5.4,63.4,3.5z M23.2,66C13.2,66,5,57.8,5,47.8
			c0-10.1,8.2-18.3,18.2-18.3c10.1,0,18.3,8.2,18.3,18.3C41.6,57.8,33.3,66,23.2,66z M66,59.9c0,2.5-6.4,6.1-16.3,6.1
			c-4.2,0-8.2-0.7-11.3-1.9c0.2-0.2,0.4-0.4,0.6-0.6c1.8-1.8,3.3-3.9,4.4-6.1c2,0.3,4.1,0.5,6.3,0.5c5.3,0,11.9-1,16.3-3.9V59.9z
			 M66,47.8c0,2.5-6.4,6.1-16.3,6.1c-1.6,0-3.3-0.1-4.8-0.3c0.5-1.9,0.8-3.8,0.8-5.8c0-0.8,0-1.6-0.1-2.4c1.4,0.1,2.8,0.2,4.2,0.2
			c5.3,0,11.9-1,16.3-3.9V47.8z M66,35.5c0,2.5-6.4,6.1-16.3,6.1c-1.7,0-3.4-0.1-5-0.3c-1-3.4-2.9-6.5-5.5-9.2
			c3.1,0.9,6.8,1.4,10.5,1.4c5.3,0,11.9-1,16.3-3.9V35.5z M66,23.4c0,2.5-6.4,6.1-16.3,6.1c-4.6,0-8.9-0.8-12-2.2
			c-2.5-1.1-4.1-2.6-4.1-3.9v-6c4.4,2.9,10.9,3.9,16.2,3.9c5.3,0,11.9-1,16.3-3.9V23.4z M49.7,17.2c-9.9,0-16.2-3.5-16.2-6.1
			c0-2.5,6.3-6.1,16.2-6.1C59.6,5,66,8.6,66,11.1C66,13.6,59.6,17.2,49.7,17.2z"/>
	</g>
</g>
</svg>
