<?xml version="1.0" encoding="utf-8"?>
<!-- Generator: Adobe Illustrator 21.0.0, SVG Export Plug-In . SVG Version: 6.00 Build 0)  -->
<svg version="1.1" id="Слой_1" xmlns="http://www.w3.org/2000/svg" xmlns:xlink="http://www.w3.org/1999/xlink" x="0px" y="0px"
	 viewBox="0 0 70 70" style="enable-background:new 0 0 70 70;" xml:space="preserve">
<g>
	<g>
		<path d="M67.2,9.6h-8.3v-3c0-1.1-0.9-2-2-2c-1.1,0-2,0.9-2,2v3H48v-3c0-1.1-0.9-2-2-2c-1.1,0-2,0.9-2,2v3h-6.8v-3c0-1.1-0.9-2-2-2
			c-1.1,0-2,0.9-2,2v3h-6.7v-3c0-1.1-0.9-2-2-2c-1.1,0-2,0.9-2,2v3h-6.8v-3c0-1.1-0.9-2-2-2c-1.1,0-2,0.9-2,2v3H3.1
			c-1.5,0-2.8,1.2-2.8,2.7v51.9c0,1.5,1.2,2.7,2.8,2.7h64.2c1.5,0,2.8-1.2,2.8-2.7V12.3C70,10.8,68.8,9.6,67.2,9.6z M65.9,63H4.4
			V23.1h61.5V63z M65.9,19.1H4.4v-5.5h7v1.6c0,1.1,0.9,2,2,2c1.1,0,2-0.9,2-2v-1.6h6.8v1.6c0,1.1,0.9,2,2,2c1.1,0,2-0.9,2-2v-1.6H33
			v1.6c0,1.1,0.9,2,2,2c1.1,0,2-0.9,2-2v-1.6h6.8v1.6c0,1.1,0.9,2,2,2c1.1,0,2-0.9,2-2v-1.6h6.8v1.6c0,1.1,0.9,2,2,2
			c1.1,0,2-0.9,2-2v-1.6h7V19.1z M13,49.8h3.6c1.1,0,2-0.9,2-2c0-1.1-0.9-2-2-2H13c-1.1,0-2,0.9-2,2C11,48.9,11.9,49.8,13,49.8z
			 M53.4,49.8H57c1.1,0,2-0.9,2-2c0-1.1-0.9-2-2-2h-3.6c-1.1,0-2,0.9-2,2C51.4,48.9,52.3,49.8,53.4,49.8z M39.8,49.8h3.6
			c1.1,0,2-0.9,2-2c0-1.1-0.9-2-2-2h-3.6c-1.1,0-2,0.9-2,2C37.8,48.9,38.7,49.8,39.8,49.8z M26.6,49.8h3.6c1.1,0,2-0.9,2-2
			c0-1.1-0.9-2-2-2h-3.6c-1.1,0-2,0.9-2,2C24.5,48.9,25.4,49.8,26.6,49.8z M13,40.4h3.6c1.1,0,2-0.9,2-2c0-1.1-0.9-2-2-2H13
			c-1.1,0-2,0.9-2,2C11,39.5,11.9,40.4,13,40.4z M53.4,40.4H57c1.1,0,2-0.9,2-2c0-1.1-0.9-2-2-2h-3.6c-1.1,0-2,0.9-2,2
			C51.4,39.5,52.3,40.4,53.4,40.4z M39.8,40.4h3.6c1.1,0,2-0.9,2-2c0-1.1-0.9-2-2-2h-3.6c-1.1,0-2,0.9-2,2
			C37.8,39.5,38.7,40.4,39.8,40.4z M26.6,40.4h3.6c1.1,0,2-0.9,2-2c0-1.1-0.9-2-2-2h-3.6c-1.1,0-2,0.9-2,2
			C24.5,39.5,25.4,40.4,26.6,40.4z M13,31.1h3.6c1.1,0,2-0.9,2-2c0-1.1-0.9-2-2-2H13c-1.1,0-2,0.9-2,2C11,30.2,11.9,31.1,13,31.1z
			 M53.4,31.1H57c1.1,0,2-0.9,2-2c0-1.1-0.9-2-2-2h-3.6c-1.1,0-2,0.9-2,2C51.4,30.2,52.3,31.1,53.4,31.1z M39.8,31.1h3.6
			c1.1,0,2-0.9,2-2c0-1.1-0.9-2-2-2h-3.6c-1.1,0-2,0.9-2,2C37.8,30.2,38.7,31.1,39.8,31.1z M26.6,31.1h3.6c1.1,0,2-0.9,2-2
			c0-1.1-0.9-2-2-2h-3.6c-1.1,0-2,0.9-2,2C24.5,30.2,25.4,31.1,26.6,31.1z M13,59.3h3.6c1.1,0,2-0.9,2-2c0-1.1-0.9-2-2-2H13
			c-1.1,0-2,0.9-2,2C11,58.4,11.9,59.3,13,59.3z M53.4,59.3H57c1.1,0,2-0.9,2-2c0-1.1-0.9-2-2-2h-3.6c-1.1,0-2,0.9-2,2
			C51.4,58.4,52.3,59.3,53.4,59.3z M39.8,59.3h3.6c1.1,0,2-0.9,2-2c0-1.1-0.9-2-2-2h-3.6c-1.1,0-2,0.9-2,2
			C37.8,58.4,38.7,59.3,39.8,59.3z M26.5,59.3h3.6c1.1,0,2-0.9,2-2c0-1.1-0.9-2-2-2h-3.6c-1.1,0-2,0.9-2,2
			C24.5,58.4,25.4,59.3,26.5,59.3z"/>
	</g>
</g>
</svg>
