<?xml version="1.0" encoding="utf-8"?>
<!-- Generator: Adobe Illustrator 21.0.0, SVG Export Plug-In . SVG Version: 6.00 Build 0)  -->
<svg version="1.1" id="Слой_1" xmlns="http://www.w3.org/2000/svg" xmlns:xlink="http://www.w3.org/1999/xlink" x="0px" y="0px"
	 viewBox="0 0 70 70" style="enable-background:new 0 0 70 70;" xml:space="preserve">
<path d="M21.4,56c2.8,3.1,6.8,4.9,11.9,5.4V69h5.9v-7.5c4.6-0.4,8.1-1.9,10.7-4.5c2.6-2.6,3.9-5.9,3.9-9.9c0-3.5-1.1-6.3-3.4-8.3
	c-2.1-2-5.5-3.9-10.1-5.8l-5.7-2.3c-3.6-1.4-6.1-2.8-7.5-4c-1.4-1.3-2.2-3.1-2.2-5.3c0-1.7,0.4-3.1,1.3-4.4c0.8-1.3,2.1-2.2,3.6-2.9
	c1.6-0.7,3.4-1,5.6-1c1.8,0,3.4,0.2,4.8,0.7c1.4,0.5,2.7,1.2,3.8,2.2c1.1,1,1.9,2.2,2.5,3.8c0.6,1.6,0.9,3.4,0.9,5.4h6.1
	c0-4.7-1.3-8.6-3.8-11.6c-2.5-3-6-4.9-10.5-5.6V1h-5.9v6.6c-4.5,0.4-8.1,1.9-10.7,4.6c-2.5,2.6-3.8,5.7-3.8,9.3
	c0,3.8,1.1,6.6,3.2,8.6c2.3,2,6,4,11.2,6.1l5.7,2.3c3.2,1.3,5.4,2.6,6.7,3.9c1.3,1.3,2,3,2,5.1c0,2.7-0.9,4.8-2.8,6.4
	c-1.9,1.6-4.5,2.3-8,2.3c-3.8,0-7.1-1-9.7-3c-2.6-2-4-5.2-4-9.5h-5.9C17.2,48.8,18.6,52.9,21.4,56z"/>
</svg>
