<?xml version="1.0" encoding="utf-8"?>
<!-- Generator: Adobe Illustrator 21.0.0, SVG Export Plug-In . SVG Version: 6.00 Build 0)  -->
<svg version="1.1" id="Слой_1" xmlns="http://www.w3.org/2000/svg" xmlns:xlink="http://www.w3.org/1999/xlink" x="0px" y="0px"
	 viewBox="0 0 70 70" style="enable-background:new 0 0 70 70;" xml:space="preserve">
<style type="text/css">
	.st0{fill:none;}
</style>
<g>
	<path class="st0" d="M1158.5-414.5h-2246v896H-57.6l4,3.7c0.2,0.2,0.4,0.3,0.6,0.3c0.2,0,0.5-0.1,0.6-0.3l4-3.7h1206.9V-414.5z
		 M-53,483.4l-2-1.9h4.1L-53,483.4z"/>
</g>
<g>
	<path class="st0" d="M1158.5-414.5h-2246v896H-57.6l4,3.7c0.2,0.2,0.4,0.3,0.6,0.3c0.2,0,0.5-0.1,0.6-0.3l4-3.7h1206.9V-414.5z
		 M-53,483.4l-2-1.9h4.1L-53,483.4z"/>
</g>
<path d="M55.7,37.7c-2.2,0-4.4,0.2-6.4,0.6C48,35.4,43,34,37.5,33.7v-8.4h6.1c10,0,18.2-8.2,18.2-18.2V3c0-0.8-0.5-1.6-1.2-1.9
	c-0.8-0.3-1.6-0.1-2.2,0.4l-1.7,1.7C55.5,4.4,54,5,52.4,5h-0.7c-7,0-13.1,4-16.2,9.9C32.5,9.1,26.4,5,19.3,5h-0.7
	c-1.6,0-3.1-0.6-4.3-1.8l-1.7-1.7c-0.6-0.6-1.4-0.8-2.2-0.4C9.7,1.5,9.2,2.2,9.2,3v4c0,10,8.2,18.2,18.2,18.2h6.1v8.4
	C28,34,23,35.4,21.7,38.2c-1.9-0.4-4.1-0.6-6.4-0.6C8.2,37.7,1,39.5,1,43.7v8.1v8.1C1,64.1,8.2,66,15.3,66c2.2,0,4.4-0.2,6.4-0.6
	c1.4,3.2,7.7,4.6,13.8,4.6c6.2,0,12.4-1.4,13.8-4.6c1.9,0.4,4.1,0.6,6.4,0.6c7.1,0,14.3-1.9,14.3-6.1v-8.1v-8.1
	C70,39.5,62.8,37.7,55.7,37.7z M51.7,9.1c1.1,0,3.4,0.1,6.1-1.5c-0.3,7.6-6.5,13.7-14.1,13.7h-5.9C38.6,14.4,44.6,9.1,51.7,9.1z
	 M27.4,21.2c-7.6,0-13.9-6.1-14.1-13.7c2.1,1.3,3.9,1.5,6.1,1.5c7.1,0,13,5.3,14,12.1H27.4z M21.3,61.3c-1.8,0.4-3.9,0.6-6.1,0.6
	c-6.1,0-9.6-1.5-10.2-2.2v-3.5c2.7,1.1,6.5,1.6,10.2,1.6c2.1,0,4.2-0.2,6.1-0.5V61.3z M21.3,53.2c-1.8,0.4-3.9,0.6-6.1,0.6
	c-6.1,0-9.6-1.5-10.2-2.2v-3.5c2.7,1.1,6.5,1.6,10.2,1.6c2.1,0,4.2-0.2,6.1-0.5V53.2z M21.3,45.2c-1.8,0.4-3.9,0.6-6.1,0.6
	c-5.6,0-9-1.3-10-2c1-0.8,4.4-2,10-2c2.2,0,4.3,0.2,6.1,0.6V45.2z M35.5,37.7c5.6,0,9,1.3,9.9,2c-0.9,0.7-4.3,2-9.9,2s-9-1.3-9.9-2
	C26.5,38.9,29.9,37.7,35.5,37.7z M45.6,62.9C45.6,62.9,45.6,62.9,45.6,62.9v0.8C45,64.5,41.5,66,35.5,66c-6,0-9.5-1.5-10.1-2.2v-0.8
	c0,0,0,0,0,0v-2.6c2.7,1.1,6.4,1.6,10.1,1.6c3.7,0,7.4-0.5,10.1-1.6V62.9z M45.6,54.8C45.6,54.8,45.6,54.8,45.6,54.8v0.8
	c-0.6,0.7-4.1,2.2-10.1,2.2c-6,0-9.5-1.5-10.1-2.2v-0.8c0,0,0,0,0,0v-2.6c2.7,1.1,6.4,1.6,10.1,1.6c3.7,0,7.4-0.5,10.1-1.6V54.8z
	 M45.6,46.7C45.6,46.8,45.6,46.8,45.6,46.7v0.8c-0.6,0.7-4.1,2.2-10.1,2.2c-6,0-9.5-1.5-10.1-2.2v-0.8c0,0,0,0,0,0v-2.6
	c2.7,1.1,6.4,1.6,10.1,1.6c3.7,0,7.4-0.5,10.1-1.6V46.7z M49.7,42.3c1.8-0.4,3.9-0.6,6.1-0.6c5.6,0,9,1.3,10,2c-1,0.8-4.4,2-10,2
	c-2.2,0-4.3-0.2-6.1-0.6V42.3z M66,59.7c-0.6,0.7-4.1,2.2-10.2,2.2c-2.2,0-4.3-0.2-6.1-0.6v-4c1.9,0.3,3.9,0.5,6.1,0.5
	c3.8,0,7.5-0.5,10.2-1.6V59.7z M66,51.6c-0.6,0.7-4.1,2.2-10.2,2.2c-2.2,0-4.3-0.2-6.1-0.6v-4c1.9,0.3,3.9,0.5,6.1,0.5
	c3.8,0,7.5-0.5,10.2-1.6V51.6z"/>
</svg>
