<?xml version="1.0" encoding="utf-8"?>
<!-- Generator: Adobe Illustrator 21.0.0, SVG Export Plug-In . SVG Version: 6.00 Build 0)  -->
<svg version="1.1" id="Слой_1" xmlns="http://www.w3.org/2000/svg" xmlns:xlink="http://www.w3.org/1999/xlink" x="0px" y="0px"
	 viewBox="0 0 70 70" style="enable-background:new 0 0 70 70;" xml:space="preserve">
<style type="text/css">
	.st0{fill:none;}
</style>
<g>
	<path class="st0" d="M1158.5-414.5h-2246v896H-57.6l4,3.7c0.2,0.2,0.4,0.3,0.6,0.3c0.2,0,0.5-0.1,0.6-0.3l4-3.7h1206.9V-414.5z
		 M-53,483.4l-2-1.9h4.1L-53,483.4z"/>
</g>
<g>
	<path class="st0" d="M1158.5-414.5h-2246v896H-57.6l4,3.7c0.2,0.2,0.4,0.3,0.6,0.3c0.2,0,0.5-0.1,0.6-0.3l4-3.7h1206.9V-414.5z
		 M-53,483.4l-2-1.9h4.1L-53,483.4z"/>
</g>
<g>
	<g>
		<path d="M67.9,49.4h-2.1V4.1h2.1c1.1,0,2.1-0.9,2.1-2.1C70,0.9,69.1,0,67.9,0H2.1C0.9,0,0,0.9,0,2.1c0,1.1,0.9,2.1,2.1,2.1h2.1
			v45.3H2.1c-1.1,0-2.1,0.9-2.1,2.1c0,1.1,0.9,2.1,2.1,2.1h30.9V58c-2.4,0.8-4.1,3.1-4.1,5.8c0,3.4,2.8,6.2,6.2,6.2
			c3.4,0,6.2-2.8,6.2-6.2c0-2.7-1.7-5-4.1-5.8v-4.6h30.9c1.1,0,2.1-0.9,2.1-2.1C70,50.3,69.1,49.4,67.9,49.4z M35,65.9
			c-1.1,0-2.1-0.9-2.1-2.1c0-1.1,0.9-2.1,2.1-2.1c1.1,0,2.1,0.9,2.1,2.1C37.1,65,36.1,65.9,35,65.9z M61.8,49.4H8.2V12.4h53.6V49.4z
			 M61.8,8.3H8.2V4.1h53.6V8.3z M14.5,41.2h2.1v2.1c0,1.1,0.9,2.1,2.1,2.1s2.1-0.9,2.1-2.1v-2.1h18.5c1.1,0,2.1-0.9,2.1-2.1
			c0-1.1-0.9-2.1-2.1-2.1H22.4l4.7-7l2.3,2.3c0.4,0.4,1,0.7,1.7,0.6c0.6-0.1,1.2-0.4,1.5-0.9l8.2-12.3c0.6-0.9,0.4-2.2-0.6-2.8
			c-0.9-0.6-2.2-0.4-2.8,0.6l-6.8,10.2l-2.3-2.3c-0.4-0.4-1-0.7-1.7-0.6c-0.6,0.1-1.2,0.4-1.5,0.9l-4.4,6.7V18.6
			c0-1.1-0.9-2.1-2.1-2.1s-2.1,0.9-2.1,2.1v18.5h-2.1c-1.1,0-2.1,0.9-2.1,2.1C12.4,40.2,13.4,41.2,14.5,41.2z M47.3,24.7h8.2
			c1.1,0,2.1-0.9,2.1-2.1c0-1.1-0.9-2.1-2.1-2.1h-8.2c-1.1,0-2.1,0.9-2.1,2.1C45.3,23.8,46.2,24.7,47.3,24.7z M47.3,32.9h8.2
			c1.1,0,2.1-0.9,2.1-2.1c0-1.1-0.9-2.1-2.1-2.1h-8.2c-1.1,0-2.1,0.9-2.1,2.1C45.3,32,46.2,32.9,47.3,32.9z M47.3,41.2h8.2
			c1.1,0,2.1-0.9,2.1-2.1c0-1.1-0.9-2.1-2.1-2.1h-8.2c-1.1,0-2.1,0.9-2.1,2.1C45.3,40.2,46.2,41.2,47.3,41.2z"/>
	</g>
</g>
</svg>
