<?xml version="1.0" encoding="utf-8"?>
<!-- Generator: Adobe Illustrator 21.0.0, SVG Export Plug-In . SVG Version: 6.00 Build 0)  -->
<svg version="1.1" id="Слой_1" xmlns="http://www.w3.org/2000/svg" xmlns:xlink="http://www.w3.org/1999/xlink" x="0px" y="0px"
	 viewBox="0 0 70 70" style="enable-background:new 0 0 70 70;" xml:space="preserve">
<style type="text/css">
	.st0{fill:none;}
</style>
<g>
	<path class="st0" d="M1158.5-414.5h-2246v896H-57.6l4,3.7c0.2,0.2,0.4,0.3,0.6,0.3c0.2,0,0.5-0.1,0.6-0.3l4-3.7h1206.9V-414.5z
		 M-53,483.4l-2-1.9h4.1L-53,483.4z"/>
</g>
<g>
	<path class="st0" d="M1158.5-414.5h-2246v896H-57.6l4,3.7c0.2,0.2,0.4,0.3,0.6,0.3c0.2,0,0.5-0.1,0.6-0.3l4-3.7h1206.9V-414.5z
		 M-53,483.4l-2-1.9h4.1L-53,483.4z"/>
</g>
<g>
	<g>
		<path d="M35.1,21.6c5.7,0,10.3-4.6,10.3-10.3C45.4,5.6,40.8,1,35.1,1c-5.7,0-10.3,4.6-10.3,10.3C24.9,17,29.5,21.6,35.1,21.6z
			 M35.1,5.1c3.4,0,6.2,2.8,6.2,6.2c0,3.4-2.8,6.2-6.2,6.2c-3.4,0-6.2-2.8-6.2-6.2C29,7.9,31.7,5.1,35.1,5.1z M41.3,29.9
			c0,4.5,3.7,8.2,8.2,8.2c4.5,0,8.2-3.7,8.2-8.2c0-4.5-3.7-8.2-8.2-8.2C45,21.6,41.3,25.3,41.3,29.9z M49.5,25.8
			c2.3,0,4.1,1.9,4.1,4.1c0,2.3-1.8,4.1-4.1,4.1c-2.3,0-4.1-1.9-4.1-4.1C45.4,27.6,47.2,25.8,49.5,25.8z M68.8,46.4
			c-2-2.7-5.8-3.3-8.5-1.3l-10.4,5.5h-0.8c0.2-0.6,0.4-1.3,0.4-2.1c0-3.4-2.8-6.2-6.2-6.2h-7.6L26,35.7c-1.7-1.1-3.7-1.7-5.7-1.7H12
			c-0.8-2.4-3.1-4.1-5.8-4.1H2.1c-1.1,0-2.1,0.9-2.1,2.1v28.9c0,1.1,0.9,2.1,2.1,2.1h4.1c2.3,0,4.4-1.3,5.4-3.2l12.7,6.3
			c1.4,0.7,3,1.1,4.6,1.1h16.5c1.9,0,3.8-0.5,5.4-1.5c17.8-11,16.7-10.3,16.8-10.4C70.3,53,70.8,49.1,68.8,46.4z M8.2,56.7
			c0,1.1-0.9,2.1-2.1,2.1H4.1V34h2.1c1.1,0,2.1,0.9,2.1,2.1V56.7z M65.1,51.7L48.6,62c-1,0.6-2.1,0.9-3.2,0.9H28.9
			c-1,0-1.9-0.2-2.8-0.7c0,0,0,0,0,0l-13.8-6.8V38.1h8c1.2,0,2.4,0.4,3.4,1L34,46c0.3,0.2,0.7,0.3,1.1,0.3h8.2
			c1.1,0,2.1,0.9,2.1,2.1c0,1.1-0.9,2.1-2.1,2.1H26.9c-1.1,0-2.1,0.9-2.1,2.1c0,1.1,0.9,2.1,2.1,2.1h23.5c0.3,0,0.7-0.1,1-0.2
			c11.6-6.1,11-5.8,11.3-5.9c0.9-0.7,2.2-0.5,2.9,0.4C66.2,49.7,66,51,65.1,51.7z"/>
	</g>
</g>
</svg>
