<?xml version="1.0" encoding="utf-8"?>
<!-- Generator: Adobe Illustrator 21.0.0, SVG Export Plug-In . SVG Version: 6.00 Build 0)  -->
<svg version="1.1" id="Слой_1" xmlns="http://www.w3.org/2000/svg" xmlns:xlink="http://www.w3.org/1999/xlink" x="0px" y="0px"
	 viewBox="0 0 70 70" style="enable-background:new 0 0 70 70;" xml:space="preserve">
<path d="M46.9,7.4C45,2.9,41.5,0,37.6,0c-4.2,0-7.4,3.1-9.1,6.8C21,7,13.7,11.4,10.9,19c-2.2,5.9-1.2,12.4,2.6,17.4L5.8,56.7
	c-0.2,0.5-0.2,1.1,0.1,1.6L11,68.8c0.5,1,1.8,1.5,2.8,1l10.9-4.9c1.1-0.5,1.5-1.7,1-2.7l-1.6-3.4l3.5-1.6c1.1-0.5,1.5-1.7,1-2.7
	L27,51.1l3.5-1.6c0.5-0.2,0.9-0.7,1.1-1.2l1.8-5c0.7-0.2,1.3-0.4,2-0.6c0.7,0.2,1.3,0.4,2,0.6l1.8,5c0.2,0.5,0.6,0.9,1.1,1.2
	l3.5,1.6l-1.6,3.4c-0.5,1,0,2.2,1,2.7l3.5,1.6l-1.6,3.4c-0.5,1,0,2.2,1,2.7l10.9,4.9c1.1,0.5,2.3,0,2.8-1L65,58.3
	c0.2-0.5,0.3-1.1,0.1-1.6l-7.6-20.4c3.8-5,4.8-11.5,2.5-17.4C57.7,13.1,52.8,9,46.9,7.4z M37.6,4.1c1.6,0,3.1,1,4.3,2.7
	c-2.1,0-4.3,0.4-6.4,1.1c0,0,0,0,0,0c0,0,0,0,0,0c-0.8-0.3-1.6-0.5-2.4-0.7C34.2,5.3,35.8,4.1,37.6,4.1z M28.3,20.7
	c0.4-1.1,1.6-1.6,2.7-1.2c1.1,0.4,1.7,1.6,1.3,2.6c-0.4,1.1-1.6,1.6-2.7,1.2C28.5,23,27.9,21.8,28.3,20.7z M31.4,39.6
	c-0.8,0.1-1.4,0.6-1.6,1.3l-1.9,5.2l-4.6,2.1c-1.1,0.5-1.5,1.7-1,2.7l1.6,3.4l-3.5,1.6c-1.1,0.5-1.5,1.7-1,2.7l1.6,3.4l-7,3.2
	l-3.8-7.9l7.7-20.7c0.3-0.7,0.1-1.5-0.4-2c-3.4-3.9-4.4-9.4-2.6-14.3c2-5.3,6.9-8.8,12.3-9.4c-0.2,1.1-0.3,2.2-0.3,3.3
	c0,0.6,0,1.2,0.1,1.8c-1.2,0.7-2.2,1.8-2.7,3.2c-1.2,3.2,0.5,6.7,3.8,7.9c3.3,1.2,7-0.5,8.2-3.7c1.2-3.2-0.5-6.7-3.8-7.9
	c-0.4-0.1-0.9-0.3-1.3-0.3c0-0.3,0-0.7,0-1c0-1.1,0.1-2.2,0.3-3.2c0.8,0.1,1.6,0.4,2.4,0.6c7.7,2.7,11.7,11.1,8.9,18.5
	C41,35.1,36.7,38.7,31.4,39.6z M56,20.4c1.8,4.9,0.8,10.3-2.6,14.3c-0.5,0.6-0.6,1.3-0.4,2l7.7,20.7l-3.8,7.9l-7-3.2l1.6-3.4
	c0.5-1,0-2.2-1-2.7L47,54.3l1.6-3.4c0.5-1,0-2.2-1-2.7L43,46.1L41,40.9c-0.1-0.3-0.3-0.6-0.6-0.8c2.9-2.1,5.1-5,6.4-8.3
	c2.9-7.8,0.1-16.1-5.9-20.8c1.3-0.1,2.6,0,3.9,0.2c0,0,0.1,0,0.1,0C49.8,12.2,54.1,15.5,56,20.4z"/>
</svg>
