<?xml version="1.0" encoding="utf-8"?>
<!-- Generator: Adobe Illustrator 21.0.0, SVG Export Plug-In . SVG Version: 6.00 Build 0)  -->
<svg version="1.1" id="Слой_1" xmlns="http://www.w3.org/2000/svg" xmlns:xlink="http://www.w3.org/1999/xlink" x="0px" y="0px"
	 viewBox="0 0 70 70" style="enable-background:new 0 0 70 70;" xml:space="preserve">
<style type="text/css">
	.st0{fill:none;}
</style>
<g>
	<path class="st0" d="M1158.5-414.5h-2246v896H-57.6l4,3.7c0.2,0.2,0.4,0.3,0.6,0.3c0.2,0,0.5-0.1,0.6-0.3l4-3.7h1206.9V-414.5z
		 M-53,483.4l-2-1.9h4.1L-53,483.4z"/>
</g>
<g>
	<path class="st0" d="M1158.5-414.5h-2246v896H-57.6l4,3.7c0.2,0.2,0.4,0.3,0.6,0.3c0.2,0,0.5-0.1,0.6-0.3l4-3.7h1206.9V-414.5z
		 M-53,483.4l-2-1.9h4.1L-53,483.4z"/>
</g>
<g>
	<g>
		<path d="M34.8,0C21.5,0,10.6,11,10.6,24.6c0,4.6,1.3,9.1,3.6,12.9L33.5,69c0.4,0.6,1,1,1.7,1h0c0.7,0,1.4-0.4,1.7-1l18.7-31.8
			c2.2-3.8,3.4-8.2,3.4-12.6C59.1,11,48.2,0,34.8,0z M52.2,35.1L35.2,64L17.7,35.4c-2-3.2-3-7-3-10.8c0-11.3,9.1-20.5,20.2-20.5
			c11.1,0,20.2,9.2,20.2,20.5C55.1,28.3,54.1,31.9,52.2,35.1z M34.8,12.3c-6.7,0-12.1,5.5-12.1,12.3c0,6.7,5.3,12.3,12.1,12.3
			c6.9,0,12.1-5.6,12.1-12.3C47,17.8,41.5,12.3,34.8,12.3z M34.8,32.8c-4.5,0-8.1-3.7-8.1-8.2c0-4.5,3.7-8.2,8.1-8.2
			c4.5,0,8.1,3.7,8.1,8.2C42.9,29.1,39.4,32.8,34.8,32.8z"/>
	</g>
</g>
</svg>
