<?xml version="1.0" encoding="utf-8"?>
<!-- Generator: Adobe Illustrator 21.0.0, SVG Export Plug-In . SVG Version: 6.00 Build 0)  -->
<svg version="1.1" id="Слой_1" xmlns="http://www.w3.org/2000/svg" xmlns:xlink="http://www.w3.org/1999/xlink" x="0px" y="0px"
	 viewBox="0 0 70 70" style="enable-background:new 0 0 70 70;" xml:space="preserve">
<style type="text/css">
	.st0{fill:none;}
</style>
<g>
	<path class="st0" d="M1158.5-414.5h-2246v896H-57.6l4,3.7c0.2,0.2,0.4,0.3,0.6,0.3c0.2,0,0.5-0.1,0.6-0.3l4-3.7h1206.9V-414.5z
		 M-53,483.4l-2-1.9h4.1L-53,483.4z"/>
</g>
<g>
	<path class="st0" d="M1158.5-414.5h-2246v896H-57.6l4,3.7c0.2,0.2,0.4,0.3,0.6,0.3c0.2,0,0.5-0.1,0.6-0.3l4-3.7h1206.9V-414.5z
		 M-53,483.4l-2-1.9h4.1L-53,483.4z"/>
</g>
<path d="M63.9,7.7H6.3c-3.4,0-6.1,2.9-6.1,6.4v42.5c0,3.5,2.7,6.4,6.1,6.4h57.6c3.4,0,6.1-2.9,6.1-6.4V14.1
	C70,10.6,67.3,7.7,63.9,7.7z M63,11.9L35.2,40.9L7.1,11.9H63z M4.2,55.7V14.9l19.7,20.3L4.2,55.7z M7.1,58.7l19.7-20.5l6.9,7.1
	c0.8,0.8,2.1,0.8,2.9,0l6.7-7L63,58.7H7.1z M65.9,55.7L46.3,35.3l19.6-20.4V55.7z"/>
</svg>
