<?xml version="1.0" encoding="utf-8"?>
<!-- Generator: Adobe Illustrator 21.0.0, SVG Export Plug-In . SVG Version: 6.00 Build 0)  -->
<svg version="1.1" id="Слой_1" xmlns="http://www.w3.org/2000/svg" xmlns:xlink="http://www.w3.org/1999/xlink" x="0px" y="0px"
	 viewBox="0 0 70 70" style="enable-background:new 0 0 70 70;" xml:space="preserve">
<style type="text/css">
	.st0{fill:none;}
</style>
<g>
	<path class="st0" d="M1158.5-414.5h-2246v896H-57.6l4,3.7c0.2,0.2,0.4,0.3,0.6,0.3c0.2,0,0.5-0.1,0.6-0.3l4-3.7h1206.9V-414.5z
		 M-53,483.4l-2-1.9h4.1L-53,483.4z"/>
</g>
<g>
	<path class="st0" d="M1158.5-414.5h-2246v896H-57.6l4,3.7c0.2,0.2,0.4,0.3,0.6,0.3c0.2,0,0.5-0.1,0.6-0.3l4-3.7h1206.9V-414.5z
		 M-53,483.4l-2-1.9h4.1L-53,483.4z"/>
</g>
<path d="M1.6,34.3l16,5.8l6.2,19.4c0.4,1.2,2,1.7,3,0.9l8.9-7.1c0.9-0.7,2.3-0.8,3.2-0.1L55,64.6c1.1,0.8,2.7,0.2,3-1.1L69.7,8.2
	c0.3-1.4-1.1-2.6-2.5-2.1L1.6,30.8C0,31.5,0,33.7,1.6,34.3z M22.8,37L54,18.2c0.6-0.3,1.1,0.4,0.7,0.8L28.9,42.5
	c-0.9,0.8-1.5,1.9-1.7,3.1L26.4,52c-0.1,0.8-1.3,0.9-1.6,0.1l-3.4-11.6C21,39.2,21.6,37.7,22.8,37z"/>
</svg>
