<?xml version="1.0" encoding="utf-8"?>
<!-- Generator: Adobe Illustrator 21.0.0, SVG Export Plug-In . SVG Version: 6.00 Build 0)  -->
<svg version="1.1" id="Слой_1" xmlns="http://www.w3.org/2000/svg" xmlns:xlink="http://www.w3.org/1999/xlink" x="0px" y="0px"
	 viewBox="0 0 70 70" style="enable-background:new 0 0 70 70;" xml:space="preserve">
<style type="text/css">
	.st0{fill:none;}
</style>
<g>
	<path class="st0" d="M1158.5-414.5h-2246v896H-57.6l4,3.7c0.2,0.2,0.4,0.3,0.6,0.3c0.2,0,0.5-0.1,0.6-0.3l4-3.7h1206.9V-414.5z
		 M-53,483.4l-2-1.9h4.1L-53,483.4z"/>
</g>
<g>
	<path class="st0" d="M1158.5-414.5h-2246v896H-57.6l4,3.7c0.2,0.2,0.4,0.3,0.6,0.3c0.2,0,0.5-0.1,0.6-0.3l4-3.7h1206.9V-414.5z
		 M-53,483.4l-2-1.9h4.1L-53,483.4z"/>
</g>
<path d="M68.4,50c-0.2-0.3-1.3-2.6-6.8-7.5c-5.7-5.1-5-4.2,1.9-13c4.2-5.3,5.9-8.6,5.4-10c-0.5-1.3-3.6-1-3.6-1L55,18.6
	c0,0-0.8-0.1-1.3,0.2c-0.6,0.3-0.9,1.1-0.9,1.1S51.1,24,49,27.5c-4.6,7.4-6.4,7.8-7.2,7.3c-1.7-1.1-1.3-4.3-1.3-6.6
	c0-7.2,1.1-10.2-2.2-10.9c-1.1-0.3-1.9-0.4-4.8-0.5c-3.7,0-6.8,0-8.5,0.8c-1.2,0.5-2.1,1.8-1.5,1.8c0.7,0.1,2.2,0.4,3,1.5
	c1.1,1.4,1,4.4,1,4.4s0.6,8.4-1.4,9.5c-1.4,0.7-3.3-0.7-7.4-7.5C16.5,24,15,20.2,15,20.2s-0.3-0.7-0.8-1.1c-0.7-0.5-1.6-0.6-1.6-0.6
	l-9.8,0.1c0,0-1.5,0-2,0.6c-0.5,0.5,0,1.7,0,1.7s7.7,17,16.3,25.6c8,7.9,17,7.4,17,7.4h4.1c0,0,1.2-0.1,1.9-0.8
	c0.6-0.6,0.6-1.7,0.6-1.7s-0.1-5.2,2.5-6c2.5-0.8,5.7,5,9.2,7.3c2.6,1.7,4.5,1.3,4.5,1.3l9.1-0.1C65.9,53.8,70.7,53.6,68.4,50z"/>
</svg>
