<?xml version="1.0" encoding="utf-8"?>
<!-- Generator: Adobe Illustrator 21.0.0, SVG Export Plug-In . SVG Version: 6.00 Build 0)  -->
<svg version="1.1" id="Слой_1" xmlns="http://www.w3.org/2000/svg" xmlns:xlink="http://www.w3.org/1999/xlink" x="0px" y="0px"
	 viewBox="0 0 70 70" style="enable-background:new 0 0 70 70;" xml:space="preserve">
<style type="text/css">
	.st0{fill:none;}
</style>
<g>
	<path class="st0" d="M1158.5-414.5h-2246v896H-57.6l4,3.7c0.2,0.2,0.4,0.3,0.6,0.3c0.2,0,0.5-0.1,0.6-0.3l4-3.7h1206.9V-414.5z
		 M-53,483.4l-2-1.9h4.1L-53,483.4z"/>
</g>
<g>
	<path class="st0" d="M1158.5-414.5h-2246v896H-57.6l4,3.7c0.2,0.2,0.4,0.3,0.6,0.3c0.2,0,0.5-0.1,0.6-0.3l4-3.7h1206.9V-414.5z
		 M-53,483.4l-2-1.9h4.1L-53,483.4z"/>
</g>
<path d="M67,16.8c-1.9-3.2-3.9-3.8-8.1-4c-4.2-0.3-14.7-0.4-23.8-0.4c-9.1,0-19.6,0.1-23.8,0.4c-4.2,0.2-6.2,0.8-8.1,4
	C1.3,20,0.3,25.5,0.3,35.2c0,0,0,0,0,0c0,0,0,0,0,0v0c0,9.6,1,15.2,2.9,18.3c1.9,3.2,4,3.8,8.1,4C15.5,57.9,26,58,35.2,58
	c9.1,0,19.6-0.1,23.8-0.4c4.2-0.3,6.2-0.8,8.1-4c2-3.2,3-8.7,3-18.3c0,0,0,0,0,0c0,0,0,0,0,0C70,25.5,69,20,67,16.8z M26.4,47.6
	V22.8l21.8,12.4L26.4,47.6z"/>
</svg>
