<?xml version="1.0" encoding="utf-8"?>
<!-- Generator: Adobe Illustrator 21.0.0, SVG Export Plug-In . SVG Version: 6.00 Build 0)  -->
<svg version="1.1" id="Слой_1" xmlns="http://www.w3.org/2000/svg" xmlns:xlink="http://www.w3.org/1999/xlink" x="0px" y="0px"
	 viewBox="0 0 70 70" style="enable-background:new 0 0 70 70;" xml:space="preserve">
<g>
	<g>
		<path d="M19.3,51.5v8.2c0,0.7,0.4,1.4,1,1.7c0.6,0.4,1.3,0.4,2,0.1l3.1-1.6l3.1,1.6c0.6,0.3,1.4,0.3,2-0.1c0.6-0.4,1-1,1-1.7v-8.2
			c2.4-1.9,4-4.9,4-8.2c0-5.7-4.5-10.3-10.1-10.3c-5.6,0-10.1,4.6-10.1,10.3C15.3,46.7,16.8,49.7,19.3,51.5z M27.3,56.4l-1.1-0.6
			c-0.6-0.3-1.2-0.3-1.8,0l-1.1,0.6v-3c0.7,0.1,1.3,0.2,2,0.2c0.7,0,1.4-0.1,2-0.2V56.4z M25.3,37.2c3.3,0,6,2.8,6,6.2
			c0,3.4-2.7,6.2-6,6.2c-3.3,0-6-2.8-6-6.2C19.3,39.9,22,37.2,25.3,37.2z M61.6,0H9.2c-1.1,0-2,0.9-2,2.1v65.9c0,1.1,0.9,2.1,2,2.1
			h36.3c0.5,0,1.1-0.2,1.4-0.6L63,53c0.4-0.4,0.6-0.9,0.6-1.5V2.1C63.6,0.9,62.7,0,61.6,0z M47.5,63v-9.4h9.2L47.5,63z M59.6,49.5
			H45.5c-1.1,0-2,0.9-2,2.1v14.4H11.2V4.1h48.3V49.5z M17.3,20.8h36.3c1.1,0,2-0.9,2-2.1v-8.5c0-1.1-0.9-2.1-2-2.1H17.3
			c-1.1,0-2,0.9-2,2.1v8.5C15.3,19.9,16.2,20.8,17.3,20.8z M19.3,12.3h32.2v4.4H19.3V12.3z M17.3,29h36.3c1.1,0,2-0.9,2-2.1
			c0-1.1-0.9-2.1-2-2.1H17.3c-1.1,0-2,0.9-2,2.1C15.3,28.1,16.2,29,17.3,29z M53.5,33.1H41.4c-1.1,0-2,0.9-2,2.1
			c0,1.1,0.9,2.1,2,2.1h12.1c1.1,0,2-0.9,2-2.1C55.5,34,54.6,33.1,53.5,33.1z M53.5,41.3H41.4c-1.1,0-2,0.9-2,2.1
			c0,1.1,0.9,2.1,2,2.1h12.1c1.1,0,2-0.9,2-2.1C55.5,42.2,54.6,41.3,53.5,41.3z"/>
	</g>
</g>
</svg>
