<?xml version="1.0" encoding="utf-8"?>
<!-- Generator: Adobe Illustrator 21.0.0, SVG Export Plug-In . SVG Version: 6.00 Build 0)  -->
<svg version="1.1" id="Слой_1" xmlns="http://www.w3.org/2000/svg" xmlns:xlink="http://www.w3.org/1999/xlink" x="0px" y="0px"
	 viewBox="0 0 70 70" style="enable-background:new 0 0 70 70;" xml:space="preserve">
<style type="text/css">
	.st0{fill:none;}
</style>
<g>
	<path class="st0" d="M1158.5-414.5h-2246v896H-57.6l4,3.7c0.2,0.2,0.4,0.3,0.6,0.3c0.2,0,0.5-0.1,0.6-0.3l4-3.7h1206.9V-414.5z
		 M-53,483.4l-2-1.9h4.1L-53,483.4z"/>
</g>
<g>
	<path class="st0" d="M1158.5-414.5h-2246v896H-57.6l4,3.7c0.2,0.2,0.4,0.3,0.6,0.3c0.2,0,0.5-0.1,0.6-0.3l4-3.7h1206.9V-414.5z
		 M-53,483.4l-2-1.9h4.1L-53,483.4z"/>
</g>
<path d="M5.2,64V15.3l29,48.7h4.1V6.4h-4.4v48.8L4.8,6.4H0.7V64H5.2z M70,45.7v-3.5H45.8v3.5H70z M49,32c2.1,2.1,5.1,3.1,8.9,3.1
	c3.8,0,6.8-1,8.9-3.1c2.1-2.1,3.2-4.9,3.2-8.6v-6.6c0-3.6-1.1-6.5-3.2-8.6c-2.1-2.1-5.1-3.1-8.9-3.1c-3.8,0-6.8,1-8.9,3.1
	c-2.1,2.1-3.2,4.9-3.2,8.5v6.6C45.8,27,46.8,29.9,49,32z M49.8,16.3c0-2.3,0.7-4.2,2.2-5.6c1.5-1.4,3.4-2.1,5.9-2.1
	c2.6,0,4.6,0.7,6,2.1c1.4,1.4,2.1,3.3,2.1,5.7V24c0,1.5-0.3,2.9-0.9,4c-0.6,1.2-1.6,2.1-2.8,2.8c-1.2,0.7-2.7,1-4.4,1
	c-2.5,0-4.4-0.7-5.9-2.1c-1.5-1.4-2.2-3.3-2.2-5.6V16.3z"/>
</svg>
