<?xml version="1.0" encoding="utf-8"?>
<!-- Generator: Adobe Illustrator 21.0.0, SVG Export Plug-In . SVG Version: 6.00 Build 0)  -->
<svg version="1.1" id="Слой_1" xmlns="http://www.w3.org/2000/svg" xmlns:xlink="http://www.w3.org/1999/xlink" x="0px" y="0px"
	 viewBox="0 0 70 70" style="enable-background:new 0 0 70 70;" xml:space="preserve">
<g>
	<g>
		<path d="M67.9,28.8c1.1,0,2.1-0.9,2.1-2.1s-0.9-2.1-2.1-2.1h-6.3v-4.1h6.3c1.1,0,2.1-0.9,2.1-2.1s-0.9-2.1-2.1-2.1h-6.3v-2.1
			c0-3.4-2.8-6.2-6.2-6.2h-2.1V2.1c0-1.1-0.9-2.1-2.1-2.1c-1.1,0-2.1,0.9-2.1,2.1v6.3h-4.1V2.1c0-1.1-0.9-2.1-2.1-2.1
			s-2.1,0.9-2.1,2.1v6.3h-4.1V2.1C37.1,0.9,36.1,0,35,0c-1.1,0-2.1,0.9-2.1,2.1v6.3h-4.1V2.1c0-1.1-0.9-2.1-2.1-2.1
			c-1.1,0-2.1,0.9-2.1,2.1v6.3h-4.1V2.1c0-1.1-0.9-2.1-2.1-2.1c-1.1,0-2.1,0.9-2.1,2.1v6.3h-2.1c-3.4,0-6.2,2.8-6.2,6.2v2.1H2.1
			c-1.1,0-2.1,0.9-2.1,2.1s0.9,2.1,2.1,2.1h6.3v4.1H2.1c-1.1,0-2.1,0.9-2.1,2.1s0.9,2.1,2.1,2.1h6.3v4.1H2.1C0.9,32.9,0,33.9,0,35
			c0,1.1,0.9,2.1,2.1,2.1h6.3v4.1H2.1c-1.1,0-2.1,0.9-2.1,2.1c0,1.1,0.9,2.1,2.1,2.1h6.3v4.1H2.1c-1.1,0-2.1,0.9-2.1,2.1
			c0,1.1,0.9,2,2.1,2h6.3v2.1c0,3.4,2.8,6.2,6.2,6.2h2.1v6.3c0,1.1,0.9,2.1,2.1,2.1c1.1,0,2.1-0.9,2.1-2.1v-6.3h4.1v6.3
			c0,1.1,0.9,2.1,2.1,2.1c1.1,0,2.1-0.9,2.1-2.1v-6.3h4.1v6.3c0,1.1,0.9,2.1,2.1,2.1c1.1,0,2.1-0.9,2.1-2.1v-6.3h4.1v6.3
			c0,1.1,0.9,2.1,2.1,2.1s2.1-0.9,2.1-2.1v-6.3h4.1v6.3c0,1.1,0.9,2.1,2.1,2.1c1.1,0,2.1-0.9,2.1-2.1v-6.3h2.1
			c3.4,0,6.2-2.8,6.2-6.2v-2.1h6.3c1.1,0,2.1-0.9,2.1-2c0-1.1-0.9-2.1-2.1-2.1h-6.3v-4.1h6.3c1.1,0,2.1-0.9,2.1-2.1
			c0-1.1-0.9-2.1-2.1-2.1h-6.3v-4.1h6.3c1.1,0,2.1-0.9,2.1-2.1c0-1.1-0.9-2.1-2.1-2.1h-6.3v-4.1H67.9z M57.6,55.5
			c0,1.1-0.9,2.1-2.1,2.1h-41c-1.1,0-2.1-0.9-2.1-2.1v-41c0-1.1,0.9-2.1,2.1-2.1h41c1.1,0,2.1,0.9,2.1,2.1V55.5z M18.6,20.6
			c1.1,0,2.1-0.9,2.1-2.1s-0.9-2.1-2.1-2.1c-1.1,0-2.1,0.9-2.1,2.1S17.5,20.6,18.6,20.6z M18.6,49.4c-1.1,0-2.1,0.9-2.1,2.1
			c0,1.1,0.9,2,2.1,2c1.1,0,2.1-0.9,2.1-2C20.6,50.3,19.7,49.4,18.6,49.4z M51.4,49.4c-1.1,0-2.1,0.9-2.1,2.1c0,1.1,0.9,2,2.1,2
			c1.1,0,2.1-0.9,2.1-2C53.5,50.3,52.5,49.4,51.4,49.4z M51.4,16.5c-1.1,0-2.1,0.9-2.1,2.1s0.9,2.1,2.1,2.1c1.1,0,2.1-0.9,2.1-2.1
			S52.5,16.5,51.4,16.5z M50.5,36.8l-1.2-0.7c0.1-0.8,0.1-1.5,0-2.3l1.2-0.7c1-0.6,1.3-1.8,0.8-2.8l-4.1-7.1c-0.6-1-1.8-1.3-2.8-0.8
			l-1.2,0.7c-0.6-0.4-1.3-0.8-2-1.1v-1.4c0-1.1-0.9-2.1-2.1-2.1h-8.2c-1.1,0-2.1,0.9-2.1,2.1v1.4c-0.7,0.3-1.3,0.7-2,1.1l-1.2-0.7
			c-1-0.6-2.2-0.2-2.8,0.8l-4.1,7.1c-0.6,1-0.2,2.2,0.8,2.8l1.2,0.7c-0.1,0.8-0.1,1.5,0,2.3l-1.2,0.7c-1,0.6-1.3,1.8-0.8,2.8
			l4.1,7.1c0.6,1,1.8,1.3,2.8,0.8l1.2-0.7c0.6,0.4,1.3,0.8,2,1.1v1.4c0,1.1,0.9,2.1,2.1,2.1h8.2c1.1,0,2.1-0.9,2.1-2.1v-1.4
			c0.7-0.3,1.3-0.7,2-1.1l1.2,0.7c1,0.6,2.2,0.2,2.8-0.8l4.1-7.1C51.8,38.7,51.5,37.4,50.5,36.8z M45.1,33.1c0.3,1.4,0.3,2.3,0,3.7
			c-0.2,0.9,0.2,1.7,1,2.1l0.6,0.4l-2.1,3.6L44,42.5c-0.8-0.4-1.7-0.3-2.4,0.2c-1,0.8-2,1.4-3.2,1.9c-0.8,0.3-1.4,1.1-1.4,1.9v0.8
			h-4.1v-0.8c0-0.9-0.5-1.6-1.4-1.9c-1.2-0.4-2.2-1-3.2-1.9c-0.7-0.6-1.6-0.7-2.4-0.2l-0.7,0.4l-2.1-3.6l0.6-0.4
			c0.8-0.4,1.1-1.3,1-2.1c-0.3-1.4-0.3-2.3,0-3.7c0.2-0.9-0.2-1.7-1-2.1l-0.6-0.4l2.1-3.6l0.7,0.4c0.8,0.4,1.7,0.3,2.4-0.2
			c1-0.8,2-1.4,3.2-1.9c0.8-0.3,1.4-1.1,1.4-1.9v-0.8h4.1v0.8c0,0.9,0.5,1.6,1.4,1.9c1.2,0.4,2.2,1,3.2,1.9c0.7,0.6,1.6,0.6,2.4,0.2
			l0.7-0.4l2.1,3.6L46.1,31C45.3,31.4,44.9,32.3,45.1,33.1z M35,28.8c-3.4,0-6.2,2.8-6.2,6.2c0,3.4,2.8,6.2,6.2,6.2
			c3.4,0,6.2-2.8,6.2-6.2C41.2,31.6,38.4,28.8,35,28.8z M35,37.1c-1.1,0-2.1-0.9-2.1-2.1c0-1.1,0.9-2.1,2.1-2.1
			c1.1,0,2.1,0.9,2.1,2.1C37.1,36.1,36.1,37.1,35,37.1z"/>
	</g>
</g>
</svg>
