<?xml version="1.0" encoding="utf-8"?>
<!-- Generator: Adobe Illustrator 21.0.0, SVG Export Plug-In . SVG Version: 6.00 Build 0)  -->
<svg version="1.1" id="Слой_1" xmlns="http://www.w3.org/2000/svg" xmlns:xlink="http://www.w3.org/1999/xlink" x="0px" y="0px"
	 viewBox="0 0 70 70" style="enable-background:new 0 0 70 70;" xml:space="preserve">
<path d="M63.5,2.5H6.6c-3.3,0-6.1,2.7-6.1,6.1v40.6c0,3.4,2.7,6.1,6.1,6.1h17.6l-2.7,8.1h-6.6c-1.1,0-2,0.9-2,2c0,1.1,0.9,2,2,2
	h48.7c3.3,0,6.1-2.7,6.1-6.1c0-1.7,0-51.7,0-52.8C69.6,5.2,66.9,2.5,63.5,2.5z M6.6,51.3c-1.1,0-2-0.9-2-2v-2h36.7v4.1H6.6z
	 M25.7,63.4l2.7-8.1h12.8v6.1c0,0.7,0.1,1.4,0.3,2H25.7z M65.6,61.4c0,1.1-0.9,2-2,2c-1.4,0-14,0-16.2,0c-1.1,0-2-0.9-2-2v-2h20.2
	V61.4z M65.6,55.3H45.3V35h20.2V55.3z M65.6,30.9H45.3v-2c0-1.1,0.9-2,2-2h16.2c1.1,0,2,0.9,2,2V30.9z M65.6,23.2
	c-0.6-0.2-1.3-0.3-2-0.3H47.3c-3.3,0-6.1,2.7-6.1,6.1v14.2H4.6V8.6c0-1.1,0.9-2,2-2h56.9c1.1,0,2,0.9,2,2V23.2z"/>
</svg>
