<?xml version="1.0" encoding="utf-8"?>
<!-- Generator: Adobe Illustrator 21.0.0, SVG Export Plug-In . SVG Version: 6.00 Build 0)  -->
<svg version="1.1" id="Слой_1" xmlns="http://www.w3.org/2000/svg" xmlns:xlink="http://www.w3.org/1999/xlink" x="0px" y="0px"
	 viewBox="0 0 70 70" style="enable-background:new 0 0 70 70;" xml:space="preserve">
<g>
	<g>
		<path d="M12.1,38.3c0-1.2-0.3-2.3-0.9-3.2l3.8-3.8c0.9,0.6,2.1,0.9,3.2,0.9s2.3-0.3,3.2-0.9l3.8,3.8c-0.6,0.9-0.9,2-0.9,3.2
			c0,3.3,2.7,6.1,6.1,6.1c3.3,0,6.1-2.7,6.1-6.1c0-1.2-0.3-2.3-0.9-3.2l24.2-23.9c0.9,0.6,2.1,0.9,3.3,0.9c3.3,0,6.1-2.7,6.1-6.1
			C69,2.7,66.3,0,62.9,0c-3.3,0-6.1,2.7-6.1,6.1c0,0.7,0.1,1.3,0.3,1.9L32.2,32.6c-0.6-0.2-1.2-0.3-1.9-0.3c-0.7,0-1.3,0.1-1.9,0.3
			l-4.5-4.5c0.2-0.6,0.3-1.2,0.3-1.9c0-3.3-2.7-6.1-6.1-6.1c-3.3,0-6.1,2.7-6.1,6.1c0,0.7,0.1,1.3,0.3,1.9L8,32.6
			c-0.6-0.2-1.2-0.3-1.9-0.3C2.7,32.3,0,35,0,38.3c0,3.3,2.7,6.1,6.1,6.1C9.4,44.4,12.1,41.7,12.1,38.3z M62.9,4c1.1,0,2,0.9,2,2
			c0,1.1-0.9,2-2,2c-1.1,0-2-0.9-2-2C60.9,4.9,61.8,4,62.9,4z M30.3,36.3c1.1,0,2,0.9,2,2c0,1.1-0.9,2-2,2c-1.1,0-2-0.9-2-2
			C28.3,37.2,29.2,36.3,30.3,36.3z M18.2,24.2c1.1,0,2,0.9,2,2c0,1.1-0.9,2-2,2c-1.1,0-2-0.9-2-2C16.2,25.1,17.1,24.2,18.2,24.2z
			 M4,38.3c0-1.1,0.9-2,2-2c1.1,0,2,0.9,2,2c0,1.1-0.9,2-2,2C4.9,40.4,4,39.4,4,38.3z M65.6,16.7c-1.9,1.9-34.1,33.8-35.2,34.9
			c-0.2-0.2-10.6-10.6-10.7-10.7c-0.8-0.8-2.1-0.8-2.9,0L4.6,53C4.3,53.4,4,53.9,4,54.5V67c0,1.1,0.9,2,2,2H67c1.1,0,2-0.9,2-2V18.2
			C69,16.4,66.8,15.5,65.6,16.7z M16.2,65H8.1v-9.7l8.1-8.1V65z M28.3,65h-8.1V47.2l8.1,8.1V65z M40.6,65h-8.2v-9.7l8.2-8.1V65z
			 M52.4,65h-7.8V43.2l7.8-7.7V65z M65,65h-8.5V31.5L65,23V65z"/>
	</g>
</g>
</svg>
