<?xml version="1.0" encoding="utf-8"?>
<!-- Generator: Adobe Illustrator 21.0.0, SVG Export Plug-In . SVG Version: 6.00 Build 0)  -->
<svg version="1.1" id="Слой_1" xmlns="http://www.w3.org/2000/svg" xmlns:xlink="http://www.w3.org/1999/xlink" x="0px" y="0px"
	 viewBox="0 0 70 70" style="enable-background:new 0 0 70 70;" xml:space="preserve">
<g>
	<g>
		<path d="M64.1,22C60.7,9.1,49,0,35.5,0C22.1,0,10.4,9.1,6.9,22C3.5,22.6,1,25.6,1,29.1v8.2c0,3.2,2.1,5.9,4.9,6.9v3.4
			c0,10.3,8.4,18.7,18.7,18.7h2.3c0.9,2.2,3.1,3.7,5.6,3.7h6.1c3.3,0,6-2.7,6-6c0-3.3-2.7-6-6-6h-6.1c-2.5,0-4.6,1.5-5.6,3.7h-2.3
			c-7.7,0-14-6.3-14-14v-5.4c0-1.3-1.1-2.3-2.3-2.3c-1.4,0-2.6-1.2-2.6-2.6v-8.2c0-1.4,1.2-2.6,2.6-2.6l0.6,0h0
			c1.1,0,2.1-0.8,2.3-1.9c2.4-11.6,12.6-20,24.4-20c11.8,0,22.1,8.4,24.4,20c0.2,1.1,1.2,1.9,2.3,1.9h0.5c1.4,0,2.6,1.2,2.6,2.6v8.2
			c0,1.4-1.2,2.6-2.6,2.6c-1.3,0-2.3,1-2.3,2.3c0,1.3,1.1,2.3,2.3,2.3c4,0,7.3-3.3,7.3-7.3v-8.2C70,25.6,67.5,22.6,64.1,22z
			 M32.4,62.6h6.1c0.7,0,1.3,0.6,1.3,1.4c0,0.7-0.6,1.3-1.3,1.3h-6.1c-0.7,0-1.3-0.6-1.3-1.3C31.1,63.2,31.7,62.6,32.4,62.6z
			 M35.5,11.3c-12.1,0-22,9.9-22,22c0,12.1,9.9,22,22,22s22-9.9,22-22C57.5,21.1,47.6,11.3,35.5,11.3z M35.5,50.5
			c-9.5,0-17.3-7.8-17.3-17.3C18.2,23.7,26,16,35.5,16s17.3,7.7,17.3,17.3C52.8,42.8,45,50.5,35.5,50.5z"/>
	</g>
</g>
</svg>
