<svg xmlns="http://www.w3.org/2000/svg" width="18" height="26" viewBox="0 0 18 26">
  <defs>
    <style>
      .cls-1 {
        fill: #ffc638;
        fill-rule: evenodd;
      }
    </style>
  </defs>
  <path id="Фигура_64" data-name="Фигура 64" class="cls-1" d="M584,5860a9.081,9.081,0,0,0-9,9.14,9.242,9.242,0,0,0,1.343,4.81l7.145,11.69a0.757,0.757,0,0,0,.637.36h0.006a0.738,0.738,0,0,0,.637-0.37l6.962-11.81a9.225,9.225,0,0,0,1.27-4.68A9.081,9.081,0,0,0,584,5860Zm6.443,13.04-6.329,10.74-6.5-10.64a7.686,7.686,0,0,1-1.128-4,7.508,7.508,0,1,1,15.015,0A7.679,7.679,0,0,1,590.443,5873.04ZM584,5864.57a4.571,4.571,0,1,0,4.5,4.57A4.541,4.541,0,0,0,584,5864.57Zm0,7.63a3.061,3.061,0,1,1,3-3.06A3.041,3.041,0,0,1,584,5872.2Z" transform="translate(-575 -5860)"/>
</svg>
