<svg xmlns="http://www.w3.org/2000/svg" width="187.03" height="19.03" viewBox="0 0 187.03 19.03">
  <defs>
    <style>
      .cls-1 {
        fill: #fff;
        fill-rule: evenodd;
      }
    </style>
  </defs>
  <path id="Фигура_45" data-name="Фигура 45" class="cls-1" d="M1183.38,2775.9h-47.97l5.23-5.22a1.587,1.587,0,0,0-2.25-2.24l-7.95,7.93a1.581,1.581,0,0,0,0,2.24l7.95,7.92a1.6,1.6,0,0,0,1.13.47,1.59,1.59,0,0,0,1.12-2.71l-5.23-5.22h47.97A1.585,1.585,0,1,0,1183.38,2775.9Zm125.2-7.46a1.587,1.587,0,0,0-2.25,2.24l5.24,5.22H1263.6a1.585,1.585,0,1,0,0,3.17h47.97l-5.24,5.22a1.593,1.593,0,0,0,0,2.25,1.606,1.606,0,0,0,2.25,0l7.95-7.93a1.564,1.564,0,0,0,0-2.24Z" transform="translate(-1129.97 -2767.97)"/>
</svg>
