<svg xmlns="http://www.w3.org/2000/svg" width="68" height="68" viewBox="0 0 68 68">
  <defs>
    <style>
      .cls-1 {
        fill: #fff;
        fill-rule: evenodd;
      }
    </style>
  </defs>
  <path id="Фигура_56" data-name="Фигура 56" class="cls-1" d="M1247.04,2319.96a34,34,0,1,0-24.41,58.04H1223A34,34,0,0,0,1247.04,2319.96Zm-26.31,53.97a29.788,29.788,0,0,1-17.5-7.34l42.36-42.36a29.788,29.788,0,0,1,7.34,17.5A33.963,33.963,0,0,0,1220.73,2373.93Zm-27.66-27.66a33.906,33.906,0,0,0,22.29-9.91,33.775,33.775,0,0,0,9.91-22.29,29.761,29.761,0,0,1,17.5,7.34l-42.36,42.36A29.761,29.761,0,0,1,1193.07,2346.27Zm8.71-23.49a29.786,29.786,0,0,1,19.51-8.75,30.046,30.046,0,0,1-28.26,28.26A29.786,29.786,0,0,1,1201.78,2322.78Zm42.44,42.44a29.783,29.783,0,0,1-19.5,8.75,30.006,30.006,0,0,1,28.25-28.25A29.783,29.783,0,0,1,1244.22,2365.22Z" transform="translate(-1189 -2310)"/>
</svg>
