<svg xmlns="http://www.w3.org/2000/svg" width="65" height="65" viewBox="0 0 65 65">
  <defs>
    <style>
      .cls-1 {
        fill: #fff;
        fill-rule: evenodd;
      }
    </style>
  </defs>
  <path id="Фигура_59" data-name="Фигура 59" class="cls-1" d="M1017.48,2557.52a32.5,32.5,0,1,0,9.52,22.98A32.284,32.284,0,0,0,1017.48,2557.52Zm-2.81,2.59a28.677,28.677,0,0,1-40.336,0A28.653,28.653,0,0,1,1014.67,2560.11Zm-42.864,2.86a32.484,32.484,0,0,0,45.384,0,28.608,28.608,0,0,1,0,35.06,32.484,32.484,0,0,0-45.384,0A28.62,28.62,0,0,1,971.806,2562.97Zm2.528,37.92a28.677,28.677,0,0,1,40.336,0A28.653,28.653,0,0,1,974.334,2600.89Z" transform="translate(-962 -2548)"/>
</svg>
