<svg xmlns="http://www.w3.org/2000/svg" width="76" height="60" viewBox="0 0 76 60">
  <defs>
    <style>
      .cls-1 {
        fill: #102831;
        fill-rule: evenodd;
      }
    </style>
  </defs>
  <path id="Фигура_57" data-name="Фигура 57" class="cls-1" d="M1494.97,2319.54a2.117,2.117,0,0,0-2.9.73h0l-5.96,9.94h-7.02l7.8-13.02h0a2.112,2.112,0,0,0-3.63-2.16l-23.11,38.54a12.346,12.346,0,0,1-10.56,5.98h-20.67a3.67,3.67,0,0,0-2.93,1.48l-5.29,7.2a3.627,3.627,0,0,0,2.94,5.77h31.77a16.639,16.639,0,0,0,14.2-8.03l26.09-43.54A2.105,2.105,0,0,0,1494.97,2319.54Zm-39.56,50.24h-30.6l4.42-6.01h20.36a16.639,16.639,0,0,0,14.2-8.03l7.83-13.08h7.03l-12.67,21.14A12.375,12.375,0,0,1,1455.41,2369.78Zm25.77-31.33h-7.03l2.41-4.02h7.03Zm-41.04,17.85c5.78,0,12.53-1.42,12.53-5.45v-6.52c0-4.02-6.75-5.45-12.53-5.45s-12.52,1.43-12.52,5.45v6.52C1427.62,2354.88,1434.37,2356.3,1440.14,2356.3Zm0-4.21c-4.55,0-7.51-.99-8.29-1.59v-1.89a29.954,29.954,0,0,0,16.58,0v1.89C1447.66,2351.1,1444.69,2352.09,1440.14,2352.09Zm7.66-7.76a24.467,24.467,0,0,1-15.32,0A24.467,24.467,0,0,1,1447.8,2344.33Z" transform="translate(-1420 -2314)"/>
</svg>
