<svg xmlns="http://www.w3.org/2000/svg" width="62" height="62" viewBox="0 0 62 62">
  <defs>
    <style>
      .cls-1 {
        fill: #fff;
        fill-rule: evenodd;
      }
    </style>
  </defs>
  <path id="Фигура_58" data-name="Фигура 58" class="cls-1" d="M1255.44,2562.53a18.2,18.2,0,0,0-4.88-9.09c-3.55-3.56-8.5-5.44-14.31-5.44a33.264,33.264,0,0,0-11.46,2.2c-0.02.01-.05,0.02-0.07,0.03a48.891,48.891,0,0,0-17.19,11.3c-6.73,6.74-11.32,14.85-12.92,22.84a26.793,26.793,0,0,0-.05,11.1,18.2,18.2,0,0,0,4.88,9.09c3.55,3.56,8.5,5.44,14.31,5.44h0a33.255,33.255,0,0,0,11.49-2.21c0.01-.01.02-0.01,0.03-0.02a48.837,48.837,0,0,0,17.2-11.3c6.73-6.74,11.32-14.85,12.92-22.84A26.793,26.793,0,0,0,1255.44,2562.53Zm-3.61,10.39c-0.15.76-.34,1.52-0.55,2.28l-9.96-9.96,7.87-7.86C1252.14,2561.23,1253.08,2566.67,1251.83,2572.92Zm-5.21-18.11-7.86,7.86-9.97-9.96a27.688,27.688,0,0,1,7.46-1.08A16.755,16.755,0,0,1,1246.62,2554.81Zm-36.52,9.29a45.664,45.664,0,0,1,14.87-10.08l11.22,11.22-4.31,4.31-2.16-2.15a1.817,1.817,0,0,0-2.57,0,1.835,1.835,0,0,0,0,2.57l2.16,2.15-4.31,4.31-2.16-2.15a1.81,1.81,0,0,0-2.56,2.56l2.15,2.16-4.31,4.31-2.15-2.15a1.814,1.814,0,1,0-2.57,2.56l2.15,2.16-4.31,4.31-11.22-11.22A45.454,45.454,0,0,1,1210.1,2564.1Zm-11.93,20.98c0.15-.76.34-1.52,0.55-2.28l9.96,9.96-7.87,7.86C1197.86,2596.77,1196.92,2591.33,1198.17,2585.08Zm15.58,21.29a16.819,16.819,0,0,1-10.37-3.18l7.86-7.86,9.97,9.96A27.745,27.745,0,0,1,1213.75,2606.37Zm26.15-12.47a45.664,45.664,0,0,1-14.87,10.08l-11.22-11.22,4.31-4.31,2.16,2.15a1.811,1.811,0,0,0,2.56,0,1.826,1.826,0,0,0,.01-2.57l-2.16-2.15,4.31-4.31,2.15,2.15a1.81,1.81,0,0,0,1.29.54,1.82,1.82,0,0,0,1.28-3.1l-2.15-2.16,4.31-4.31,2.15,2.16a1.842,1.842,0,0,0,1.29.53,1.815,1.815,0,0,0,1.28-3.1l-2.15-2.16,4.3-4.31,11.23,11.22A45.61,45.61,0,0,1,1239.9,2593.9Z" transform="translate(-1194 -2548)"/>
</svg>
