<svg xmlns="http://www.w3.org/2000/svg" width="65.97" height="66" viewBox="0 0 65.97 66">
  <defs>
    <style>
      .cls-1 {
        fill: #fff;
        fill-rule: evenodd;
      }
    </style>
  </defs>
  <path id="Фигура_60" data-name="Фигура 60" class="cls-1" d="M1487.89,2561.3a1.96,1.96,0,0,0-1.59-1.3l-8.29-1.11-1.39-8.25a1.955,1.955,0,0,0-3.33-1.05l-3.73,3.83a32.585,32.585,0,1,0,13.95,13.95l3.93-4.06A1.962,1.962,0,0,0,1487.89,2561.3Zm-9.84,6.06-7.32-.98-1.22-7.29,3.89-3.99,0.98,5.86a1.952,1.952,0,0,0,1.67,1.62l5.87,0.79Zm-52.13,15.03a28.651,28.651,0,0,1,40.75-26l-0.66.67a1.973,1.973,0,0,0-.53,1.7l0.8,4.8a22.233,22.233,0,1,0,7.12,7.14l5.11,0.68a2.275,2.275,0,0,0,.26.02,1.97,1.97,0,0,0,1.4-.6l0.42-.43A28.662,28.662,0,1,1,1425.92,2582.39Zm35.85,0a7.19,7.19,0,1,1-7.19-7.19,7.062,7.062,0,0,1,3.54.94l-4.92,4.86a1.962,1.962,0,0,0,2.76,2.79l4.92-4.86A7.235,7.235,0,0,1,1461.77,2582.39Zm-0.79-9.07a10.987,10.987,0,0,0-6.4-2.04,11.12,11.12,0,1,0,9.16,4.83l5.13-5.06a18.371,18.371,0,1,1-2.76-2.79Z" transform="translate(-1422 -2549)"/>
</svg>
