<svg xmlns="http://www.w3.org/2000/svg" width="69" height="69" viewBox="0 0 69 69">
  <defs>
    <style>
      .cls-1 {
        fill: #fff;
        fill-rule: evenodd;
      }
    </style>
  </defs>
  <path id="Фигура_46" data-name="Фигура 46" class="cls-1" d="M1018.9,2319.1a34.5,34.5,0,1,0,10.11,24.4A34.273,34.273,0,0,0,1018.9,2319.1Zm1.28,40.77h-11.36l-5.36-6.5,3.51-10.8,8.9-3.79,9.04,6.57A30.194,30.194,0,0,1,1020.18,2359.87Zm-40,0-11.359.01a30.307,30.307,0,0,1-4.727-14.53l9.041-6.57,8.9,3.79,3.509,10.8ZM968.1,2328.32l2.4,7.38-6.289,4.57A30.209,30.209,0,0,1,968.1,2328.32Zm21.181,23.46-3.229-9.94,8.452-6.14,8.45,6.14-3.227,9.94H989.277Zm29.223-16.08,2.41-7.41a30.028,30.028,0,0,1,3.88,11.98Zm-0.49-11.57-3.52,10.84-8.9,3.79-9.068-6.59v-10.38l9.148-6.65a30.265,30.265,0,0,1,10.37,6.82A28.777,28.777,0,0,1,1018.01,2324.13Zm-17.21-10.44-6.3,4.57-6.29-4.57a30.326,30.326,0,0,1,6.29-.65A30.688,30.688,0,0,1,1000.8,2313.69Zm-17.458,1.46,9.136,6.64v10.38l-9.069,6.59-8.9-3.79-3.519-10.83A30.634,30.634,0,0,1,983.342,2315.15Zm-11.43,48.77h7.753l2.4,7.39A30.657,30.657,0,0,1,971.912,2363.92Zm14.953,9.08-3.466-10.67,5.363-6.51h11.478l5.36,6.51-3.47,10.67A30.821,30.821,0,0,1,986.865,2373Zm20.065-1.69,2.41-7.39h7.75A30.609,30.609,0,0,1,1006.93,2371.31Z" transform="translate(-960 -2309)"/>
</svg>
