<svg xmlns="http://www.w3.org/2000/svg" width="38" height="34" viewBox="0 0 38 34">
  <defs>
    <style>
      .cls-1 {
        fill: #fec538;
        fill-rule: evenodd;
      }
    </style>
  </defs>
  <path id="Фигура_53" data-name="Фигура 53" class="cls-1" d="M414.491,2679.72h-4.54v-1.63a1.113,1.113,0,0,0-2.226,0v1.63h-3.711v-1.63a1.114,1.114,0,0,0-2.227,0v1.63h-3.711v-1.63a1.113,1.113,0,0,0-2.226,0v1.63h-3.637v-1.63a1.114,1.114,0,0,0-2.227,0v1.63h-3.711v-1.63a1.113,1.113,0,0,0-2.226,0v1.63h-4.54A1.5,1.5,0,0,0,378,2681.2v28.32a1.494,1.494,0,0,0,1.509,1.48h34.982a1.494,1.494,0,0,0,1.509-1.48V2681.2A1.5,1.5,0,0,0,414.491,2679.72Zm-30.442,2.19v0.89a1.113,1.113,0,0,0,2.226,0v-0.89h3.711v0.89a1.114,1.114,0,0,0,2.227,0v-0.89h3.637v0.89a1.113,1.113,0,0,0,2.226,0v-0.89h3.711v0.89a1.114,1.114,0,0,0,2.227,0v-0.89h3.711v0.89a1.113,1.113,0,0,0,2.226,0v-0.89h3.822v2.97H380.227v-2.97h3.822Zm-3.822,26.9v-21.74h33.546v21.74H380.227Zm6.676-9.38H384.93a1.1,1.1,0,1,0,0,2.19H386.9A1.1,1.1,0,1,0,386.9,2699.43Zm22.029,0h-1.973a1.1,1.1,0,1,0,0,2.19h1.973A1.1,1.1,0,1,0,408.932,2699.43Zm-7.405,0h-1.973a1.1,1.1,0,1,0,0,2.19h1.973A1.1,1.1,0,1,0,401.527,2699.43Zm-7.239,0h-1.974a1.1,1.1,0,1,0,0,2.19h1.974A1.1,1.1,0,1,0,394.288,2699.43Zm-7.385-5.1H384.93a1.1,1.1,0,1,0,0,2.19H386.9A1.1,1.1,0,1,0,386.9,2694.33Zm22.029,0h-1.973a1.1,1.1,0,1,0,0,2.19h1.973A1.1,1.1,0,1,0,408.932,2694.33Zm-7.405,0h-1.973a1.1,1.1,0,1,0,0,2.19h1.973A1.1,1.1,0,1,0,401.527,2694.33Zm-7.239,0h-1.974a1.1,1.1,0,1,0,0,2.19h1.974A1.1,1.1,0,1,0,394.288,2694.33Zm-7.385-5.1H384.93a1.1,1.1,0,1,0,0,2.19H386.9A1.1,1.1,0,1,0,386.9,2689.23Zm22.029,0h-1.973a1.1,1.1,0,1,0,0,2.19h1.973A1.1,1.1,0,1,0,408.932,2689.23Zm-7.405,0h-1.973a1.1,1.1,0,1,0,0,2.19h1.973A1.1,1.1,0,1,0,401.527,2689.23Zm-7.239,0h-1.974a1.1,1.1,0,1,0,0,2.19h1.974A1.1,1.1,0,1,0,394.288,2689.23Zm-7.39,15.36h-1.974a1.1,1.1,0,1,0,0,2.19H386.9A1.1,1.1,0,1,0,386.9,2704.59Zm22.029,0h-1.973a1.1,1.1,0,1,0,0,2.19h1.973A1.1,1.1,0,1,0,408.927,2704.59Zm-7.405,0h-1.973a1.1,1.1,0,1,0,0,2.19h1.973A1.1,1.1,0,1,0,401.522,2704.59Zm-7.24,0h-1.973a1.1,1.1,0,1,0,0,2.19h1.973A1.1,1.1,0,1,0,394.282,2704.59Z" transform="translate(-378 -2677)"/>
</svg>
