<svg xmlns="http://www.w3.org/2000/svg" width="20" height="20" viewBox="0 0 20 20">
  <defs>
    <style>
      .cls-1 {
        fill: #fff;
        fill-rule: evenodd;
      }
    </style>
  </defs>
  <path id="Фигура_49" data-name="Фигура 49" class="cls-1" d="M711.071,30.929A10,10,0,1,0,714,38,9.935,9.935,0,0,0,711.071,30.929ZM704,46.8a8.8,8.8,0,1,1,8.8-8.8A8.806,8.806,0,0,1,704,46.8Zm0-16.1a7.3,7.3,0,1,0,7.3,7.3A7.308,7.308,0,0,0,704,30.7Zm0,13.4a6.1,6.1,0,1,1,6.1-6.1A6.1,6.1,0,0,1,704,44.1Zm0.6-6.346v-3.8a0.6,0.6,0,0,0-1.2,0V37.88a0.989,0.989,0,0,0,.177.546l2.807,2.807a0.6,0.6,0,0,0,.851-0.851Z" transform="translate(-694 -28)"/>
</svg>
