<svg xmlns="http://www.w3.org/2000/svg" width="24" height="19" viewBox="0 0 24 19">
  <defs>
    <style>
      .cls-1 {
        fill: #ffc638;
        fill-rule: evenodd;
      }
    </style>
  </defs>
  <path id="Фигура_63" data-name="Фигура 63" class="cls-1" d="M595.891,6033H576.109a2.153,2.153,0,0,0-2.109,2.19v14.62a2.157,2.157,0,0,0,2.109,2.19h19.782a2.155,2.155,0,0,0,2.109-2.19v-14.62A2.157,2.157,0,0,0,595.891,6033Zm-0.292,1.46-9.554,9.93-9.638-9.93H595.6Zm-20.193,15.05v-14.02l6.773,6.98Zm1,1.03,6.776-7.04,2.375,2.44a0.682,0.682,0,0,0,.992,0l2.315-2.41,6.74,7.01H576.4Zm20.193-1.03-6.74-7.01,6.74-7.01v14.02Z" transform="translate(-574 -6033)"/>
</svg>
