<svg xmlns="http://www.w3.org/2000/svg" width="38" height="38" viewBox="0 0 38 38">
  <defs>
    <style>
      .cls-1 {
        fill: #fec538;
        fill-rule: evenodd;
      }
    </style>
  </defs>
  <path id="Фигура_54" data-name="Фигура 54" class="cls-1" d="M390.246,2620.64a1.179,1.179,0,0,1-1.113-1.19,1.115,1.115,0,0,1,.732-1.04,1.7,1.7,0,0,1,1.826.77,1.113,1.113,0,1,0,1.705-1.43,4.632,4.632,0,0,0-2.037-1.46V2615a1.113,1.113,0,0,0-2.226,0v1.3a0.037,0.037,0,0,1-.03.01,3.353,3.353,0,0,0-2.2,3.14,3.41,3.41,0,0,0,.961,2.38,3.264,3.264,0,0,0,2.379,1.04,1.114,1.114,0,0,1,.434,2.14,1.522,1.522,0,0,1-1.638-.5,1.113,1.113,0,0,0-1.549,1.6,4.42,4.42,0,0,0,1.64,1.03v1.29a1.113,1.113,0,1,0,2.226,0v-1.3A3.341,3.341,0,0,0,390.246,2620.64Zm22.117-23.24a19.359,19.359,0,0,0-7.57-1.4c-5.8,0-11.133,2.13-11.133,5.57v8.35a12.28,12.28,0,1,0,2.9,22.34,18,18,0,0,0,8.234,1.74,19.359,19.359,0,0,0,7.57-1.4c2.345-1.03,3.637-2.51,3.637-4.17v-26.86C416,2599.91,414.708,2598.43,412.363,2597.4Zm-22.117,34.37a10.055,10.055,0,1,1,10.094-10.02A10.027,10.027,0,0,1,390.246,2631.77Zm23.527-3.34c0,1.37-3.5,3.34-8.98,3.34a17.453,17.453,0,0,1-6.207-1.03,4.452,4.452,0,0,0,.349-0.33,12.214,12.214,0,0,0,2.41-3.35,22.723,22.723,0,0,0,3.448.26c2.927,0,6.558-.57,8.98-2.15v3.26Zm0-6.68c0,1.37-3.5,3.34-8.98,3.34a20.74,20.74,0,0,1-2.647-.16,12.258,12.258,0,0,0,.351-4.48,21.659,21.659,0,0,0,2.3.12c2.928,0,6.558-.57,8.98-2.16v3.34Zm0-6.75c0,1.36-3.5,3.34-8.98,3.34a20.765,20.765,0,0,1-2.766-.18,12.361,12.361,0,0,0-3.037-5.05,20.715,20.715,0,0,0,5.8.78c2.928,0,6.558-.57,8.98-2.16V2615Zm0-6.68c0,1.36-3.5,3.34-8.98,3.34a16.824,16.824,0,0,1-6.633-1.21c-1.4-.62-2.273-1.44-2.273-2.13v-3.33c2.41,1.58,6.009,2.14,8.906,2.14,2.928,0,6.558-.57,8.98-2.15v3.34Zm-8.98-3.41c-5.438,0-8.906-1.95-8.906-3.34s3.477-3.34,8.906-3.34c5.482,0,8.98,1.97,8.98,3.34S410.275,2604.91,404.793,2604.91Z" transform="translate(-378 -2596)"/>
</svg>
