<svg xmlns="http://www.w3.org/2000/svg" width="38" height="34" viewBox="0 0 38 34">
  <defs>
    <style>
      .cls-1 {
        fill: #fec538;
        fill-rule: evenodd;
      }
    </style>
  </defs>
  <path id="Фигура_55" data-name="Фигура 55" class="cls-1" d="M414.852,2520h-35.7a1.142,1.142,0,0,0-1.148,1.13v31.74a1.142,1.142,0,0,0,1.148,1.13h35.7a1.142,1.142,0,0,0,1.148-1.13v-31.74A1.142,1.142,0,0,0,414.852,2520Zm-1.148,31.73H380.3V2529.3H413.7v22.43ZM380.3,2522.27H413.7v4.76H380.3v-4.76Zm16.7,1.25H382.8a1.13,1.13,0,1,0,0,2.26H397A1.13,1.13,0,1,0,397,2523.52Zm10.231,0a1.13,1.13,0,1,0,1.148,1.13A1.135,1.135,0,0,0,407.231,2523.52Zm3.368,0a1.13,1.13,0,1,0,1.148,1.13A1.136,1.136,0,0,0,410.6,2523.52Zm-18.25,16.4a4.025,4.025,0,1,0-4.081-4.02A4.048,4.048,0,0,0,392.349,2539.92Zm0-5.79a1.765,1.765,0,1,1-1.785,1.77A1.777,1.777,0,0,1,392.349,2534.13Zm5.22,10.95a4.082,4.082,0,1,0,4.082-4.03A4.046,4.046,0,0,0,397.569,2545.08Zm5.867,0a1.786,1.786,0,1,1-1.785-1.77A1.778,1.778,0,0,1,403.436,2545.08Zm-12.175,1.07a1.164,1.164,0,0,0,1.624,0l9.854-9.73a1.12,1.12,0,0,0,0-1.6,1.164,1.164,0,0,0-1.624,0l-9.854,9.73A1.12,1.12,0,0,0,391.261,2546.15Z" transform="translate(-378 -2520)"/>
</svg>
