<svg xmlns="http://www.w3.org/2000/svg" width="17" height="20.031" viewBox="0 0 17 20.031">
  <defs>
    <style>
      .cls-1 {
        fill-rule: evenodd;
      }
    </style>
  </defs>
  <path id="Фигура_48" data-name="Фигура 48" class="cls-1" d="M981.773,29.124A3.033,3.033,0,0,0,979.107,27a2.963,2.963,0,0,0-2.591,1.948,5.458,5.458,0,0,0-5.024,3.472,5.18,5.18,0,0,0,.728,4.962l-2.184,5.829a0.565,0.565,0,0,0,.02.447l1.452,3a0.617,0.617,0,0,0,.807.284l3.113-1.4a0.577,0.577,0,0,0,.293-0.779l-0.469-.971,1.006-.452a0.578,0.578,0,0,0,.294-0.779l-0.469-.971,1.006-.453A0.593,0.593,0,0,0,977.4,40.8l0.524-1.421a1.05,1.05,0,0,1,1.144,0L979.6,40.8a0.6,0.6,0,0,0,.316.335l1.006,0.453-0.469.971a0.578,0.578,0,0,0,.294.779l1.006,0.452-0.47.971a0.578,0.578,0,0,0,.294.779l3.113,1.4a0.617,0.617,0,0,0,.807-0.284l1.452-3a0.569,0.569,0,0,0,.02-0.447l-2.184-5.829a5.18,5.18,0,0,0,.728-4.962A5.38,5.38,0,0,0,981.773,29.124Zm-2.666-.952a1.546,1.546,0,0,1,1.218.775,5.654,5.654,0,0,0-1.821.32l0,0,0,0a5.822,5.822,0,0,0-.689-0.194A1.61,1.61,0,0,1,979.107,28.172Zm-2.635,4.75a0.613,0.613,0,0,1,.778-0.351,0.582,0.582,0,0,1,.363.751,0.614,0.614,0,0,1-.778.351A0.58,0.58,0,0,1,976.472,32.921Zm0.892,5.38a0.6,0.6,0,0,0-.466.38l-0.552,1.5-1.327.6a0.578,0.578,0,0,0-.293.779l0.469,0.971-1.006.453a0.577,0.577,0,0,0-.294.779l0.469,0.971-2.012.906-1.089-2.254,2.214-5.907a0.571,0.571,0,0,0-.106-0.575,4.041,4.041,0,0,1-.738-4.079,4.228,4.228,0,0,1,3.52-2.675,5.579,5.579,0,0,0-.081.957c0,0.174.008,0.346,0.023,0.518a1.757,1.757,0,0,0-.764.9,1.74,1.74,0,0,0,1.088,2.253,1.84,1.84,0,0,0,2.335-1.05,1.74,1.74,0,0,0-1.089-2.253,1.86,1.86,0,0,0-.37-0.089c0-.093-0.009-0.186-0.009-0.279a4.457,4.457,0,0,1,.1-0.917,4.453,4.453,0,0,1,.7.183,4.1,4.1,0,0,1,2.54,5.3A4.23,4.23,0,0,1,977.364,38.3Zm7-5.482a4.041,4.041,0,0,1-.738,4.079,0.569,0.569,0,0,0-.105.575l2.213,5.907-1.089,2.254-2.012-.906,0.469-.971a0.577,0.577,0,0,0-.293-0.779l-1.007-.453,0.469-.971a0.577,0.577,0,0,0-.293-0.779l-1.326-.6-0.553-1.5a0.587,0.587,0,0,0-.159-0.233,5.292,5.292,0,0,0,1.819-2.384,5.215,5.215,0,0,0-1.69-5.936,4.356,4.356,0,0,1,1.1.063l0.036,0.007A4.2,4.2,0,0,1,984.367,32.82Z" transform="translate(-970 -27)"/>
</svg>
