<svg xmlns="http://www.w3.org/2000/svg" width="29" height="36" viewBox="0 0 29 36">
  <defs>
    <style>
      .cls-1 {
        fill: #fff;
        fill-rule: evenodd;
      }
    </style>
  </defs>
  <path id="Фигура_42" data-name="Фигура 42" class="cls-1" d="M1239.32,1581.01a5.294,5.294,0,0,0-3.11,9.5v4.23a1.039,1.039,0,0,0,.49.89,1.013,1.013,0,0,0,1.01.05l1.61-.82,1.61,0.82a1.014,1.014,0,0,0,1.01-.05,1.063,1.063,0,0,0,.49-0.89v-4.23a5.311,5.311,0,0,0,2.07-4.22A5.242,5.242,0,0,0,1239.32,1581.01Zm1.03,12.02-0.57-.29a1.017,1.017,0,0,0-.93,0l-0.57.29v-1.57a5.1,5.1,0,0,0,1.04.11,5,5,0,0,0,1.03-.11v1.57Zm-1.03-3.57a3.165,3.165,0,1,1,3.11-3.17A3.139,3.139,0,0,1,1239.32,1589.46Zm-8.3-25.47a1.039,1.039,0,0,0-1.03,1.05v33.92a1.039,1.039,0,0,0,1.03,1.05h18.66a1.037,1.037,0,0,0,.74-0.31l8.29-8.44a1.058,1.058,0,0,0,.3-0.75v-25.47a1.039,1.039,0,0,0-1.03-1.05h-26.96Zm1.04,2.11h24.88v23.36h-7.26a1.039,1.039,0,0,0-1.03,1.05v7.39h-16.59v-31.8Zm23.41,25.47-4.75,4.84v-4.84h4.75Zm-20.3-16.89h18.66a1.048,1.048,0,0,0,1.04-1.05v-4.37a1.048,1.048,0,0,0-1.04-1.05h-18.66a1.048,1.048,0,0,0-1.04,1.05v4.37A1.048,1.048,0,0,0,1235.17,1574.68Zm1.04-4.36h16.58v2.25h-16.58v-2.25Zm-1.04,8.58h18.66a1.055,1.055,0,0,0,0-2.11h-18.66A1.055,1.055,0,0,0,1235.17,1578.9Zm18.66,2.11h-6.22a1.06,1.06,0,0,0,0,2.12h6.22A1.06,1.06,0,0,0,1253.83,1581.01Zm0,6.34a1.055,1.055,0,0,0,0-2.11h-6.22a1.055,1.055,0,0,0,0,2.11h6.22Z" transform="translate(-1230 -1564)"/>
</svg>
