<svg xmlns="http://www.w3.org/2000/svg" width="39" height="39" viewBox="0 0 39 39">
  <defs>
    <style>
      .cls-1 {
        fill: #fff;
        fill-rule: evenodd;
      }
    </style>
  </defs>
  <path id="Фигура_51" data-name="Фигура 51" class="cls-1" d="M1264.86,1652.07a1.14,1.14,0,0,0,0-2.28h-3.51v-2.29h3.51a1.14,1.14,0,1,0,0-2.28h-3.51v-1.15a3.418,3.418,0,0,0-3.42-3.42h-1.15v-3.51a1.14,1.14,0,1,0-2.28,0v3.51h-2.29v-3.51a1.14,1.14,0,1,0-2.28,0v3.51h-2.29v-3.51a1.14,1.14,0,0,0-2.28,0v3.51h-2.29v-3.51a1.14,1.14,0,1,0-2.28,0v3.51h-2.29v-3.51a1.14,1.14,0,1,0-2.28,0v3.51h-1.15a3.418,3.418,0,0,0-3.42,3.42v1.15h-3.51a1.14,1.14,0,1,0,0,2.28h3.51v2.29h-3.51a1.14,1.14,0,0,0,0,2.28h3.51v2.29h-3.51a1.14,1.14,0,0,0,0,2.28h3.51v2.29h-3.51a1.14,1.14,0,1,0,0,2.28h3.51v2.29h-3.51a1.14,1.14,0,0,0,0,2.28h3.51v1.15a3.418,3.418,0,0,0,3.42,3.42h1.15v3.51a1.14,1.14,0,0,0,2.28,0v-3.51h2.29v3.51a1.14,1.14,0,0,0,2.28,0v-3.51h2.29v3.51a1.14,1.14,0,0,0,2.28,0v-3.51h2.29v3.51a1.14,1.14,0,0,0,2.28,0v-3.51h2.29v3.51a1.14,1.14,0,0,0,2.28,0v-3.51h1.15a3.418,3.418,0,0,0,3.42-3.42v-1.15h3.51a1.14,1.14,0,0,0,0-2.28h-3.51v-2.29h3.51a1.14,1.14,0,1,0,0-2.28h-3.51v-2.29h3.51a1.14,1.14,0,0,0,0-2.28h-3.51v-2.29h3.51Zm-5.79,14.86a1.139,1.139,0,0,1-1.14,1.14h-22.86a1.139,1.139,0,0,1-1.14-1.14v-22.86a1.139,1.139,0,0,1,1.14-1.14h22.86a1.139,1.139,0,0,1,1.14,1.14v22.86Zm-21.71-21.71a1.14,1.14,0,1,1-1.14,1.14A1.139,1.139,0,0,1,1237.36,1645.22Zm0,18.28a1.14,1.14,0,1,1-1.14,1.14A1.139,1.139,0,0,1,1237.36,1663.5Zm18.28,0a1.14,1.14,0,1,1-1.14,1.14A1.139,1.139,0,0,1,1255.64,1663.5Zm0-18.28a1.14,1.14,0,1,1-1.14,1.14A1.139,1.139,0,0,1,1255.64,1645.22Zm-0.5,11.31-0.67-.39a6.84,6.84,0,0,0,0-1.28l0.67-.39a1.144,1.144,0,0,0,.42-1.56l-2.29-3.96a1.142,1.142,0,0,0-1.56-.42l-0.69.4a7.9,7.9,0,0,0-1.09-.63v-0.8a1.139,1.139,0,0,0-1.14-1.14h-4.58a1.139,1.139,0,0,0-1.14,1.14v0.8a7.9,7.9,0,0,0-1.09.63l-0.69-.4a1.142,1.142,0,0,0-1.56.42l-2.29,3.96a1.144,1.144,0,0,0,.42,1.56l0.67,0.39a6.84,6.84,0,0,0,0,1.28l-0.67.39a1.144,1.144,0,0,0-.42,1.56l2.29,3.96a1.142,1.142,0,0,0,1.56.42l0.69-.4a7.9,7.9,0,0,0,1.09.63v0.8a1.139,1.139,0,0,0,1.14,1.14h4.58a1.139,1.139,0,0,0,1.14-1.14v-0.8a7.9,7.9,0,0,0,1.09-.63l0.69,0.4a1.142,1.142,0,0,0,1.56-.42l2.29-3.96A1.144,1.144,0,0,0,1255.14,1656.53Zm-3.03-2.07a5.2,5.2,0,0,1,0,2.08,1.143,1.143,0,0,0,.55,1.2l0.35,0.2-1.14,1.98-0.37-.21a1.114,1.114,0,0,0-1.31.12,5.836,5.836,0,0,1-1.79,1.03,1.147,1.147,0,0,0-.76,1.08v0.42h-2.28v-0.42a1.147,1.147,0,0,0-.76-1.08,5.836,5.836,0,0,1-1.79-1.03,1.114,1.114,0,0,0-1.31-.12l-0.37.21-1.14-1.98,0.35-.2a1.143,1.143,0,0,0,.55-1.2,5.2,5.2,0,0,1,0-2.08,1.143,1.143,0,0,0-.55-1.2l-0.35-.2,1.14-1.98,0.37,0.21a1.114,1.114,0,0,0,1.31-.12,5.836,5.836,0,0,1,1.79-1.03,1.147,1.147,0,0,0,.76-1.08v-0.42h2.28v0.42a1.147,1.147,0,0,0,.76,1.08,5.836,5.836,0,0,1,1.79,1.03,1.114,1.114,0,0,0,1.31.12l0.37-.21,1.14,1.98-0.35.2A1.143,1.143,0,0,0,1252.11,1654.46Zm-5.61-2.39a3.43,3.43,0,1,0,3.43,3.43A3.436,3.436,0,0,0,1246.5,1652.07Zm0,4.57a1.14,1.14,0,1,1,1.14-1.14A1.139,1.139,0,0,1,1246.5,1656.64Z" transform="translate(-1227 -1636)"/>
</svg>
