<svg xmlns="http://www.w3.org/2000/svg" width="34" height="32" viewBox="0 0 34 32">
  <defs>
    <style>
      .cls-1 {
        fill: #fff;
        fill-rule: evenodd;
      }
    </style>
  </defs>
  <path id="Фигура_52" data-name="Фигура 52" class="cls-1" d="M1262.01,1704h-28.02a3,3,0,0,0-2.99,3v20a3,3,0,0,0,2.99,3h8.64l-1.32,4h-3.27a1,1,0,0,0,0,2h23.97a3,3,0,0,0,2.99-3v-26A3,3,0,0,0,1262.01,1704Zm-28.02,24a1,1,0,0,1-1-1v-1h18.06v2h-17.06Zm9.42,6,1.32-4h6.32v3a3,3,0,0,0,.18,1h-7.82Zm19.6-1a1,1,0,0,1-1,1h-7.97a0.994,0.994,0,0,1-.99-1v-1h9.96v1Zm0-3h-9.96v-10h9.96v10Zm0-12h-9.96v-1a0.994,0.994,0,0,1,.99-1h7.97a1,1,0,0,1,1,1v1Zm0-3.83a3,3,0,0,0-1-.17h-7.97a3.007,3.007,0,0,0-2.99,3v7h-18.06v-17a1,1,0,0,1,1-1h28.02a1,1,0,0,1,1,1v7.17Z" transform="translate(-1231 -1704)"/>
</svg>
