<svg xmlns="http://www.w3.org/2000/svg" width="34" height="34" viewBox="0 0 34 34">
  <defs>
    <style>
      .cls-1 {
        fill: #fff;
        fill-rule: evenodd;
      }
    </style>
  </defs>
  <path id="Фигура_43" data-name="Фигура 43" class="cls-1" d="M1257.01,1763a2.99,2.99,0,0,0-2.99,2.98,2.9,2.9,0,0,0,.16.94l-12.29,12.14a3,3,0,0,0-.95-0.15,2.938,2.938,0,0,0-.94.15l-2.2-2.19a2.985,2.985,0,1,0-5.67,0l-2.2,2.19a2.938,2.938,0,0,0-.94-0.15,2.98,2.98,0,1,0,2.99,2.98,2.942,2.942,0,0,0-.47-1.6l1.86-1.85a2.941,2.941,0,0,0,3.19,0l1.86,1.85a2.942,2.942,0,0,0-.47,1.6,2.99,2.99,0,0,0,5.98,0,2.96,2.96,0,0,0-.46-1.59l11.94-11.8A2.984,2.984,0,1,0,1257.01,1763Zm-28.02,19.88a1,1,0,1,1,.99-0.99A0.994,0.994,0,0,1,1228.99,1782.88Zm5.97-5.96a1,1,0,1,1,1-1A1,1,0,0,1,1234.96,1776.92Zm5.98,5.96a1,1,0,0,1,0-1.99A1,1,0,1,1,1240.94,1782.88Zm16.07-15.9a1,1,0,1,1,1-1A0.994,0.994,0,0,1,1257.01,1766.98Zm1.29,4.26c-0.92.92-16.79,16.64-17.36,17.2-0.07-.08-5.21-5.2-5.27-5.27a1,1,0,0,0-1.41,0l-5.98,5.97a1.027,1.027,0,0,0-.29.7v6.17a0.994,0.994,0,0,0,1,.99H1259a0.994,0.994,0,0,0,1-.99v-24.06A1,1,0,0,0,1258.3,1771.24Zm-24.33,23.77h-3.99v-4.76l3.99-3.97v8.73Zm5.98,0h-3.99v-8.73l3.99,3.97v4.76Zm6.04,0h-4.05v-4.75l4.05-3.99v8.74Zm5.85,0h-3.87V1784.3l3.87-3.8v14.51Zm6.17,0h-4.19v-16.48l4.19-4.19v20.67Z" transform="translate(-1226 -1763)"/>
</svg>
