<svg xmlns="http://www.w3.org/2000/svg" width="37.56" height="38.06" viewBox="0 0 37.56 38.06">
  <defs>
    <style>
      .cls-1 {
        fill: #102831;
        fill-rule: evenodd;
      }
    </style>
  </defs>
  <path id="Фигура_41" data-name="Фигура 41" class="cls-1" d="M1260.07,1847.93a16.1,16.1,0,0,0-31.12-.01,3.961,3.961,0,0,0-3.23,3.89v4.46a3.956,3.956,0,0,0,2.68,3.74v1.87a10.157,10.157,0,0,0,10.15,10.15h1.25a3.294,3.294,0,0,0,3.03,2.01h3.34a3.285,3.285,0,1,0,0-6.57h-3.34a3.294,3.294,0,0,0-3.03,2.01h-1.25a7.609,7.609,0,0,1-7.6-7.6v-2.93a1.276,1.276,0,0,0-1.28-1.28,1.4,1.4,0,0,1-1.4-1.4v-4.46a1.4,1.4,0,0,1,1.4-1.4h0.3a1.275,1.275,0,0,0,1.25-1.02,13.552,13.552,0,0,1,26.57-.01,1.274,1.274,0,0,0,1.25,1.03h0.29a1.4,1.4,0,0,1,1.4,1.4v4.46a1.4,1.4,0,0,1-1.4,1.4,1.28,1.28,0,0,0,0,2.56,3.961,3.961,0,0,0,3.95-3.96v-4.46A3.958,3.958,0,0,0,1260.07,1847.93Zm-17.24,22.09h3.34a0.735,0.735,0,1,1,0,1.47h-3.34A0.735,0.735,0,1,1,1242.83,1870.02Zm1.67-27.93a11.95,11.95,0,1,0,11.95,11.95A11.963,11.963,0,0,0,1244.5,1842.09Zm0,21.35a9.4,9.4,0,1,1,9.4-9.4A9.415,9.415,0,0,1,1244.5,1863.44Z" transform="translate(-1225.72 -1835.97)"/>
</svg>
