<svg xmlns="http://www.w3.org/2000/svg" width="37" height="37" viewBox="0 0 37 37">
  <defs>
    <style>
      .cls-1 {
        fill: #fff;
        fill-rule: evenodd;
      }
    </style>
  </defs>
  <path id="Фигура_44" data-name="Фигура 44" class="cls-1" d="M1265.92,1932.75h-9.83v-3.25a1.084,1.084,0,0,0-1.09-1.08h-13a1.084,1.084,0,0,0-1.09,1.08v5.42h-9.83A1.088,1.088,0,0,0,1230,1936v10.92a1.088,1.088,0,0,0,1.08,1.08h34.84a1.088,1.088,0,0,0,1.08-1.08v-13.08A1.09,1.09,0,0,0,1265.92,1932.75Zm-1.09,2.17v6.58h-8.74v-6.58h8.74Zm-21.75-4.34h10.84v10.92h-10.84v-10.92Zm-10.91,6.51h8.74v4.41h-8.74v-4.41Zm0,8.74v-2.17h32.66v2.17h-32.66Zm11.78-25.07-0.71,4.1a1.072,1.072,0,0,0,.44,1.06,1.089,1.089,0,0,0,1.14.08l3.68-1.93,3.68,1.93a1.089,1.089,0,0,0,1.14-.08,1.072,1.072,0,0,0,.44-1.06l-0.71-4.1,2.98-2.91a1.072,1.072,0,0,0-.6-1.84l-4.11-.6-1.84-3.8a1.092,1.092,0,0,0-1.96,0l-1.84,3.8-4.11.6a1.072,1.072,0,0,0-.6,1.84Zm2.61-3.29a1.087,1.087,0,0,0,.82-0.6l1.12-2.3,1.12,2.3a1.087,1.087,0,0,0,.82.6l2.51,0.37-1.82,1.76a1.1,1.1,0,0,0-.31.96l0.43,2.5-2.25-1.18a1.1,1.1,0,0,0-1,0l-2.25,1.18,0.43-2.5a1.1,1.1,0,0,0-.31-0.96l-1.82-1.76Z" transform="translate(-1230 -1911)"/>
</svg>
