<?xml version="1.0" standalone="no"?>
<!DOCTYPE svg PUBLIC "-//W3C//DTD SVG 1.1//EN" "http://www.w3.org/Graphics/SVG/1.1/DTD/svg11.dtd" >
<svg xmlns="http://www.w3.org/2000/svg" xmlns:xlink="http://www.w3.org/1999/xlink" version="1.1">
<metadata>
Created by FontForge 20170731 at Sun Apr 13 15:18:40 2014
 By Aleksey,,,
Copyright (c) 2013 by Gayane Bagdasaryan, Dmitry Rastvortsev. All rights reserved.
</metadata>
<defs>
<font id="BrutalType-Thin" horiz-adv-x="522" >
  <font-face 
    font-family="BrutalType Thin"
    font-weight="100"
    font-stretch="normal"
    units-per-em="1000"
    panose-1="2 0 2 3 0 0 0 0 0 0"
    ascent="804"
    descent="-196"
    x-height="500"
    cap-height="700"
    bbox="-42 -235 1024 944"
    underline-thickness="50"
    underline-position="-200"
    unicode-range="U+000D-FB02"
  />
<missing-glyph horiz-adv-x="339" 
 />
    <glyph glyph-name="fi" unicode="fi" horiz-adv-x="499" 
d="M119 0v490h-94v10h94v73q0 65 33 100q33 34 95 34l32 -2v-10q-22 2 -32 2q-54 0 -87 -31q-31 -32 -31 -93v-73h280v-500h-10v490h-270v-490h-10zM399 595v110h10v-110h-10z" />
    <glyph glyph-name="fl" unicode="fl" horiz-adv-x="499" 
d="M119 0v490h-94v10h94v73q0 65 33 100q33 34 95 34l32 -2v-10q-22 2 -32 2q-54 0 -87 -31q-31 -32 -31 -93v-73h150v-10h-150v-490h-10zM399 0v705h10v-705h-10z" />
    <glyph glyph-name=".notdef" horiz-adv-x="339" 
 />
    <glyph glyph-name=".null" horiz-adv-x="0" 
 />
    <glyph glyph-name="nonmarkingreturn" horiz-adv-x="333" 
 />
    <glyph glyph-name="CR" unicode="&#xd;" horiz-adv-x="333" 
 />
    <glyph glyph-name="CR" horiz-adv-x="333" 
 />
    <glyph glyph-name="space" unicode=" " horiz-adv-x="271" 
 />
    <glyph glyph-name="exclam" unicode="!" horiz-adv-x="230" 
d="M110 0v123h10v-123h-10zM110 220v480h10v-480h-10z" />
    <glyph glyph-name="quotedbl" unicode="&#x22;" horiz-adv-x="274" 
d="M50 500v205h10v-205h-10zM214 500v205h10v-205h-10z" />
    <glyph glyph-name="numbersign" unicode="#" horiz-adv-x="584" 
d="M108 0v5l39 208h-127v10h129l48 254h-137v10h139l40 213h9v-5l-39 -208h216l40 213h9v-5l-39 -208h129v-10h-131l-48 -254h139v-10h-141l-40 -213h-9v5l39 208h-216l-40 -213h-9zM159 223h216l48 254h-216z" />
    <glyph glyph-name="dollar" unicode="$" horiz-adv-x="611" 
d="M55 227h10q0 -115 75 -174q76 -58 179 -58t157 47q55 45 55 118q0 60 -37 98q-39 37 -119 68l-126 48q-97 36 -133 72q-35 35 -35 101q0 76 58 121q57 47 159 47h4v95h10v-95q103 -5 164 -63q62 -57 62 -173h-10q0 115 -66 171q-64 55 -164 55q-94 0 -152 -44
q-55 -44 -55 -114q0 -60 31 -92q31 -33 106 -61l124 -47q101 -38 144 -77q45 -39 45 -110q0 -76 -57 -126q-56 -49 -165 -49h-7v-95h-10v96q-47 1 -92 17q-43 15 -78 43q-35 29 -56 74q-21 48 -21 107z" />
    <glyph glyph-name="percent" unicode="%" horiz-adv-x="741" 
d="M189 358q61 0 97 34q33 36 33 89v100q0 56 -33 89q-34 35 -97 35q-61 0 -95 -35q-34 -33 -34 -89v-100q0 -55 34 -89t95 -34zM189 348q-68 0 -103 38q-36 38 -36 96v99q0 58 36 97q37 37 103 37q68 0 104 -37q36 -38 36 -97v-99q0 -60 -36 -97t-104 -37zM172 0v5l385 695
h9v-5l-385 -695h-9zM551 -5q63 0 97 35q33 33 33 88v100q0 56 -33 90q-36 34 -97 34q-59 0 -95 -34q-34 -35 -34 -90v-100q0 -55 34 -89t95 -34zM551 -15q-66 0 -103 37q-36 39 -36 97v99q0 60 36 96q35 38 103 38t104 -37t36 -97v-99q0 -59 -36 -97q-36 -37 -104 -37z" />
    <glyph glyph-name="ampersand" unicode="&#x26;" horiz-adv-x="580" 
d="M558 5v-5h-9l-86 97q-79 -112 -220 -112q-92 0 -151 53q-58 54 -58 139q0 59 30 102q26 40 89 92l40 33l-27 31q-40 43 -56 73q-17 28 -17 70q0 57 37 93q36 36 91 36q56 0 92 -36t36 -91q0 -64 -73 -122l-69 -56l255 -289q52 80 52 195h10q0 -117 -55 -202zM242 -5
q137 0 214 110l-256 292l-41 -33q-58 -46 -87 -89q-28 -44 -28 -98q0 -81 56 -131q56 -51 142 -51zM103 578q0 -32 14 -62q13 -25 55 -74l29 -33l62 51q76 61 76 119q0 51 -33 85q-33 33 -85 33q-51 0 -85 -33q-33 -33 -33 -86z" />
    <glyph glyph-name="quotesingle" unicode="'" horiz-adv-x="110" 
d="M50 500v205h10v-205h-10z" />
    <glyph glyph-name="parenleft" unicode="(" horiz-adv-x="286" 
d="M266 -160q-78 0 -122 40q-44 39 -44 112v596q0 73 44 112q44 40 122 40v-10q-73 0 -114 -37q-42 -37 -42 -106v-594q0 -69 42 -106q41 -37 114 -37v-10z" />
    <glyph glyph-name="parenright" unicode=")" horiz-adv-x="286" 
d="M20 -160v10q73 0 114 37q42 37 42 106v594q0 69 -42 106q-41 37 -114 37v10q78 0 122 -40q44 -39 44 -112v-596q0 -73 -44 -112q-44 -40 -122 -40z" />
    <glyph glyph-name="asterisk" unicode="*" horiz-adv-x="388" 
d="M189 333v177l-154 -89l-5 9l154 89l-154 89l5 8l154 -88v177h10v-177l154 89l5 -9l-154 -89l154 -89l-5 -8l-154 88v-177h-10z" />
    <glyph glyph-name="plus" unicode="+" horiz-adv-x="498" 
d="M244 114v194h-194v10h194v194h10v-194h194v-10h-194v-194h-10z" />
    <glyph glyph-name="comma" unicode="," horiz-adv-x="169" 
d="M25 -82v5l85 200h9v-5l-85 -200h-9z" />
    <glyph glyph-name="hyphen" unicode="-" horiz-adv-x="430" 
d="M70 308v10h290v-10h-290z" />
    <glyph glyph-name="period" unicode="." horiz-adv-x="170" 
d="M80 0v123h10v-123h-10z" />
    <glyph glyph-name="slash" unicode="/" horiz-adv-x="447" 
d="M50 -100v5l338 835h9v-5l-338 -835h-9z" />
    <glyph glyph-name="zero" unicode="0" horiz-adv-x="586" 
d="M293 -5q95 0 149 53q54 51 54 145v315q0 92 -54 146q-57 52 -149 52t-149 -52q-54 -54 -54 -146v-315q0 -94 54 -145q54 -53 149 -53zM293 -15q-99 0 -155 55q-58 55 -58 153v314q0 98 58 153q56 55 155 55t155 -55q58 -55 58 -153v-314q0 -98 -58 -153q-56 -55 -155 -55
z" />
    <glyph glyph-name="one" unicode="1" horiz-adv-x="230" 
d="M120 0v690h-94v5l4 5h100v-700h-10z" />
    <glyph glyph-name="two" unicode="2" horiz-adv-x="558" 
d="M70 0v10l212 217q86 88 116 133q54 80 54 153q0 90 -52 141t-135 51q-84 0 -140 -53q-55 -52 -55 -149h-10q0 101 58 156q59 56 147 56q87 0 143 -53q54 -54 54 -149q0 -43 -15 -83q-15 -41 -44 -81q-28 -39 -50 -62q-42 -45 -52 -55l-12 -12l-205 -210h402v-10h-416z
" />
    <glyph glyph-name="three" unicode="3" horiz-adv-x="557" 
d="M281 -15q-96 0 -157 53q-61 54 -64 146h10q3 -87 60 -138q58 -51 151 -51q91 0 144 51q52 52 52 145q0 74 -47 123q-48 49 -126 49h-71v10h74q71 0 113 44q41 44 41 115q0 72 -49 124q-52 50 -135 50q-87 0 -140 -54q-53 -53 -53 -149h-10q0 101 56 156q54 56 147 56
q89 0 142 -53q52 -52 52 -130q0 -67 -35 -111q-35 -42 -91 -53q62 -12 102 -58t40 -119q0 -97 -55 -151q-54 -55 -151 -55z" />
    <glyph glyph-name="four" unicode="4" horiz-adv-x="533" 
d="M390 0v183h-350v10l306 507h9v-5l-302 -502h337v218h10v-218h103v-10h-103v-183h-10z" />
    <glyph glyph-name="five" unicode="5" horiz-adv-x="567" 
d="M288 -15q-87 0 -145 49q-57 51 -70 139h11q14 -86 68 -131q55 -47 136 -47q94 0 147 60q52 59 52 159q0 108 -53 162q-52 54 -143 54q-103 0 -167 -76h-9l28 346h313v-10h-304l-26 -319q27 30 72 50q42 19 92 19q95 0 152 -57q55 -58 55 -169q0 -102 -55 -166
q-56 -63 -154 -63z" />
    <glyph glyph-name="six" unicode="6" horiz-adv-x="560" 
d="M285 -15q-106 0 -159 59q-56 56 -56 157q0 54 16 93q15 38 50 95l195 311h9v-5l-212 -337q57 60 161 60q102 0 157 -58q54 -60 54 -159q0 -101 -56 -157q-53 -59 -159 -59zM285 -5q99 0 152 56t53 150q0 95 -51 151t-150 56q-91 0 -149 -54q-60 -54 -60 -153
q0 -94 53 -150t152 -56z" />
    <glyph glyph-name="seven" unicode="7" horiz-adv-x="523" 
d="M200 0v5l261 685h-391v-175h-10v185h413v-10l-265 -690h-8z" />
    <glyph glyph-name="eight" unicode="8" horiz-adv-x="594" 
d="M297 -15q-110 0 -169 53q-58 55 -58 146q0 78 45 124q44 45 112 59q-56 11 -93 52q-39 42 -39 112q0 82 53 133t149 51q97 0 149 -51q53 -51 53 -133q0 -70 -39 -112q-37 -41 -93 -52q67 -14 111 -59q46 -46 46 -124q0 -91 -58 -146q-61 -53 -169 -53zM296 -5
q109 0 164 52q54 53 54 137q0 73 -50 126q-51 52 -155 52h-24q-104 0 -155 -52q-50 -53 -50 -126q0 -84 54 -137q55 -52 162 -52zM285 372h24q93 0 136 45q44 46 44 119q0 74 -51 122q-50 47 -141 47q-89 0 -141 -47q-51 -48 -51 -122q0 -73 44 -119q44 -45 136 -45z" />
    <glyph glyph-name="nine" unicode="9" horiz-adv-x="560" 
d="M220 0v5l212 337q-57 -60 -161 -60q-102 0 -157 58q-54 60 -54 159q0 101 56 157q53 59 159 59t159 -59q56 -56 56 -157q0 -54 -16 -93q-15 -38 -50 -95l-195 -311h-9zM275 705q-99 0 -152 -56t-53 -150q0 -95 51 -151t150 -56q91 0 149 54q60 54 60 153q0 94 -53 150
t-152 56z" />
    <glyph glyph-name="colon" unicode=":" horiz-adv-x="170" 
d="M80 0v123h10v-123h-10zM80 377v123h10v-123h-10z" />
    <glyph glyph-name="semicolon" unicode=";" horiz-adv-x="179" 
d="M25 -82v5l85 200h9v-5l-85 -200h-9zM84 377v123h10v-123h-10z" />
    <glyph glyph-name="less" unicode="&#x3c;" horiz-adv-x="460" 
d="M400 114l-350 194v10l350 194h10v-5l-349 -194l349 -194v-5h-10z" />
    <glyph glyph-name="equal" unicode="=" horiz-adv-x="496" 
d="M50 200v10h396v-10h-396zM50 417v10h396v-10h-396z" />
    <glyph glyph-name="greater" unicode="&#x3e;" horiz-adv-x="460" 
d="M50 114v5l348 194l-348 194v5h10l350 -194v-10l-350 -194h-10z" />
    <glyph glyph-name="question" unicode="?" horiz-adv-x="497" 
d="M243 220v96l61 40q26 16 48 34q16 12 40 36t34 51q11 30 11 61q0 70 -49 118q-48 49 -139 49q-87 0 -143 -53t-56 -149h-10q0 100 58 156q61 56 152 56q94 0 146 -51q51 -52 51 -126q0 -35 -12 -65q-12 -29 -35 -54q-26 -26 -39 -35q-16 -13 -41 -29l-9 -6l-58 -38v-91
h-10zM243 0v123h10v-123h-10z" />
    <glyph glyph-name="at" unicode="@" horiz-adv-x="1016" 
d="M517 -151q-194 0 -315 121q-122 122 -122 312q0 195 122 314t315 119q181 0 299 -109q120 -108 120 -286q0 -117 -46 -190q-45 -72 -115 -72q-37 0 -61 25q-26 25 -26 73v8q-96 -106 -204 -106q-84 0 -129 52t-45 134v74q0 82 45 134t129 52q108 0 204 -106v94h10v-329
q0 -51 22 -73q24 -22 55 -22q65 0 107 70q44 67 44 182q0 172 -117 279q-116 106 -292 106q-191 0 -309 -117q-118 -118 -118 -306q0 -187 119 -304q118 -119 308 -119h25v-10h-25zM484 68q103 0 204 110v206q-101 110 -204 110q-79 0 -122 -49q-42 -49 -42 -127v-74
q0 -78 42 -127q43 -49 122 -49z" />
    <glyph glyph-name="A" unicode="A" horiz-adv-x="650" 
d="M30 0v5l289 695h12l289 -695v-5h-9l-91 218h-391l-90 -218h-9zM133 228h383l-191 461z" />
    <glyph glyph-name="B" unicode="B" horiz-adv-x="638" 
d="M100 0v700h290q77 0 120 -46q43 -44 43 -125q0 -71 -31 -111q-32 -41 -79 -53q60 -9 97 -55q38 -47 38 -127q0 -84 -44 -133q-44 -50 -122 -50h-312zM110 10h299q73 0 117 47q42 47 42 127t-42 128q-43 46 -117 46h-299v-348zM110 368h286q70 0 108 44q39 44 39 117
q0 75 -40 118t-113 43h-280v-322z" />
    <glyph glyph-name="C" unicode="C" horiz-adv-x="656" 
d="M339 -15q-119 0 -189 67t-70 185v226q0 118 70 185t189 67q105 0 175 -61q72 -60 72 -166v-10h-10v10q0 100 -68 159q-68 58 -169 58q-115 0 -182 -64t-67 -178v-226q0 -114 67 -178t182 -64q101 0 169 58q68 59 68 159v10h10v-10q0 -106 -72 -166q-70 -61 -175 -61z" />
    <glyph glyph-name="D" unicode="D" horiz-adv-x="665" 
d="M110 10h221q113 0 179 63q65 63 65 175v204q0 112 -65 175q-66 63 -179 63h-221v-680zM100 0v700h231q117 0 185 -66q69 -64 69 -182v-204q0 -118 -69 -182q-68 -66 -185 -66h-231z" />
    <glyph glyph-name="E" unicode="E" horiz-adv-x="568" 
d="M100 0v700h408v-10h-398v-332h350v-10h-350v-338h398v-10h-408z" />
    <glyph glyph-name="F" unicode="F" horiz-adv-x="558" 
d="M100 0v700h408v-10h-398v-332h350v-10h-350v-348h-10z" />
    <glyph glyph-name="G" unicode="G" horiz-adv-x="687" 
d="M345 -15q-123 0 -193 67q-72 68 -72 185v226q0 117 72 185q70 67 193 67q105 0 179 -61q73 -61 73 -166v-10h-10v10q0 101 -71 159q-68 58 -171 58q-119 0 -187 -64q-68 -65 -68 -178v-226q0 -113 68 -178q68 -64 187 -64q90 0 147 39q59 40 95 128v156h-211v10h221v-328
h-10v138q-61 -153 -242 -153z" />
    <glyph glyph-name="H" unicode="H" horiz-adv-x="680" 
d="M100 0v700h10v-344h460v344h10v-700h-10v346h-460v-346h-10z" />
    <glyph glyph-name="I" unicode="I" horiz-adv-x="210" 
d="M100 0v700h10v-700h-10z" />
    <glyph glyph-name="J" unicode="J" horiz-adv-x="555" 
d="M247 -15q-98 0 -159 56q-58 56 -58 156v25h10v-25q0 -95 56 -149q56 -53 151 -53q96 0 152 53q56 54 56 149v503h10v-503q0 -99 -59 -155q-58 -57 -159 -57z" />
    <glyph glyph-name="K" unicode="K" horiz-adv-x="577" 
d="M100 0v700h10v-344h166l251 344h9v-5l-251 -344l262 -346v-5h-9l-261 346h-167v-346h-10z" />
    <glyph glyph-name="L" unicode="L" horiz-adv-x="550" 
d="M100 0v700h10v-690h410v-10h-420z" />
    <glyph glyph-name="M" unicode="M" horiz-adv-x="788" 
d="M100 0v700h10l284 -420l284 420h10v-700h-10v681l-280 -414h-8l-280 414v-681h-10z" />
    <glyph glyph-name="N" unicode="N" horiz-adv-x="680" 
d="M100 0v700h10l460 -682v682h10v-700h-9l-461 681v-681h-10z" />
    <glyph glyph-name="O" unicode="O" horiz-adv-x="668" 
d="M334 -5q114 0 178 63q66 63 66 175v234q0 112 -66 175q-64 63 -178 63t-178 -63q-66 -63 -66 -175v-234q0 -112 66 -175q64 -63 178 -63zM334 -15q-116 0 -186 65q-68 66 -68 183v234q0 117 68 183q70 65 186 65t186 -65q68 -66 68 -183v-234q0 -117 -68 -183
q-70 -65 -186 -65z" />
    <glyph glyph-name="P" unicode="P" horiz-adv-x="608" 
d="M100 0v700h270q86 0 134 -54q49 -53 49 -146t-49 -146q-48 -54 -134 -54h-260v-300h-10zM110 310h260q80 0 127 51q46 50 46 139t-46 139q-47 51 -127 51h-260v-380z" />
    <glyph glyph-name="Q" unicode="Q" horiz-adv-x="673" 
d="M584 -119l-101 141q-62 -37 -149 -37q-116 0 -186 65q-68 66 -68 183v234q0 117 68 183q70 65 186 65t186 -65q68 -66 68 -183v-234q0 -141 -97 -205l102 -142v-5h-9zM334 -5q114 0 178 63q66 63 66 175v234q0 112 -66 175q-64 63 -178 63t-178 -63q-66 -63 -66 -175
v-234q0 -112 66 -175q64 -63 178 -63z" />
    <glyph glyph-name="R" unicode="R" horiz-adv-x="630" 
d="M100 0v700h279q85 0 135 -54q48 -54 48 -146q0 -88 -44 -141q-44 -51 -120 -59l180 -295v-5h-9l-183 300h-276v-300h-10zM110 310h269q80 0 127 51q46 50 46 139t-46 139q-46 51 -127 51h-269v-380z" />
    <glyph glyph-name="S" unicode="S" horiz-adv-x="611" 
d="M319 -15q-48 0 -96 14q-45 13 -84 41q-39 30 -61 76q-23 49 -23 111h10q0 -115 75 -174q76 -58 179 -58t157 47q55 45 55 118q0 60 -37 98q-39 37 -119 68l-126 48q-97 36 -133 72q-35 35 -35 101q0 76 58 121q57 47 159 47q107 0 173 -59q67 -58 67 -177h-10
q0 115 -66 171q-64 55 -164 55q-94 0 -152 -44q-55 -44 -55 -114q0 -60 31 -92q31 -33 106 -61l124 -47q101 -38 144 -77q45 -39 45 -110q0 -76 -57 -126q-56 -49 -165 -49z" />
    <glyph glyph-name="T" unicode="T" horiz-adv-x="540" 
d="M265 0v690h-235v10h480v-10h-235v-690h-10z" />
    <glyph glyph-name="U" unicode="U" horiz-adv-x="660" 
d="M330 -15q-111 0 -175 67q-65 68 -65 185v463h10v-463q0 -113 62 -178q61 -64 168 -64t168 64q62 65 62 178v463h10v-463q0 -117 -65 -185q-64 -67 -175 -67z" />
    <glyph glyph-name="V" unicode="V" horiz-adv-x="650" 
d="M319 0l-289 695v5h9l286 -689l286 689h9v-5l-289 -695h-12z" />
    <glyph glyph-name="W" unicode="W" horiz-adv-x="782" 
d="M184 0l-134 695v5h9l132 -685l196 445h8l196 -445l132 685h9v-5l-134 -695h-11l-196 446l-196 -446h-11z" />
    <glyph glyph-name="X" unicode="X" horiz-adv-x="586" 
d="M40 0v5l246 347l-246 343v5h9l244 -341l244 341h9v-5l-246 -344l246 -346v-5h-9l-244 344l-244 -344h-9z" />
    <glyph glyph-name="Y" unicode="Y" horiz-adv-x="596" 
d="M293 0v278l-273 417v5h9l269 -411l269 411h9v-5l-273 -417v-278h-10z" />
    <glyph glyph-name="Z" unicode="Z" horiz-adv-x="558" 
d="M50 0v10l437 680h-424v10h436v-10l-437 -680h446v-10h-458z" />
    <glyph glyph-name="bracketleft" unicode="[" horiz-adv-x="295" 
d="M100 -160v900h195v-10h-185v-880h185v-10h-195z" />
    <glyph glyph-name="backslash" unicode="\" horiz-adv-x="447" 
d="M397 -95v-5h-9l-338 835v5h9z" />
    <glyph glyph-name="bracketright" unicode="]" horiz-adv-x="295" 
d="M0 -160v10h185v880h-185v10h195v-900h-195z" />
    <glyph glyph-name="asciicircum" unicode="^" horiz-adv-x="464" 
d="M50 387v5l176 313h12l176 -313v-5h-9l-173 310l-173 -310h-9z" />
    <glyph glyph-name="underscore" unicode="_" horiz-adv-x="501" 
d="M-1 -89v10h503v-10h-503z" />
    <glyph glyph-name="grave" unicode="`" horiz-adv-x="276" 
d="M193 590l-123 135v5h9l127 -140h-13z" />
    <glyph glyph-name="a" unicode="a" 
d="M216 -12q-69 0 -116 35q-45 35 -45 105q0 74 53 112q54 39 155 39h164v79q0 64 -43 104q-41 40 -124 40q-79 0 -122 -40q-44 -41 -44 -104h-10q0 68 46 111q44 43 130 43q87 0 132 -42q45 -44 45 -112v-358h-10v83q-104 -95 -211 -95zM216 -2q103 0 211 99v172h-164
q-95 0 -147 -35q-51 -36 -51 -106q0 -66 43 -98q46 -32 108 -32z" />
    <glyph glyph-name="b" unicode="b" horiz-adv-x="553" 
d="M304 -12q-108 0 -204 106v-94h-10v705h10v-299q96 106 204 106q84 0 129 -52q45 -53 45 -134v-152q0 -82 -45 -134t-129 -52zM304 -2q79 0 122 49q42 49 42 127v152q0 78 -42 127q-43 49 -122 49q-103 0 -204 -110v-284q101 -110 204 -110z" />
    <glyph glyph-name="c" unicode="c" horiz-adv-x="518" 
d="M261 -12q-94 0 -143 52q-51 52 -51 134v152q0 82 51 134q49 52 143 52q89 0 142 -47q52 -46 52 -120v-4h-10v4q0 70 -49 113q-50 44 -135 44q-87 0 -135 -49q-49 -49 -49 -127v-152q0 -78 49 -127q48 -49 135 -49q85 0 135 44q49 45 49 115v5h10v-5q0 -75 -51 -121
q-52 -48 -143 -48z" />
    <glyph glyph-name="d" unicode="d" horiz-adv-x="553" 
d="M249 -12q-84 0 -129 52t-45 134v152q0 82 45 134t129 52q108 0 204 -106v299h10v-705h-10v94q-96 -106 -204 -106zM249 -2q103 0 204 110v284q-101 110 -204 110q-79 0 -121 -49q-43 -49 -43 -127v-152q0 -78 43 -127q42 -49 121 -49z" />
    <glyph glyph-name="e" unicode="e" 
d="M261 -12q-94 0 -143 52q-51 52 -51 134v152q0 82 51 134q49 52 143 52q96 0 145 -52t49 -134v-76h-378v-76q0 -78 49 -127q48 -49 135 -49q81 0 127 40q45 42 52 108h10q-6 -71 -54 -115q-49 -43 -135 -43zM77 260h368v66q0 77 -47 127q-46 49 -137 49q-87 0 -135 -49
q-49 -49 -49 -127v-66z" />
    <glyph glyph-name="f" unicode="f" horiz-adv-x="309" 
d="M119 0v490h-94v10h94v73q0 65 33 100q33 34 95 34l32 -2v-10q-22 2 -32 2q-54 0 -87 -31q-31 -32 -31 -93v-73h150v-10h-150v-490h-10z" />
    <glyph glyph-name="g" unicode="g" horiz-adv-x="553" 
d="M275 -172q-83 0 -135 42q-51 42 -54 116h10q3 -66 52 -108q51 -40 127 -40q82 0 131 47q47 47 47 138v117q-96 -106 -204 -106q-84 0 -129 52q-45 53 -45 134v106q0 82 45 134t129 52q108 0 204 -106v94h10v-477q0 -96 -50 -146q-49 -49 -138 -49zM249 44q103 0 204 110
v238q-101 110 -204 110q-79 0 -121 -49q-43 -49 -43 -127v-106q0 -78 43 -127q42 -49 121 -49z" />
    <glyph glyph-name="h" unicode="h" horiz-adv-x="559" 
d="M90 0v705h10v-299q94 106 204 106q74 0 122 -48q48 -46 48 -136v-328h-10v324q0 88 -45 133t-115 45q-111 0 -204 -111v-391h-10z" />
    <glyph glyph-name="i" unicode="i" horiz-adv-x="190" 
d="M90 0v500h10v-500h-10zM90 595v110h10v-110h-10z" />
    <glyph glyph-name="j" unicode="j" horiz-adv-x="190" 
d="M90 500h10v-553q0 -58 -30 -89q-28 -30 -84 -30l-28 2v10q18 -2 28 -2q49 0 76 28q28 28 28 81v553zM90 595v110h10v-110h-10z" />
    <glyph glyph-name="k" unicode="k" horiz-adv-x="491" 
d="M90 0v705h10v-445h132l190 240h9v-5l-189 -239l199 -251v-5h-9l-197 250h-135v-250h-10z" />
    <glyph glyph-name="l" unicode="l" horiz-adv-x="190" 
d="M90 0v705h10v-705h-10z" />
    <glyph glyph-name="m" unicode="m" horiz-adv-x="887" 
d="M90 0v500h10v-94q90 106 191 106q55 0 95 -30q41 -29 56 -86q95 116 200 116q73 0 117 -47q43 -46 43 -137v-328h-10v324q0 88 -40 134q-42 44 -110 44q-103 0 -197 -118q6 -25 6 -56v-328h-10v324q0 88 -42 133t-108 45q-101 0 -191 -111v-391h-10z" />
    <glyph glyph-name="n" unicode="n" horiz-adv-x="559" 
d="M90 0v500h10v-94q94 106 204 106q74 0 122 -48q48 -46 48 -136v-328h-10v324q0 88 -45 133t-115 45q-111 0 -204 -111v-391h-10z" />
    <glyph glyph-name="o" unicode="o" 
d="M261 -2q91 0 137 49q47 50 47 127v152q0 77 -47 127q-46 49 -137 49q-87 0 -135 -49q-49 -49 -49 -127v-152q0 -78 49 -127q48 -49 135 -49zM261 -12q-94 0 -143 52q-51 52 -51 134v152q0 82 51 134q49 52 143 52q96 0 145 -52t49 -134v-152q0 -82 -49 -134
q-51 -52 -145 -52z" />
    <glyph glyph-name="p" unicode="p" horiz-adv-x="553" 
d="M90 -160v660h10v-94q96 106 204 106q84 0 129 -52q45 -53 45 -134v-152q0 -82 -45 -134t-129 -52q-108 0 -204 106v-254h-10zM304 -2q79 0 122 49q42 49 42 127v152q0 78 -42 127q-43 49 -122 49q-103 0 -204 -110v-284q101 -110 204 -110z" />
    <glyph glyph-name="q" unicode="q" horiz-adv-x="553" 
d="M453 -160v254q-96 -106 -204 -106q-84 0 -129 52t-45 134v152q0 82 45 134t129 52q108 0 204 -106v94h10v-660h-10zM249 -2q103 0 204 110v284q-101 110 -204 110q-79 0 -121 -49q-43 -49 -43 -127v-152q0 -78 43 -127q42 -49 121 -49z" />
    <glyph glyph-name="r" unicode="r" horiz-adv-x="362" 
d="M90 0v500h10v-94q98 104 217 104h5v-10h-5q-119 0 -217 -108v-392h-10z" />
    <glyph glyph-name="s" unicode="s" horiz-adv-x="523" 
d="M269 -12q-56 0 -100 16q-46 17 -77 57q-32 41 -32 102h10q0 -59 32 -97q32 -39 74 -54q45 -14 93 -14q81 0 128 35q46 34 46 90q0 48 -31 73q-29 23 -103 43l-102 27q-68 18 -97 44q-27 27 -27 77q0 54 47 89q46 36 130 36t137 -42q52 -43 52 -128h-10q0 80 -49 120
t-130 40q-79 0 -123 -32t-44 -83q0 -44 25 -69q28 -26 90 -42l102 -27q78 -21 110 -47q33 -25 33 -79q0 -61 -47 -97q-47 -38 -137 -38z" />
    <glyph glyph-name="t" unicode="t" horiz-adv-x="339" 
d="M249 0q-63 0 -95 36q-30 38 -30 86v368h-94v10h94v104h10v-104h150v-10h-150v-368q0 -54 30 -82q30 -30 84 -30h36v-10h-35z" />
    <glyph glyph-name="u" unicode="u" horiz-adv-x="559" 
d="M255 -12q-74 0 -122 48q-48 46 -48 136v328h10v-324q0 -88 45 -133t115 -45q111 0 204 111v391h10v-500h-10v94q-94 -106 -204 -106z" />
    <glyph glyph-name="v" unicode="v" horiz-adv-x="490" 
d="M239 0l-209 495v5h9l206 -489l206 489h9v-5l-209 -495h-12z" />
    <glyph glyph-name="w" unicode="w" horiz-adv-x="686" 
d="M186 0l-131 495v5h9l129 -489l143 384h14l143 -384l129 489h9v-5l-131 -495h-13l-144 385l-144 -385h-13z" />
    <glyph glyph-name="x" unicode="x" horiz-adv-x="500" 
d="M50 0v5l194 245l-193 245v5h9l190 -241l190 241h9v-5l-193 -245l194 -245v-5h-9l-191 242l-191 -242h-9z" />
    <glyph glyph-name="y" unicode="y" horiz-adv-x="490" 
d="M175 -160v5l65 155l-210 495v5h9l206 -489l206 489h9v-5l-276 -655h-9z" />
    <glyph glyph-name="z" unicode="z" horiz-adv-x="501" 
d="M60 0v10l362 480h-344v10h357v-10l-362 -480h363v-10h-376z" />
    <glyph glyph-name="braceleft" unicode="{" horiz-adv-x="300" 
d="M300 -160q-78 0 -122 40q-44 39 -44 112v220q0 79 -65 79h-29v10h29q65 0 65 79v208q0 73 44 112q44 40 122 40v-10q-73 0 -114 -37q-42 -37 -42 -106v-207q0 -74 -48 -84q48 -10 48 -84v-219q0 -69 42 -106q41 -37 114 -37v-10z" />
    <glyph glyph-name="bar" unicode="|" horiz-adv-x="210" 
d="M100 -100v840h10v-840h-10z" />
    <glyph glyph-name="braceright" unicode="}" horiz-adv-x="300" 
d="M0 -160v10q73 0 114 37q42 37 42 106v219q0 74 48 84q-48 10 -48 84v207q0 69 -42 106q-41 37 -114 37v10q78 0 122 -40q44 -39 44 -112v-208q0 -79 65 -79h29v-10h-29q-65 0 -65 -79v-220q0 -73 -44 -112q-44 -40 -122 -40z" />
    <glyph glyph-name="asciitilde" unicode="~" horiz-adv-x="451" 
d="M58 276l-8 6q50 77 99 77q27 0 69 -30l22 -16q36 -27 63 -27q44 0 90 73l8 -6q-47 -77 -99 -77q-27 0 -69 30l-22 16q-37 27 -63 27q-44 0 -90 -73z" />
    <glyph glyph-name="nbspace" unicode="&#xa0;" horiz-adv-x="271" 
 />
    <glyph glyph-name="exclamdown" unicode="&#xa1;" horiz-adv-x="170" 
d="M80 -160v440h10v-440h-10zM80 377v123h10v-123h-10z" />
    <glyph glyph-name="cent" unicode="&#xa2;" horiz-adv-x="518" 
d="M255 0v82q-92 2 -139 53q-49 52 -49 133v152q0 82 49 132q48 53 139 54v94h10v-94q88 -1 139 -48q51 -46 51 -119v-4h-10v4q0 69 -48 112t-132 45v-504q85 2 132 46q48 44 48 113v5h10v-5q0 -73 -51 -121q-51 -47 -139 -48v-82h-10zM255 92v504q-84 -2 -131 -50
q-47 -50 -47 -126v-152q0 -77 47 -126q46 -48 131 -50z" />
    <glyph glyph-name="sterling" unicode="&#xa3;" horiz-adv-x="571" 
d="M50 0v10h83v338h-83v10h83v171q0 81 51 134q49 52 143 52q89 0 142 -47q52 -46 52 -120v-45h-10v45q0 70 -49 113q-50 44 -135 44q-87 0 -135 -49q-49 -48 -49 -127v-171h219v-10h-219v-338h378v-10h-471z" />
    <glyph glyph-name="yen" unicode="&#xa5;" horiz-adv-x="596" 
d="M293 0v127h-220v10h220v141h-220v10h213l-266 407v5h9l269 -411l269 411h9v-5l-267 -407h214v-10h-220v-141h220v-10h-220v-127h-10z" />
    <glyph glyph-name="brokenbar" unicode="&#xa6;" horiz-adv-x="210" 
d="M100 -100v334h10v-334h-10zM100 426v314h10v-314h-10z" />
    <glyph glyph-name="section" unicode="&#xa7;" horiz-adv-x="547" 
d="M292 -172q-103 0 -166 51q-65 50 -65 149h10q0 -94 61 -142q62 -48 160 -48q84 0 134 42q48 40 48 102q0 39 -26 65q-23 26 -79 48l-107 41q-104 40 -144 72q-42 30 -42 92q0 78 60 153q-55 30 -55 100q0 67 52 110q53 44 142 44q90 0 149 -50q60 -49 60 -145h-10
q0 91 -56 138q-58 47 -143 47q-83 0 -135 -41q-49 -43 -49 -103q0 -46 23 -69q22 -22 64 -39l125 -50q59 -24 79 -33q29 -15 56 -32q29 -20 39 -40q11 -24 11 -52q0 -66 -76 -151q33 -19 53 -43q19 -22 19 -62q0 -67 -52 -110q-52 -44 -140 -44zM403 93q75 80 75 145
q0 14 -3 26q-4 14 -11 23q-7 12 -14 19q-6 8 -20 18q-15 10 -23 14q-11 7 -27 14q-21 10 -28 12q-6 3 -31 13l-30 12l-146 59q-59 -74 -59 -149q0 -73 90 -116q20 -11 87 -36z" />
    <glyph glyph-name="dieresis" unicode="&#xa8;" horiz-adv-x="258" 
d="M40 595v110h10v-110h-10zM208 595v110h10v-110h-10z" />
    <glyph glyph-name="copyright" unicode="&#xa9;" horiz-adv-x="880" 
d="M436 140q-83 0 -126 46q-44 46 -44 117v95q0 71 44 118q44 45 126 45q79 0 125 -41q45 -42 45 -107v-5h-10v5q0 60 -42 99q-44 39 -118 39q-76 0 -118 -43q-42 -42 -42 -110v-95q0 -69 42 -111t118 -42q74 0 118 39q42 39 42 99v5h10v-5q0 -66 -45 -106q-45 -42 -125 -42
zM440 -15q-152 0 -256 105q-104 107 -104 260t104 260q104 105 256 105t256 -105q104 -107 104 -260t-104 -260q-104 -105 -256 -105zM440 -5q149 0 249 103q101 103 101 252t-101 252q-100 103 -249 103t-249 -103q-101 -103 -101 -252t101 -252q100 -103 249 -103z" />
    <glyph glyph-name="ordfeminine" unicode="&#xaa;" horiz-adv-x="427" 
d="M176 353q-52 0 -84 23t-32 71q0 101 157 101h120v53q0 41 -32 67q-32 27 -91 27q-57 0 -90 -27q-32 -26 -32 -67h-10q0 47 34 75q35 29 98 29q64 0 99 -29q34 -28 34 -75v-243h-10v58q-81 -63 -161 -63zM178 363q74 0 159 64v111h-120q-70 0 -109 -24q-38 -23 -38 -67
q0 -43 30 -63q32 -21 78 -21z" />
    <glyph glyph-name="guillemotleft" unicode="&#xab;" horiz-adv-x="527" 
d="M253 62l-193 202l194 203h10v-5l-189 -198l188 -197v-5h-10zM449 62l-193 202l194 203h10v-5l-189 -198l188 -197v-5h-10z" />
    <glyph glyph-name="logicalnot" unicode="&#xac;" horiz-adv-x="498" 
d="M438 208v209h-388v10h398v-219h-10z" />
    <glyph glyph-name="uni00AD" unicode="&#xad;" horiz-adv-x="430" 
d="M70 308v10h290v-10h-290z" />
    <glyph glyph-name="registered" unicode="&#xae;" horiz-adv-x="394" 
d="M130 456v176h85q24 0 40 -14q15 -14 15 -38q0 -23 -13 -36q-15 -15 -36 -16l49 -66v-6h-9l-54 72h-67v-72h-10zM140 538h73q21 0 35 12q12 10 12 30t-12 30q-13 12 -35 12h-73v-84zM197 371q-68 0 -119 49q-48 51 -48 123q0 73 48 123q51 49 119 49t119 -49
q48 -51 48 -123q0 -73 -48 -123q-51 -49 -119 -49zM197 381q67 0 111 47q46 45 46 115t-46 115q-44 47 -111 47t-111 -47q-46 -45 -46 -115t46 -115q44 -47 111 -47z" />
    <glyph glyph-name="macron" unicode="&#xaf;" horiz-adv-x="453" 
d="M110 645v10h233v-10h-233z" />
    <glyph glyph-name="degree" unicode="&#xb0;" horiz-adv-x="379" 
d="M189 395q63 0 97 35q33 33 33 88v63q0 56 -33 89q-34 35 -97 35q-61 0 -95 -35q-34 -33 -34 -89v-63q0 -55 34 -89t95 -34zM189 385q-66 0 -103 37q-36 39 -36 97v62q0 58 36 97q37 37 103 37q68 0 104 -37q36 -38 36 -97v-62q0 -59 -36 -97q-36 -37 -104 -37z" />
    <glyph glyph-name="plusminus" unicode="&#xb1;" horiz-adv-x="498" 
d="M244 124v194h-194v10h194v194h10v-194h194v-10h-194v-194h-10zM50 38v10h398v-10h-398z" />
    <glyph glyph-name="twosuperior" unicode="&#xb2;" horiz-adv-x="310" 
d="M44 358v10l96 74q1 1 16 13q15 11 18 14q3 1 16 13q7 5 18 16q6 9 13 16q10 8 13 18q2 4 8 18q7 12 8 22q0 3 0.5 10.5t0.5 11.5q0 45 -27 74q-28 27 -70 27q-46 0 -74 -31q-30 -30 -30 -85h-10q0 59 32 93q32 33 82 33q47 0 77 -30t30 -81q0 -16 -3 -31q-5 -16 -12 -29
q-9 -14 -15 -24q-7 -11 -21 -22q-6 -6 -12.5 -12t-7.5 -7t-9 -7.5t-15 -11.5l-10 -8l-7.5 -6t-3.5 -2l-85 -66h210v-10h-226z" />
    <glyph glyph-name="threesuperior" unicode="&#xb3;" horiz-adv-x="324" 
d="M163 353q-53 0 -88 26q-33 25 -35 70h10q2 -41 32 -63q32 -23 81 -23t77 23q28 24 28 66q0 34 -24 57q-26 23 -68 23h-40v10h42q38 0 58 21q21 21 21 52q0 35 -27 57q-28 23 -73 23t-73 -25q-28 -24 -28 -67h-10q0 47 30 75q32 27 81 27t80 -25q30 -27 30 -64
q0 -62 -60 -79q33 -8 51 -29q20 -22 20 -56q0 -48 -30 -73q-31 -26 -85 -26z" />
    <glyph glyph-name="acute" unicode="&#xb4;" horiz-adv-x="276" 
d="M70 590l127 140h9v-5l-123 -135h-13z" />
    <glyph glyph-name="paragraph" unicode="&#xb6;" horiz-adv-x="545" 
d="M225 -87v455q-81 0 -129 42q-46 44 -46 120v8q0 77 46 120q48 42 129 42h220v-787h-10v777h-200v-777h-10z" />
    <glyph glyph-name="periodcentered" unicode="&#xb7;" horiz-adv-x="170" 
d="M80 261v123h10v-123h-10z" />
    <glyph glyph-name="cedilla" unicode="&#xb8;" horiz-adv-x="278" 
d="M76 -160v5l122 155h13l-126 -160h-9z" />
    <glyph glyph-name="onesuperior" unicode="&#xb9;" horiz-adv-x="210" 
d="M110 358v332h-94v5l4 5h100v-342h-10z" />
    <glyph glyph-name="ordmasculine" unicode="&#xba;" horiz-adv-x="397" 
d="M198 363q67 0 104 37q35 40 35 95v67q0 59 -35 96q-34 37 -104 37q-65 0 -102 -37q-36 -36 -36 -96v-67q0 -59 36 -95q37 -37 102 -37zM198 353q-71 0 -110 40q-38 41 -38 103v66q0 62 38 103q39 40 110 40q72 0 110 -39q39 -40 39 -104v-66q0 -64 -39 -104
q-38 -39 -110 -39z" />
    <glyph glyph-name="guillemotright" unicode="&#xbb;" horiz-adv-x="527" 
d="M271 264l-193 -202h-10v5l188 197l-189 198v5h10zM467 264l-193 -202h-10v5l188 197l-189 198v5h10z" />
    <glyph glyph-name="onequarter" unicode="&#xbc;" horiz-adv-x="627" 
d="M444 342h10v-5l-131 -240h203v102h10v-102h71v-10h-71v-87h-10v87h-216v10zM71 0v5l385 695h9v-5l-385 -695h-9zM110 358v332h-94v5l4 5h100v-342h-10z" />
    <glyph glyph-name="onehalf" unicode="&#xbd;" horiz-adv-x="641" 
d="M375 0v10l96 74q2 2 17 13q17 13 18 14q6 6 16 13q13 11 16 16l3 3t5 6t6 7q10 8 13 18q1 1 2.5 4.5l3 7t3.5 6.5q6 14 6 22q2 6 2 22q0 46 -28 74q-27 27 -69 27q-45 0 -75 -31q-29 -31 -29 -85h-10q0 59 32 93q31 33 82 33q47 0 77 -30t30 -81q0 -18 -4 -31
q-3 -16 -12 -29q-3 -5 -8 -13.5t-6 -10.5q-7 -11 -21 -22q-13 -13 -21 -19q-7 -7 -23 -19l-10 -8l-7.5 -6t-3.5 -2l-85 -66h210v-10h-226zM71 0v5l385 695h9v-5l-385 -695h-9zM110 358v332h-94v5l4 5h100v-342h-10z" />
    <glyph glyph-name="threequarters" unicode="&#xbe;" horiz-adv-x="727" 
d="M163 353q-53 0 -88 26q-33 25 -35 70h10q2 -41 32 -63q32 -23 81 -23t77 23q28 24 28 66q0 34 -24 57q-26 23 -68 23h-40v10h42q38 0 58 21q21 21 21 52q0 35 -27 57q-28 23 -73 23t-73 -25q-28 -24 -28 -67h-10q0 47 30 75q32 27 81 27t80 -25q30 -27 30 -64
q0 -62 -60 -79q33 -8 51 -29q20 -22 20 -56q0 -48 -30 -73q-31 -26 -85 -26zM544 341h10v-5l-131 -240h203v102h10v-102h71v-10h-71v-87h-10v87h-216v10zM171 0v5l385 695h9v-5l-385 -695h-9z" />
    <glyph glyph-name="questiondown" unicode="&#xbf;" horiz-adv-x="497" 
d="M247 -172q-95 0 -146 48q-51 46 -51 119q0 15 3 30q4 18 7 27q2 9 11 24q3 4 7 11t6 9q9 11 18 18q4 4 9.5 9t6.5 7q7 5 19 14q15 10 17 11q1 0 3 1.5t6.5 4.5t8.5 5l14 8l58 35v71h10v-76l-61 -37q-11 -6 -24 -15t-15 -10q-12 -6 -34 -25q-21 -16 -33 -33
q-9 -13 -19 -38q-8 -26 -8 -51q0 -68 48 -113q49 -44 140 -44q87 0 143 53t56 149h10q0 -101 -59 -156q-58 -56 -151 -56zM244 377v123h10v-123h-10z" />
    <glyph glyph-name="Agrave" unicode="&#xc0;" horiz-adv-x="650" 
d="M30 0v5l289 695h12l289 -695v-5h-9l-91 218h-391l-90 -218h-9zM133 228h383l-191 461zM324 762l-132 145v6h10l136 -151h-14z" />
    <glyph glyph-name="Aacute" unicode="&#xc1;" horiz-adv-x="650" 
d="M30 0v5l289 695h12l289 -695v-5h-9l-91 218h-391l-90 -218h-9zM133 228h383l-191 461zM324 762l136 151h10v-6l-132 -145h-14z" />
    <glyph glyph-name="Acircumflex" unicode="&#xc2;" horiz-adv-x="650" 
d="M30 0v5l289 695h12l289 -695v-5h-9l-91 218h-391l-90 -218h-9zM133 228h383l-191 461zM187 762v6l132 145h13l132 -145v-6h-10l-129 142l-128 -142h-10z" />
    <glyph glyph-name="Atilde" unicode="&#xc3;" horiz-adv-x="650" 
d="M30 0v5l289 695h12l289 -695v-5h-9l-91 218h-391l-90 -218h-9zM133 228h383l-191 461zM153 794l-8 6q37 46 57 63q20 16 45 16q30 0 70 -31l23 -16q38 -28 65 -28q21 0 38 14q18 16 54 61l8 -6q-37 -47 -57 -63q-19 -16 -44 -16q-31 0 -71 31l-23 16q-37 28 -64 28
q-22 0 -40 -15t-53 -60z" />
    <glyph glyph-name="Adieresis" unicode="&#xc4;" horiz-adv-x="650" 
d="M30 0v5l289 695h12l289 -695v-5h-9l-91 218h-391l-90 -218h-9zM133 228h383l-191 461zM230 768v118h11v-118h-11zM410 768v118h11v-118h-11z" />
    <glyph glyph-name="Aring" unicode="&#xc5;" horiz-adv-x="650" 
d="M30 0v5l289 695h12l289 -695v-5h-9l-91 218h-391l-90 -218h-9zM133 228h383l-191 461zM325 760q39 0 67 25q27 25 27 62t-27 61q-27 26 -67 26q-39 0 -66 -26q-28 -24 -28 -61t27 -61q27 -26 67 -26zM325 749q-44 0 -74 29q-31 27 -31 69q0 41 31 69q33 28 74 28t74 -28
q31 -30 31 -69q0 -42 -31 -69q-30 -29 -74 -29z" />
    <glyph glyph-name="AE" unicode="&#xc6;" horiz-adv-x="924" 
d="M20 0v5l436 695h408v-10h-398v-332h350v-10h-350v-338h398v-10h-408v218h-290l-137 -218h-9zM172 228h284v451z" />
    <glyph glyph-name="Ccedilla" unicode="&#xc7;" horiz-adv-x="656" 
d="M219 -160v6l110 139q-114 3 -182 69q-67 67 -67 183v226q0 118 70 185t189 67q105 0 175 -61q72 -60 72 -166v-10h-10v10q0 100 -68 159q-68 58 -169 58q-115 0 -182 -64t-67 -178v-226q0 -114 67 -178t182 -64q101 0 169 58q68 59 68 159v10h10v-10q0 -104 -70 -165
q-73 -61 -173 -62l-114 -145h-10z" />
    <glyph glyph-name="Egrave" unicode="&#xc8;" horiz-adv-x="568" 
d="M100 0v700h408v-10h-398v-332h350v-10h-350v-338h398v-10h-408zM355 762l-132 145v6h10l136 -151h-14z" />
    <glyph glyph-name="Eacute" unicode="&#xc9;" horiz-adv-x="568" 
d="M100 0v700h408v-10h-398v-332h350v-10h-350v-338h398v-10h-408zM274 762l136 151h10v-6l-132 -145h-14z" />
    <glyph glyph-name="Ecircumflex" unicode="&#xca;" horiz-adv-x="568" 
d="M100 0v700h408v-10h-398v-332h350v-10h-350v-338h398v-10h-408zM171 762v6l132 145h13l132 -145v-6h-10l-129 142l-128 -142h-10z" />
    <glyph glyph-name="Edieresis" unicode="&#xcb;" horiz-adv-x="568" 
d="M100 0v700h408v-10h-398v-332h350v-10h-350v-338h398v-10h-408zM204 768v118h11v-118h-11zM384 768v118h11v-118h-11z" />
    <glyph glyph-name="Igrave" unicode="&#xcc;" horiz-adv-x="210" 
d="M100 0v700h10v-700h-10zM101 762l-132 145v6h10l136 -151h-14z" />
    <glyph glyph-name="Iacute" unicode="&#xcd;" horiz-adv-x="210" 
d="M100 0v700h10v-700h-10zM98 762l136 151h10v-6l-132 -145h-14z" />
    <glyph glyph-name="Icircumflex" unicode="&#xce;" horiz-adv-x="210" 
d="M100 0v700h10v-700h-10zM-33 762v6l132 145h13l132 -145v-6h-10l-129 142l-128 -142h-10z" />
    <glyph glyph-name="Idieresis" unicode="&#xcf;" horiz-adv-x="210" 
d="M100 0v700h10v-700h-10zM9 768v118h11v-118h-11zM190 768v118h11v-118h-11z" />
    <glyph glyph-name="Eth" unicode="&#xd0;" horiz-adv-x="685" 
d="M130 10h221q113 0 179 63q65 63 65 175v204q0 112 -65 175q-66 63 -179 63h-221v-334h249v-10h-249v-336zM120 0v346h-100v10h100v344h231q117 0 185 -66q69 -64 69 -182v-204q0 -118 -69 -182q-68 -66 -185 -66h-231z" />
    <glyph glyph-name="Ntilde" unicode="&#xd1;" horiz-adv-x="680" 
d="M100 0v700h10l460 -682v682h10v-700h-9l-461 681v-681h-10zM173 794l-8 6q37 46 57 63q20 16 45 16q30 0 70 -31l23 -16q38 -28 65 -28q21 0 38 14q18 16 54 61l8 -6q-37 -47 -57 -63q-19 -16 -44 -16q-31 0 -71 31l-23 16q-37 28 -64 28q-22 0 -40 -15t-53 -60z" />
    <glyph glyph-name="Ograve" unicode="&#xd2;" horiz-adv-x="668" 
d="M334 -5q114 0 178 63q66 63 66 175v234q0 112 -66 175q-64 63 -178 63t-178 -63q-66 -63 -66 -175v-234q0 -112 66 -175q64 -63 178 -63zM334 -15q-116 0 -186 65q-68 66 -68 183v234q0 117 68 183q70 65 186 65t186 -65q68 -66 68 -183v-234q0 -117 -68 -183
q-70 -65 -186 -65zM362 762l-132 145v6h10l136 -151h-14z" />
    <glyph glyph-name="Oacute" unicode="&#xd3;" horiz-adv-x="668" 
d="M334 -5q114 0 178 63q66 63 66 175v234q0 112 -66 175q-64 63 -178 63t-178 -63q-66 -63 -66 -175v-234q0 -112 66 -175q64 -63 178 -63zM334 -15q-116 0 -186 65q-68 66 -68 183v234q0 117 68 183q70 65 186 65t186 -65q68 -66 68 -183v-234q0 -117 -68 -183
q-70 -65 -186 -65zM327 762l136 151h10v-6l-132 -145h-14z" />
    <glyph glyph-name="Ocircumflex" unicode="&#xd4;" horiz-adv-x="668" 
d="M334 -5q114 0 178 63q66 63 66 175v234q0 112 -66 175q-64 63 -178 63t-178 -63q-66 -63 -66 -175v-234q0 -112 66 -175q64 -63 178 -63zM334 -15q-116 0 -186 65q-68 66 -68 183v234q0 117 68 183q70 65 186 65t186 -65q68 -66 68 -183v-234q0 -117 -68 -183
q-70 -65 -186 -65zM209 762v6l132 145h13l132 -145v-6h-10l-129 142l-128 -142h-10z" />
    <glyph glyph-name="Otilde" unicode="&#xd5;" horiz-adv-x="668" 
d="M334 -5q114 0 178 63q66 63 66 175v234q0 112 -66 175q-64 63 -178 63t-178 -63q-66 -63 -66 -175v-234q0 -112 66 -175q64 -63 178 -63zM334 -15q-116 0 -186 65q-68 66 -68 183v234q0 117 68 183q70 65 186 65t186 -65q68 -66 68 -183v-234q0 -117 -68 -183
q-70 -65 -186 -65zM165 794l-8 6q37 46 57 63q20 16 45 16q30 0 70 -31l23 -16q38 -28 65 -28q21 0 38 14q18 16 54 61l8 -6q-37 -47 -57 -63q-19 -16 -44 -16q-31 0 -71 31l-23 16q-37 28 -64 28q-22 0 -40 -15t-53 -60z" />
    <glyph glyph-name="Odieresis" unicode="&#xd6;" horiz-adv-x="668" 
d="M334 -5q114 0 178 63q66 63 66 175v234q0 112 -66 175q-64 63 -178 63t-178 -63q-66 -63 -66 -175v-234q0 -112 66 -175q64 -63 178 -63zM334 -15q-116 0 -186 65q-68 66 -68 183v234q0 117 68 183q70 65 186 65t186 -65q68 -66 68 -183v-234q0 -117 -68 -183
q-70 -65 -186 -65zM240 768v118h11v-118h-11zM420 768v118h11v-118h-11z" />
    <glyph glyph-name="multiply" unicode="&#xd7;" horiz-adv-x="422" 
d="M57 152l-7 7l154 154l-154 154l7 7l154 -154l154 154l7 -7l-154 -154l154 -154l-7 -7l-154 154z" />
    <glyph glyph-name="Oslash" unicode="&#xd8;" horiz-adv-x="668" 
d="M334 -15q-76 0 -136 30l-48 -115h-9v5l48 115q-109 63 -109 213v234q0 117 68 183q70 65 186 65q75 0 135 -30l49 115h9v-5l-49 -115q110 -65 110 -213v-234q0 -117 -68 -183q-70 -65 -186 -65zM334 -5q114 0 178 63q66 63 66 175v234q0 143 -104 203l-272 -646
q56 -29 132 -29zM90 233q0 -143 103 -204l272 646q-54 30 -131 30q-114 0 -178 -63q-66 -63 -66 -175v-234z" />
    <glyph glyph-name="Ugrave" unicode="&#xd9;" horiz-adv-x="660" 
d="M330 -15q-111 0 -175 67q-65 68 -65 185v463h10v-463q0 -113 62 -178q61 -64 168 -64t168 64q62 65 62 178v463h10v-463q0 -117 -65 -185q-64 -67 -175 -67zM373 762l-132 145v6h10l136 -151h-14z" />
    <glyph glyph-name="Uacute" unicode="&#xda;" horiz-adv-x="660" 
d="M330 -15q-111 0 -175 67q-65 68 -65 185v463h10v-463q0 -113 62 -178q61 -64 168 -64t168 64q62 65 62 178v463h10v-463q0 -117 -65 -185q-64 -67 -175 -67zM324 762l136 151h10v-6l-132 -145h-14z" />
    <glyph glyph-name="Ucircumflex" unicode="&#xdb;" horiz-adv-x="660" 
d="M330 -15q-111 0 -175 67q-65 68 -65 185v463h10v-463q0 -113 62 -178q61 -64 168 -64t168 64q62 65 62 178v463h10v-463q0 -117 -65 -185q-64 -67 -175 -67zM192 762v6l132 145h13l132 -145v-6h-10l-129 142l-128 -142h-10z" />
    <glyph glyph-name="Udieresis" unicode="&#xdc;" horiz-adv-x="660" 
d="M330 -15q-111 0 -175 67q-65 68 -65 185v463h10v-463q0 -113 62 -178q61 -64 168 -64t168 64q62 65 62 178v463h10v-463q0 -117 -65 -185q-64 -67 -175 -67zM235 768v118h11v-118h-11zM415 768v118h11v-118h-11z" />
    <glyph glyph-name="Yacute" unicode="&#xdd;" horiz-adv-x="596" 
d="M293 0v278l-273 417v5h9l269 -411l269 411h9v-5l-273 -417v-278h-10zM283 762l136 151h10v-6l-132 -145h-14z" />
    <glyph glyph-name="Thorn" unicode="&#xde;" horiz-adv-x="608" 
d="M100 0v700h10v-148h260q86 0 134 -54q49 -53 49 -146t-49 -146q-48 -54 -134 -54h-260v-152h-10zM110 162h260q80 0 127 51q46 50 46 139t-46 139q-47 51 -127 51h-260v-380z" />
    <glyph glyph-name="germandbls" unicode="&#xdf;" horiz-adv-x="573" 
d="M90 0v470q0 114 54 175q53 62 151 62q87 0 137 -49q49 -51 49 -122q0 -63 -33 -102q-36 -39 -90 -49q63 -10 110 -60q45 -49 45 -125q0 -98 -55 -150q-58 -50 -159 -50l-75 7v10q36 -7 75 -7q100 0 151 48q53 46 53 142q0 79 -54 130q-55 50 -145 50h-67v10h67
q83 0 125 39t42 107q0 70 -47 114q-44 47 -129 47q-93 0 -144 -59q-51 -58 -51 -168v-470h-10z" />
    <glyph glyph-name="agrave" unicode="&#xe0;" 
d="M216 -12q-69 0 -116 35q-45 35 -45 105q0 74 53 112q54 39 155 39h164v79q0 64 -43 104q-41 40 -124 40q-79 0 -122 -40q-44 -41 -44 -104h-10q0 68 46 111q44 43 130 43q87 0 132 -42q45 -44 45 -112v-358h-10v83q-104 -95 -211 -95zM216 -2q103 0 211 99v172h-164
q-95 0 -147 -35q-51 -36 -51 -106q0 -66 43 -98q46 -32 108 -32zM318 590l-123 135v5h9l127 -140h-13z" />
    <glyph glyph-name="aacute" unicode="&#xe1;" 
d="M216 -12q-69 0 -116 35q-45 35 -45 105q0 74 53 112q54 39 155 39h164v79q0 64 -43 104q-41 40 -124 40q-79 0 -122 -40q-44 -41 -44 -104h-10q0 68 46 111q44 43 130 43q87 0 132 -42q45 -44 45 -112v-358h-10v83q-104 -95 -211 -95zM216 -2q103 0 211 99v172h-164
q-95 0 -147 -35q-51 -36 -51 -106q0 -66 43 -98q46 -32 108 -32zM250 590l127 140h9v-5l-123 -135h-13z" />
    <glyph glyph-name="acircumflex" unicode="&#xe2;" 
d="M216 -12q-69 0 -116 35q-45 35 -45 105q0 74 53 112q54 39 155 39h164v79q0 64 -43 104q-41 40 -124 40q-79 0 -122 -40q-44 -41 -44 -104h-10q0 68 46 111q44 43 130 43q87 0 132 -42q45 -44 45 -112v-358h-10v83q-104 -95 -211 -95zM216 -2q103 0 211 99v172h-164
q-95 0 -147 -35q-51 -36 -51 -106q0 -66 43 -98q46 -32 108 -32zM150 590v5l123 135h12l123 -135v-5h-9l-120 132l-120 -132h-9z" />
    <glyph glyph-name="atilde" unicode="&#xe3;" 
d="M216 -12q-69 0 -116 35q-45 35 -45 105q0 74 53 112q54 39 155 39h164v79q0 64 -43 104q-41 40 -124 40q-79 0 -122 -40q-44 -41 -44 -104h-10q0 68 46 111q44 43 130 43q87 0 132 -42q45 -44 45 -112v-358h-10v83q-104 -95 -211 -95zM216 -2q103 0 211 99v172h-164
q-95 0 -147 -35q-51 -36 -51 -106q0 -66 43 -98q46 -32 108 -32zM107 632l-8 6q38 47 57 62q18 15 42 15q27 0 69 -30l22 -16q36 -27 63 -27q19 0 38 14q17 15 52 59l8 -6q-36 -47 -56 -61q-17 -16 -43 -16q-27 0 -69 30l-22 16q-38 27 -63 27q-21 0 -37 -14
q-14 -11 -53 -59z" />
    <glyph glyph-name="adieresis" unicode="&#xe4;" 
d="M216 -12q-69 0 -116 35q-45 35 -45 105q0 74 53 112q54 39 155 39h164v79q0 64 -43 104q-41 40 -124 40q-79 0 -122 -40q-44 -41 -44 -104h-10q0 68 46 111q44 43 130 43q87 0 132 -42q45 -44 45 -112v-358h-10v83q-104 -95 -211 -95zM216 -2q103 0 211 99v172h-164
q-95 0 -147 -35q-51 -36 -51 -106q0 -66 43 -98q46 -32 108 -32zM172 595v110h10v-110h-10zM340 595v110h10v-110h-10z" />
    <glyph glyph-name="aring" unicode="&#xe5;" 
d="M216 -12q-69 0 -116 35q-45 35 -45 105q0 74 53 112q54 39 155 39h164v79q0 64 -43 104q-41 40 -124 40q-79 0 -122 -40q-44 -41 -44 -104h-10q0 68 46 111q44 43 130 43q87 0 132 -42q45 -44 45 -112v-358h-10v83q-104 -95 -211 -95zM216 -2q103 0 211 99v172h-164
q-95 0 -147 -35q-51 -36 -51 -106q0 -66 43 -98q46 -32 108 -32zM266 587q36 0 62 23q26 24 26 58t-26 58q-26 23 -62 23t-62 -23q-26 -24 -26 -58t26 -58q26 -23 62 -23zM266 577q-40 0 -69 27q-29 26 -29 64t29 64q29 27 69 27t69 -27q29 -26 29 -64t-29 -64
q-29 -27 -69 -27z" />
    <glyph glyph-name="ae" unicode="&#xe6;" horiz-adv-x="882" 
d="M216 -12q-68 0 -116 34q-45 36 -45 102q0 71 53 109q53 37 155 37h164v88q0 64 -43 104q-41 40 -124 40q-79 0 -122 -40q-44 -41 -44 -104h-10q0 68 46 111q44 43 130 43q76 0 122 -34q44 -37 53 -92q16 57 63 92q47 34 123 34q94 0 145 -52q49 -52 49 -134v-66h-378v-92
q0 -78 49 -124t135 -46q81 0 127 40q45 42 52 108h10q-6 -71 -54 -115q-49 -43 -135 -43q-83 0 -130 38q-47 40 -59 97q-31 -57 -89 -97q-58 -38 -127 -38zM216 -2q75 0 134 46q61 47 77 97v119h-164q-94 0 -147 -34q-51 -36 -51 -102q0 -63 43 -95q44 -31 108 -31zM437 270
h368v56q0 77 -47 127q-46 49 -137 49q-87 0 -135 -49q-49 -49 -49 -127v-56z" />
    <glyph glyph-name="ccedilla" unicode="&#xe7;" horiz-adv-x="518" 
d="M160 -160v5l113 143h-12q-94 0 -143 52q-51 52 -51 134v152q0 82 51 134q49 52 143 52q89 0 142 -47q52 -46 52 -120v-4h-10v4q0 70 -49 113q-50 44 -135 44q-87 0 -135 -49q-49 -49 -49 -127v-152q0 -78 49 -127q48 -49 135 -49q85 0 135 44q49 45 49 115v5h10v-5
q0 -67 -45 -115q-46 -46 -124 -53l-117 -149h-9z" />
    <glyph glyph-name="egrave" unicode="&#xe8;" 
d="M261 -12q-94 0 -143 52q-51 52 -51 134v152q0 82 51 134q49 52 143 52q96 0 145 -52t49 -134v-76h-378v-76q0 -78 49 -127q48 -49 135 -49q81 0 127 40q45 42 52 108h10q-6 -71 -54 -115q-49 -43 -135 -43zM77 260h368v66q0 77 -47 127q-46 49 -137 49q-87 0 -135 -49
q-49 -49 -49 -127v-66zM280 590l-123 135v5h9l127 -140h-13z" />
    <glyph glyph-name="eacute" unicode="&#xe9;" 
d="M261 -12q-94 0 -143 52q-51 52 -51 134v152q0 82 51 134q49 52 143 52q96 0 145 -52t49 -134v-76h-378v-76q0 -78 49 -127q48 -49 135 -49q81 0 127 40q45 42 52 108h10q-6 -71 -54 -115q-49 -43 -135 -43zM77 260h368v66q0 77 -47 127q-46 49 -137 49q-87 0 -135 -49
q-49 -49 -49 -127v-66zM222 590l127 140h9v-5l-123 -135h-13z" />
    <glyph glyph-name="ecircumflex" unicode="&#xea;" 
d="M261 -12q-94 0 -143 52q-51 52 -51 134v152q0 82 51 134q49 52 143 52q96 0 145 -52t49 -134v-76h-378v-76q0 -78 49 -127q48 -49 135 -49q81 0 127 40q45 42 52 108h10q-6 -71 -54 -115q-49 -43 -135 -43zM77 260h368v66q0 77 -47 127q-46 49 -137 49q-87 0 -135 -49
q-49 -49 -49 -127v-66zM139 590v5l123 135h12l123 -135v-5h-9l-120 132l-120 -132h-9z" />
    <glyph glyph-name="edieresis" unicode="&#xeb;" 
d="M261 -12q-94 0 -143 52q-51 52 -51 134v152q0 82 51 134q49 52 143 52q96 0 145 -52t49 -134v-76h-378v-76q0 -78 49 -127q48 -49 135 -49q81 0 127 40q45 42 52 108h10q-6 -71 -54 -115q-49 -43 -135 -43zM77 260h368v66q0 77 -47 127q-46 49 -137 49q-87 0 -135 -49
q-49 -49 -49 -127v-66zM172 595v110h10v-110h-10zM340 595v110h10v-110h-10z" />
    <glyph glyph-name="igrave" unicode="&#xec;" horiz-adv-x="190" 
d="M94 588l-123 135v5h9l127 -140h-13zM90 0v500h10v-500h-10z" />
    <glyph glyph-name="iacute" unicode="&#xed;" horiz-adv-x="190" 
d="M83 590l127 140h9v-5l-123 -135h-13zM90 0v500h10v-500h-10z" />
    <glyph glyph-name="icircumflex" unicode="&#xee;" horiz-adv-x="190" 
d="M-34 590v5l123 135h12l123 -135v-5h-9l-120 132l-120 -132h-9zM90 0v500h10v-500h-10z" />
    <glyph glyph-name="idieresis" unicode="&#xef;" horiz-adv-x="190" 
d="M6 595v110h10v-110h-10zM174 595v110h10v-110h-10zM90 0v500h10v-500h-10z" />
    <glyph glyph-name="eth" unicode="&#xf0;" horiz-adv-x="548" 
d="M269 -12q-96 0 -145 52t-49 134v86q0 82 45 134t129 52q108 0 204 -106q-4 54 -31 104q-26 45 -78 113h-194v10h186l-107 133v5h9l110 -138h115v-10h-107q30 -38 54 -71q20 -30 36 -71q17 -45 17 -85v-156q0 -82 -51 -134q-49 -52 -143 -52zM269 -2q87 0 135 49
q49 49 49 127v152q-101 110 -204 110q-79 0 -121 -49q-43 -49 -43 -127v-86q0 -77 47 -127q46 -49 137 -49z" />
    <glyph glyph-name="ntilde" unicode="&#xf1;" horiz-adv-x="559" 
d="M90 0v500h10v-94q94 106 204 106q74 0 122 -48q48 -46 48 -136v-328h-10v324q0 88 -45 133t-115 45q-111 0 -204 -111v-391h-10zM115 632l-8 6q35 43 57 62q18 15 42 15q27 0 69 -30l22 -16q36 -27 63 -27q19 0 38 14q17 15 52 59l8 -6q-36 -47 -56 -61q-17 -16 -43 -16
q-27 0 -69 30l-22 16q-38 27 -63 27q-21 0 -37 -14q-14 -11 -53 -59z" />
    <glyph glyph-name="ograve" unicode="&#xf2;" 
d="M261 -2q91 0 137 49q47 50 47 127v152q0 77 -47 127q-46 49 -137 49q-87 0 -135 -49q-49 -49 -49 -127v-152q0 -78 49 -127q48 -49 135 -49zM261 -12q-94 0 -143 52q-51 52 -51 134v152q0 82 51 134q49 52 143 52q96 0 145 -52t49 -134v-152q0 -82 -49 -134
q-51 -52 -145 -52zM274 590l-123 135v5h9l127 -140h-13z" />
    <glyph glyph-name="oacute" unicode="&#xf3;" 
d="M261 -2q91 0 137 49q47 50 47 127v152q0 77 -47 127q-46 49 -137 49q-87 0 -135 -49q-49 -49 -49 -127v-152q0 -78 49 -127q48 -49 135 -49zM261 -12q-94 0 -143 52q-51 52 -51 134v152q0 82 51 134q49 52 143 52q96 0 145 -52t49 -134v-152q0 -82 -49 -134
q-51 -52 -145 -52zM246 590l127 140h9v-5l-123 -135h-13z" />
    <glyph glyph-name="ocircumflex" unicode="&#xf4;" 
d="M261 -2q91 0 137 49q47 50 47 127v152q0 77 -47 127q-46 49 -137 49q-87 0 -135 -49q-49 -49 -49 -127v-152q0 -78 49 -127q48 -49 135 -49zM261 -12q-94 0 -143 52q-51 52 -51 134v152q0 82 51 134q49 52 143 52q96 0 145 -52t49 -134v-152q0 -82 -49 -134
q-51 -52 -145 -52zM132 590v5l123 135h12l123 -135v-5h-9l-120 132l-120 -132h-9z" />
    <glyph glyph-name="otilde" unicode="&#xf5;" 
d="M261 -2q91 0 137 49q47 50 47 127v152q0 77 -47 127q-46 49 -137 49q-87 0 -135 -49q-49 -49 -49 -127v-152q0 -78 49 -127q48 -49 135 -49zM261 -12q-94 0 -143 52q-51 52 -51 134v152q0 82 51 134q49 52 143 52q96 0 145 -52t49 -134v-152q0 -82 -49 -134
q-51 -52 -145 -52zM95 632l-8 6q33 41 56 62q21 15 43 15q27 0 69 -30l22 -16q36 -27 63 -27q21 0 37 14q15 11 53 59l8 -6q-33 -43 -55 -61q-20 -16 -44 -16q-27 0 -69 30l-22 16q-38 27 -63 27q-19 0 -38 -14q-17 -15 -52 -59z" />
    <glyph glyph-name="odieresis" unicode="&#xf6;" 
d="M261 -2q91 0 137 49q47 50 47 127v152q0 77 -47 127q-46 49 -137 49q-87 0 -135 -49q-49 -49 -49 -127v-152q0 -78 49 -127q48 -49 135 -49zM261 -12q-94 0 -143 52q-51 52 -51 134v152q0 82 51 134q49 52 143 52q96 0 145 -52t49 -134v-152q0 -82 -49 -134
q-51 -52 -145 -52zM170 595v110h10v-110h-10zM338 595v110h10v-110h-10z" />
    <glyph glyph-name="divide" unicode="&#xf7;" horiz-adv-x="498" 
d="M244 114v107h10v-107h-10zM50 308v10h398v-10h-398zM244 405v107h10v-107h-10z" />
    <glyph glyph-name="oslash" unicode="&#xf8;" 
d="M261 -12q-66 0 -115 29l-70 -143h-9v5l71 143q-71 51 -71 152v152q0 82 51 134q49 52 143 52q61 0 107 -24l78 158h9v-5l-78 -158q78 -50 78 -157v-152q0 -82 -49 -134q-51 -52 -145 -52zM261 -2q91 0 137 49q47 50 47 127v152q0 101 -73 147l-221 -447q44 -28 110 -28z
M77 174q0 -92 66 -142l220 446q-43 24 -102 24q-87 0 -135 -49q-49 -49 -49 -127v-152z" />
    <glyph glyph-name="ugrave" unicode="&#xf9;" horiz-adv-x="559" 
d="M255 -12q-74 0 -122 48q-48 46 -48 136v328h10v-324q0 -88 45 -133t115 -45q111 0 204 111v391h10v-500h-10v94q-94 -106 -204 -106zM301 590l-123 135v5h9l127 -140h-13z" />
    <glyph glyph-name="uacute" unicode="&#xfa;" horiz-adv-x="559" 
d="M255 -12q-74 0 -122 48q-48 46 -48 136v328h10v-324q0 -88 45 -133t115 -45q111 0 204 111v391h10v-500h-10v94q-94 -106 -204 -106zM249 590l127 140h9v-5l-123 -135h-13z" />
    <glyph glyph-name="ucircumflex" unicode="&#xfb;" horiz-adv-x="559" 
d="M255 -12q-74 0 -122 48q-48 46 -48 136v328h10v-324q0 -88 45 -133t115 -45q111 0 204 111v391h10v-500h-10v94q-94 -106 -204 -106zM150 590v5l123 135h12l123 -135v-5h-9l-120 132l-120 -132h-9z" />
    <glyph glyph-name="udieresis" unicode="&#xfc;" horiz-adv-x="559" 
d="M255 -12q-74 0 -122 48q-48 46 -48 136v328h10v-324q0 -88 45 -133t115 -45q111 0 204 111v391h10v-500h-10v94q-94 -106 -204 -106zM187 595v110h10v-110h-10zM355 595v110h10v-110h-10z" />
    <glyph glyph-name="yacute" unicode="&#xfd;" horiz-adv-x="490" 
d="M175 -160v5l65 155l-210 495v5h9l206 -489l206 489h9v-5l-276 -655h-9zM215 590l127 140h9v-5l-123 -135h-13z" />
    <glyph glyph-name="thorn" unicode="&#xfe;" horiz-adv-x="553" 
d="M90 -160v865h10v-299q96 106 204 106q84 0 129 -52q45 -53 45 -134v-152q0 -82 -45 -134t-129 -52q-108 0 -204 106v-254h-10zM304 -2q79 0 122 49q42 49 42 127v152q0 78 -42 127q-43 49 -122 49q-103 0 -204 -110v-284q101 -110 204 -110z" />
    <glyph glyph-name="ydieresis" unicode="&#xff;" horiz-adv-x="490" 
d="M175 -160v5l65 155l-210 495v5h9l206 -489l206 489h9v-5l-276 -655h-9zM153 595v110h10v-110h-10zM321 595v110h10v-110h-10z" />
    <glyph glyph-name="Amacron" unicode="&#x100;" horiz-adv-x="650" 
d="M30 0v5l289 695h12l289 -695v-5h-9l-91 218h-391l-90 -218h-9zM133 228h383l-191 461zM200 822v11h250v-11h-250z" />
    <glyph glyph-name="amacron" unicode="&#x101;" 
d="M216 -12q-69 0 -116 35q-45 35 -45 105q0 74 53 112q54 39 155 39h164v79q0 64 -43 104q-41 40 -124 40q-79 0 -122 -40q-44 -41 -44 -104h-10q0 68 46 111q44 43 130 43q87 0 132 -42q45 -44 45 -112v-358h-10v83q-104 -95 -211 -95zM216 -2q103 0 211 99v172h-164
q-95 0 -147 -35q-51 -36 -51 -106q0 -66 43 -98q46 -32 108 -32zM147 645v10h233v-10h-233z" />
    <glyph glyph-name="Aogonek" unicode="&#x104;" horiz-adv-x="650" 
d="M639 -160q-43 0 -69 18q-24 20 -24 53q0 48 63 93l-89 214h-391l-90 -218h-9v5l289 695h12l289 -695v-5q-64 -46 -64 -89q0 -61 86 -61h47v-10h-50zM133 228h383l-191 461z" />
    <glyph glyph-name="aogonek" unicode="&#x105;" 
d="M456 -160q-44 0 -68 18q-25 19 -25 53q0 48 64 94v78q-104 -95 -211 -95q-69 0 -116 35q-45 35 -45 105q0 74 53 112q54 39 155 39h164v79q0 64 -43 104q-41 40 -124 40q-79 0 -122 -40q-44 -41 -44 -104h-10q0 68 46 111q44 43 130 43q87 0 132 -42q45 -44 45 -112v-358
q-64 -46 -64 -89q0 -61 86 -61h47v-10h-50zM216 -2q103 0 211 99v172h-164q-95 0 -147 -35q-51 -36 -51 -106q0 -66 43 -98q46 -32 108 -32z" />
    <glyph glyph-name="Cacute" unicode="&#x106;" horiz-adv-x="656" 
d="M339 -15q-119 0 -189 67t-70 185v226q0 118 70 185t189 67q105 0 175 -61q72 -60 72 -166v-10h-10v10q0 100 -68 159q-68 58 -169 58q-115 0 -182 -64t-67 -178v-226q0 -114 67 -178t182 -64q101 0 169 58q68 59 68 159v10h10v-10q0 -106 -72 -166q-70 -61 -175 -61z
M326 762l136 151h10v-6l-132 -145h-14z" />
    <glyph glyph-name="cacute" unicode="&#x107;" horiz-adv-x="518" 
d="M261 -12q-94 0 -143 52q-51 52 -51 134v152q0 82 51 134q49 52 143 52q89 0 142 -47q52 -46 52 -120v-4h-10v4q0 70 -49 113q-50 44 -135 44q-87 0 -135 -49q-49 -49 -49 -127v-152q0 -78 49 -127q48 -49 135 -49q85 0 135 44q49 45 49 115v5h10v-5q0 -75 -51 -121
q-52 -48 -143 -48zM223 590l127 140h9v-5l-123 -135h-13z" />
    <glyph glyph-name="Ccaron" unicode="&#x10c;" horiz-adv-x="656" 
d="M339 -15q-119 0 -189 67t-70 185v226q0 118 70 185t189 67q105 0 175 -61q72 -60 72 -166v-10h-10v10q0 100 -68 159q-68 58 -169 58q-115 0 -182 -64t-67 -178v-226q0 -114 67 -178t182 -64q101 0 169 58q68 59 68 159v10h10v-10q0 -106 -72 -166q-70 -61 -175 -61z
M331 763l-132 145v5h10l128 -141l129 141h10v-5l-132 -145h-13z" />
    <glyph glyph-name="ccaron" unicode="&#x10d;" horiz-adv-x="518" 
d="M261 -12q-94 0 -143 52q-51 52 -51 134v152q0 82 51 134q49 52 143 52q89 0 142 -47q52 -46 52 -120v-4h-10v4q0 70 -49 113q-50 44 -135 44q-87 0 -135 -49q-49 -49 -49 -127v-152q0 -78 49 -127q48 -49 135 -49q85 0 135 44q49 45 49 115v5h10v-5q0 -75 -51 -121
q-52 -48 -143 -48zM257 590l-123 135v5h9l120 -132l120 132h9v-5l-123 -135h-12z" />
    <glyph glyph-name="Dcaron" unicode="&#x10e;" horiz-adv-x="665" 
d="M110 10h221q113 0 179 63q65 63 65 175v204q0 112 -65 175q-66 63 -179 63h-221v-680zM100 0v700h231q117 0 185 -66q69 -64 69 -182v-204q0 -118 -69 -182q-68 -66 -185 -66h-231zM315 763l-132 145v5h10l128 -141l129 141h10v-5l-132 -145h-13z" />
    <glyph glyph-name="dcaron" unicode="&#x10f;" horiz-adv-x="626" 
d="M249 -12q-84 0 -129 52t-45 134v152q0 82 45 134t129 52q108 0 204 -106v299h10v-705h-10v94q-96 -106 -204 -106zM249 -2q103 0 204 110v284q-101 110 -204 110q-79 0 -121 -49q-43 -49 -43 -127v-152q0 -78 43 -127q42 -49 121 -49zM559 537v5l78 163h9v-5l-78 -163h-9
z" />
    <glyph glyph-name="Emacron" unicode="&#x112;" horiz-adv-x="568" 
d="M100 0v700h408v-10h-398v-332h350v-10h-350v-338h398v-10h-408zM181 822v11h250v-11h-250z" />
    <glyph glyph-name="emacron" unicode="&#x113;" 
d="M261 -12q-94 0 -143 52q-51 52 -51 134v152q0 82 51 134q49 52 143 52q96 0 145 -52t49 -134v-76h-378v-76q0 -78 49 -127q48 -49 135 -49q81 0 127 40q45 42 52 108h10q-6 -71 -54 -115q-49 -43 -135 -43zM77 260h368v66q0 77 -47 127q-46 49 -137 49q-87 0 -135 -49
q-49 -49 -49 -127v-66zM145 645v10h233v-10h-233z" />
    <glyph glyph-name="Edotaccent" unicode="&#x116;" horiz-adv-x="568" 
d="M100 0v700h408v-10h-398v-332h350v-10h-350v-338h398v-10h-408zM297 768v118h11v-118h-11z" />
    <glyph glyph-name="edotaccent" unicode="&#x117;" 
d="M261 -12q-94 0 -143 52q-51 52 -51 134v152q0 82 51 134q49 52 143 52q96 0 145 -52t49 -134v-76h-378v-76q0 -78 49 -127q48 -49 135 -49q81 0 127 40q45 42 52 108h10q-6 -71 -54 -115q-49 -43 -135 -43zM77 260h368v66q0 77 -47 127q-46 49 -137 49q-87 0 -135 -49
q-49 -49 -49 -127v-66zM256 595v110h10v-110h-10z" />
    <glyph glyph-name="Eogonek" unicode="&#x118;" horiz-adv-x="568" 
d="M527 -160q-93 0 -93 72q0 42 58 88h-392v700h408v-10h-398v-332h350v-10h-350v-338h398v-10q-64 -46 -64 -88q0 -62 86 -62h47v-10h-50z" />
    <glyph glyph-name="eogonek" unicode="&#x119;" 
d="M356 -160q-45 0 -68 19q-25 19 -25 54q0 41 49 80q-30 -5 -51 -5q-94 0 -143 52q-51 52 -51 134v152q0 82 51 134q49 52 143 52q96 0 145 -52t49 -134v-76h-378v-76q0 -78 49 -127q48 -49 135 -49q81 0 127 40q45 42 52 108h10q-11 -104 -107 -146q-33 -14 -51 -39
q-19 -25 -19 -48q0 -63 86 -63h47v-10h-50zM77 260h368v66q0 77 -47 127q-46 49 -137 49q-87 0 -135 -49q-49 -49 -49 -127v-66z" />
    <glyph glyph-name="Ecaron" unicode="&#x11a;" horiz-adv-x="568" 
d="M100 0v700h408v-10h-398v-332h350v-10h-350v-338h398v-10h-408zM304 763l-132 145v5h10l128 -141l129 141h10v-5l-132 -145h-13z" />
    <glyph glyph-name="ecaron" unicode="&#x11b;" 
d="M261 -12q-94 0 -143 52q-51 52 -51 134v152q0 82 51 134q49 52 143 52q96 0 145 -52t49 -134v-76h-378v-76q0 -78 49 -127q48 -49 135 -49q81 0 127 40q45 42 52 108h10q-6 -71 -54 -115q-49 -43 -135 -43zM77 260h368v66q0 77 -47 127q-46 49 -137 49q-87 0 -135 -49
q-49 -49 -49 -127v-66zM253 590l-123 135v5h9l120 -132l120 132h9v-5l-123 -135h-12z" />
    <glyph glyph-name="uni0122" unicode="&#x122;" horiz-adv-x="687" 
d="M345 -15q-123 0 -193 67q-72 68 -72 185v226q0 117 72 185q70 67 193 67q105 0 179 -61q73 -61 73 -166v-10h-10v10q0 101 -71 159q-68 58 -171 58q-119 0 -187 -64q-68 -65 -68 -178v-226q0 -113 68 -178q68 -64 187 -64q90 0 147 39q59 40 95 128v156h-211v10h221v-328
h-10v138q-61 -153 -242 -153zM291 -235v5l78 163h9v-5l-78 -163h-9z" />
    <glyph glyph-name="uni0123" unicode="&#x123;" horiz-adv-x="553" 
d="M275 -172q-83 0 -135 42q-51 42 -54 116h10q3 -66 52 -108q51 -40 127 -40q82 0 131 47q47 47 47 138v117q-96 -106 -204 -106q-84 0 -129 52q-45 53 -45 134v106q0 82 45 134t129 52q108 0 204 -106v94h10v-477q0 -96 -50 -146q-49 -49 -138 -49zM249 44q103 0 204 110
v238q-101 110 -204 110q-79 0 -121 -49q-43 -49 -43 -127v-106q0 -78 43 -127q42 -49 121 -49zM349 754v-5l-72 -163h-8v5l71 163h9z" />
    <glyph glyph-name="Imacron" unicode="&#x12a;" horiz-adv-x="210" 
d="M100 0v700h10v-700h-10zM-20 822v11h250v-11h-250z" />
    <glyph glyph-name="imacron" unicode="&#x12b;" horiz-adv-x="190" 
d="M90 0v500h10v-500h-10zM-21 645v10h233v-10h-233z" />
    <glyph glyph-name="Iogonek" unicode="&#x12e;" horiz-adv-x="210" 
d="M129 -160q-43 0 -69 18q-24 20 -24 53q0 48 64 94v695h10v-700q-64 -46 -64 -89q0 -61 86 -61h47v-10h-50z" />
    <glyph glyph-name="iogonek" unicode="&#x12f;" horiz-adv-x="190" 
d="M119 -160q-43 0 -69 18q-24 20 -24 53q0 48 64 94v495h10v-500q-64 -46 -64 -89q0 -61 86 -61h47v-10h-50zM90 595v110h10v-110h-10z" />
    <glyph glyph-name="dotlessi" unicode="&#x131;" horiz-adv-x="190" 
d="M90 0v500h10v-500h-10z" />
    <glyph glyph-name="uni0136" unicode="&#x136;" horiz-adv-x="577" 
d="M100 0v700h10v-344h166l251 344h9v-5l-251 -344l262 -346v-5h-9l-261 346h-167v-346h-10zM221 -235v5l78 163h9v-5l-78 -163h-9z" />
    <glyph glyph-name="uni0137" unicode="&#x137;" horiz-adv-x="491" 
d="M90 0v705h10v-445h132l190 240h9v-5l-189 -239l199 -251v-5h-9l-197 250h-135v-250h-10zM194 -235v5l72 163h8v-5l-71 -163h-9z" />
    <glyph glyph-name="Lacute" unicode="&#x139;" horiz-adv-x="551" 
d="M101 0v700h10v-690h410v-10h-420zM100 762l136 151h10v-6l-132 -145h-14z" />
    <glyph glyph-name="lacute" unicode="&#x13a;" horiz-adv-x="190" 
d="M90 0v705h10v-705h-10zM90 756l127 140h9v-5l-123 -135h-13z" />
    <glyph glyph-name="uni013B" unicode="&#x13b;" horiz-adv-x="550" 
d="M246 -235v5l78 163h9v-5l-78 -163h-9zM100 0v700h10v-690h410v-10h-420z" />
    <glyph glyph-name="uni013C" unicode="&#x13c;" horiz-adv-x="190" 
d="M90 0v705h10v-705h-10zM18 -235v5l72 163h8v-5l-71 -163h-9z" />
    <glyph glyph-name="Lcaron" unicode="&#x13d;" horiz-adv-x="550" 
d="M440 532v5l78 163h9v-5l-78 -163h-9zM100 0v700h10v-690h410v-10h-420z" />
    <glyph glyph-name="lcaron" unicode="&#x13e;" horiz-adv-x="263" 
d="M196 537v5l78 163h9v-5l-78 -163h-9zM90 0v705h10v-705h-10z" />
    <glyph glyph-name="Lslash" unicode="&#x141;" horiz-adv-x="595" 
d="M145 0v295l-101 -82h-9v5l110 90v392h10v-384l228 187h9v-5l-237 -195v-293h410v-10h-420z" />
    <glyph glyph-name="lslash" unicode="&#x142;" horiz-adv-x="364" 
d="M175 0v341l-166 -201h-9v5l175 212v348h10v-336l170 206h9v-5l-179 -217v-353h-10z" />
    <glyph glyph-name="Nacute" unicode="&#x143;" horiz-adv-x="680" 
d="M100 0v700h10l460 -682v682h10v-700h-9l-461 681v-681h-10zM312 762l136 151h10v-6l-132 -145h-14z" />
    <glyph glyph-name="nacute" unicode="&#x144;" horiz-adv-x="559" 
d="M90 0v500h10v-94q94 106 204 106q74 0 122 -48q48 -46 48 -136v-328h-10v324q0 88 -45 133t-115 45q-111 0 -204 -111v-391h-10zM223 590l127 140h9v-5l-123 -135h-13z" />
    <glyph glyph-name="Ncommaaccent" unicode="&#x145;" horiz-adv-x="680" 
d="M100 0v700h10l460 -682v682h10v-700h-9l-461 681v-681h-10zM264 -235v5l78 163h9v-5l-78 -163h-9z" />
    <glyph glyph-name="ncommaaccent" unicode="&#x146;" horiz-adv-x="559" 
d="M90 0v500h10v-94q94 106 204 106q74 0 122 -48q48 -46 48 -136v-328h-10v324q0 88 -45 133t-115 45q-111 0 -204 -111v-391h-10zM229 -235v5l72 163h8v-5l-71 -163h-9z" />
    <glyph glyph-name="Ncaron" unicode="&#x147;" horiz-adv-x="680" 
d="M100 0v700h10l460 -682v682h10v-700h-9l-461 681v-681h-10zM335 763l-132 145v5h10l128 -141l129 141h10v-5l-132 -145h-13z" />
    <glyph glyph-name="ncaron" unicode="&#x148;" horiz-adv-x="559" 
d="M90 0v500h10v-94q94 106 204 106q74 0 122 -48q48 -46 48 -136v-328h-10v324q0 88 -45 133t-115 45q-111 0 -204 -111v-391h-10zM277 590l-123 135v5h9l120 -132l120 132h9v-5l-123 -135h-12z" />
    <glyph glyph-name="Omacron" unicode="&#x14c;" horiz-adv-x="668" 
d="M334 -5q114 0 178 63q66 63 66 175v234q0 112 -66 175q-64 63 -178 63t-178 -63q-66 -63 -66 -175v-234q0 -112 66 -175q64 -63 178 -63zM334 -15q-116 0 -186 65q-68 66 -68 183v234q0 117 68 183q70 65 186 65t186 -65q68 -66 68 -183v-234q0 -117 -68 -183
q-70 -65 -186 -65zM209 822v11h250v-11h-250z" />
    <glyph glyph-name="omacron" unicode="&#x14d;" 
d="M261 -2q91 0 137 49q47 50 47 127v152q0 77 -47 127q-46 49 -137 49q-87 0 -135 -49q-49 -49 -49 -127v-152q0 -78 49 -127q48 -49 135 -49zM261 -12q-94 0 -143 52q-51 52 -51 134v152q0 82 51 134q49 52 143 52q96 0 145 -52t49 -134v-152q0 -82 -49 -134
q-51 -52 -145 -52zM146 645v10h233v-10h-233z" />
    <glyph glyph-name="obreve" unicode="&#x14f;" 
d="M261 -2q91 0 137 49q47 50 47 127v152q0 77 -47 127q-46 49 -137 49q-87 0 -135 -49q-49 -49 -49 -127v-152q0 -78 49 -127q48 -49 135 -49zM261 -12q-94 0 -143 52q-51 52 -51 134v152q0 82 51 134q49 52 143 52q96 0 145 -52t49 -134v-152q0 -82 -49 -134
q-51 -52 -145 -52zM263 585q-67 0 -105 37q-40 36 -40 100v12h10v-11q0 -60 37 -94t98 -34t98 34t37 94v11h10v-12q0 -64 -40 -100q-40 -37 -105 -37z" />
    <glyph glyph-name="Ohungarumlaut" unicode="&#x150;" horiz-adv-x="668" 
d="M334 -5q114 0 178 63q66 63 66 175v234q0 112 -66 175q-64 63 -178 63t-178 -63q-66 -63 -66 -175v-234q0 -112 66 -175q64 -63 178 -63zM334 -15q-116 0 -186 65q-68 66 -68 183v234q0 117 68 183q70 65 186 65t186 -65q68 -66 68 -183v-234q0 -117 -68 -183
q-70 -65 -186 -65zM235 763l136 150h10v-5l-132 -145h-14zM413 763l136 150h10v-5l-132 -145h-14z" />
    <glyph glyph-name="ohungarumlaut" unicode="&#x151;" 
d="M261 -2q91 0 137 49q47 50 47 127v152q0 77 -47 127q-46 49 -137 49q-87 0 -135 -49q-49 -49 -49 -127v-152q0 -78 49 -127q48 -49 135 -49zM261 -12q-94 0 -143 52q-51 52 -51 134v152q0 82 51 134q49 52 143 52q96 0 145 -52t49 -134v-152q0 -82 -49 -134
q-51 -52 -145 -52zM165 590l127 140h9v-5l-123 -135h-13zM331 590l127 140h9v-5l-123 -135h-13z" />
    <glyph glyph-name="OE" unicode="&#x152;" horiz-adv-x="1046" 
d="M334 -15q-116 0 -186 65q-68 66 -68 183v234q0 117 68 183q70 65 186 65q93 0 158 -44q63 -42 86 -124v153h408v-10h-398v-332h350v-10h-350v-338h398v-10h-408v153q-22 -81 -86 -125q-66 -43 -158 -43zM334 -5q110 0 177 63t67 169v246q0 106 -67 169t-177 63
q-114 0 -178 -63q-66 -63 -66 -175v-234q0 -112 66 -175q64 -63 178 -63z" />
    <glyph glyph-name="oe" unicode="&#x153;" horiz-adv-x="900" 
d="M261 -12q-94 0 -143 52q-51 52 -51 134v152q0 82 51 134q49 52 143 52q80 0 127 -38q48 -35 62 -100q14 65 62 100q47 38 127 38q94 0 145 -52q49 -52 49 -134v-76h-378v-79q0 -76 49 -125q51 -48 135 -48q81 0 127 40q45 42 52 108h10q-6 -71 -54 -115q-49 -43 -135 -43
q-80 0 -127 38q-48 35 -62 100q-14 -65 -61 -100q-47 -38 -128 -38zM261 -2q88 0 136 48t48 125v159q0 74 -48 124q-48 48 -136 48q-87 0 -135 -49q-49 -49 -49 -127v-152q0 -78 49 -127q48 -49 135 -49zM455 260h368v66q0 77 -47 127q-46 49 -137 49q-87 0 -135 -49
q-49 -49 -49 -127v-66z" />
    <glyph glyph-name="Racute" unicode="&#x154;" horiz-adv-x="630" 
d="M100 0v700h279q85 0 135 -54q48 -54 48 -146q0 -88 -44 -141q-44 -51 -120 -59l180 -295v-5h-9l-183 300h-276v-300h-10zM110 310h269q80 0 127 51q46 50 46 139t-46 139q-46 51 -127 51h-269v-380zM293 762l136 151h10v-6l-132 -145h-14z" />
    <glyph glyph-name="racute" unicode="&#x155;" horiz-adv-x="362" 
d="M90 0v500h10v-94q98 104 217 104h5v-10h-5q-119 0 -217 -108v-392h-10zM169 590l127 140h9v-5l-123 -135h-13z" />
    <glyph glyph-name="Rcommaaccent" unicode="&#x156;" horiz-adv-x="630" 
d="M100 0v700h279q85 0 135 -54q48 -54 48 -146q0 -88 -44 -141q-44 -51 -120 -59l180 -295v-5h-9l-183 300h-276v-300h-10zM110 310h269q80 0 127 51q46 50 46 139t-46 139q-46 51 -127 51h-269v-380zM252 -235v5l78 163h9v-5l-78 -163h-9z" />
    <glyph glyph-name="uni0157" unicode="&#x157;" horiz-adv-x="362" 
d="M90 0v500h10v-94q98 104 217 104h5v-10h-5q-119 0 -217 -108v-392h-10zM19 -235v5l72 163h8v-5l-71 -163h-9z" />
    <glyph glyph-name="Rcaron" unicode="&#x158;" horiz-adv-x="630" 
d="M100 0v700h279q85 0 135 -54q48 -54 48 -146q0 -88 -44 -141q-44 -51 -120 -59l180 -295v-5h-9l-183 300h-276v-300h-10zM110 310h269q80 0 127 51q46 50 46 139t-46 139q-46 51 -127 51h-269v-380zM300 763l-132 145v5h10l128 -141l129 141h10v-5l-132 -145h-13z" />
    <glyph glyph-name="rcaron" unicode="&#x159;" horiz-adv-x="362" 
d="M196 590l-123 135v5h9l120 -132l120 132h9v-5l-123 -135h-12zM90 0v500h10v-94q98 104 217 104h5v-10h-5q-119 0 -217 -108v-392h-10z" />
    <glyph glyph-name="Sacute" unicode="&#x15a;" horiz-adv-x="611" 
d="M319 -15q-48 0 -96 14q-45 13 -84 41q-39 30 -61 76q-23 49 -23 111h10q0 -115 75 -174q76 -58 179 -58t157 47q55 45 55 118q0 60 -37 98q-39 37 -119 68l-126 48q-97 36 -133 72q-35 35 -35 101q0 76 58 121q57 47 159 47q107 0 173 -59q67 -58 67 -177h-10
q0 115 -66 171q-64 55 -164 55q-94 0 -152 -44q-55 -44 -55 -114q0 -60 31 -92q31 -33 106 -61l124 -47q101 -38 144 -77q45 -39 45 -110q0 -76 -57 -126q-56 -49 -165 -49zM286 762l136 151h10v-6l-132 -145h-14z" />
    <glyph glyph-name="sacute" unicode="&#x15b;" horiz-adv-x="523" 
d="M269 -12q-56 0 -100 16q-46 17 -77 57q-32 41 -32 102h10q0 -59 32 -97q32 -39 74 -54q45 -14 93 -14q81 0 128 35q46 34 46 90q0 48 -31 73q-29 23 -103 43l-102 27q-68 18 -97 44q-27 27 -27 77q0 54 47 89q46 36 130 36t137 -42q52 -43 52 -128h-10q0 80 -49 120
t-130 40q-79 0 -123 -32t-44 -83q0 -44 25 -69q28 -26 90 -42l102 -27q78 -21 110 -47q33 -25 33 -79q0 -61 -47 -97q-47 -38 -137 -38zM233 590l127 140h9v-5l-123 -135h-13z" />
    <glyph glyph-name="scircumflex" unicode="&#x15d;" horiz-adv-x="523" 
d="M269 -12q-56 0 -100 16q-46 17 -77 57q-32 41 -32 102h10q0 -59 32 -97q32 -39 74 -54q45 -14 93 -14q81 0 128 35q46 34 46 90q0 48 -31 73q-29 23 -103 43l-102 27q-68 18 -97 44q-27 27 -27 77q0 54 47 89q46 36 130 36t137 -42q52 -43 52 -128h-10q0 80 -49 120
t-130 40q-79 0 -123 -32t-44 -83q0 -44 25 -69q28 -26 90 -42l102 -27q78 -21 110 -47q33 -25 33 -79q0 -61 -47 -97q-47 -38 -137 -38zM148 590v5l123 135h12l123 -135v-5h-9l-120 132l-120 -132h-9z" />
    <glyph glyph-name="Scaron" unicode="&#x160;" horiz-adv-x="611" 
d="M319 -15q-48 0 -96 14q-45 13 -84 41q-39 30 -61 76q-23 49 -23 111h10q0 -115 75 -174q76 -58 179 -58t157 47q55 45 55 118q0 60 -37 98q-39 37 -119 68l-126 48q-97 36 -133 72q-35 35 -35 101q0 76 58 121q57 47 159 47q107 0 173 -59q67 -58 67 -177h-10
q0 115 -66 171q-64 55 -164 55q-94 0 -152 -44q-55 -44 -55 -114q0 -60 31 -92q31 -33 106 -61l124 -47q101 -38 144 -77q45 -39 45 -110q0 -76 -57 -126q-56 -49 -165 -49zM308 763l-132 145v5h10l128 -141l129 141h10v-5l-132 -145h-13z" />
    <glyph glyph-name="scaron" unicode="&#x161;" horiz-adv-x="523" 
d="M269 -12q-56 0 -100 16q-46 17 -77 57q-32 41 -32 102h10q0 -59 32 -97q32 -39 74 -54q45 -14 93 -14q81 0 128 35q46 34 46 90q0 48 -31 73q-29 23 -103 43l-102 27q-68 18 -97 44q-27 27 -27 77q0 54 47 89q46 36 130 36t137 -42q52 -43 52 -128h-10q0 80 -49 120
t-130 40q-79 0 -123 -32t-44 -83q0 -44 25 -69q28 -26 90 -42l102 -27q78 -21 110 -47q33 -25 33 -79q0 -61 -47 -97q-47 -38 -137 -38zM261 590l-123 135v5h9l120 -132l120 132h9v-5l-123 -135h-12z" />
    <glyph glyph-name="Tcaron" unicode="&#x164;" horiz-adv-x="540" 
d="M265 0v690h-235v10h480v-10h-235v-690h-10zM264 763l-132 145v5h10l128 -141l129 141h10v-5l-132 -145h-13z" />
    <glyph glyph-name="tcaron" unicode="&#x165;" horiz-adv-x="424" 
d="M249 0q-63 0 -95 36q-30 38 -30 86v368h-94v10h94v104h10v-104h150v-10h-150v-368q0 -54 30 -82q30 -30 84 -30h36v-10h-35zM357 537v5l78 163h9v-5l-78 -163h-9z" />
    <glyph glyph-name="Umacron" unicode="&#x16a;" horiz-adv-x="660" 
d="M330 -15q-111 0 -175 67q-65 68 -65 185v463h10v-463q0 -113 62 -178q61 -64 168 -64t168 64q62 65 62 178v463h10v-463q0 -117 -65 -185q-64 -67 -175 -67zM205 822v11h250v-11h-250z" />
    <glyph glyph-name="umacron" unicode="&#x16b;" horiz-adv-x="559" 
d="M255 -12q-74 0 -122 48q-48 46 -48 136v328h10v-324q0 -88 45 -133t115 -45q111 0 204 111v391h10v-500h-10v94q-94 -106 -204 -106zM160 645v10h233v-10h-233z" />
    <glyph glyph-name="Uring" unicode="&#x16e;" horiz-adv-x="660" 
d="M330 -15q-111 0 -175 67q-65 68 -65 185v463h10v-463q0 -113 62 -178q61 -64 168 -64t168 64q62 65 62 178v463h10v-463q0 -117 -65 -185q-64 -67 -175 -67zM331 760q39 0 67 25q27 25 27 62t-27 61q-27 26 -67 26q-39 0 -66 -26q-28 -24 -28 -61t27 -61q27 -26 67 -26z
M331 749q-44 0 -74 29q-31 27 -31 69q0 41 31 69q33 28 74 28t74 -28q31 -30 31 -69q0 -42 -31 -69q-30 -29 -74 -29z" />
    <glyph glyph-name="uring" unicode="&#x16f;" horiz-adv-x="559" 
d="M255 -12q-74 0 -122 48q-48 46 -48 136v328h10v-324q0 -88 45 -133t115 -45q111 0 204 111v391h10v-500h-10v94q-94 -106 -204 -106zM277 587q36 0 62 23q26 24 26 58t-26 58q-26 23 -62 23t-62 -23q-26 -24 -26 -58t26 -58q26 -23 62 -23zM277 577q-41 0 -69 27
q-29 26 -29 64t29 64q28 27 69 27t69 -27q29 -26 29 -64t-29 -64q-28 -27 -69 -27z" />
    <glyph glyph-name="Uhungarumlaut" unicode="&#x170;" horiz-adv-x="660" 
d="M330 -15q-111 0 -175 67q-65 68 -65 185v463h10v-463q0 -113 62 -178q61 -64 168 -64t168 64q62 65 62 178v463h10v-463q0 -117 -65 -185q-64 -67 -175 -67zM211 763l136 150h10v-5l-132 -145h-14zM389 763l136 150h10v-5l-132 -145h-14z" />
    <glyph glyph-name="uhungarumlaut" unicode="&#x171;" horiz-adv-x="559" 
d="M255 -12q-74 0 -122 48q-48 46 -48 136v328h10v-324q0 -88 45 -133t115 -45q111 0 204 111v391h10v-500h-10v94q-94 -106 -204 -106zM167 590l127 140h9v-5l-123 -135h-13zM333 590l127 140h9v-5l-123 -135h-13z" />
    <glyph glyph-name="Uogonek" unicode="&#x172;" horiz-adv-x="660" 
d="M439 -160q-44 0 -68 20q-25 18 -25 53q0 38 47 79q-27 -7 -63 -7q-111 0 -175 67q-65 68 -65 185v463h10v-463q0 -113 62 -178q61 -64 168 -64t168 64q62 65 62 178v463h10v-463q0 -172 -136 -233q-38 -17 -58 -44q-20 -26 -20 -47q0 -63 86 -63h47v-10h-50z" />
    <glyph glyph-name="uogonek" unicode="&#x173;" horiz-adv-x="559" 
d="M488 -160q-44 0 -68 18q-25 19 -25 53q0 48 64 94v89q-94 -106 -204 -106q-74 0 -122 48q-48 46 -48 136v328h10v-324q0 -88 45 -133t115 -45q111 0 204 111v391h10v-500q-64 -46 -64 -89q0 -61 86 -61h47v-10h-50z" />
    <glyph glyph-name="Ydieresis" unicode="&#x178;" horiz-adv-x="596" 
d="M293 0v278l-273 417v5h9l269 -411l269 411h9v-5l-273 -417v-278h-10zM203 771v118h11v-118h-11zM383 771v118h11v-118h-11z" />
    <glyph glyph-name="Zacute" unicode="&#x179;" horiz-adv-x="558" 
d="M50 0v10l437 680h-424v10h436v-10l-437 -680h446v-10h-458zM248 762l136 151h10v-6l-132 -145h-14z" />
    <glyph glyph-name="zacute" unicode="&#x17a;" horiz-adv-x="501" 
d="M60 0v10l362 480h-344v10h357v-10l-362 -480h363v-10h-376zM209 590l127 140h9v-5l-123 -135h-13z" />
    <glyph glyph-name="Zdotaccent" unicode="&#x17b;" horiz-adv-x="558" 
d="M50 0v10l437 680h-424v10h436v-10l-437 -680h446v-10h-458zM265 768v118h11v-118h-11z" />
    <glyph glyph-name="zdotaccent" unicode="&#x17c;" horiz-adv-x="501" 
d="M60 0v10l362 480h-344v10h357v-10l-362 -480h363v-10h-376zM247 595v110h10v-110h-10z" />
    <glyph glyph-name="Zcaron" unicode="&#x17d;" horiz-adv-x="558" 
d="M50 0v10l437 680h-424v10h436v-10l-437 -680h446v-10h-458zM272 763l-132 145v5h10l128 -141l129 141h10v-5l-132 -145h-13z" />
    <glyph glyph-name="zcaron" unicode="&#x17e;" horiz-adv-x="501" 
d="M60 0v10l362 480h-344v10h357v-10l-362 -480h363v-10h-376zM243 590l-123 135v5h9l120 -132l120 132h9v-5l-123 -135h-12z" />
    <glyph glyph-name="florin" unicode="&#x192;" horiz-adv-x="378" 
d="M78 500h94l6 73q11 134 138 134l32 -2v-10q-22 2 -33 2q-55 0 -89 -31q-34 -32 -38 -93l-6 -73h150v-10h-151l-41 -528q-11 -134 -138 -134l-32 2v10q22 -2 33 -2q57 0 89 32q33 29 38 92l41 528h-93v10z" />
    <glyph glyph-name="scommaaccent" unicode="&#x219;" horiz-adv-x="523" 
d="M269 -12q-56 0 -100 16q-46 17 -77 57q-32 41 -32 102h10q0 -59 32 -97q32 -39 74 -54q45 -14 93 -14q81 0 128 35q46 34 46 90q0 48 -31 73q-29 23 -103 43l-102 27q-68 18 -97 44q-27 27 -27 77q0 54 47 89q46 36 130 36t137 -42q52 -43 52 -128h-10q0 80 -49 120
t-130 40q-79 0 -123 -32t-44 -83q0 -44 25 -69q28 -26 90 -42l102 -27q78 -21 110 -47q33 -25 33 -79q0 -61 -47 -97q-47 -38 -137 -38zM203 -235v5l72 163h8v-5l-71 -163h-9z" />
    <glyph glyph-name="circumflex" unicode="&#x2c6;" horiz-adv-x="398" 
d="M70 590v5l123 135h12l123 -135v-5h-9l-120 132l-120 -132h-9z" />
    <glyph glyph-name="caron" unicode="&#x2c7;" horiz-adv-x="398" 
d="M193 590l-123 135v5h9l120 -132l120 132h9v-5l-123 -135h-12z" />
    <glyph glyph-name="breve" unicode="&#x2d8;" horiz-adv-x="394" 
d="M197 571q-67 0 -105 37q-40 36 -40 100v12h10v-11q0 -60 37 -94t98 -34t98 34t37 94v11h10v-12q0 -64 -40 -100q-40 -37 -105 -37z" />
    <glyph glyph-name="dotaccent" unicode="&#x2d9;" horiz-adv-x="150" 
d="M70 595v110h10v-110h-10z" />
    <glyph glyph-name="ring" unicode="&#x2da;" horiz-adv-x="336" 
d="M168 587q36 0 62 23q26 24 26 58t-26 58q-26 23 -62 23t-62 -23q-26 -24 -26 -58t26 -58q26 -23 62 -23zM168 577q-40 0 -69 27q-29 26 -29 64t29 64q29 27 69 27t69 -27q29 -26 29 -64t-29 -64q-29 -27 -69 -27z" />
    <glyph glyph-name="ogonek" unicode="&#x2db;" horiz-adv-x="265" 
d="M153 -160q-44 0 -68 20q-25 18 -25 53q0 41 58 87h16q-64 -46 -64 -87q0 -63 86 -63h47v-10h-50z" />
    <glyph glyph-name="tilde" unicode="&#x2dc;" horiz-adv-x="491" 
d="M78 632l-8 6q33 41 56 62q21 15 43 15q27 0 69 -30l22 -16q36 -27 63 -27q21 0 37 14q14 11 53 59l8 -6q-33 -43 -55 -61q-20 -16 -44 -16q-27 0 -69 30l-22 16q-37 27 -63 27q-19 0 -38 -14q-17 -15 -52 -59z" />
    <glyph glyph-name="hungarumlaut" unicode="&#x2dd;" horiz-adv-x="442" 
d="M70 590l127 140h9v-5l-123 -135h-13zM236 590l127 140h9v-5l-123 -135h-13z" />
    <glyph glyph-name="Delta" unicode="&#x394;" horiz-adv-x="650" 
d="M30 0v5l289 695h12l289 -695v-5h-590zM43 10h564l-282 679z" />
    <glyph glyph-name="Omega" unicode="&#x3a9;" horiz-adv-x="708" 
d="M85 0v10h175q-76 22 -118 84q-42 60 -42 151v222q0 117 68 183q70 65 186 65t186 -65q68 -66 68 -183v-222q0 -91 -42 -151q-44 -62 -118 -84h175v-10h-220v10q90 13 143 74q52 62 52 161v222q0 112 -66 175q-64 63 -178 63t-178 -63q-66 -63 -66 -175v-222
q0 -99 52 -161q53 -61 143 -74v-10h-220z" />
    <glyph glyph-name="mu" unicode="&#x3bc;" horiz-adv-x="564" 
d="M90 -160v660h10v-333q0 -83 46 -126q44 -43 114 -43q111 0 204 111v391h10v-500h-10v94q-94 -106 -204 -106q-56 0 -100 29t-60 84v-261h-10z" />
    <glyph glyph-name="pi" unicode="&#x3c0;" horiz-adv-x="624" 
d="M146 0v490h-106v10h544v-10h-106v-490h-10v490h-312v-490h-10z" />
    <glyph glyph-name="uni0401" unicode="&#x401;" horiz-adv-x="568" 
d="M100 0v700h408v-10h-398v-332h350v-10h-350v-338h398v-10h-408zM204 768v118h11v-118h-11zM384 768v118h11v-118h-11z" />
    <glyph glyph-name="uni0402" unicode="&#x402;" horiz-adv-x="707" 
d="M194 0v690h-184v10h463v-10h-269v-336q111 39 215 39q107 0 171 -53q62 -53 62 -143q0 -92 -49 -144q-50 -53 -140 -53h-53v10h53q86 0 133 50q46 50 46 137q0 86 -62 136t-161 50q-105 0 -215 -40v-343h-10z" />
    <glyph glyph-name="uni0403" unicode="&#x403;" horiz-adv-x="558" 
d="M270 762l136 151h10v-6l-132 -145h-14zM100 0v700h408v-10h-398v-690h-10z" />
    <glyph glyph-name="afii10053" unicode="&#x404;" horiz-adv-x="656" 
d="M339 -15q-119 0 -189 67t-70 185v226q0 118 70 185t189 67q105 0 175 -61q72 -60 72 -166v-10h-10v10q0 100 -68 159q-68 58 -169 58q-115 0 -182 -64t-67 -178v-107h346v-10h-346v-109q0 -114 67 -178t182 -64q101 0 169 58q68 59 68 159v10h10v-10q0 -106 -72 -166
q-70 -61 -175 -61z" />
    <glyph glyph-name="afii10054" unicode="&#x405;" horiz-adv-x="611" 
d="M319 -15q-48 0 -96 14q-45 13 -84 41q-39 30 -61 76q-23 49 -23 111h10q0 -115 75 -174q76 -58 179 -58t157 47q55 45 55 118q0 60 -37 98q-39 37 -119 68l-126 48q-97 36 -133 72q-35 35 -35 101q0 76 58 121q57 47 159 47q107 0 173 -59q67 -58 67 -177h-10
q0 115 -66 171q-64 55 -164 55q-94 0 -152 -44q-55 -44 -55 -114q0 -60 31 -92q31 -33 106 -61l124 -47q101 -38 144 -77q45 -39 45 -110q0 -76 -57 -126q-56 -49 -165 -49z" />
    <glyph glyph-name="uni0406" unicode="&#x406;" horiz-adv-x="210" 
d="M100 0v700h10v-700h-10z" />
    <glyph glyph-name="uni0407" unicode="&#x407;" horiz-adv-x="210" 
d="M100 0v700h10v-700h-10zM10 768v118h11v-118h-11zM190 768v118h11v-118h-11z" />
    <glyph glyph-name="uni0408" unicode="&#x408;" horiz-adv-x="555" 
d="M247 -15q-98 0 -159 56q-58 56 -58 156v25h10v-25q0 -95 56 -149q56 -53 151 -53q96 0 152 53q56 54 56 149v503h10v-503q0 -99 -59 -155q-58 -57 -159 -57z" />
    <glyph glyph-name="uni0409" unicode="&#x409;" horiz-adv-x="1079" 
d="M581 10h260q80 0 127 51q46 50 46 139t-46 139q-47 51 -127 51h-260v-380zM186 358v342h395v-300h260q85 0 135 -54q48 -54 48 -146t-48 -146q-50 -54 -135 -54h-270v690h-375v-332q0 -146 -18 -224q-20 -80 -53 -106q-34 -28 -96 -28v10q59 0 90 27q32 28 49 103
q18 78 18 218z" />
    <glyph glyph-name="uni040A" unicode="&#x40a;" horiz-adv-x="1078" 
d="M110 0v700h10v-300h450v300h10v-300h260q86 0 134 -54q49 -53 49 -146t-49 -146q-48 -54 -134 -54h-270v390h-450v-390h-10zM580 10h260q80 0 127 51q46 50 46 139t-46 139q-47 51 -127 51h-260v-380z" />
    <glyph glyph-name="uni040B" unicode="&#x40b;" horiz-adv-x="723" 
d="M194 0v690h-184v10h463v-10h-269v-336q93 39 207 39q242 0 242 -209v-184h-10v184q0 199 -232 199q-111 0 -207 -41v-342h-10z" />
    <glyph glyph-name="uni040C" unicode="&#x40c;" horiz-adv-x="577" 
d="M100 0v700h10v-344h166l251 344h9v-5l-251 -344l262 -346v-5h-9l-261 346h-167v-346h-10zM276 762l136 151h10v-6l-132 -145h-14z" />
    <glyph glyph-name="uni040E" unicode="&#x40e;" horiz-adv-x="547" 
d="M211 5l75 168l-266 522v5h9l262 -516l227 516h9v-5l-307 -695h-9v5zM276 742q-65 0 -106 36q-39 38 -39 101v9h10v-8q0 -60 37 -94t98 -34t98 34t37 94v8h10v-9q0 -64 -40 -101q-41 -36 -105 -36z" />
    <glyph glyph-name="uni040F" unicode="&#x40f;" horiz-adv-x="670" 
d="M330 -140v140h-230v700h10v-690h450v690h10v-700h-230v-140h-10z" />
    <glyph glyph-name="uni0410" unicode="&#x410;" horiz-adv-x="650" 
d="M30 0v5l289 695h12l289 -695v-5h-9l-91 218h-391l-90 -218h-9zM133 228h383l-191 461z" />
    <glyph glyph-name="uni0411" unicode="&#x411;" horiz-adv-x="633" 
d="M100 0v700h435v-10h-425v-290h280q86 0 134 -54q49 -53 49 -146t-49 -146q-48 -54 -134 -54h-290zM110 10h280q80 0 127 51q46 50 46 139t-46 139q-47 51 -127 51h-280v-380z" />
    <glyph glyph-name="uni0412" unicode="&#x412;" horiz-adv-x="638" 
d="M100 0v700h290q77 0 120 -46q43 -44 43 -125q0 -71 -31 -111q-32 -41 -79 -53q60 -9 97 -55q38 -47 38 -127q0 -84 -44 -133q-44 -50 -122 -50h-312zM110 10h299q73 0 117 47q42 47 42 127t-42 128q-43 46 -117 46h-299v-348zM110 368h286q70 0 108 44q39 44 39 117
q0 75 -40 118t-113 43h-280v-322z" />
    <glyph glyph-name="uni0413" unicode="&#x413;" horiz-adv-x="558" 
d="M100 0v700h408v-10h-398v-690h-10z" />
    <glyph glyph-name="uni0414" unicode="&#x414;" horiz-adv-x="711" 
d="M35 -150v160h49q34 44 58 88q21 40 41 126q19 83 19 199v277h368v-690h96v-160h-10v150h-611v-150h-10zM98 10h462v680h-348v-267q0 -163 -30 -252q-29 -89 -84 -161z" />
    <glyph glyph-name="uni0415" unicode="&#x415;" horiz-adv-x="568" 
d="M100 0v700h408v-10h-398v-332h350v-10h-350v-338h398v-10h-408z" />
    <glyph glyph-name="uni0416" unicode="&#x416;" horiz-adv-x="826" 
d="M40 0v5l213 346l-201 344v5h9l201 -344h146v344h10v-344h146l201 344h9v-5l-201 -344l213 -346v-5h-9l-212 346h-147v-346h-10v346h-147l-212 -346h-9z" />
    <glyph glyph-name="uni0417" unicode="&#x417;" horiz-adv-x="592" 
d="M303 -15q-108 0 -175 61q-66 59 -68 166h10q2 -101 65 -159q64 -58 168 -58q102 0 161 53q58 52 58 144q0 78 -52 124q-53 47 -140 47h-109v10h109q78 0 124 40t46 117q0 76 -54 126q-53 50 -149 50q-99 0 -157 -58q-57 -56 -59 -160h-10q2 108 62 167q61 60 164 60
q101 0 157 -53t56 -132q0 -73 -38 -112q-36 -41 -97 -50q69 -9 113 -56t44 -120q0 -94 -60 -150q-62 -57 -169 -57z" />
    <glyph glyph-name="uni0418" unicode="&#x418;" horiz-adv-x="680" 
d="M100 0v700h10v-681l460 681h10v-700h-10v681l-460 -681h-10z" />
    <glyph glyph-name="uni0419" unicode="&#x419;" horiz-adv-x="680" 
d="M100 0v700h10v-681l460 681h10v-700h-10v681l-460 -681h-10zM340 742q-66 0 -106 36q-39 37 -39 101v9h10v-8q0 -60 37 -94t98 -34t98 34t37 94v8h10v-9q0 -64 -40 -101q-41 -36 -105 -36z" />
    <glyph glyph-name="uni041A" unicode="&#x41a;" horiz-adv-x="577" 
d="M100 0v700h10v-344h166l251 344h9v-5l-251 -344l262 -346v-5h-9l-261 346h-167v-346h-10z" />
    <glyph glyph-name="uni041B" unicode="&#x41b;" horiz-adv-x="681" 
d="M29 0v10q59 0 90 27q32 28 49 103q18 78 18 218v342h395v-700h-10v690h-375v-332q0 -146 -18 -224q-20 -80 -53 -106q-34 -28 -96 -28z" />
    <glyph glyph-name="uni041C" unicode="&#x41c;" horiz-adv-x="788" 
d="M100 0v700h10l284 -420l284 420h10v-700h-10v681l-280 -414h-8l-280 414v-681h-10z" />
    <glyph glyph-name="uni041D" unicode="&#x41d;" horiz-adv-x="680" 
d="M100 0v700h10v-344h460v344h10v-700h-10v346h-460v-346h-10z" />
    <glyph glyph-name="uni041E" unicode="&#x41e;" horiz-adv-x="668" 
d="M334 -5q114 0 178 63q66 63 66 175v234q0 112 -66 175q-64 63 -178 63t-178 -63q-66 -63 -66 -175v-234q0 -112 66 -175q64 -63 178 -63zM334 -15q-116 0 -186 65q-68 66 -68 183v234q0 117 68 183q70 65 186 65t186 -65q68 -66 68 -183v-234q0 -117 -68 -183
q-70 -65 -186 -65z" />
    <glyph glyph-name="uni041F" unicode="&#x41f;" horiz-adv-x="674" 
d="M100 0v700h474v-700h-10v690h-454v-690h-10z" />
    <glyph glyph-name="uni0420" unicode="&#x420;" horiz-adv-x="608" 
d="M100 0v700h270q86 0 134 -54q49 -53 49 -146t-49 -146q-48 -54 -134 -54h-260v-300h-10zM110 310h260q80 0 127 51q46 50 46 139t-46 139q-47 51 -127 51h-260v-380z" />
    <glyph glyph-name="uni0421" unicode="&#x421;" horiz-adv-x="656" 
d="M339 -15q-119 0 -189 67t-70 185v226q0 118 70 185t189 67q105 0 175 -61q72 -60 72 -166v-10h-10v10q0 100 -68 159q-68 58 -169 58q-115 0 -182 -64t-67 -178v-226q0 -114 67 -178t182 -64q101 0 169 58q68 59 68 159v10h10v-10q0 -106 -72 -166q-70 -61 -175 -61z" />
    <glyph glyph-name="uni0422" unicode="&#x422;" horiz-adv-x="540" 
d="M265 0v690h-235v10h480v-10h-235v-690h-10z" />
    <glyph glyph-name="uni0423" unicode="&#x423;" horiz-adv-x="547" 
d="M211 5l75 168l-266 522v5h9l262 -516l227 516h9v-5l-307 -695h-9v5z" />
    <glyph glyph-name="uni0424" unicode="&#x424;" horiz-adv-x="772" 
d="M381 -12v105h-71q-117 0 -182 58q-68 58 -68 161v74q0 103 68 161q67 58 182 58h71v95h10v-95h71q117 0 182 -58q68 -58 68 -161v-74q0 -103 -68 -161q-65 -58 -182 -58h-71v-105h-10zM310 103h71v492h-71q-109 0 -176 -55q-64 -58 -64 -154v-74q0 -98 64 -154
q67 -55 176 -55zM391 103h71q109 0 176 55q64 58 64 154v74q0 98 -64 154q-67 55 -176 55h-71v-492z" />
    <glyph glyph-name="uni0425" unicode="&#x425;" horiz-adv-x="586" 
d="M40 0v5l246 347l-246 343v5h9l244 -341l244 341h9v-5l-246 -344l246 -346v-5h-9l-244 344l-244 -344h-9z" />
    <glyph glyph-name="uni0426" unicode="&#x426;" horiz-adv-x="711" 
d="M656 -150v150h-556v700h10v-690h450v690h10v-690h96v-160h-10z" />
    <glyph glyph-name="uni0427" unicode="&#x427;" horiz-adv-x="629" 
d="M519 0v346q-93 -39 -207 -39q-242 0 -242 209v184h10v-184q0 -199 232 -199q111 0 207 41v342h10v-700h-10z" />
    <glyph glyph-name="uni0428" unicode="&#x428;" horiz-adv-x="938" 
d="M100 0v700h10v-690h354v690h10v-690h354v690h10v-700h-738z" />
    <glyph glyph-name="uni0429" unicode="&#x429;" horiz-adv-x="979" 
d="M924 -150v150h-824v700h10v-690h354v690h10v-690h354v690h10v-690h96v-160h-10z" />
    <glyph glyph-name="uni042A" unicode="&#x42a;" horiz-adv-x="713" 
d="M205 0v690h-185v10h195v-300h260q85 0 135 -54q48 -54 48 -146t-48 -146q-50 -54 -135 -54h-270zM215 10h260q81 0 127 51q46 50 46 139t-46 139q-46 51 -127 51h-260v-380z" />
    <glyph glyph-name="uni042B" unicode="&#x42b;" horiz-adv-x="840" 
d="M100 0v700h10v-300h260q86 0 134 -54q49 -53 49 -146t-49 -146q-48 -54 -134 -54h-270zM110 10h260q80 0 127 51q46 50 46 139t-46 139q-47 51 -127 51h-260v-380zM730 0v700h10v-700h-10z" />
    <glyph glyph-name="uni042C" unicode="&#x42c;" horiz-adv-x="608" 
d="M100 0v700h10v-300h260q86 0 134 -54q49 -53 49 -146t-49 -146q-48 -54 -134 -54h-270zM110 10h260q80 0 127 51q46 50 46 139t-46 139q-47 51 -127 51h-260v-380z" />
    <glyph glyph-name="uni042D" unicode="&#x42d;" horiz-adv-x="656" 
d="M317 -15q-105 0 -175 61q-72 60 -72 166v10h10v-10q0 -100 68 -159q68 -58 169 -58q115 0 182 64t67 178v109h-346v10h346v107q0 114 -67 178t-182 64q-101 0 -169 -58q-68 -59 -68 -159v-10h-10v10q0 106 72 166q70 61 175 61q119 0 189 -67t70 -185v-226
q0 -118 -70 -185t-189 -67z" />
    <glyph glyph-name="uni042E" unicode="&#x42e;" horiz-adv-x="900" 
d="M576 -15q-114 0 -178 63q-66 63 -66 175v123h-222v-346h-10v700h10v-344h222v121q0 112 66 175q64 63 178 63q112 0 178 -63t66 -175v-254q0 -112 -66 -175t-178 -63zM576 -5q109 0 171 61q63 60 63 167v254q0 107 -63 167q-62 61 -171 61t-171 -61q-63 -60 -63 -167
v-254q0 -107 63 -167q62 -61 171 -61z" />
    <glyph glyph-name="uni042F" unicode="&#x42f;" horiz-adv-x="617" 
d="M52 0v5l196 305q-91 0 -137 52q-47 53 -47 143q0 89 48 143q47 52 130 52h275v-700h-10v310h-246l-200 -310h-9zM242 320h265v370h-265q-79 0 -124 -50q-44 -50 -44 -135t44 -135q45 -50 124 -50z" />
    <glyph glyph-name="uni0430" unicode="&#x430;" 
d="M216 -12q-69 0 -116 35q-45 35 -45 105q0 74 53 112q54 39 155 39h164v79q0 64 -43 104q-41 40 -124 40q-79 0 -122 -40q-44 -41 -44 -104h-10q0 68 46 111q44 43 130 43q87 0 132 -42q45 -44 45 -112v-358h-10v83q-104 -95 -211 -95zM216 -2q103 0 211 99v172h-164
q-95 0 -147 -35q-51 -36 -51 -106q0 -66 43 -98q46 -32 108 -32z" />
    <glyph glyph-name="uni0431" unicode="&#x431;" horiz-adv-x="530" 
d="M269 -12q-94 0 -143 52q-51 52 -51 134v187q0 94 37 153q40 57 128 82l109 32q47 14 62 29q17 17 17 41v7h10v-7q0 -28 -17 -47q-17 -18 -69 -33l-109 -32q-85 -25 -121 -78q-37 -53 -37 -147v-21q96 106 204 106q84 0 129 -52t45 -134v-86q0 -82 -49 -134
q-51 -52 -145 -52zM269 -2q91 0 137 49q47 50 47 127v86q0 78 -43 127q-42 49 -121 49q-103 0 -204 -110v-152q0 -78 49 -127q48 -49 135 -49z" />
    <glyph glyph-name="uni0432" unicode="&#x432;" horiz-adv-x="530" 
d="M90 0v500h224q63 0 98 -34q34 -34 34 -92q0 -102 -87 -121q46 -6 79 -37q30 -33 30 -88q0 -58 -36 -94q-36 -34 -98 -34h-244zM100 10h231q58 0 93 32q34 31 34 86t-34 86q-34 32 -93 32h-231v-236zM100 256h218q54 0 86 32q31 31 31 85q0 53 -31 86q-32 31 -91 31h-213
v-234z" />
    <glyph glyph-name="uni0433" unicode="&#x433;" horiz-adv-x="445" 
d="M90 0v500h305v-10h-295v-490h-10z" />
    <glyph glyph-name="uni0434" unicode="&#x434;" horiz-adv-x="610" 
d="M38 -136v146h43q23 30 43 62q17 31 30 89q14 62 14 140v199h319v-490h78v-146h-10v136h-507v-136h-10zM95 10h382v480h-299v-189q0 -86 -14 -143q-12 -58 -28 -86q-15 -26 -41 -62z" />
    <glyph glyph-name="uni0435" unicode="&#x435;" 
d="M261 -12q-94 0 -143 52q-51 52 -51 134v152q0 82 51 134q49 52 143 52q96 0 145 -52t49 -134v-76h-378v-76q0 -78 49 -127q48 -49 135 -49q81 0 127 40q45 42 52 108h10q-6 -71 -54 -115q-49 -43 -135 -43zM77 260h368v66q0 77 -47 127q-46 49 -137 49q-87 0 -135 -49
q-49 -49 -49 -127v-66z" />
    <glyph glyph-name="uni0436" unicode="&#x436;" horiz-adv-x="768" 
d="M50 0v5l177 249l-170 241v5h9l171 -242h142v242h10v-242h141l172 242h9v-5l-170 -241l177 -249v-5h-9l-176 248h-144v-248h-10v248h-145l-175 -248h-9z" />
    <glyph glyph-name="uni0437" unicode="&#x437;" horiz-adv-x="509" 
d="M261 -12q-90 0 -142 43q-53 44 -56 120h10q2 -71 53 -112q52 -41 135 -41q82 0 127 36q46 37 46 100q0 54 -41 84t-113 30h-63v10h65q62 0 98 30q36 32 36 85q0 57 -42 93q-40 36 -120 36q-75 0 -123 -40q-48 -43 -49 -113h-10q3 76 52 119q50 44 130 44q82 0 127 -39
t45 -100q0 -53 -30 -84q-32 -32 -79 -35q57 -5 91 -36q36 -32 36 -84q0 -68 -48 -107t-135 -39z" />
    <glyph glyph-name="uni0438" unicode="&#x438;" horiz-adv-x="574" 
d="M90 0v500h10v-483l374 483h10v-500h-10v483l-374 -483h-10z" />
    <glyph glyph-name="uni0439" unicode="&#x439;" horiz-adv-x="574" 
d="M90 0v500h10v-483l374 483h10v-500h-10v483l-374 -483h-10zM287 571q-67 0 -105 37q-40 36 -40 100v12h10v-11q0 -60 37 -94t98 -34t98 34t37 94v11h10v-12q0 -64 -40 -100q-40 -37 -105 -37z" />
    <glyph glyph-name="uni043A" unicode="&#x43a;" horiz-adv-x="498" 
d="M90 0v500h10v-242h132l200 242h9v-5l-199 -241l206 -249v-5h-9l-204 248h-135v-248h-10z" />
    <glyph glyph-name="uni043B" unicode="&#x43b;" horiz-adv-x="547" 
d="M20 0v10h2q67 0 93 68q26 70 26 216v206h316v-500h-10v490h-296v-196q0 -152 -29 -224q-28 -70 -100 -70h-2z" />
    <glyph glyph-name="uni043C" unicode="&#x43c;" horiz-adv-x="661" 
d="M90 0v500h10l228 -281l233 281h10v-500h-10v483l-228 -274h-10l-223 274v-483h-10z" />
    <glyph glyph-name="uni043D" unicode="&#x43d;" horiz-adv-x="564" 
d="M90 0v500h10v-245h364v245h10v-500h-10v245h-364v-245h-10z" />
    <glyph glyph-name="uni043E" unicode="&#x43e;" 
d="M261 -2q91 0 137 49q47 50 47 127v152q0 77 -47 127q-46 49 -137 49q-87 0 -135 -49q-49 -49 -49 -127v-152q0 -78 49 -127q48 -49 135 -49zM261 -12q-94 0 -143 52q-51 52 -51 134v152q0 82 51 134q49 52 143 52q96 0 145 -52t49 -134v-152q0 -82 -49 -134
q-51 -52 -145 -52z" />
    <glyph glyph-name="uni043F" unicode="&#x43f;" horiz-adv-x="560" 
d="M90 0v500h380v-500h-10v490h-360v-490h-10z" />
    <glyph glyph-name="uni0440" unicode="&#x440;" horiz-adv-x="553" 
d="M90 -160v660h10v-94q96 106 204 106q84 0 129 -52q45 -53 45 -134v-152q0 -82 -45 -134t-129 -52q-108 0 -204 106v-254h-10zM304 -2q79 0 122 49q42 49 42 127v152q0 78 -42 127q-43 49 -122 49q-103 0 -204 -110v-284q101 -110 204 -110z" />
    <glyph glyph-name="uni0441" unicode="&#x441;" horiz-adv-x="518" 
d="M261 -12q-94 0 -143 52q-51 52 -51 134v152q0 82 51 134q49 52 143 52q89 0 142 -47q52 -46 52 -120v-4h-10v4q0 70 -49 113q-50 44 -135 44q-87 0 -135 -49q-49 -49 -49 -127v-152q0 -78 49 -127q48 -49 135 -49q85 0 135 44q49 45 49 115v5h10v-5q0 -75 -51 -121
q-52 -48 -143 -48z" />
    <glyph glyph-name="uni0442" unicode="&#x442;" horiz-adv-x="452" 
d="M221 0v490h-191v10h392v-10h-191v-490h-10z" />
    <glyph glyph-name="uni0443" unicode="&#x443;" horiz-adv-x="490" 
d="M175 -160v5l65 155l-210 495v5h9l206 -489l206 489h9v-5l-276 -655h-9z" />
    <glyph glyph-name="uni0444" unicode="&#x444;" horiz-adv-x="744" 
d="M367 -160v229q-73 -81 -156 -81q-66 0 -101 41t-35 107v228q0 66 35 107t101 41q83 0 156 -81v274h10v-274q73 81 156 81q66 0 101 -41t35 -107v-228q0 -66 -35 -107t-101 -41q-83 0 -156 81v-229h-10zM212 -2q79 0 155 85v334q-76 85 -155 85q-62 0 -94 -38
q-33 -39 -33 -100v-228q0 -61 33 -100q32 -38 94 -38zM532 -2q62 0 94 38q33 39 33 100v228q0 61 -33 100q-32 38 -94 38q-79 0 -155 -85v-334q76 -85 155 -85z" />
    <glyph glyph-name="uni0445" unicode="&#x445;" horiz-adv-x="500" 
d="M50 0v5l194 245l-193 245v5h9l190 -241l190 241h9v-5l-193 -245l194 -245v-5h-9l-191 242l-191 -242h-9z" />
    <glyph glyph-name="uni0446" unicode="&#x446;" horiz-adv-x="593" 
d="M538 -136v136h-448v500h10v-490h360v490h10v-490h78v-146h-10z" />
    <glyph glyph-name="uni0447" unicode="&#x447;" horiz-adv-x="520" 
d="M420 0v226q-78 -25 -172 -25q-86 0 -138 38q-50 38 -50 112v149h10v-149q0 -71 48 -105q50 -35 130 -35q94 0 172 26v263h10v-500h-10z" />
    <glyph glyph-name="uni0448" unicode="&#x448;" horiz-adv-x="746" 
d="M90 0v500h10v-490h268v490h10v-490h268v490h10v-500h-566z" />
    <glyph glyph-name="uni0449" unicode="&#x449;" horiz-adv-x="779" 
d="M724 -136v136h-634v500h10v-490h268v490h10v-490h268v490h10v-490h78v-146h-10z" />
    <glyph glyph-name="uni044A" unicode="&#x44a;" horiz-adv-x="583" 
d="M165 0v490h-155v10h165v-199h211q75 0 116 -41q41 -39 41 -110q0 -67 -41 -110q-43 -40 -116 -40h-221zM175 10h211q68 0 108 38q39 38 39 102q0 66 -39 103q-40 38 -108 38h-211v-281z" />
    <glyph glyph-name="uni044B" unicode="&#x44b;" horiz-adv-x="689" 
d="M90 0v500h10v-199h211q75 0 115 -41q42 -39 42 -110q0 -68 -42 -110q-42 -40 -115 -40h-221zM100 10h211q68 0 108 38q39 38 39 102q0 66 -39 103q-40 38 -108 38h-211v-281zM589 0v500h10v-500h-10z" />
    <glyph glyph-name="uni044C" unicode="&#x44c;" horiz-adv-x="518" 
d="M90 0v500h10v-199h221q75 0 115 -41q42 -39 42 -110q0 -68 -42 -110q-42 -40 -115 -40h-231zM100 10h221q68 0 108 38q39 38 39 102q0 66 -39 103q-40 38 -108 38h-221v-281z" />
    <glyph glyph-name="uni044D" unicode="&#x44d;" horiz-adv-x="524" 
d="M260 -12q-93 0 -144 48q-53 49 -53 126h10q0 -72 49 -118q50 -46 138 -46t138 50q49 51 49 129v67h-241v10h241v69q0 80 -49 129q-50 50 -138 50t-137 -45q-50 -45 -50 -116h-10q0 76 53 123q51 48 144 48q94 0 146 -52q51 -54 51 -137v-146q0 -83 -51 -137
q-52 -52 -146 -52z" />
    <glyph glyph-name="uni044E" unicode="&#x44e;" horiz-adv-x="717" 
d="M460 -12q-90 0 -140 50q-49 50 -49 132v75h-171v-245h-10v500h10v-245h171v75q0 82 49 132q50 50 140 50q91 0 141 -50q49 -50 49 -132v-160q0 -82 -49 -132q-50 -50 -141 -50zM460 -2q88 0 134 48q46 47 46 124v160q0 77 -46 124q-47 48 -134 48q-84 0 -132 -48
q-47 -47 -47 -124v-160q0 -77 47 -124q48 -48 132 -48z" />
    <glyph glyph-name="uni044F" unicode="&#x44f;" horiz-adv-x="519" 
d="M60 0v5l142 216q-59 4 -94 41q-33 39 -33 99q0 64 37 101q38 38 104 38h213v-500h-10v221h-206l-144 -221h-9zM216 230h203v260h-203q-63 0 -96 -35q-35 -34 -35 -95t35 -95q33 -35 96 -35z" />
    <glyph glyph-name="uni0451" unicode="&#x451;" 
d="M261 -12q-94 0 -143 52q-51 52 -51 134v152q0 82 51 134q49 52 143 52q96 0 145 -52t49 -134v-76h-378v-76q0 -78 49 -127q48 -49 135 -49q81 0 127 40q45 42 52 108h10q-6 -71 -54 -115q-49 -43 -135 -43zM77 260h368v66q0 77 -47 127q-46 49 -137 49q-87 0 -135 -49
q-49 -49 -49 -127v-66zM173 595v110h10v-110h-10zM341 595v110h10v-110h-10z" />
    <glyph glyph-name="uni0452" unicode="&#x452;" horiz-adv-x="579" 
d="M384 -172l-28 2v10q18 -2 28 -2q49 0 76 28q28 28 28 81v284q0 88 -45 133t-115 45q-111 0 -204 -111v-298h-10v567h-91v10h91v128h10v-128h255v-10h-255v-254q94 106 204 106q73 0 122 -47q48 -48 48 -137v-288q0 -58 -30 -89q-28 -30 -84 -30z" />
    <glyph glyph-name="uni0453" unicode="&#x453;" horiz-adv-x="445" 
d="M215 590l127 140h9v-5l-123 -135h-13zM90 0v500h305v-10h-295v-490h-10z" />
    <glyph glyph-name="uni0454" unicode="&#x454;" horiz-adv-x="524" 
d="M264 -12q-94 0 -146 52q-51 54 -51 137v146q0 83 51 137q52 52 146 52q93 0 144 -48q53 -47 53 -123h-10q0 71 -50 116t-137 45q-88 0 -138 -50q-49 -49 -49 -129v-69h241v-10h-241v-67q0 -80 49 -129q50 -50 138 -50t138 46q49 46 49 118h10q0 -77 -53 -126
q-51 -48 -144 -48z" />
    <glyph glyph-name="uni0455" unicode="&#x455;" horiz-adv-x="523" 
d="M269 -12q-56 0 -100 16q-46 17 -77 57q-32 41 -32 102h10q0 -59 32 -97q32 -39 74 -54q45 -14 93 -14q81 0 128 35q46 34 46 90q0 48 -31 73q-29 23 -103 43l-102 27q-68 18 -97 44q-27 27 -27 77q0 54 47 89q46 36 130 36t137 -42q52 -43 52 -128h-10q0 80 -49 120
t-130 40q-79 0 -123 -32t-44 -83q0 -44 25 -69q28 -26 90 -42l102 -27q78 -21 110 -47q33 -25 33 -79q0 -61 -47 -97q-47 -38 -137 -38z" />
    <glyph glyph-name="uni0456" unicode="&#x456;" horiz-adv-x="190" 
d="M90 0v500h10v-500h-10zM90 595v110h10v-110h-10z" />
    <glyph glyph-name="uni0457" unicode="&#x457;" horiz-adv-x="190" 
d="M6 595v110h10v-110h-10zM174 595v110h10v-110h-10zM90 0v500h10v-500h-10z" />
    <glyph glyph-name="uni0458" unicode="&#x458;" horiz-adv-x="190" 
d="M90 500h10v-553q0 -58 -30 -89q-28 -30 -84 -30l-28 2v10q18 -2 28 -2q49 0 76 28q28 28 28 81v553zM90 595v110h10v-110h-10z" />
    <glyph glyph-name="uni0459" unicode="&#x459;" horiz-adv-x="840" 
d="M20 0v10h2q67 0 93 68q26 70 26 216v206h301v-199h201q75 0 115 -41q42 -39 42 -110q0 -68 -42 -110q-42 -40 -115 -40h-211v490h-281v-196q0 -152 -29 -224q-28 -70 -100 -70h-2zM442 10h201q68 0 108 38q39 38 39 102q0 66 -39 103q-40 38 -108 38h-201v-281z" />
    <glyph glyph-name="uni045A" unicode="&#x45a;" horiz-adv-x="832" 
d="M90 0v500h10v-222h334v222h10v-222h203q69 0 107 -38q38 -36 38 -101t-38 -101q-38 -38 -107 -38h-213v268h-334v-268h-10zM444 10h203q62 0 99 34q36 36 36 95t-36 95q-37 34 -99 34h-203v-258z" />
    <glyph glyph-name="uni045B" unicode="&#x45b;" horiz-adv-x="564" 
d="M100 0v567h-91v10h91v128h10v-128h255v-10h-255v-254q94 106 204 106q73 0 122 -47q48 -48 48 -137v-235h-10v231q0 88 -45 133t-115 45q-111 0 -204 -111v-298h-10z" />
    <glyph glyph-name="uni045C" unicode="&#x45c;" horiz-adv-x="498" 
d="M90 0v500h10v-242h132l200 242h9v-5l-199 -241l206 -249v-5h-9l-204 248h-135v-248h-10zM231 590l127 140h9v-5l-123 -135h-13z" />
    <glyph glyph-name="uni045E" unicode="&#x45e;" horiz-adv-x="490" 
d="M175 -160v5l65 155l-210 495v5h9l206 -489l206 489h9v-5l-276 -655h-9zM245 571q-67 0 -105 37q-40 36 -40 100v12h10v-11q0 -60 37 -94t98 -34t98 34t37 94v11h10v-12q0 -64 -40 -100q-40 -37 -105 -37z" />
    <glyph glyph-name="uni045F" unicode="&#x45f;" horiz-adv-x="560" 
d="M275 -126v126h-185v500h10v-490h360v490h10v-500h-185v-126h-10z" />
    <glyph glyph-name="uni0490" unicode="&#x490;" horiz-adv-x="548" 
d="M100 0v700h388v130h10v-140h-388v-690h-10z" />
    <glyph glyph-name="uni0491" unicode="&#x491;" horiz-adv-x="440" 
d="M90 0v500h290v121h10v-131h-290v-490h-10z" />
    <glyph glyph-name="uni1E61" unicode="&#x1e61;" horiz-adv-x="523" 
d="M269 -12q-56 0 -100 16q-46 17 -77 57q-32 41 -32 102h10q0 -59 32 -97q32 -39 74 -54q45 -14 93 -14q81 0 128 35q46 34 46 90q0 48 -31 73q-29 23 -103 43l-102 27q-68 18 -97 44q-27 27 -27 77q0 54 47 89q46 36 130 36t137 -42q52 -43 52 -128h-10q0 80 -49 120
t-130 40q-79 0 -123 -32t-44 -83q0 -44 25 -69q28 -26 90 -42l102 -27q78 -21 110 -47q33 -25 33 -79q0 -61 -47 -97q-47 -38 -137 -38zM259 595v110h10v-110h-10z" />
    <glyph glyph-name="uni1E63" unicode="&#x1e63;" horiz-adv-x="523" 
d="M269 -12q-56 0 -100 16q-46 17 -77 57q-32 41 -32 102h10q0 -59 32 -97q32 -39 74 -54q45 -14 93 -14q81 0 128 35q46 34 46 90q0 48 -31 73q-29 23 -103 43l-102 27q-68 18 -97 44q-27 27 -27 77q0 54 47 89q46 36 130 36t137 -42q52 -43 52 -128h-10q0 80 -49 120
t-130 40q-79 0 -123 -32t-44 -83q0 -44 25 -69q28 -26 90 -42l102 -27q78 -21 110 -47q33 -25 33 -79q0 -61 -47 -97q-47 -38 -137 -38zM261 -182v110h10v-110h-10z" />
    <glyph glyph-name="endash" unicode="&#x2013;" horiz-adv-x="571" 
d="M70 308v10h431v-10h-431z" />
    <glyph glyph-name="emdash" unicode="&#x2014;" horiz-adv-x="794" 
d="M70 308v10h654v-10h-654z" />
    <glyph glyph-name="quoteleft" unicode="&#x2018;" horiz-adv-x="159" 
d="M119 705v-5l-85 -200h-9v5l85 200h9z" />
    <glyph glyph-name="quoteright" unicode="&#x2019;" horiz-adv-x="159" 
d="M25 500v5l85 200h9v-5l-85 -200h-9z" />
    <glyph glyph-name="quotesinglbase" unicode="&#x201a;" horiz-adv-x="169" 
d="M25 -82v5l85 200h9v-5l-85 -200h-9z" />
    <glyph glyph-name="quotedblleft" unicode="&#x201c;" horiz-adv-x="323" 
d="M283 705v-5l-85 -200h-9v5l85 200h9zM119 705v-5l-85 -200h-9v5l85 200h9z" />
    <glyph glyph-name="quotedblright" unicode="&#x201d;" horiz-adv-x="323" 
d="M25 500v5l85 200h9v-5l-85 -200h-9zM189 500v5l85 200h9v-5l-85 -200h-9z" />
    <glyph glyph-name="quotedblbase" unicode="&#x201e;" horiz-adv-x="333" 
d="M25 -82v5l85 200h9v-5l-85 -200h-9zM189 -82v5l85 200h9v-5l-85 -200h-9z" />
    <glyph glyph-name="dagger" unicode="&#x2020;" horiz-adv-x="516" 
d="M253 -160v625h-213v10h213v230h10v-230h213v-10h-213v-625h-10z" />
    <glyph glyph-name="daggerdbl" unicode="&#x2021;" horiz-adv-x="516" 
d="M253 -160v336h-213v10h213v279h-213v10h213v230h10v-230h213v-10h-213v-279h213v-10h-213v-336h-10z" />
    <glyph glyph-name="bullet" unicode="&#x2022;" horiz-adv-x="311" 
d="M156 234q-41 0 -63 22q-23 21 -23 61v6q0 40 23 61q22 22 63 22t62 -22q23 -20 23 -61v-6q0 -38 -23 -61q-22 -22 -62 -22z" />
    <glyph glyph-name="ellipsis" unicode="&#x2026;" horiz-adv-x="642" 
d="M80 0v123h10v-123h-10zM316 0v123h10v-123h-10zM552 0v123h10v-123h-10z" />
    <glyph glyph-name="perthousand" unicode="&#x2030;" horiz-adv-x="1058" 
d="M189 358q61 0 97 34q33 36 33 89v100q0 56 -33 89q-34 35 -97 35q-61 0 -95 -35q-34 -33 -34 -89v-100q0 -55 34 -89t95 -34zM189 348q-68 0 -103 38q-36 38 -36 96v99q0 58 36 97q37 37 103 37q68 0 104 -37q36 -38 36 -97v-99q0 -60 -36 -97t-104 -37zM172 0v5l385 695
h9v-5l-385 -695h-9zM551 -5q63 0 97 35q33 33 33 88v100q0 56 -33 90q-36 34 -97 34q-59 0 -95 -34q-34 -35 -34 -90v-100q0 -55 34 -89t95 -34zM551 -15q-66 0 -103 37q-36 39 -36 97v99q0 60 36 96q35 38 103 38t104 -37t36 -97v-99q0 -59 -36 -97q-36 -37 -104 -37z
M868 -5q64 0 96 35q34 33 34 88v100q0 56 -34 90t-96 34q-59 0 -95 -34q-34 -35 -34 -90v-100q0 -55 34 -89t95 -34zM868 -15q-66 0 -103 37q-36 39 -36 97v99q0 60 36 96q35 38 103 38t104 -37t36 -97v-99q0 -59 -36 -97q-36 -37 -104 -37z" />
    <glyph glyph-name="guilsinglleft" unicode="&#x2039;" horiz-adv-x="331" 
d="M253 62l-193 202l194 203h10v-5l-189 -198l188 -197v-5h-10z" />
    <glyph glyph-name="guilsinglright" unicode="&#x203a;" horiz-adv-x="331" 
d="M271 264l-193 -202h-10v5l188 197l-189 198v5h10z" />
    <glyph glyph-name="fraction" unicode="&#x2044;" horiz-adv-x="314" 
d="M-40 0v5l385 695h9v-5l-385 -695h-9z" />
    <glyph glyph-name="fourinferior" unicode="&#x2084;" horiz-adv-x="347" 
d="M164 700h10v-5l-131 -240h203v102h10v-102h71v-10h-71v-87h-10v87h-216v10z" />
    <glyph glyph-name="Euro" unicode="&#x20ac;" horiz-adv-x="662" 
d="M359 -15q-113 0 -179 67q-65 68 -65 185v32h-85v10h85v141h-85v10h85v33q0 117 65 185q66 67 179 67q100 0 165 -61q68 -59 68 -166v-10h-10v10q0 100 -64 159q-65 58 -159 58q-108 0 -171 -64q-63 -65 -63 -178v-33h299v-10h-299v-141h299v-10h-299v-32q0 -113 63 -178
q63 -64 171 -64q94 0 159 58q64 59 64 159v10h10v-10q0 -107 -68 -166q-65 -61 -165 -61z" />
    <glyph glyph-name="uni20B4" unicode="&#x20b4;" horiz-adv-x="623" 
d="M302 -15q-100 0 -158 49q-56 51 -56 126q0 62 38 108h-86v10h543v-10h-443q-42 -44 -42 -108q0 -72 54 -118q56 -47 150 -47q85 0 144 47q61 44 75 142h10q-14 -101 -77 -150q-62 -49 -152 -49zM40 419v10h426q46 47 46 117q0 67 -53 112q-51 47 -142 47q-85 0 -143 -46
q-61 -47 -71 -143h-10q11 101 71 150q63 49 153 49q96 0 149 -49q56 -47 56 -120q0 -68 -43 -117h104v-10h-543z" />
    <glyph glyph-name="uni20BD" unicode="&#x20bd;" horiz-adv-x="630" 
d="M135 0v149h-97v10h97v141h-97v10h97v390h257q86 0 134 -54q49 -53 49 -146t-49 -146q-48 -54 -134 -54h-247v-141h231v-10h-231v-149h-10zM145 310h247q80 0 127 51q46 50 46 139t-46 139q-47 51 -127 51h-247v-380z" />
    <glyph glyph-name="uni2116" unicode="&#x2116;" horiz-adv-x="1001" 
d="M100 0v700h10l416 -680v680h10v-700h-9l-417 680v-680h-10zM781 358q61 0 97 34q33 36 33 89v100q0 56 -33 89q-34 35 -97 35q-61 0 -95 -35q-34 -33 -34 -89v-100q0 -55 34 -89t95 -34zM781 348q-68 0 -103 38q-36 38 -36 96v99q0 58 36 97q37 37 103 37q68 0 104 -37
t36 -97v-99q0 -60 -36 -97t-104 -37zM642 237v10h279v-10h-279z" />
    <glyph glyph-name="trademark" unicode="&#x2122;" horiz-adv-x="645" 
d="M292 377v323h10l129 -179l131 179h10v-323h-10v307l-126 -172h-10l-124 172v-307h-10zM128 377v313h-108v10h226v-10h-108v-313h-10z" />
    <glyph glyph-name="partialdiff" unicode="&#x2202;" horiz-adv-x="530" 
d="M232 -12q-86 0 -134 46q-48 48 -48 121l9 105q7 85 57 136q50 50 133 50q108 0 195 -106q6 105 6 124q0 111 -50 172q-49 61 -150 61q-58 0 -112 -16l1 11q48 15 111 15q210 0 210 -243q0 -38 -21 -290q-8 -84 -61 -134q-52 -52 -146 -52zM234 -2q86 0 137 48
q51 49 58 128l14 152q-90 110 -195 110q-78 0 -125 -48q-46 -48 -54 -128q-9 -95 -9 -103q0 -72 46 -115q46 -44 128 -44z" />
    <glyph glyph-name="product" unicode="&#x220f;" horiz-adv-x="674" 
d="M100 -75v775h474v-775h-10v765h-454v-765h-10z" />
    <glyph glyph-name="summation" unicode="&#x2211;" horiz-adv-x="539" 
d="M60 -75v10l217 380l-217 375v10h408v-10h-395l217 -375l-217 -380h406v-10h-419z" />
    <glyph glyph-name="minus" unicode="&#x2212;" horiz-adv-x="498" 
d="M50 308v10h398v-10h-398z" />
    <glyph glyph-name="radical" unicode="&#x221a;" horiz-adv-x="585" 
d="M312 -75l-178 453h-123v10h130l175 -447l243 856h9v-5l-246 -867h-10z" />
    <glyph glyph-name="infinity" unicode="&#x221e;" horiz-adv-x="838" 
d="M219 139q-67 0 -107 48q-42 48 -42 126t42 126q41 48 107 48q36 0 69 -21q33 -20 54 -46q15 -16 65 -82l12 -16l12 16q50 66 65 82q24 28 54 46q33 21 69 21q67 0 107 -48q42 -48 42 -126t-42 -126q-40 -48 -107 -48q-36 0 -69 21q-33 20 -54 46q-15 16 -65 82l-12 16
l-12 -16q-50 -66 -65 -82q-24 -28 -54 -46q-33 -21 -69 -21zM220 149q45 0 84 33q39 36 95 111l15 20l-15 20q-59 77 -96 111q-37 33 -83 33q-63 0 -102 -46q-38 -47 -38 -118q0 -72 38 -119q39 -45 102 -45zM618 149q63 0 102 45q38 47 38 119q0 71 -38 118q-39 46 -102 46
q-46 0 -83 -33q-37 -34 -96 -111l-15 -20l15 -20q55 -76 95 -110q38 -34 84 -34z" />
    <glyph glyph-name="integral" unicode="&#x222b;" horiz-adv-x="332" 
d="M-10 -160v10h31q64 0 102 40q38 43 38 112v536q0 77 40 118q40 44 108 44h33v-10h-31q-64 0 -102 -40q-38 -43 -38 -112v-536q0 -77 -40 -118q-40 -44 -108 -44h-33z" />
    <glyph glyph-name="approxequal" unicode="&#x2248;" horiz-adv-x="451" 
d="M58 411l-8 6q50 77 99 77q27 0 69 -30l22 -16q36 -27 63 -27q44 0 90 73l8 -6q-47 -77 -99 -77q-27 0 -69 30l-22 16q-37 27 -63 27q-44 0 -90 -73zM58 201l-8 6q50 77 99 77q27 0 69 -30l22 -16q36 -27 63 -27q44 0 90 73l8 -6q-47 -77 -99 -77q-27 0 -69 30l-22 16
q-37 27 -63 27q-44 0 -90 -73z" />
    <glyph glyph-name="notequal" unicode="&#x2260;" horiz-adv-x="536" 
d="M70 0v5l123 195h-123v10h130l131 207h-261v10h267l120 189h9v-5l-117 -184h117v-10h-123l-131 -207h254v-10h-261l-126 -200h-9z" />
    <glyph glyph-name="lessequal" unicode="&#x2264;" horiz-adv-x="460" 
d="M400 124l-350 194v10l350 194h10v-5l-349 -194l349 -194v-5h-10zM50 38v10h360v-10h-360z" />
    <glyph glyph-name="greaterequal" unicode="&#x2265;" horiz-adv-x="460" 
d="M50 124v5l349 194l-349 194v5h10l350 -194v-10l-350 -194h-10zM50 38v10h360v-10h-360z" />
    <glyph glyph-name="lozenge" unicode="&#x25ca;" horiz-adv-x="524" 
d="M257 0l-197 350l197 350h10l197 -350l-197 -350h-10zM262 10l190 340l-190 340l-190 -340z" />
    <glyph glyph-name="uniF64E" unicode="&#xf64e;" horiz-adv-x="543" 
d="M286 -12q-93 0 -144 52q-50 53 -50 134v13h-69v10h69v98h-69v10h69v21q0 81 50 134q51 52 144 52q89 0 142 -47q52 -46 52 -120v-4h-10v4q0 70 -49 113q-50 44 -135 44q-86 0 -135 -49t-49 -127v-21h221v-10h-221v-98h221v-10h-221v-13q0 -78 49 -127t135 -49
q85 0 135 44q49 45 49 115v5h10v-5q0 -75 -52 -121q-51 -48 -142 -48z" />
    <glyph glyph-name="uniF653" unicode="&#xf653;" horiz-adv-x="523" 
d="M259 -89v77q-85 3 -141 46q-58 42 -58 129h10q0 -59 32 -97q32 -39 74 -54q45 -14 93 -14q81 0 128 35q46 34 46 90q0 48 -31 73q-29 23 -103 43l-102 27q-68 18 -97 44q-27 27 -27 77q0 54 47 89q46 36 129 36v76h10v-76q81 -2 130 -45q50 -44 50 -125h-10q0 80 -49 120
t-130 40q-79 0 -123 -32t-44 -83q0 -44 25 -69q28 -26 90 -42l102 -27q78 -21 110 -47q33 -25 33 -79q0 -61 -47 -97q-47 -38 -137 -38v-77h-10z" />
    <glyph glyph-name="uniF721" unicode="&#xf721;" horiz-adv-x="546" 
d="M271 -12q-82 0 -127 36q-46 34 -46 90q0 42 28 76h-76v10h446v-10h-356q-32 -35 -32 -76q0 -51 44 -83q44 -33 119 -33q66 0 116 32q49 33 58 101h11q-9 -73 -61 -107q-53 -36 -124 -36zM50 298v10h354q34 35 34 79q0 50 -42 83q-41 32 -115 32q-66 0 -115 -32
q-46 -33 -54 -101h-10q8 73 57 107q49 36 124 36q76 0 121 -36q44 -35 44 -89q0 -44 -31 -79h79v-10h-446z" />
    <glyph glyph-name="uniF722" unicode="&#xf722;" horiz-adv-x="520" 
d="M100 0v91h-77v10h77v98h-77v10h77v291h223q73 0 115 -40q42 -42 42 -110q0 -71 -42 -110q-40 -41 -115 -41h-213v-98h203v-10h-203v-91h-10zM110 209h213q68 0 108 38q39 37 39 103q0 64 -39 102q-40 38 -108 38h-213v-281z" />
    <glyph glyph-name="uniF725" unicode="&#xf725;" horiz-adv-x="502" 
d="M23 0v10h75v227h-75v10h75v79q0 82 46 134t131 52q82 0 129 -47q48 -47 48 -120v-4h-10v4q0 69 -44 113q-46 44 -123 44q-78 0 -123 -49q-44 -50 -44 -127v-79h197v-10h-197v-227h344v-10h-429z" />
    <glyph glyph-name="uniF727" unicode="&#xf727;" horiz-adv-x="499" 
d="M244 0v91h-165v10h165v98h-165v10h158l-192 286v5h9l194 -291h1l196 291h9v-5l-193 -286h149v-10h-156v-98h156v-10h-156v-91h-10z" />
    <glyph glyph-name="NULL" horiz-adv-x="0" 
 />
    <glyph glyph-name="Euro.mono" horiz-adv-x="588" 
d="M318 -15q-114 0 -178 67q-66 68 -66 185v32h-85v10h85v141h-85v10h85v33q0 117 66 185q64 67 178 67q99 0 166 -61t67 -166v-10h-10v10q0 101 -65 159q-64 58 -158 58q-108 0 -171 -64q-63 -65 -63 -178v-33h299v-10h-299v-141h299v-10h-299v-32q0 -113 63 -178
q63 -64 171 -64q96 0 158 58q65 58 65 159v10h10v-10q0 -105 -67 -166q-68 -61 -166 -61z" />
    <glyph glyph-name="J.alt1" horiz-adv-x="555" 
d="M247 -15q-98 0 -159 56q-58 56 -58 156v25h10v-25q0 -95 56 -149q56 -53 151 -53q96 0 152 53q56 54 56 149v493h-298v10h308v-503q0 -99 -59 -155q-58 -57 -159 -57z" />
    <glyph glyph-name="a.alt1" horiz-adv-x="553" 
d="M249 -12q-84 0 -129 52t-45 134v152q0 82 45 134t129 52q108 0 204 -106v94h10v-500h-10v94q-96 -106 -204 -106zM249 -2q103 0 204 110v284q-101 110 -204 110q-79 0 -121 -49q-43 -49 -43 -127v-152q0 -78 43 -127q42 -49 121 -49z" />
    <glyph glyph-name="aacute.alt1" horiz-adv-x="553" 
d="M249 -12q-84 0 -129 52t-45 134v152q0 82 45 134t129 52q108 0 204 -106v94h10v-500h-10v94q-96 -106 -204 -106zM249 -2q103 0 204 110v284q-101 110 -204 110q-79 0 -121 -49q-43 -49 -43 -127v-152q0 -78 43 -127q42 -49 121 -49zM240 590l127 140h9v-5l-123 -135h-13
z" />
    <glyph glyph-name="acircumflex.alt1" horiz-adv-x="553" 
d="M249 -12q-84 0 -129 52t-45 134v152q0 82 45 134t129 52q108 0 204 -106v94h10v-500h-10v94q-96 -106 -204 -106zM249 -2q103 0 204 110v284q-101 110 -204 110q-79 0 -121 -49q-43 -49 -43 -127v-152q0 -78 43 -127q42 -49 121 -49zM155 590v5l123 135h12l123 -135v-5
h-9l-120 132l-120 -132h-9z" />
    <glyph glyph-name="adieresis.alt1" horiz-adv-x="553" 
d="M249 -12q-84 0 -129 52t-45 134v152q0 82 45 134t129 52q108 0 204 -106v94h10v-500h-10v94q-96 -106 -204 -106zM249 -2q103 0 204 110v284q-101 110 -204 110q-79 0 -121 -49q-43 -49 -43 -127v-152q0 -78 43 -127q42 -49 121 -49zM182 595v110h10v-110h-10zM350 595
v110h10v-110h-10z" />
    <glyph glyph-name="agrave.alt1" horiz-adv-x="553" 
d="M249 -12q-84 0 -129 52t-45 134v152q0 82 45 134t129 52q108 0 204 -106v94h10v-500h-10v94q-96 -106 -204 -106zM249 -2q103 0 204 110v284q-101 110 -204 110q-79 0 -121 -49q-43 -49 -43 -127v-152q0 -78 43 -127q42 -49 121 -49zM328 590l-123 135v5h9l127 -140h-13z
" />
    <glyph glyph-name="amacron.alt1" horiz-adv-x="553" 
d="M249 -12q-84 0 -129 52t-45 134v152q0 82 45 134t129 52q108 0 204 -106v94h10v-500h-10v94q-96 -106 -204 -106zM249 -2q103 0 204 110v284q-101 110 -204 110q-79 0 -121 -49q-43 -49 -43 -127v-152q0 -78 43 -127q42 -49 121 -49zM167 645v10h233v-10h-233z" />
    <glyph glyph-name="ampersand.alt1" horiz-adv-x="626" 
d="M394 257v10h232v-10h-111v-21q0 -116 -62 -184q-62 -67 -167 -67q-100 0 -164 56q-62 56 -62 152q0 82 46 131q46 51 109 61q-53 9 -89 49q-34 42 -34 102q0 73 50 122q48 49 136 49t140 -43q53 -44 63 -122h-10q-10 75 -61 115q-47 40 -132 40q-84 0 -130 -47
q-46 -48 -46 -114q0 -64 42 -106q45 -40 125 -40h67v-10h-67q-93 0 -145 -52q-54 -52 -54 -135q0 -91 60 -145q62 -53 156 -53q101 0 160 65t59 176v21h-111z" />
    <glyph glyph-name="ampersand.alt2" horiz-adv-x="580" 
d="M226 0q-78 0 -122 50q-44 49 -44 133q0 80 38 127q37 46 97 55q-47 12 -79 53q-31 40 -31 111q0 81 43 125q43 46 120 46h104v-10h-104q-73 0 -113 -43t-40 -118t39 -117q38 -44 108 -44h216v152h10v-152h72v-10h-72v-358h-242zM229 10h229v348h-229q-74 0 -117 -46
q-42 -48 -42 -128t42 -127q44 -47 117 -47z" />
    <glyph glyph-name="aogonek.alt1" horiz-adv-x="553" 
d="M249 -12q-84 0 -129 52t-45 134v152q0 82 45 134t129 52q108 0 204 -106v94h10v-500q-64 -46 -64 -89q0 -61 86 -61h47v-10h-50q-44 0 -68 18q-25 19 -25 53q0 48 64 94v89q-96 -106 -204 -106zM249 -2q103 0 204 110v284q-101 110 -204 110q-79 0 -121 -49
q-43 -49 -43 -127v-152q0 -78 43 -127q42 -49 121 -49z" />
    <glyph glyph-name="aring.alt1" horiz-adv-x="553" 
d="M249 -12q-84 0 -129 52t-45 134v152q0 82 45 134t129 52q108 0 204 -106v94h10v-500h-10v94q-96 -106 -204 -106zM249 -2q103 0 204 110v284q-101 110 -204 110q-79 0 -121 -49q-43 -49 -43 -127v-152q0 -78 43 -127q42 -49 121 -49zM276 587q36 0 62 23q26 24 26 58
t-26 58q-26 23 -62 23t-62 -23q-26 -24 -26 -58t26 -58q26 -23 62 -23zM276 577q-40 0 -69 27q-29 26 -29 64t29 64q29 27 69 27t69 -27q29 -26 29 -64t-29 -64q-29 -27 -69 -27z" />
    <glyph glyph-name="at.alt1" horiz-adv-x="728" 
d="M342 -160q-115 0 -183 62q-69 60 -69 162v417q0 100 69 163q70 61 183 61h44q113 0 183 -61q69 -63 69 -163v-371h-10v83q-104 -95 -211 -95q-69 0 -115 35q-46 34 -46 105q0 74 54 112q53 39 154 39h164v90q0 97 -66 157q-68 59 -177 59h-42q-109 0 -177 -59
q-66 -60 -66 -157v-413q0 -98 66 -156q68 -60 177 -60h91v-10h-92zM417 108q103 0 211 99v172h-164q-95 0 -147 -35q-51 -36 -51 -106q0 -67 44 -98q43 -32 107 -32z" />
    <glyph glyph-name="atilde.alt1" horiz-adv-x="553" 
d="M112 632l-8 6q33 41 56 62q21 15 43 15q27 0 69 -30l22 -16q36 -27 63 -27q21 0 37 14q14 11 53 59l8 -6q-33 -43 -55 -61q-20 -16 -44 -16q-27 0 -69 30l-22 16q-37 27 -63 27q-19 0 -38 -14q-17 -15 -52 -59zM249 -12q-84 0 -129 52t-45 134v152q0 82 45 134t129 52
q108 0 204 -106v94h10v-500h-10v94q-96 -106 -204 -106zM249 -2q103 0 204 110v284q-101 110 -204 110q-79 0 -121 -49q-43 -49 -43 -127v-152q0 -78 43 -127q42 -49 121 -49z" />
    <glyph glyph-name="brevecap" horiz-adv-x="438" 
d="M219 742q-66 0 -105 36q-40 37 -40 101v9h10v-8q0 -60 37 -94t98 -34t98 34t37 94v8h10v-9q0 -64 -40 -101q-40 -36 -105 -36z" />
    <glyph glyph-name="commaaccent" horiz-adv-x="127" 
d="M20 -235v5l78 163h9v-5l-78 -163h-9z" />
    <glyph glyph-name="dollar.mono" horiz-adv-x="588" 
d="M44 227h10q0 -116 76 -174q74 -58 178 -58q103 0 157 47q55 45 55 118q0 60 -37 98q-39 37 -119 68l-126 48q-98 36 -132 72q-36 34 -36 101q0 76 58 121q57 47 159 47h4v95h10v-95q103 -5 163 -63q63 -57 63 -173h-10q0 115 -65 171q-65 55 -165 55q-96 0 -151 -44
q-56 -43 -56 -114q0 -60 31 -92q31 -33 106 -61l124 -47q101 -38 144 -77q45 -39 45 -110q0 -76 -57 -126q-56 -49 -165 -49h-7v-95h-10v96q-47 1 -91 17q-45 15 -78 43q-36 28 -57 74q-21 48 -21 107z" />
    <glyph glyph-name="eight.mono" horiz-adv-x="588" 
d="M294 -15q-110 0 -168 53q-59 53 -59 146q0 78 45 124q44 45 112 59q-55 10 -94 52q-38 43 -38 112q0 82 53 133t149 51t149 -51t53 -133q0 -69 -38 -112q-39 -42 -94 -52q67 -14 112 -59q45 -47 45 -124q0 -93 -59 -146q-58 -53 -168 -53zM293 -5q110 0 163 52
q55 52 55 137q0 74 -51 126q-49 52 -154 52h-24q-105 0 -154 -52q-51 -52 -51 -126q0 -85 55 -137q53 -52 161 -52zM282 372h24q92 0 136 45q44 46 44 119q0 74 -50 122q-52 47 -142 47q-89 0 -141 -47q-51 -48 -51 -122q0 -73 44 -119q44 -45 136 -45z" />
    <glyph glyph-name="eight.onum" horiz-adv-x="594" 
d="M297 -15q-110 0 -169 53q-58 55 -58 146q0 78 45 124q44 45 112 59q-56 11 -93 52q-39 42 -39 112q0 82 53 133t149 51q97 0 149 -51q53 -51 53 -133q0 -70 -39 -112q-37 -41 -93 -52q67 -14 111 -59q46 -46 46 -124q0 -91 -58 -146q-61 -53 -169 -53zM296 -5
q109 0 164 52q54 53 54 137q0 73 -50 126q-51 52 -155 52h-24q-104 0 -155 -52q-50 -53 -50 -126q0 -84 54 -137q55 -52 162 -52zM285 372h24q93 0 136 45q44 46 44 119q0 74 -51 122q-50 47 -141 47q-89 0 -141 -47q-51 -48 -51 -122q0 -73 44 -119q44 -45 136 -45z" />
    <glyph glyph-name="eight.onum.mono" horiz-adv-x="588" 
d="M294 -15q-110 0 -168 53q-59 53 -59 146q0 78 45 124q44 45 112 59q-55 10 -94 52q-38 43 -38 112q0 82 53 133t149 51t149 -51t53 -133q0 -69 -38 -112q-39 -42 -94 -52q67 -14 112 -59q45 -47 45 -124q0 -93 -59 -146q-58 -53 -168 -53zM293 -5q110 0 163 52
q55 52 55 137q0 74 -51 126q-49 52 -154 52h-24q-105 0 -154 -52q-51 -52 -51 -126q0 -85 55 -137q53 -52 161 -52zM282 372h24q92 0 136 45q44 46 44 119q0 74 -50 122q-52 47 -142 47q-89 0 -141 -47q-51 -48 -51 -122q0 -73 44 -119q44 -45 136 -45z" />
    <glyph glyph-name="five.mono" horiz-adv-x="588" 
d="M298 -15q-87 0 -145 49q-57 51 -70 139h11q14 -86 68 -131q55 -47 136 -47q94 0 147 60q52 59 52 159q0 108 -53 162q-52 54 -143 54q-103 0 -167 -76h-9l28 346h313v-10h-304l-26 -319q27 30 72 50q42 19 92 19q95 0 152 -57q55 -58 55 -169q0 -102 -55 -166
q-56 -63 -154 -63z" />
    <glyph glyph-name="five.onum" horiz-adv-x="567" 
d="M288 -172q-88 0 -145 48q-56 46 -70 132h11q14 -81 68 -125q54 -45 136 -45q95 0 146 58q53 56 53 151q0 103 -53 155q-52 52 -143 52q-49 0 -95 -20q-43 -21 -72 -53h-9l28 319h313v-10h-304l-26 -292q63 66 164 66q96 0 152 -55q55 -57 55 -162q0 -98 -55 -159
q-55 -60 -154 -60z" />
    <glyph glyph-name="five.onum.mono" horiz-adv-x="588" 
d="M298 -172q-88 0 -145 48q-56 46 -70 132h11q14 -81 68 -125q54 -45 136 -45q95 0 146 58q53 56 53 151q0 103 -53 155q-52 52 -143 52q-49 0 -95 -20q-43 -21 -72 -53h-9l28 319h313v-10h-304l-26 -292q63 66 164 66q96 0 152 -55q55 -57 55 -162q0 -98 -55 -159
q-55 -60 -154 -60z" />
    <glyph glyph-name="four.mono" horiz-adv-x="588" 
d="M410 0v183h-350v10l306 507h9v-5l-302 -502h337v218h10v-218h103v-10h-103v-183h-10z" />
    <glyph glyph-name="four.onum" horiz-adv-x="533" 
d="M390 -160v160h-340v10l306 490h9v-5l-302 -485h327v201h10v-201h103v-10h-103v-160h-10z" />
    <glyph glyph-name="four.onum.mono" horiz-adv-x="588" 
d="M410 -160v160h-340v10l306 490h9v-5l-302 -485h327v201h10v-201h103v-10h-103v-160h-10z" />
    <glyph glyph-name="nine.mono" horiz-adv-x="588" 
d="M238 0v5l212 337q-57 -60 -161 -60q-102 0 -157 58q-54 60 -54 159q0 101 56 157q53 59 159 59t159 -59q56 -56 56 -157q0 -54 -16 -93q-15 -38 -50 -95l-195 -311h-9zM293 705q-99 0 -152 -56t-53 -150q0 -95 51 -151t150 -56q91 0 149 54q60 54 60 153q0 94 -53 150
t-152 56z" />
    <glyph glyph-name="nine.onum" horiz-adv-x="560" 
d="M252 -160v5l185 294q-57 -60 -161 -60t-157 59q-54 58 -54 158q0 97 55 158q58 58 160 58q104 0 160 -58q55 -61 55 -158q0 -53 -15 -92q-16 -40 -51 -96l-168 -268h-9zM276 89q90 0 150 54q59 54 59 153q0 94 -53 150t-152 56t-152 -56t-53 -150q0 -96 51 -151
q51 -56 150 -56z" />
    <glyph glyph-name="nine.onum.mono" horiz-adv-x="588" 
d="M265 -160v5l185 294q-57 -60 -161 -60t-157 59q-54 58 -54 158q0 99 56 158q55 58 159 58t159 -58q56 -59 56 -158q0 -54 -16 -92q-14 -39 -50 -96l-168 -268h-9zM289 89q91 0 149 54q60 54 60 153q0 94 -53 150t-152 56t-152 -56t-53 -150q0 -96 51 -151q51 -56 150 -56
z" />
    <glyph glyph-name="one.mono" horiz-adv-x="588" 
d="M106 0v10h183v680h-134v5l4 5h140v-690h183v-10h-376z" />
    <glyph glyph-name="one.onum" horiz-adv-x="240" 
d="M130 0v490h-94v5l4 5h100v-500h-10z" />
    <glyph glyph-name="one.onum.mono" horiz-adv-x="588" 
d="M106 0v10h183v480h-134v5l4 5h140v-490h183v-10h-376z" />
    <glyph glyph-name="seven.mono" horiz-adv-x="588" 
d="M230 0v5l261 685h-391v-175h-10v185h413v-10l-265 -690h-8z" />
    <glyph glyph-name="seven.onum" horiz-adv-x="523" 
d="M216 -160v5l245 645h-391v-175h-10v185h413v-10l-249 -650h-8z" />
    <glyph glyph-name="seven.onum.mono" horiz-adv-x="588" 
d="M246 -160v5l245 645h-391v-175h-10v185h413v-10l-249 -650h-8z" />
    <glyph glyph-name="six.mono" horiz-adv-x="588" 
d="M295 -15q-106 0 -159 59q-56 56 -56 157q0 54 16 93q15 38 50 95l195 311h9v-5l-212 -337q57 60 161 60q102 0 157 -58q54 -60 54 -159q0 -101 -56 -157q-53 -59 -159 -59zM295 -5q99 0 152 56t53 150q0 95 -51 151t-150 56q-91 0 -149 -54q-60 -54 -60 -153
q0 -94 53 -150t152 -56z" />
    <glyph glyph-name="six.onum" horiz-adv-x="560" 
d="M280 -12q-104 0 -160 58q-55 61 -55 158q0 53 15 92q16 40 51 96l195 308h9v-5l-212 -334q57 60 161 60t157 -59q54 -58 54 -158q0 -97 -55 -158q-58 -58 -160 -58zM280 -2q99 0 152 56t53 150q0 96 -51 151q-51 56 -150 56q-90 0 -150 -54q-59 -54 -59 -153
q0 -94 53 -150t152 -56z" />
    <glyph glyph-name="six.onum.mono" horiz-adv-x="588" 
d="M295 -15q-106 0 -159 59q-56 56 -56 157q0 54 16 93q15 38 50 95l195 311h9v-5l-212 -337q57 60 161 60q102 0 157 -58q54 -60 54 -159q0 -101 -56 -157q-53 -59 -159 -59zM295 -5q99 0 152 56t53 150q0 95 -51 151t-150 56q-91 0 -149 -54q-60 -54 -60 -153
q0 -94 53 -150t152 -56z" />
    <glyph glyph-name="sterling.mono" horiz-adv-x="588" 
d="M50 0v10h83v338h-83v10h83v171q0 81 51 134q49 52 143 52q89 0 142 -47q52 -46 52 -120v-45h-10v45q0 70 -49 113q-50 44 -135 44q-87 0 -135 -49q-49 -48 -49 -127v-171h219v-10h-219v-338h378v-10h-471z" />
    <glyph glyph-name="t.alt1" horiz-adv-x="372" 
d="M181 0v490h-151v10h151v205h10v-205h151v-10h-151v-490h-10z" />
    <glyph glyph-name="tcaron.alt1" horiz-adv-x="444" 
d="M181 0v490h-151v10h151v205h10v-205h151v-10h-151v-490h-10zM377 537v5l78 163h9v-5l-78 -163h-9z" />
    <glyph glyph-name="three.mono" horiz-adv-x="588" 
d="M291 -15q-96 0 -157 53q-61 54 -64 146h10q3 -87 60 -138q58 -51 151 -51q91 0 144 51q52 52 52 145q0 74 -47 123q-48 49 -126 49h-71v10h74q71 0 113 44q41 44 41 115q0 72 -49 124q-52 50 -135 50q-87 0 -140 -54q-53 -53 -53 -149h-10q0 101 56 156q54 56 147 56
q89 0 142 -53q52 -52 52 -130q0 -67 -35 -111q-35 -42 -91 -53q62 -12 102 -58t40 -119q0 -97 -55 -151q-54 -55 -151 -55z" />
    <glyph glyph-name="three.onum" horiz-adv-x="557" 
d="M281 -172q-96 0 -157 50q-61 49 -64 136h10q3 -82 60 -128q58 -48 151 -48q91 0 144 48q52 49 52 135q0 71 -47 116q-48 45 -126 45h-71v10h74q69 0 110 41q40 40 40 108q0 67 -49 114q-52 47 -135 47q-89 0 -140 -50q-53 -48 -53 -139h-10q0 94 56 147q55 52 147 52
q91 0 141 -50q53 -47 53 -121q0 -65 -34 -105q-36 -40 -88 -49q60 -10 102 -55q40 -41 40 -111q0 -91 -54 -142t-152 -51z" />
    <glyph glyph-name="three.onum.mono" horiz-adv-x="588" 
d="M301 -172q-96 0 -157 50q-61 49 -64 136h10q3 -82 60 -128q58 -48 151 -48q91 0 144 48q52 49 52 135q0 71 -47 116q-48 45 -126 45h-71v10h74q69 0 110 41q40 40 40 108q0 67 -49 114q-52 47 -135 47q-89 0 -140 -50q-53 -48 -53 -139h-10q0 94 56 147q55 52 147 52
q91 0 141 -50q53 -47 53 -121q0 -65 -34 -105q-36 -40 -88 -49q60 -10 102 -55q40 -41 40 -111q0 -91 -54 -142t-152 -51z" />
    <glyph glyph-name="two.mono" horiz-adv-x="588" 
d="M83 0v10l212 217q86 88 116 133q54 80 54 153q0 90 -52 141q-53 51 -135 51q-84 0 -140 -53q-55 -52 -55 -149h-10q0 101 58 156q59 56 147 56q87 0 142 -53q55 -54 55 -149q0 -43 -15 -83q-15 -41 -44 -81q-28 -39 -50 -62q-42 -45 -52 -55l-12 -12l-205 -210h402v-10
h-416z" />
    <glyph glyph-name="two.onum" horiz-adv-x="537" 
d="M70 0v10l180 112q21 12 43 26q31 17 49 30q11 6 43 31q24 19 41 39q13 17 24 44t11 54q0 71 -52 114q-52 42 -133 42q-86 0 -141 -46q-56 -47 -56 -129h-10q0 86 59 136q58 49 148 49q85 0 140 -46q55 -45 55 -120q0 -28 -11 -56q-10 -24 -26 -47q-12 -17 -42 -41
q-28 -23 -44 -32q-15 -11 -50 -30l-42 -26l-168 -104h398v-10h-416z" />
    <glyph glyph-name="two.onum.mono" horiz-adv-x="588" 
d="M92 0v10l180 112q21 12 43 26q31 17 49 30q11 6 43 31q24 19 41 39q13 17 24 44t11 54q0 71 -52 114q-53 42 -133 42q-86 0 -141 -46q-56 -47 -56 -129h-10q0 86 59 136q58 49 148 49q85 0 140 -46q55 -45 55 -120q0 -28 -11 -56q-10 -24 -26 -47q-12 -17 -42 -41
q-28 -23 -44 -32q-15 -11 -50 -30l-42 -26l-168 -104h398v-10h-416z" />
    <glyph glyph-name="uni03A9" horiz-adv-x="708" 
d="M85 0v10h175q-76 22 -118 84q-42 60 -42 151v222q0 117 68 183q70 65 186 65t186 -65q68 -66 68 -183v-222q0 -91 -42 -151q-44 -62 -118 -84h175v-10h-220v10q90 13 143 74q52 62 52 161v223q0 112 -66 175q-64 63 -178 63t-178 -63q-66 -63 -66 -175v-223
q0 -99 52 -161q53 -61 143 -74v-10h-220z" />
    <glyph glyph-name="uni040E.alt1" horiz-adv-x="547" 
d="M110 0v10h13q50 0 83 27q32 27 60 91l20 45l-266 522v5h9l262 -516l227 516h9v-5l-251 -568q-32 -72 -65 -99q-34 -28 -88 -28h-13zM276 742q-65 0 -106 36q-39 38 -39 101v9h10v-8q0 -60 37 -94t98 -34t98 34t37 94v8h10v-9q0 -64 -40 -101q-41 -36 -105 -36z" />
    <glyph glyph-name="uni0423.alt1" horiz-adv-x="547" 
d="M110 0v10h13q50 0 83 27q32 27 60 91l20 45l-266 522v5h9l262 -516l227 516h9v-5l-251 -568q-32 -72 -65 -99q-34 -28 -88 -28h-13z" />
    <glyph glyph-name="uni0430.alt1" horiz-adv-x="553" 
d="M249 -12q-84 0 -129 52t-45 134v152q0 82 45 134t129 52q108 0 204 -106v94h10v-500h-10v94q-96 -106 -204 -106zM249 -2q103 0 204 110v284q-101 110 -204 110q-79 0 -121 -49q-43 -49 -43 -127v-152q0 -78 43 -127q42 -49 121 -49z" />
    <glyph glyph-name="uni20B4.mono" horiz-adv-x="588" 
d="M285 -15q-100 0 -157 49q-57 51 -57 126q0 62 38 108h-86v10h543v-10h-443q-42 -44 -42 -108q0 -72 55 -118q55 -47 149 -47q85 0 145 47q60 45 74 142h10q-14 -101 -76 -150q-64 -49 -153 -49zM23 419v10h426q46 47 46 117q0 67 -53 112q-51 47 -142 47q-85 0 -144 -46
q-60 -47 -70 -143h-10q11 101 71 150q63 49 153 49q94 0 150 -49q55 -49 55 -120q0 -68 -43 -117h104v-10h-543z" />
    <glyph glyph-name="uni20BD.mono" horiz-adv-x="588" 
d="M118 0v149h-97v10h97v141h-97v10h97v390h257q85 0 135 -54q48 -54 48 -146t-48 -146q-50 -54 -135 -54h-247v-141h231v-10h-231v-149h-10zM128 310h247q80 0 127 51q46 50 46 139t-46 139q-47 51 -127 51h-247v-380z" />
    <glyph glyph-name="uniF64E.mono" horiz-adv-x="588" 
d="M310 -12q-93 0 -144 52q-50 53 -50 134v13h-69v10h69v98h-69v10h69v21q0 81 50 134q51 52 144 52q89 0 142 -47q52 -46 52 -120v-4h-10v4q0 70 -49 113q-50 44 -135 44q-86 0 -135 -49t-49 -127v-21h221v-10h-221v-98h221v-10h-221v-13q0 -78 49 -127t135 -49
q85 0 135 44q49 45 49 115v5h10v-5q0 -75 -52 -121q-51 -48 -142 -48z" />
    <glyph glyph-name="uniF653.mono" horiz-adv-x="588" 
d="M283 -89v77q-85 3 -141 46q-58 42 -58 129h10q0 -59 32 -97q32 -39 74 -54q45 -14 93 -14q81 0 128 35q46 34 46 90q0 48 -31 73q-29 23 -103 43l-102 27q-68 18 -97 44q-27 27 -27 77q0 54 47 89q46 36 129 36v76h10v-76q81 -2 130 -45q50 -44 50 -125h-10q0 80 -49 120
t-130 40q-79 0 -123 -32t-44 -83q0 -44 25 -69q28 -26 90 -42l102 -27q78 -21 110 -47q33 -25 33 -79q0 -61 -47 -97q-47 -38 -137 -38v-77h-10z" />
    <glyph glyph-name="uniF721.mono" horiz-adv-x="588" 
d="M283 -12q-82 0 -127 36q-46 34 -46 90q0 42 28 76h-76v10h446v-10h-356q-32 -35 -32 -76q0 -51 44 -83q43 -33 119 -33q66 0 116 32q49 33 58 101h11q-9 -73 -61 -107q-53 -36 -124 -36zM62 298v10h354q34 35 34 79q0 50 -42 83q-41 32 -115 32q-66 0 -115 -32
q-46 -33 -54 -101h-10q8 73 57 107q49 36 124 36q76 0 121 -36q44 -35 44 -89q0 -44 -31 -79h79v-10h-446z" />
    <glyph glyph-name="uniF722.mono" horiz-adv-x="588" 
d="M128 0v91h-77v10h77v98h-77v10h77v291h223q73 0 115 -40q42 -42 42 -110q0 -71 -42 -110q-40 -41 -115 -41h-213v-98h203v-10h-203v-91h-10zM138 209h213q68 0 108 38q39 37 39 103q0 64 -39 102q-40 38 -108 38h-213v-281z" />
    <glyph glyph-name="uniF725.mono" horiz-adv-x="588" 
d="M63 0v10h75v227h-75v10h75v79q0 82 46 134t131 52q82 0 129 -47q48 -47 48 -120v-4h-10v4q0 69 -44 113q-46 44 -123 44q-78 0 -123 -49q-44 -50 -44 -127v-79h197v-10h-197v-227h344v-10h-429z" />
    <glyph glyph-name="uniF727.mono" horiz-adv-x="588" 
d="M288 0v91h-165v10h165v98h-165v10h158l-192 286v5h9l194 -291h1l196 291h9v-5l-193 -286h149v-10h-156v-98h156v-10h-156v-91h-10z" />
    <glyph glyph-name="yen.mono" horiz-adv-x="588" 
d="M289 0v127h-220v10h220v141h-220v10h213l-266 407v5h9l269 -411l269 411h9v-5l-267 -407h214v-10h-220v-141h220v-10h-220v-127h-10z" />
    <glyph glyph-name="zero.mono" horiz-adv-x="588" 
d="M294 -15q-98 0 -156 55q-57 56 -57 153v314q0 97 57 153q58 55 156 55t156 -55q57 -56 57 -153v-314q0 -97 -57 -153q-58 -55 -156 -55zM91 193q0 -72 32 -119l337 559q-54 73 -166 73q-93 0 -148 -52q-55 -54 -55 -146v-315zM294 -5q95 0 148 53q55 51 55 145v315
q0 66 -30 115l-337 -559q54 -69 164 -69z" />
    <glyph glyph-name="zero.onum" 
d="M261 -2q91 0 137 49q47 50 47 127v152q0 77 -47 127q-46 49 -137 49q-87 0 -135 -49q-49 -49 -49 -127v-152q0 -78 49 -127q48 -49 135 -49zM261 -12q-94 0 -143 52q-51 52 -51 134v152q0 82 51 134q49 52 143 52q96 0 145 -52t49 -134v-152q0 -82 -49 -134
q-51 -52 -145 -52z" />
    <glyph glyph-name="zero.onum.mono" horiz-adv-x="588" 
d="M294 -12q-93 0 -144 52q-50 53 -50 134v152q0 81 50 134q51 52 144 52q96 0 144 -52q50 -50 50 -134v-152q0 -84 -50 -134q-48 -52 -144 -52zM110 174q0 -68 35 -112l294 382q-49 58 -145 58q-86 0 -135 -49t-49 -127v-152zM294 -2q91 0 137 49q47 50 47 127v152
q0 62 -32 109l-295 -381q48 -56 143 -56z" />
    </font>
</defs>
</svg>
