<?xml version="1.0" standalone="no"?>
<!DOCTYPE svg PUBLIC "-//W3C//DTD SVG 1.1//EN" "http://www.w3.org/Graphics/SVG/1.1/DTD/svg11.dtd" >
<svg xmlns="http://www.w3.org/2000/svg" xmlns:xlink="http://www.w3.org/1999/xlink" version="1.1">
<metadata>
Created by FontForge 20170731 at Wed Apr  9 12:37:51 2014
 By Aleksey,,,
Copyright (c) 2013 by Gayane Bagdasaryan, Dmitry Rastvortsev. All rights reserved.
</metadata>
<defs>
<font id="BrutalType-Bold" horiz-adv-x="1337" >
  <font-face 
    font-family="Brutal Type"
    font-weight="700"
    font-stretch="normal"
    units-per-em="2048"
    panose-1="2 0 6 3 2 0 0 2 0 4"
    ascent="1647"
    descent="-401"
    x-height="1062"
    cap-height="1420"
    bbox="-105 -348 2258 1940"
    underline-thickness="102"
    underline-position="-306"
    unicode-range="U+000D-FB02"
  />
<missing-glyph horiz-adv-x="748" 
d="M68 0v1365h544v-1365h-544zM136 68h408v1229h-408v-1229z" />
    <glyph glyph-name="uniFB01" unicode="fi" horiz-adv-x="1292" 
d="M27 834v228h155q0 156 102 264t316 108q12 0 77 -4v-236h-42q-98 0 -140.5 -29.5t-48.5 -102.5h690v-1062h-264v834h-426v-834h-264v834h-155zM872 1207v223h264v-223h-264z" />
    <glyph glyph-name="uniFB02" unicode="fl" horiz-adv-x="1292" 
d="M27 834v228h155q0 156 102 264t316 108q12 0 77 -4v-236h-42q-98 0 -140.5 -29.5t-48.5 -102.5h215v-228h-215v-834h-264v834h-155zM872 0v1430h264v-1430h-264z" />
    <glyph glyph-name=".notdef" horiz-adv-x="748" 
d="M68 0v1365h544v-1365h-544zM136 68h408v1229h-408v-1229z" />
    <glyph glyph-name="glyph1" horiz-adv-x="2048" 
 />
    <glyph glyph-name="glyph1" horiz-adv-x="2048" 
 />
    <glyph glyph-name="uni000D" unicode="&#xd;" horiz-adv-x="2048" 
 />
    <glyph glyph-name="space" unicode=" " horiz-adv-x="474" 
 />
    <glyph glyph-name="exclam" unicode="!" horiz-adv-x="634" 
d="M186 0v263h264v-263h-264zM186 446v974h264v-974h-264z" />
    <glyph glyph-name="quotedbl" unicode="&#x22;" horiz-adv-x="863" 
d="M101 1324v106h264v-106l-53 -418h-158zM499 1324v106h263v-106l-52 -418h-159z" />
    <glyph glyph-name="numbersign" unicode="#" horiz-adv-x="1387" 
d="M69 323v238h209l63 296h-179v240h229l69 323h233v-96l-49 -227h262l69 323h236v-96l-49 -227h158v-240h-209l-63 -296h179v-238h-227l-69 -323h-236v95l49 228h-262l-68 -323h-236v95l49 228h-158zM532 561h261l64 296h-263z" />
    <glyph glyph-name="dollar" unicode="$" horiz-adv-x="1215" 
d="M87 460h263q0 -129 69.5 -190t190.5 -61q100 0 155.5 46.5t55.5 125.5q0 83 -95 136q-47 23 -83 38l-165 74q-186 79 -273 166q-81 84 -81 244q0 103 45 189t125.5 141t185.5 72v188h264v-193q139 -30 241 -153q102 -120 102 -312h-264q0 240 -231 240q-90 0 -144.5 -44
t-54.5 -117q0 -27 4.5 -46t18 -37.5t36.5 -35.5q46 -30 61 -37l93 -43l135 -58q95 -43 146 -72t104 -75q56 -46 82 -105.5t26 -138.5q0 -166 -90 -277.5t-265 -147.5v-217h-264v215q-180 25 -286.5 151.5t-106.5 333.5z" />
    <glyph glyph-name="percent" unicode="%" horiz-adv-x="1605" 
d="M77 1039v95q0 154 83.5 234.5t236.5 80.5t237 -80.5t84 -234.5v-95q0 -155 -84 -236t-237 -81t-236.5 81t-83.5 236zM296 0v95l830 1325h186v-96l-830 -1324h-186zM308 1002q0 -39 24 -65t65 -26q40 0 65 26t25 65v168q0 39 -25 65t-65 26q-41 0 -65 -26t-24 -65v-168z
M888 286v95q0 155 84 236t236.5 81t236.5 -81t84 -236v-95q0 -155 -84 -236t-236.5 -81t-236.5 81t-84 236zM1119 249q0 -39 24.5 -65t65.5 -26q40 0 64.5 26.5t24.5 64.5v169q0 25 -11 45.5t-31.5 33t-46.5 12.5q-41 0 -65.5 -26t-24.5 -65v-169z" />
    <glyph glyph-name="ampersand" unicode="&#x26;" horiz-adv-x="1389" 
d="M108 354q0 71 19 129.5t65.5 119.5t126.5 131l18 16l-29 30q-26 26 -70 75q-30 37 -55 101t-25 129q0 155 105 251q106 98 277 98q165 0 269 -92t104 -243q0 -83 -40.5 -151.5t-124.5 -140.5l-55 -51l242 -241q44 121 44 247h250q0 -225 -110 -431l207 -207v-124h-231
l-130 128q-169 -153 -393 -153q-106 0 -192.5 26t-146.5 74.5t-92.5 119.5t-32.5 159zM371 371q0 -73 53 -114.5t145 -41.5q125 0 224 85l-290 286l-21 -19q-111 -99 -111 -196zM422 1085q0 -54 71 -126l39 -38l54 48q22 20 27.5 25.5t17.5 19t15 21.5t7.5 22t5.5 32
q0 48 -32.5 76.5t-82.5 28.5q-56 0 -89 -30.5t-33 -78.5z" />
    <glyph glyph-name="quotesingle" unicode="'" horiz-adv-x="466" 
d="M101 1324v106h264v-106l-53 -418h-158z" />
    <glyph glyph-name="parenleft" unicode="(" horiz-adv-x="644" 
d="M178 81v1078q0 194 99.5 300t277.5 106v-239q-54 0 -86.5 -43.5t-32.5 -108.5v-1107q0 -64 32.5 -108t86.5 -44v-240q-178 0 -277.5 106t-99.5 300z" />
    <glyph glyph-name="parenright" unicode=")" horiz-adv-x="644" 
d="M89 -85q55 0 87.5 44t32.5 108v1107q0 42 -14 76t-41.5 55t-64.5 21v239q179 0 278 -106t99 -300v-1078q0 -194 -99 -300t-278 -106v240z" />
    <glyph glyph-name="asterisk" unicode="*" horiz-adv-x="923" 
d="M85 955l207 97l-207 97l103 184l187 -133l-17 230h207l-18 -230l191 133l102 -184l-209 -97l209 -97l-102 -183l-191 132l18 -229h-207l17 229l-187 -132z" />
    <glyph glyph-name="plus" unicode="+" horiz-adv-x="1159" 
d="M126 525v219h334v339h240v-339h334v-219h-334v-339h-240v339h-334z" />
    <glyph glyph-name="comma" unicode="," horiz-adv-x="526" 
d="M65 -242l101 532h260v-112l-175 -420h-186z" />
    <glyph glyph-name="hyphen" unicode="-" horiz-adv-x="899" 
d="M118 515v239h665v-239h-665z" />
    <glyph glyph-name="period" unicode="." horiz-adv-x="565" 
d="M138 0v290h290v-290h-290z" />
    <glyph glyph-name="slash" unicode="/" horiz-adv-x="930" 
d="M77 -108l562 1673h214v-95l-561 -1673h-215v95z" />
    <glyph glyph-name="zero" unicode="0" horiz-adv-x="1246" 
d="M138 454v511q0 233 128 358.5t357 125.5q151 0 259.5 -55t167.5 -164.5t59 -264.5v-511q0 -233 -129 -359t-357.5 -126t-356.5 126t-128 359zM402 440q0 -106 57.5 -168.5t163.5 -62.5q107 0 164.5 62.5t57.5 168.5v539q0 106 -57.5 169t-164.5 63q-53 0 -95 -17
t-69.5 -47.5t-42 -73t-14.5 -94.5v-539z" />
    <glyph glyph-name="one" unicode="1" horiz-adv-x="668" 
d="M87 1062v140l337 218h67v-1420h-264v1062h-140z" />
    <glyph glyph-name="two" unicode="2" horiz-adv-x="1138" 
d="M93 0v215l428 431q155 162 193 215q42 63 42 145q0 59 -20 104t-65.5 73t-111.5 28q-208 0 -211 -252h-251q0 228 128 359t334 131q222 0 341 -127q120 -126 120 -306q0 -146 -67 -252q-67 -105 -233 -265l-270 -259h568v-240h-925z" />
    <glyph glyph-name="three" unicode="3" horiz-adv-x="1197" 
d="M93 466h253q5 -118 69 -187.5t177 -69.5t169 59t56 162q0 185 -231 185h-89v238h70q211 0 211 179q0 78 -46 128.5t-142 50.5q-208 0 -217 -242h-251q0 228 123.5 354t342.5 126q212 0 329 -111q120 -113 120 -282q0 -195 -167 -310q92 -37 151.5 -130t59.5 -208
q0 -206 -131 -322.5t-366 -116.5q-226 0 -357.5 131.5t-133.5 365.5z" />
    <glyph glyph-name="four" unicode="4" horiz-adv-x="1128" 
d="M56 261v203l471 956h231v-96l-404 -823h315v333h264v-333h160v-240h-160v-261h-264v261h-613z" />
    <glyph glyph-name="five" unicode="5" horiz-adv-x="1197" 
d="M101 397h257q12 -85 76.5 -136.5t161.5 -51.5q221 0 221 278q0 79 -26.5 139t-75.5 92t-113 32q-136 0 -203 -107h-253l75 777h781v-240h-576l-29 -280q115 65 253 65q184 0 307 -118q124 -114 124 -360t-132 -382t-359 -136q-138 0 -243.5 50.5t-169 147.5t-76.5 230z
" />
    <glyph glyph-name="six" unicode="6" horiz-adv-x="1191" 
d="M101 442q0 179 139 405l362 573h241v-96l-276 -424q75 11 120 11q176 0 292 -116q116 -113 116 -325q0 -156 -60.5 -269.5t-172.5 -172.5t-264 -59q-226 0 -362 128q-135 129 -135 345zM365 454q0 -116 60 -180.5t173 -64.5t173.5 65t60.5 180q0 118 -60 181t-176 63
q-78 0 -130.5 -31t-76.5 -84.5t-24 -128.5z" />
    <glyph glyph-name="seven" unicode="7" horiz-adv-x="1102" 
d="M73 1008v412h929v-224l-455 -1196h-237v95l420 1085h-414v-172h-243z" />
    <glyph glyph-name="eight" unicode="8" horiz-adv-x="1252" 
d="M118 402q0 76 28 146t76.5 121t108.5 75q-91 65 -134 135.5t-43 174.5q0 169 126 282q125 113 346.5 113t346.5 -113q126 -113 126 -282q0 -105 -42.5 -176t-131.5 -134q44 -18 83 -52t67 -79t44.5 -99.5t16.5 -111.5q0 -201 -136.5 -317t-372.5 -116q-118 0 -213 30.5
t-160.5 86t-100.5 136t-35 180.5zM383 426q0 -99 63.5 -160t180.5 -61t180 61t63 160q0 48 -17.5 88t-49.5 67.5t-77 42.5t-99 15q-110 0 -177 -57.5t-67 -155.5zM416 1034q0 -94 57.5 -144t153 -50t153.5 50t58 144q0 86 -54.5 136.5t-156.5 50.5q-69 0 -117 -24t-71 -65.5
t-23 -97.5z" />
    <glyph glyph-name="nine" unicode="9" horiz-adv-x="1191" 
d="M97 948q0 236 133 368.5t364 132.5q228 0 361 -127q136 -127 136 -345q0 -180 -138 -405l-363 -572h-242v95l277 424q-68 -10 -120 -10q-175 0 -292 114q-116 116 -116 325zM361 965q0 -117 59.5 -180t175.5 -63t174 65t58 178q0 116 -60.5 181t-173.5 65t-173 -65
t-60 -181z" />
    <glyph glyph-name="colon" unicode=":" horiz-adv-x="565" 
d="M138 0v290h290v-290h-290zM138 772v290h290v-290h-290z" />
    <glyph glyph-name="semicolon" unicode=";" horiz-adv-x="563" 
d="M65 -242l101 532h260v-112l-175 -420h-186zM136 772v290h290v-290h-290z" />
    <glyph glyph-name="less" unicode="&#x3c;" horiz-adv-x="1078" 
d="M126 527v215l702 363h125v-186l-566 -284l566 -285v-188h-125z" />
    <glyph glyph-name="equal" unicode="=" horiz-adv-x="1161" 
d="M126 306v219h911v-219h-911zM126 744v219h911v-219h-911z" />
    <glyph glyph-name="greater" unicode="&#x3e;" horiz-adv-x="1078" 
d="M126 162v188l567 285l-567 284v186h125l702 -363v-215l-702 -365h-125z" />
    <glyph glyph-name="question" unicode="?" horiz-adv-x="1064" 
d="M56 969q0 224 135 353q137 127 345 127q214 0 334 -119q117 -117 117 -286q0 -60 -18 -117.5t-44 -98.5q-18 -33 -74 -82q-53 -47 -73 -59l-78 -54l-63 -43v-144h-264v233l203 144q85 59 116.5 102.5t31.5 113.5q0 49 -22.5 88t-66 61.5t-101.5 22.5q-54 0 -96.5 -17
t-71 -48.5t-43.5 -76t-15 -100.5h-252zM373 0v263h264v-263h-264z" />
    <glyph glyph-name="at" unicode="@" horiz-adv-x="2010" 
d="M138 572q0 395 245 635q246 242 641 242q365 0 607 -218q242 -215 242 -579q0 -161 -49 -279.5t-142 -181.5t-222 -63q-180 0 -270 103q-115 -103 -263 -103q-142 0 -228.5 81.5t-86.5 230.5v266q0 99 40.5 170t111 105.5t163.5 34.5q151 0 263 -103l65 85h128v-550
q0 -121 109 -121q158 0 158 325q0 275 -182 439q-179 164 -444 164q-289 0 -477 -187q-184 -184 -184 -494q0 -311 184.5 -495t476.5 -184h50v-201h-50q-393 0 -639 246q-247 247 -247 632zM840 468q0 -59 39 -94t96 -35q91 0 180 83v298q-85 85 -180 85q-57 0 -96 -35.5
t-39 -94.5v-207z" />
    <glyph glyph-name="A" unicode="A" 
d="M37 0v95l490 1325h282l493 -1325v-95h-284l-114 333h-484l-118 -333h-265zM505 572h312l-154 462z" />
    <glyph glyph-name="B" unicode="B" horiz-adv-x="1352" 
d="M178 0v1420h600q198 0 309 -102t111 -290q0 -205 -158 -292q215 -94 215 -337q0 -194 -109.5 -296.5t-309.5 -102.5h-658zM466 251h355q64 0 105 44.5t41 126.5q0 80 -41 124t-105 44h-355v-339zM466 830h296q42 0 74.5 18t52.5 57.5t20 94.5q0 81 -41.5 124.5
t-105.5 43.5h-296v-338z" />
    <glyph glyph-name="C" unicode="C" horiz-adv-x="1339" 
d="M138 480v459q0 244 144.5 377t412.5 133q227 0 377 -125q151 -127 151 -371v-20h-288v20q0 113 -72 173t-186 60q-124 0 -187.5 -58.5t-63.5 -168.5v-499q0 -109 63.5 -167.5t187.5 -58.5q115 0 186.5 58.5t71.5 173.5v21h288v-21q0 -247 -151 -373q-147 -124 -377 -124
q-268 0 -412.5 133.5t-144.5 377.5z" />
    <glyph glyph-name="D" unicode="D" horiz-adv-x="1396" 
d="M178 0v1420h515q264 0 415 -129t151 -360v-442q0 -231 -151 -360t-415 -129h-515zM466 251h227q129 0 203.5 64.5t74.5 164.5v459q0 100 -74.5 164.5t-203.5 64.5h-227v-917z" />
    <glyph glyph-name="E" unicode="E" horiz-adv-x="1203" 
d="M178 0v1420h925v-252h-637v-336h544v-240h-544v-341h641v-251h-929z" />
    <glyph glyph-name="F" unicode="F" horiz-adv-x="1195" 
d="M178 0v1420h941v-252h-653v-355h556v-239h-556v-574h-288z" />
    <glyph glyph-name="G" unicode="G" horiz-adv-x="1400" 
d="M138 474v465q0 160 67 275t194.5 175t304.5 60q242 0 389 -129q149 -129 149 -363h-287q0 69 -33.5 121t-94 80t-140.5 28q-85 0 -144 -28t-88 -80t-29 -127v-475q0 -116 67 -179t190 -63q55 0 108 17.5t95 49t69 72.5v154h-251v239h538v-766h-153l-79 118
q-131 -149 -353 -149q-243 0 -381 134t-138 371z" />
    <glyph glyph-name="H" unicode="H" horiz-adv-x="1451" 
d="M178 0v1420h288v-584h519v584h288v-1420h-288v584h-519v-584h-288z" />
    <glyph glyph-name="I" unicode="I" horiz-adv-x="644" 
d="M178 0v1420h288v-1420h-288z" />
    <glyph glyph-name="J" unicode="J" horiz-adv-x="1184" 
d="M37 424v63h288v-63q0 -190 209 -190q94 0 150.5 49.5t56.5 150.5v986h287v-996q0 -234 -138 -345q-137 -110 -356 -110q-497 0 -497 455z" />
    <glyph glyph-name="K" unicode="K" horiz-adv-x="1290" 
d="M178 0v1420h288v-584h151l342 584h268v-96l-359 -598l389 -631v-95h-286l-354 584h-151v-584h-288z" />
    <glyph glyph-name="L" unicode="L" horiz-adv-x="1151" 
d="M178 0v1420h288v-1169h649v-251h-937z" />
    <glyph glyph-name="M" unicode="M" horiz-adv-x="1650" 
d="M178 0v1420h278l374 -627l372 627h270v-1420h-278v909l-279 -467h-179l-280 467v-909h-278z" />
    <glyph glyph-name="N" unicode="N" horiz-adv-x="1451" 
d="M178 0v1420h264l543 -884v884h288v-1420h-263l-544 884v-884h-288z" />
    <glyph glyph-name="O" unicode="O" horiz-adv-x="1406" 
d="M138 482v455q0 240 151.5 376t414.5 136t414 -136t151 -376v-455q0 -241 -151 -377t-414 -136t-414.5 136t-151.5 377zM426 468q0 -102 73.5 -168t204.5 -66t204 66t73 168v483q0 103 -73 169t-204 66t-204.5 -66t-73.5 -169v-483z" />
    <glyph glyph-name="P" unicode="P" horiz-adv-x="1306" 
d="M178 0v1420h635q189 0 298.5 -120.5t109.5 -328.5q0 -205 -109.5 -325.5t-298.5 -120.5h-347v-525h-288zM466 776h294q75 0 122 51.5t47 145.5q0 93 -47.5 144t-121.5 51h-294v-392z" />
    <glyph glyph-name="Q" unicode="Q" horiz-adv-x="1406" 
d="M138 482v455q0 240 151.5 376t414.5 136t414 -136t151 -376v-455q0 -244 -160 -385l158 -241v-98h-278l-146 226q-60 -15 -139 -15q-263 0 -414.5 136t-151.5 377zM426 468q0 -102 73.5 -168t204.5 -66t204 66t73 168v483q0 103 -73 169t-204 66t-204.5 -66t-73.5 -169
v-483z" />
    <glyph glyph-name="R" unicode="R" horiz-adv-x="1370" 
d="M178 0v1420h615q213 0 326.5 -116t113.5 -327q0 -96 -28 -176.5t-80 -139t-125 -94.5l261 -472v-95h-280l-296 534h-219v-534h-288zM466 776h275q198 0 198 197q0 195 -198 195h-275v-392z" />
    <glyph glyph-name="S" unicode="S" horiz-adv-x="1313" 
d="M87 460h288q0 -124 85 -176q85 -50 199 -50q110 0 171.5 42t61.5 111q0 64 -69 104q-40 24 -81 39q-23 12 -51 19q-114 43 -130 49l-58 23q-60 22 -99 39.5t-77 40.5t-79 53q-124 95 -124 268q0 195 141 311t383 116q124 0 222 -29t168.5 -87t108 -149.5t37.5 -212.5
h-288q0 110 -68 162.5t-184 52.5q-71 0 -123 -18t-79.5 -51t-27.5 -78q0 -67 54 -102q43 -24 64 -33q6 -2 13.5 -5.5t13 -5.5t8.5 -3l85 -31l58 -19q36 -12 126 -47l110 -49q62 -27 104 -61q68 -52 110 -123q37 -63 37 -139q0 -9 -1 -19q0 -197 -146 -315t-407 -118
q-242 0 -399 128q-157 129 -157 363z" />
    <glyph glyph-name="T" unicode="T" horiz-adv-x="1157" 
d="M37 1168v252h1085v-252h-398v-1168h-288v1168h-399z" />
    <glyph glyph-name="U" unicode="U" horiz-adv-x="1410" 
d="M158 466v954h288v-966q0 -96 68.5 -158t193.5 -62q62 0 111.5 17t81 47t48 70t16.5 86v966h290v-954q0 -234 -148 -365q-147 -132 -399 -132t-402 132q-148 130 -148 365z" />
    <glyph glyph-name="V" unicode="V" horiz-adv-x="1339" 
d="M37 1324v96h275l363 -1035l355 1035h274v-96l-491 -1324h-283z" />
    <glyph glyph-name="W" unicode="W" horiz-adv-x="1706" 
d="M77 1324v96h279l197 -960l213 619h180l220 -625l190 966h275v-96l-287 -1324h-268l-223 637l-222 -637h-268z" />
    <glyph glyph-name="X" unicode="X" 
d="M56 0v95l435 643l-394 586v96h294l278 -457l296 457h275v-96l-397 -583l438 -646v-95h-292l-326 507l-330 -507h-277z" />
    <glyph glyph-name="Y" unicode="Y" horiz-adv-x="1252" 
d="M16 1324v96h284l329 -588l342 588h266v-96l-467 -750v-574h-288v561z" />
    <glyph glyph-name="Z" unicode="Z" horiz-adv-x="1199" 
d="M77 0v249l693 919h-662v252h993v-248l-695 -921h718v-251h-1047z" />
    <glyph glyph-name="bracketleft" unicode="[" horiz-adv-x="689" 
d="M178 -325v1890h414v-239h-156v-1411h156v-240h-414z" />
    <glyph glyph-name="backslash" unicode="\" horiz-adv-x="930" 
d="M77 1470v95h215l561 -1673v-95h-214z" />
    <glyph glyph-name="bracketright" unicode="]" horiz-adv-x="689" 
d="M97 -85h156v1411h-156v239h414v-1890h-414v240z" />
    <glyph glyph-name="asciicircum" unicode="^" horiz-adv-x="1088" 
d="M126 785v95l306 550h220l311 -550v-95h-225l-196 347l-192 -347h-224z" />
    <glyph glyph-name="underscore" unicode="_" horiz-adv-x="1151" 
d="M-2 -60h1155v-220h-1155v220z" />
    <glyph glyph-name="grave" unicode="`" horiz-adv-x="615" 
d="M118 1389v91h236l145 -284h-213z" />
    <glyph glyph-name="a" unicode="a" horiz-adv-x="1147" 
d="M87 292q0 167 109 256t321 89h219v67q0 143 -171 143q-83 0 -126.5 -32.5t-43.5 -88.5h-257q0 167 110 264t317 97q210 0 322.5 -98t112.5 -267v-722h-153l-77 103q-136 -128 -325 -128q-151 0 -257 83q-101 82 -101 234zM350 327q0 -112 149 -112q143 0 237 104v117
h-219q-87 0 -127 -31t-40 -78z" />
    <glyph glyph-name="b" unicode="b" horiz-adv-x="1207" 
d="M158 0v1430h264v-443q114 100 282 100q82 0 151 -25.5t119.5 -73.5t78.5 -122.5t28 -167.5v-333q0 -185 -104 -287.5t-273 -102.5q-181 0 -317 130l-77 -105h-152zM422 327q112 -112 226 -112q70 0 119.5 47t49.5 123v292q0 76 -49.5 123t-119.5 47q-114 0 -226 -111
v-409z" />
    <glyph glyph-name="c" unicode="c" horiz-adv-x="1100" 
d="M112 369v324q0 181 122 287.5t327 106.5q202 0 319.5 -105.5t117.5 -292.5v-12h-264v12q0 74 -45 116t-128 42q-186 0 -186 -149v-333q0 -150 186 -150q81 0 127 42t46 114v20h264v-14q0 -184 -122 -294q-120 -108 -315 -108q-135 0 -237 48t-157 137.5t-55 208.5z" />
    <glyph glyph-name="d" unicode="d" horiz-adv-x="1207" 
d="M128 365v333q0 124 49 213t133 132.5t195 43.5q167 0 282 -100v443h263v-1430h-152l-77 105q-136 -130 -316 -130q-111 0 -195 44t-133 133.5t-49 212.5zM391 385q0 -76 49.5 -123t118.5 -47q116 0 228 112v409q-112 111 -228 111q-45 0 -83 -20t-61.5 -59.5t-23.5 -90.5
v-292z" />
    <glyph glyph-name="e" unicode="e" horiz-adv-x="1126" 
d="M112 365v328q0 178 126 286q128 108 336 108q203 0 322.5 -103.5t119.5 -285.5v-253h-641v-76q0 -72 51.5 -113t147.5 -41q149 0 176 108h264q-17 -165 -131.5 -256.5t-308.5 -91.5q-213 0 -337.5 104t-124.5 286zM375 644h377v54q0 69 -50 109t-139 40q-90 0 -139 -40
t-49 -109v-54z" />
    <glyph glyph-name="f" unicode="f" horiz-adv-x="712" 
d="M27 834v228h155q0 156 102 264t316 108q12 0 77 -4v-236h-42q-98 0 -140.5 -29.5t-48.5 -102.5h215v-228h-215v-834h-264v834h-155z" />
    <glyph glyph-name="g" unicode="g" horiz-adv-x="1207" 
d="M128 476v222q0 124 49 213t133 132.5t195 43.5q180 0 316 -130l77 105h152v-997q0 -198 -121.5 -305.5t-332.5 -107.5q-203 0 -322.5 92t-119.5 254v8h264v-6q0 -46 45 -78t131 -32q193 0 193 175v121q-114 -99 -282 -99q-111 0 -195 44t-133 132.5t-49 212.5zM391 497
q0 -76 49.5 -123t118.5 -47q117 0 228 111v298q-112 111 -228 111q-45 0 -83 -20t-61.5 -59.5t-23.5 -90.5v-180z" />
    <glyph glyph-name="h" unicode="h" horiz-adv-x="1217" 
d="M158 0v1430h264v-443q120 100 280 100q172 0 270 -109.5t98 -302.5v-675h-263v659q0 91 -45 139.5t-119 48.5q-121 0 -221 -111v-736h-264z" />
    <glyph glyph-name="i" unicode="i" horiz-adv-x="579" 
d="M158 0v1062h264v-1062h-264zM158 1207v223h264v-223h-264z" />
    <glyph glyph-name="j" unicode="j" horiz-adv-x="581" 
d="M-14 -110h45q129 0 129 155v1017h264v-1021q0 -154 -89 -272q-87 -117 -275 -117q-38 0 -74 3v235zM160 1207v223h264v-223h-264z" />
    <glyph glyph-name="k" unicode="k" horiz-adv-x="1118" 
d="M158 0v1430h264v-771h112l257 403h227v-123l-248 -388l274 -427v-124h-235l-275 430h-112v-430h-264z" />
    <glyph glyph-name="l" unicode="l" horiz-adv-x="579" 
d="M158 0v1430h264v-1430h-264z" />
    <glyph glyph-name="m" unicode="m" horiz-adv-x="1782" 
d="M158 0v1062h152l77 -105q124 130 294 130q202 0 290 -152q138 152 316 152q166 0 256.5 -103.5t90.5 -281.5v-702h-264v679q0 82 -39 125t-106 43q-113 0 -197 -117v-730h-264v679q0 82 -39 125t-106 43q-113 0 -197 -117v-730h-264z" />
    <glyph glyph-name="n" unicode="n" horiz-adv-x="1217" 
d="M158 0v1062h152l77 -105q133 130 315 130q172 0 270 -109.5t98 -302.5v-675h-263v659q0 91 -45 139.5t-119 48.5q-121 0 -221 -111v-736h-264z" />
    <glyph glyph-name="o" unicode="o" horiz-adv-x="1145" 
d="M112 369v324q0 179 121.5 286.5t340.5 107.5q217 0 338.5 -107.5t121.5 -286.5v-324q0 -178 -121.5 -286t-338.5 -108q-219 0 -340.5 107.5t-121.5 286.5zM375 381q0 -74 52.5 -120t146.5 -46t145 45.5t51 120.5v300q0 75 -51 120.5t-145 45.5t-146.5 -46t-52.5 -120
v-300z" />
    <glyph glyph-name="p" unicode="p" horiz-adv-x="1207" 
d="M158 -325v1387h152l77 -105q136 130 317 130q82 0 151 -25.5t119.5 -73.5t78.5 -122.5t28 -167.5v-333q0 -185 -104 -287.5t-273 -102.5q-168 0 -282 100v-400h-264zM422 327q112 -112 226 -112q70 0 119.5 47t49.5 123v292q0 76 -49.5 123t-119.5 47q-114 0 -226 -111
v-409z" />
    <glyph glyph-name="q" unicode="q" horiz-adv-x="1207" 
d="M128 365v333q0 124 49 213t133 132.5t195 43.5q180 0 316 -130l77 105h152v-1387h-263v400q-115 -100 -282 -100q-111 0 -195 44t-133 133.5t-49 212.5zM391 385q0 -76 49.5 -123t118.5 -47q116 0 228 112v409q-112 111 -228 111q-45 0 -83 -20t-61.5 -59.5t-23.5 -90.5
v-292z" />
    <glyph glyph-name="r" unicode="r" horiz-adv-x="774" 
d="M158 0v1062h152l77 -105q112 130 276 130h55v-253h-55q-160 0 -241 -98v-736h-264z" />
    <glyph glyph-name="s" unicode="s" horiz-adv-x="1132" 
d="M99 365h262q4 -35 23 -63t50.5 -47.5t75.5 -29.5t98 -10q71 0 113.5 24t42.5 65q0 58 -71 73l-294 75q-277 70 -277 294q0 159 115 250t316 91q206 0 324.5 -95.5t124.5 -269.5h-264q-9 125 -204 125q-53 0 -88.5 -11t-52 -30t-16.5 -44q0 -54 91 -75l302 -75
q250 -61 250 -287q0 -162 -120.5 -256t-323.5 -94q-211 0 -340 106q-131 107 -137 284z" />
    <glyph glyph-name="t" unicode="t" horiz-adv-x="784" 
d="M37 834v228h156v221h263v-221h242v-228h-242v-430q0 -95 37.5 -135t116.5 -40h88v-229h-116q-389 0 -389 404v430h-156z" />
    <glyph glyph-name="u" unicode="u" horiz-adv-x="1209" 
d="M148 383v679h264v-663q0 -45 11.5 -80t33 -58t50.5 -34.5t65 -11.5q119 0 217 110v737h263v-1062h-152l-77 103q-137 -128 -310 -128q-113 0 -195 49t-126 141t-44 218z" />
    <glyph glyph-name="v" unicode="v" horiz-adv-x="1041" 
d="M37 939v123h245l250 -701l234 701h240v-123l-365 -939h-239z" />
    <glyph glyph-name="w" unicode="w" horiz-adv-x="1467" 
d="M87 939v123h240l149 -701l170 515h177l173 -515l147 701h238v-123l-224 -939h-246l-175 462l-175 -462h-253z" />
    <glyph glyph-name="x" unicode="x" horiz-adv-x="1072" 
d="M77 0v124l294 408l-290 407v123h238l217 -330l220 330h223v-123l-281 -397l300 -418v-124h-236l-230 352l-230 -352h-225z" />
    <glyph glyph-name="y" unicode="y" horiz-adv-x="1043" 
d="M37 939v123h243l252 -704l236 704h240v-123l-491 -1264h-215v96l100 229z" />
    <glyph glyph-name="z" unicode="z" horiz-adv-x="1080" 
d="M97 0v229l520 605h-505v228h821v-228l-525 -605h553v-229h-864z" />
    <glyph glyph-name="braceleft" unicode="{" horiz-adv-x="694" 
d="M56 513v239h52q113 0 113 161v261q0 192 97.5 291.5t279.5 99.5v-239q-55 0 -87.5 -43.5t-32.5 -108.5v-332q0 -140 -130 -209q130 -70 130 -209v-357q0 -64 32.5 -108t87.5 -44v-240q-183 0 -280 99.5t-97 290.5v287q0 161 -113 161h-52z" />
    <glyph glyph-name="bar" unicode="|" horiz-adv-x="613" 
d="M178 -203v1768h258v-1768h-258z" />
    <glyph glyph-name="braceright" unicode="}" horiz-adv-x="687" 
d="M97 -85q55 0 87.5 44t32.5 108v357q0 139 129 209q-129 69 -129 209v332q0 42 -14 76t-41.5 55t-64.5 21v239q182 0 279.5 -99.5t97.5 -291.5v-261q0 -161 114 -161h51v-239h-51q-114 0 -114 -161v-287q0 -191 -97 -290.5t-280 -99.5v240z" />
    <glyph glyph-name="asciitilde" unicode="~" horiz-adv-x="1010" 
d="M89 574q110 235 274 235q67 0 142 -49l54 -34q48 -31 80 -31q50 0 107 100l179 -104q-110 -235 -275 -235q-66 0 -141 49l-55 35q-46 29 -79 29q-51 0 -108 -99z" />
    <glyph glyph-name="exclamdown" unicode="&#xa1;" horiz-adv-x="634" 
d="M186 -325v942h264v-942h-264zM186 799v263h264v-263h-264z" />
    <glyph glyph-name="cent" unicode="&#xa2;" horiz-adv-x="1114" 
d="M112 542v321q0 155 94 257t258 131v169h191v-167q166 -23 261.5 -126t95.5 -266v-14h-250v21q0 123 -125 150v-631q53 8 89 52t36 105v19h250v-16q0 -160 -97 -265t-260 -130v-152h-191v154q-164 30 -258 131.5t-94 256.5zM354 530q0 -55 34 -94t92 -49v631
q-58 -11 -92 -49.5t-34 -92.5v-346z" />
    <glyph glyph-name="sterling" unicode="&#xa3;" horiz-adv-x="1177" 
d="M77 0v240h136v356h-136v240h136v220q0 182 121.5 287.5t326.5 105.5t322.5 -109.5t117.5 -311.5v-69h-263v69q0 183 -181 183q-90 0 -135.5 -45t-45.5 -122v-208h262v-240h-262v-356h625v-240h-1024z" />
    <glyph glyph-name="yen" unicode="&#xa5;" horiz-adv-x="1169" 
d="M16 1324v96h241l329 -561l331 561h236v-96l-340 -548h233v-209h-330v-163h330v-209h-330v-195h-264v195h-328v209h328v163h-328v209h230z" />
    <glyph glyph-name="section" unicode="&#xa7;" horiz-adv-x="1201" 
d="M97 56h253q0 -89 78 -133q77 -43 176 -43q96 0 149.5 30.5t53.5 83.5q0 36 -29 64q-27 25 -62 41t-124 47q-5 1 -13 4.5t-12 3.5l-52 18q-203 71 -293 155t-90 218q0 146 139 295q-73 61 -101 115.5t-28 137.5q0 148 119 240q121 93 327 93q228 0 354 -98.5t126 -297.5
h-251q0 86 -75 125q-73 41 -164 41q-89 0 -139 -29t-50 -78q0 -48 41.5 -75t165.5 -72l21 -5l81 -24q200 -67 291.5 -154t91.5 -223q0 -153 -135 -296q69 -57 95.5 -111.5t26.5 -138.5q0 -150 -128.5 -244t-349.5 -94q-212 0 -352 104q-141 105 -141 300zM393 582
q0 -116 207 -189l162 -56q64 81 64 164q0 60 -55 109t-146 79l-161 55q-71 -89 -71 -162z" />
    <glyph glyph-name="dieresis" unicode="&#xa8;" horiz-adv-x="934" 
d="M130 1207v223h263v-223h-263zM542 1207v223h263v-223h-263z" />
    <glyph glyph-name="copyright" unicode="&#xa9;" horiz-adv-x="1702" 
d="M122 710q0 311 211 525q209 214 518.5 214t518.5 -214q211 -214 211 -525t-211 -528q-210 -213 -518.5 -213t-518.5 213q-211 217 -211 528zM276 709.5q0 -256.5 166 -427.5q166 -172 409.5 -172t410 172t166.5 427.5t-166.5 428t-410 172.5t-409.5 -172t-166 -428.5z
M499 586v250q0 139 95 220.5t255 81.5q105 0 181.5 -36t118 -105.5t41.5 -164.5v-9h-207v9q0 57 -34.5 89t-99.5 32q-145 0 -145 -115v-256q0 -116 145 -116q43 0 73.5 15t45.5 42t15 65v14h207v-10q0 -140 -93.5 -224t-247.5 -84q-160 0 -255 81.5t-95 220.5z" />
    <glyph glyph-name="ordfeminine" unicode="&#xaa;" horiz-adv-x="772" 
d="M60 925q0 107 72 157t226 50h106v42q0 77 -87 77q-85 0 -85 -81h-199q0 260 288 260q147 0 218.5 -65t71.5 -183v-456h-112l-48 63q-79 -73 -211 -73q-111 0 -175.5 53.5t-64.5 155.5zM269 939q0 -29 21 -48t53 -19q76 0 121 57v75h-106q-89 0 -89 -65z" />
    <glyph glyph-name="guillemotleft" unicode="&#xab;" horiz-adv-x="1112" 
d="M73 637l260 425h226v-75l-211 -350l211 -353v-75h-226zM505 637l259 425h227v-75l-211 -350l211 -353v-75h-227z" />
    <glyph glyph-name="logicalnot" unicode="&#xac;" horiz-adv-x="1143" 
d="M118 744v219h908v-568h-235v349h-673z" />
    <glyph glyph-name="registered" unicode="&#xae;" horiz-adv-x="830" 
d="M77 1101q0 147 97 247q101 101 242 101t239 -101q99 -99 99 -247q0 -151 -99 -250q-96 -99 -239 -99t-242 99q-97 100 -97 250zM158 1101q0 -117 73 -195q76 -76 185 -76t182 76q75 78 75 195q0 118 -75 193q-72 78 -182 78t-185 -78q-73 -75 -73 -193zM280 925v356h150
q62 0 97.5 -29t35.5 -80q0 -89 -74 -116l74 -103v-28h-85l-81 117h-32v-117h-85zM365 1117h67q46 0 46 45q0 38 -46 38h-67v-83z" />
    <glyph glyph-name="macron" unicode="&#xaf;" horiz-adv-x="855" 
d="M101 1225v195h653v-195h-653z" />
    <glyph glyph-name="degree" unicode="&#xb0;" horiz-adv-x="793" 
d="M77 1039v95q0 154 83.5 234.5t236.5 80.5t237 -80.5t84 -234.5v-95q0 -155 -84 -236t-237 -81t-236.5 81t-83.5 236zM308 1002q0 -39 24 -65t65 -26q40 0 65 26t25 65v168q0 39 -25 65t-65 26q-41 0 -65 -26t-24 -65v-168z" />
    <glyph glyph-name="plusminus" unicode="&#xb1;" horiz-adv-x="1159" 
d="M126 0v221h908v-221h-908zM126 698v219h334v314h240v-314h334v-219h-334v-313h-240v313h-334z" />
    <glyph glyph-name="acute" unicode="&#xb4;" horiz-adv-x="615" 
d="M118 1196l143 284h238v-91l-170 -193h-211z" />
    <glyph glyph-name="uni00B5" unicode="&#xb5;" horiz-adv-x="1219" 
d="M158 -325v1387h264v-673q0 -83 44.5 -128.5t115.5 -45.5q119 0 217 110v737h263v-1062h-151l-77 103q-137 -128 -300 -128q-67 0 -112 25v-325h-264z" />
    <glyph glyph-name="paragraph" unicode="&#xb6;" horiz-adv-x="1287" 
d="M77 1074v17q0 157 94 243t261 86h677v-1596h-252v1356h-174v-1356h-251v922q-167 0 -261 86t-94 242z" />
    <glyph glyph-name="periodcentered" unicode="&#xb7;" horiz-adv-x="563" 
d="M136 493v290h290v-290h-290z" />
    <glyph glyph-name="cedilla" unicode="&#xb8;" horiz-adv-x="613" 
d="M130 -234l162 234h211l-136 -325h-237v91z" />
    <glyph glyph-name="ordmasculine" unicode="&#xba;" horiz-adv-x="792" 
d="M79 1048v49q0 333 318 333q317 0 317 -333v-49q0 -332 -317 -332q-318 0 -318 332zM286 1024q0 -48 31 -80.5t80 -32.5q32 0 57.5 15t39 41t13.5 57v98q0 47 -31 80t-79 33q-49 0 -80 -32.5t-31 -80.5v-98z" />
    <glyph glyph-name="guillemotright" unicode="&#xbb;" horiz-adv-x="1112" 
d="M122 209v75l211 353l-211 350v75h226l260 -425l-260 -428h-226zM553 209v75l211 353l-211 350v75h227l260 -425l-260 -428h-227z" />
    <glyph glyph-name="questiondown" unicode="&#xbf;" horiz-adv-x="1064" 
d="M52 52q0 160 100 260q52 52 88 77q42 31 101 67l63 39v122h263v-211l-203 -139q-85 -58 -116.5 -100t-31.5 -111q0 -74 51.5 -120t139.5 -46q107 0 166 64.5t59 177.5h251q0 -226 -136 -353q-133 -127 -342 -127q-217 0 -335 117q-118 115 -118 283zM404 799v263h263
v-263h-263z" />
    <glyph glyph-name="Agrave" unicode="&#xc0;" 
d="M37 0v95l490 1325h282l493 -1325v-95h-284l-114 333h-484l-118 -333h-265zM367 1751v100h256l153 -306h-229zM505 572h312l-154 462z" />
    <glyph glyph-name="Aacute" unicode="&#xc1;" 
d="M37 0v95l490 1325h282l493 -1325v-95h-284l-114 333h-484l-118 -333h-265zM505 572h312l-154 462zM572 1545l154 306h255v-100l-182 -206h-227z" />
    <glyph glyph-name="Acircumflex" unicode="&#xc2;" 
d="M37 0v95l490 1325h282l493 -1325v-95h-284l-114 333h-484l-118 -333h-265zM350 1545v89l205 217h223l207 -217v-89h-215l-103 117l-106 -117h-211zM505 572h312l-154 462z" />
    <glyph glyph-name="Atilde" unicode="&#xc3;" 
d="M37 0v95l490 1325h282l493 -1325v-95h-284l-114 333h-484l-118 -333h-265zM290 1610q98 215 250 215q64 0 131 -45l49 -31q52 -29 75 -29q25 0 45 19t50 74l162 -97q-98 -213 -249 -213q-61 0 -130 42l-50 32q-36 21 -58 28t-41.5 -3t-33.5 -28.5t-38 -58.5zM505 572h312
l-154 462z" />
    <glyph glyph-name="Adieresis" unicode="&#xc4;" 
d="M37 0v95l490 1325h282l493 -1325v-95h-284l-114 333h-484l-118 -333h-265zM304 1557v240h282v-240h-282zM505 572h312l-154 462zM744 1557v240h284v-240h-284z" />
    <glyph glyph-name="Aring" unicode="&#xc5;" 
d="M37 0v95l490 1325h282l493 -1325v-95h-284l-114 333h-484l-118 -333h-265zM424 1718q0 92 71 157t168 65t169 -65q70 -64 70 -157t-70 -161q-72 -65 -169 -65t-168 65q-71 69 -71 161zM505 572h312l-154 462zM590 1726q-4 -15 1 -31.5t19 -30.5q23 -20 53 -20t53 20
q23 23 23 53.5t-23 50.5q-14 14 -30.5 19t-31.5 1.5t-29 -12t-22.5 -22t-12.5 -28.5z" />
    <glyph glyph-name="AE" unicode="&#xc6;" horiz-adv-x="2039" 
d="M16 0v95l835 1325h1087v-252h-638v-336h545v-240h-545v-341h642v-251h-930v333h-528l-208 -333h-260zM637 572h375v596z" />
    <glyph glyph-name="Ccedilla" unicode="&#xc7;" horiz-adv-x="1339" 
d="M138 480v459q0 244 144.5 377t412.5 133q227 0 377 -125q151 -127 151 -371v-20h-288v20q0 113 -72 173t-186 60q-124 0 -187.5 -58.5t-63.5 -168.5v-499q0 -109 63.5 -167.5t187.5 -58.5q115 0 186.5 58.5t71.5 173.5v21h288v-21q0 -109 -32 -198t-91 -149.5t-139 -97
t-178 -46.5l-124 -300h-237v91l145 214q-208 29 -318.5 158t-110.5 342z" />
    <glyph glyph-name="Egrave" unicode="&#xc8;" horiz-adv-x="1203" 
d="M178 0v1420h925v-252h-637v-336h544v-240h-544v-341h641v-251h-929zM395 1751v100h255l155 -306h-229z" />
    <glyph glyph-name="Eacute" unicode="&#xc9;" horiz-adv-x="1203" 
d="M178 0v1420h925v-252h-637v-336h544v-240h-544v-341h641v-251h-929zM466 1545l155 306h255v-100l-183 -206h-227z" />
    <glyph glyph-name="Ecircumflex" unicode="&#xca;" horiz-adv-x="1203" 
d="M178 0v1420h925v-252h-637v-336h544v-240h-544v-341h641v-251h-929zM329 1545v89l205 217h222l207 -217v-89h-215l-104 117l-104 -117h-211z" />
    <glyph glyph-name="Edieresis" unicode="&#xcb;" horiz-adv-x="1203" 
d="M178 0v1420h925v-252h-637v-336h544v-240h-544v-341h641v-251h-929zM284 1557v240h281v-240h-281zM724 1557v240h282v-240h-282z" />
    <glyph glyph-name="Igrave" unicode="&#xcc;" horiz-adv-x="644" 
d="M27 1751v100h255l154 -306h-229zM178 0v1420h288v-1420h-288z" />
    <glyph glyph-name="Iacute" unicode="&#xcd;" horiz-adv-x="644" 
d="M178 0v1420h288v-1420h-288zM217 1545l154 306h256v-100l-182 -206h-228z" />
    <glyph glyph-name="Icircumflex" unicode="&#xce;" horiz-adv-x="644" 
d="M6 1545v89l205 217h223l207 -217v-89h-215l-103 117l-106 -117h-211zM178 0v1420h288v-1420h-288z" />
    <glyph glyph-name="Idieresis" unicode="&#xcf;" horiz-adv-x="644" 
d="M-37 1559v240h283v-240h-283zM178 0v1420h288v-1420h-288zM404 1559v240h281v-240h-281z" />
    <glyph glyph-name="Eth" unicode="&#xd0;" horiz-adv-x="1447" 
d="M41 592v240h188v588h515q264 0 415 -129.5t151 -359.5v-442q0 -231 -151 -360t-415 -129h-515v592h-188zM517 251h227q129 0 203.5 64.5t74.5 164.5v459q0 65 -32 116.5t-96 82t-150 30.5h-227v-336h241v-240h-241v-341z" />
    <glyph glyph-name="Ntilde" unicode="&#xd1;" horiz-adv-x="1451" 
d="M178 0v1420h264l543 -884v884h288v-1420h-263l-544 884v-884h-288zM348 1610q98 215 250 215q64 0 132 -45l48 -31q52 -29 75 -29q26 0 45.5 19t49.5 74l163 -97q-98 -213 -250 -213q-60 0 -129 42l-51 32q-36 21 -57.5 28t-41.5 -3t-34 -28.5t-37 -58.5z" />
    <glyph glyph-name="Ograve" unicode="&#xd2;" horiz-adv-x="1406" 
d="M138 482v455q0 240 151.5 376t414.5 136t414 -136t151 -376v-455q0 -241 -151 -377t-414 -136t-414.5 136t-151.5 377zM420 1751v100h255l155 -306h-230zM426 468q0 -102 73.5 -168t204.5 -66t204 66t73 168v483q0 103 -73 169t-204 66t-204.5 -66t-73.5 -169v-483z" />
    <glyph glyph-name="Oacute" unicode="&#xd3;" horiz-adv-x="1406" 
d="M138 482v455q0 240 151.5 376t414.5 136t414 -136t151 -376v-455q0 -241 -151 -377t-414 -136t-414.5 136t-151.5 377zM426 468q0 -102 73.5 -168t204.5 -66t204 66t73 168v483q0 103 -73 169t-204 66t-204.5 -66t-73.5 -169v-483zM590 1545l154 306h256v-100l-183 -206
h-227z" />
    <glyph glyph-name="Ocircumflex" unicode="&#xd4;" horiz-adv-x="1406" 
d="M138 482v455q0 240 151.5 376t414.5 136t414 -136t151 -376v-455q0 -241 -151 -377t-414 -136t-414.5 136t-151.5 377zM385 1545v89l205 217h223l207 -217v-89h-215l-103 117l-106 -117h-211zM426 468q0 -102 73.5 -168t204.5 -66t204 66t73 168v483q0 103 -73 169
t-204 66t-204.5 -66t-73.5 -169v-483z" />
    <glyph glyph-name="Otilde" unicode="&#xd5;" horiz-adv-x="1406" 
d="M138 482v455q0 240 151.5 376t414.5 136t414 -136t151 -376v-455q0 -241 -151 -377t-414 -136t-414.5 136t-151.5 377zM339 1610q97 215 249 215q64 0 132 -45l48 -31q52 -29 75 -29q17 0 31 8t29 28t36 57l162 -97q-98 -213 -250 -213q-60 0 -129 42l-51 32
q-35 21 -57 28t-41.5 -3t-33.5 -28.5t-38 -58.5zM426 468q0 -102 73.5 -168t204.5 -66t204 66t73 168v483q0 103 -73 169t-204 66t-204.5 -66t-73.5 -169v-483z" />
    <glyph glyph-name="Odieresis" unicode="&#xd6;" horiz-adv-x="1406" 
d="M138 482v455q0 240 151.5 376t414.5 136t414 -136t151 -376v-455q0 -241 -151 -377t-414 -136t-414.5 136t-151.5 377zM345 1557v240h282v-240h-282zM426 468q0 -102 73.5 -168t204.5 -66t204 66t73 168v483q0 103 -73 169t-204 66t-204.5 -66t-73.5 -169v-483zM785 1557
v240h283v-240h-283z" />
    <glyph glyph-name="Oslash" unicode="&#xd8;" horiz-adv-x="1406" 
d="M138 482v455q0 240 151.5 376t414.5 136q48 0 119 -10l55 183h211v-95l-52 -157q232 -129 232 -433v-455q0 -241 -151 -377t-414 -136q-46 0 -128 11l-53 -183h-211v95l53 158q-227 134 -227 432zM426 468q0 -95 58 -156l264 872q-3 0 -21 1t-23 1q-131 0 -204.5 -66
t-73.5 -169v-483zM650 236q10 -2 54 -2q131 0 204 66t73 168v483q0 95 -62 158z" />
    <glyph glyph-name="Ugrave" unicode="&#xd9;" horiz-adv-x="1410" 
d="M158 466v954h288v-966q0 -96 68.5 -158t193.5 -62q62 0 111.5 17t81 47t48 70t16.5 86v966h290v-954q0 -234 -148 -365q-147 -132 -399 -132t-402 132q-148 130 -148 365zM456 1751v100h256l153 -306h-228z" />
    <glyph glyph-name="Uacute" unicode="&#xda;" horiz-adv-x="1410" 
d="M158 466v954h288v-966q0 -96 68.5 -158t193.5 -62q62 0 111.5 17t81 47t48 70t16.5 86v966h290v-954q0 -234 -148 -365q-147 -132 -399 -132t-402 132q-148 130 -148 365zM559 1545l155 306h255v-100l-182 -206h-228z" />
    <glyph glyph-name="Ucircumflex" unicode="&#xdb;" horiz-adv-x="1410" 
d="M158 466v954h288v-966q0 -96 68.5 -158t193.5 -62q62 0 111.5 17t81 47t48 70t16.5 86v966h290v-954q0 -234 -148 -365q-147 -132 -399 -132t-402 132q-148 130 -148 365zM389 1545v89l205 217h223l207 -217v-89h-215l-103 117l-106 -117h-211z" />
    <glyph glyph-name="Udieresis" unicode="&#xdc;" horiz-adv-x="1410" 
d="M158 466v954h288v-966q0 -96 68.5 -158t193.5 -62q62 0 111.5 17t81 47t48 70t16.5 86v966h290v-954q0 -234 -148 -365q-147 -132 -399 -132t-402 132q-148 130 -148 365zM346 1557v240h283v-240h-283zM787 1557v240h283v-240h-283z" />
    <glyph glyph-name="Yacute" unicode="&#xdd;" horiz-adv-x="1252" 
d="M16 1324v96h284l329 -588l342 588h266v-96l-467 -750v-574h-288v561zM491 1545l153 306h256v-100l-182 -206h-227z" />
    <glyph glyph-name="Thorn" unicode="&#xde;" horiz-adv-x="1296" 
d="M178 0v1420h288v-263h341q124 0 215.5 -54t140 -153.5t48.5 -233.5q0 -101 -28 -183t-79.5 -139.5t-127.5 -89t-169 -31.5h-341v-273h-288zM466 525h288q72 0 118.5 50.5t46.5 140t-46.5 140t-118.5 50.5h-288v-381z" />
    <glyph glyph-name="germandbls" unicode="&#xdf;" horiz-adv-x="1223" 
d="M158 0v940q0 233 120.5 363.5t333.5 130.5q207 0 325 -106q119 -105 119 -262q0 -106 -31 -173t-102 -110q90 -37 147.5 -133.5t57.5 -215.5q0 -197 -128 -316q-127 -118 -341 -118q-64 0 -121 10v234q69 -4 103 -4q71 0 122.5 28.5t75.5 75t24 104.5q0 105 -57 159
t-165 54h-88v229h66q161 0 161 154q0 68 -42 109t-123 41q-93 0 -143 -59t-50 -168v-967h-264z" />
    <glyph glyph-name="agrave" unicode="&#xe0;" horiz-adv-x="1147" 
d="M87 292q0 167 109 256t321 89h219v67q0 143 -171 143q-83 0 -126.5 -32.5t-43.5 -88.5h-257q0 167 110 264t317 97q210 0 322.5 -98t112.5 -267v-722h-153l-77 103q-136 -128 -325 -128q-151 0 -257 83q-101 82 -101 234zM337 1389v91h237l144 -284h-213zM350 327
q0 -112 149 -112q143 0 237 104v117h-219q-87 0 -127 -31t-40 -78z" />
    <glyph glyph-name="aacute" unicode="&#xe1;" horiz-adv-x="1147" 
d="M87 292q0 167 109 256t321 89h219v67q0 143 -171 143q-83 0 -126.5 -32.5t-43.5 -88.5h-257q0 167 110 264t317 97q210 0 322.5 -98t112.5 -267v-722h-153l-77 103q-136 -128 -325 -128q-151 0 -257 83q-101 82 -101 234zM350 327q0 -112 149 -112q143 0 237 104v117
h-219q-87 0 -127 -31t-40 -78zM432 1196l144 284h237v-91l-170 -193h-211z" />
    <glyph glyph-name="acircumflex" unicode="&#xe2;" horiz-adv-x="1147" 
d="M87 292q0 167 109 256t321 89h219v67q0 143 -171 143q-83 0 -126.5 -32.5t-43.5 -88.5h-257q0 167 110 264t317 97q210 0 322.5 -98t112.5 -267v-722h-153l-77 103q-136 -128 -325 -128q-151 0 -257 83q-101 82 -101 234zM288 1196v83l190 201h209l193 -201v-83h-201
l-97 110l-98 -110h-196zM350 327q0 -112 149 -112q143 0 237 104v117h-219q-87 0 -127 -31t-40 -78z" />
    <glyph glyph-name="atilde" unicode="&#xe3;" horiz-adv-x="1147" 
d="M87 292q0 167 109 256t321 89h219v67q0 143 -171 143q-83 0 -126.5 -32.5t-43.5 -88.5h-257q0 167 110 264t317 97q210 0 322.5 -98t112.5 -267v-722h-153l-77 103q-136 -128 -325 -128q-151 0 -257 83q-101 82 -101 234zM225 1281q98 209 243 209q59 0 128 -43l48 -29
q26 -13 41 -20t30 -8t22.5 0.5t20 14t20 23.5t25.5 38q5 8 8 12l158 -93q-98 -209 -243 -209q-59 0 -128 43l-49 30q-25 13 -40 19.5t-30.5 7.5t-22.5 -0.5t-19.5 -14.5t-20.5 -24t-26 -38q-4 -7 -7 -11zM350 327q0 -112 149 -112q143 0 237 104v117h-219q-87 0 -127 -31
t-40 -78z" />
    <glyph glyph-name="adieresis" unicode="&#xe4;" horiz-adv-x="1147" 
d="M87 292q0 167 109 256t321 89h219v67q0 143 -171 143q-83 0 -126.5 -32.5t-43.5 -88.5h-257q0 167 110 264t317 97q210 0 322.5 -98t112.5 -267v-722h-153l-77 103q-136 -128 -325 -128q-151 0 -257 83q-101 82 -101 234zM246 1207v223h263v-223h-263zM350 327
q0 -112 149 -112q143 0 237 104v117h-219q-87 0 -127 -31t-40 -78zM657 1207v223h264v-223h-264z" />
    <glyph glyph-name="aring" unicode="&#xe5;" horiz-adv-x="1147" 
d="M87 292q0 167 109 256t321 89h219v67q0 143 -171 143q-83 0 -126.5 -32.5t-43.5 -88.5h-257q0 167 110 264t317 97q210 0 322.5 -98t112.5 -267v-722h-153l-77 103q-136 -128 -325 -128q-151 0 -257 83q-101 82 -101 234zM350 327q0 -112 149 -112q143 0 237 104v117
h-219q-87 0 -127 -31t-40 -78zM362 1355q0 87 66 148q67 61 158 61t156 -61q67 -61 67 -148t-67 -148q-65 -61 -156 -61t-158 61q-66 61 -66 148zM517.5 1345.5q2.5 -21.5 20.5 -39.5q20 -19 48.5 -19t48.5 19q20 20 20 48t-20 47q-18 18 -40 20t-39.5 -9t-29 -28t-9 -38.5z
" />
    <glyph glyph-name="ae" unicode="&#xe6;" horiz-adv-x="1751" 
d="M87 292q0 345 438 345h211v67q0 143 -171 143q-83 0 -126.5 -32.5t-43.5 -88.5h-257q0 167 110 264t317 97q196 0 315 -91q126 91 318 91q203 0 322.5 -103.5t119.5 -285.5v-253h-640v-74q0 -73 50.5 -114.5t147.5 -41.5q150 0 177 108h265q-17 -165 -132.5 -256.5
t-309.5 -91.5q-268 0 -395 165q-133 -165 -353 -165q-153 0 -259 83q-104 82 -104 234zM350 323q0 -50 39.5 -79t109.5 -29q143 0 237 104v117h-213q-173 0 -173 -113zM1000 644h377v54q0 69 -50 109t-139 40q-90 0 -139 -40t-49 -109v-54z" />
    <glyph glyph-name="ccedilla" unicode="&#xe7;" horiz-adv-x="1100" 
d="M112 369v324q0 181 122 287.5t327 106.5q202 0 319.5 -105.5t117.5 -292.5v-12h-264v12q0 74 -45 116t-128 42q-186 0 -186 -149v-333q0 -150 186 -150q81 0 127 42t46 114v20h264v-14q0 -109 -45.5 -194.5t-127.5 -137t-192 -65.5l-128 -305h-238v91l155 224
q-146 32 -228 132t-82 247z" />
    <glyph glyph-name="egrave" unicode="&#xe8;" horiz-adv-x="1126" 
d="M112 365v328q0 178 126 286q128 108 336 108q203 0 322.5 -103.5t119.5 -285.5v-253h-641v-76q0 -72 51.5 -113t147.5 -41q149 0 176 108h264q-17 -165 -131.5 -256.5t-308.5 -91.5q-213 0 -337.5 104t-124.5 286zM358 1389v91h238l145 -284h-214zM375 644h377v54
q0 69 -50 109t-139 40q-90 0 -139 -40t-49 -109v-54z" />
    <glyph glyph-name="eacute" unicode="&#xe9;" horiz-adv-x="1126" 
d="M112 365v328q0 178 126 286q128 108 336 108q203 0 322.5 -103.5t119.5 -285.5v-253h-641v-76q0 -72 51.5 -113t147.5 -41q149 0 176 108h264q-17 -165 -131.5 -256.5t-308.5 -91.5q-213 0 -337.5 104t-124.5 286zM375 644h377v54q0 69 -50 109t-139 40q-90 0 -139 -40
t-49 -109v-54zM430 1196l144 284h237v-91l-170 -193h-211z" />
    <glyph glyph-name="ecircumflex" unicode="&#xea;" horiz-adv-x="1126" 
d="M112 365v328q0 178 126 286q128 108 336 108q203 0 322.5 -103.5t119.5 -285.5v-253h-641v-76q0 -72 51.5 -113t147.5 -41q149 0 176 108h264q-17 -165 -131.5 -256.5t-308.5 -91.5q-213 0 -337.5 104t-124.5 286zM271 1196v83l191 201h209l192 -201v-83h-200l-98 110
l-97 -110h-197zM375 644h377v54q0 69 -50 109t-139 40q-90 0 -139 -40t-49 -109v-54z" />
    <glyph glyph-name="edieresis" unicode="&#xeb;" horiz-adv-x="1126" 
d="M112 365v328q0 178 126 286q128 108 336 108q203 0 322.5 -103.5t119.5 -285.5v-253h-641v-76q0 -72 51.5 -113t147.5 -41q149 0 176 108h264q-17 -165 -131.5 -256.5t-308.5 -91.5q-213 0 -337.5 104t-124.5 286zM231 1207v223h264v-223h-264zM375 644h377v54
q0 69 -50 109t-139 40q-90 0 -139 -40t-49 -109v-54zM643 1207v223h263v-223h-263z" />
    <glyph glyph-name="igrave" unicode="&#xec;" horiz-adv-x="579" 
d="M18 1385v91h237l144 -284h-213zM158 0v1062h264v-1062h-264z" />
    <glyph glyph-name="iacute" unicode="&#xed;" horiz-adv-x="579" 
d="M158 0v1062h264v-1062h-264zM184 1196l145 284h236v-91l-170 -193h-211z" />
    <glyph glyph-name="icircumflex" unicode="&#xee;" horiz-adv-x="579" 
d="M-6 1196v83l190 201h209l193 -201v-83h-201l-97 110l-97 -110h-197zM158 0v1062h264v-1062h-264z" />
    <glyph glyph-name="idieresis" unicode="&#xef;" horiz-adv-x="579" 
d="M-47 1207v223h264v-223h-264zM158 0v1062h264v-1062h-264zM365 1207v223h264v-223h-264z" />
    <glyph glyph-name="eth" unicode="&#xf0;" horiz-adv-x="1134" 
d="M108 369v221q0 127 50 215.5t136 131t201 42.5q123 0 215 -62q-13 23 -46.5 58.5t-65.5 63.5l-29 23h-289v153h158l-71 91v124h237l164 -215h228v-153h-112q89 -126 118 -224q30 -101 30 -279v-194q0 -182 -125 -286t-338 -104q-209 0 -335 106q-126 108 -126 288z
M371 381q0 -75 52.5 -120.5t145.5 -45.5q94 0 146.5 46.5t52.5 119.5v254q-90 106 -205 106q-85 0 -138.5 -46t-53.5 -126v-188z" />
    <glyph glyph-name="ntilde" unicode="&#xf1;" horiz-adv-x="1217" 
d="M158 0v1062h152l77 -105q133 130 315 130q172 0 270 -109.5t98 -302.5v-675h-263v659q0 91 -45 139.5t-119 48.5q-121 0 -221 -111v-736h-264zM276 1281q98 209 243 209q58 0 127 -43l49 -29q26 -13 40.5 -20t30 -8t22.5 0.5t19.5 14t20.5 23.5t25 38q6 8 8 12l159 -93
q-98 -209 -244 -209q-59 0 -128 43l-48 30q-26 13 -40.5 19.5t-30 7.5t-22.5 -0.5t-20 -14.5t-20.5 -24t-25.5 -38q-5 -7 -7 -11z" />
    <glyph glyph-name="ograve" unicode="&#xf2;" horiz-adv-x="1145" 
d="M112 369v324q0 179 121.5 286.5t340.5 107.5q217 0 338.5 -107.5t121.5 -286.5v-324q0 -178 -121.5 -286t-338.5 -108q-219 0 -340.5 107.5t-121.5 286.5zM327 1389v91h236l145 -284h-213zM375 381q0 -74 52.5 -120t146.5 -46t145 45.5t51 120.5v300q0 75 -51 120.5
t-145 45.5t-146.5 -46t-52.5 -120v-300z" />
    <glyph glyph-name="oacute" unicode="&#xf3;" horiz-adv-x="1145" 
d="M112 369v324q0 179 121.5 286.5t340.5 107.5q217 0 338.5 -107.5t121.5 -286.5v-324q0 -178 -121.5 -286t-338.5 -108q-219 0 -340.5 107.5t-121.5 286.5zM375 381q0 -74 52.5 -120t146.5 -46t145 45.5t51 120.5v300q0 75 -51 120.5t-145 45.5t-146.5 -46t-52.5 -120
v-300zM438 1196l144 284h237v-91l-171 -193h-210z" />
    <glyph glyph-name="ocircumflex" unicode="&#xf4;" horiz-adv-x="1145" 
d="M112 369v324q0 179 121.5 286.5t340.5 107.5q217 0 338.5 -107.5t121.5 -286.5v-324q0 -178 -121.5 -286t-338.5 -108q-219 0 -340.5 107.5t-121.5 286.5zM278 1196v83l190 201h209l193 -201v-83h-201l-97 110l-98 -110h-196zM375 381q0 -74 52.5 -120t146.5 -46
t145 45.5t51 120.5v300q0 75 -51 120.5t-145 45.5t-146.5 -46t-52.5 -120v-300z" />
    <glyph glyph-name="otilde" unicode="&#xf5;" horiz-adv-x="1145" 
d="M112 369v324q0 179 121.5 286.5t340.5 107.5q217 0 338.5 -107.5t121.5 -286.5v-324q0 -178 -121.5 -286t-338.5 -108q-219 0 -340.5 107.5t-121.5 286.5zM201 1281q98 209 244 209q58 0 127 -43l49 -29q25 -13 40 -20t30 -8t22.5 0.5t20 14t20 23.5t25.5 38q5 8 8 12
l157 -93q-97 -209 -242 -209q-59 0 -128 43l-49 30q-26 13 -41 19.5t-30 7.5t-22.5 -0.5t-20 -14.5t-20 -24t-25.5 -38q-5 -7 -8 -11zM375 381q0 -74 52.5 -120t146.5 -46t145 45.5t51 120.5v300q0 75 -51 120.5t-145 45.5t-146.5 -46t-52.5 -120v-300z" />
    <glyph glyph-name="odieresis" unicode="&#xf6;" horiz-adv-x="1145" 
d="M112 369v324q0 179 121.5 286.5t340.5 107.5q217 0 338.5 -107.5t121.5 -286.5v-324q0 -178 -121.5 -286t-338.5 -108q-219 0 -340.5 107.5t-121.5 286.5zM236 1207v223h263v-223h-263zM375 381q0 -74 52.5 -120t146.5 -46t145 45.5t51 120.5v300q0 75 -51 120.5
t-145 45.5t-146.5 -46t-52.5 -120v-300zM646 1207v223h265v-223h-265z" />
    <glyph glyph-name="divide" unicode="&#xf7;" horiz-adv-x="1159" 
d="M126 525v219h908v-219h-908zM426 132v257h306v-257h-306zM426 880v258h306v-258h-306z" />
    <glyph glyph-name="oslash" unicode="&#xf8;" horiz-adv-x="1159" 
d="M112 -132l119 217q-119 107 -119 284v324q0 179 121.5 286.5t340.5 107.5q98 0 192 -29l138 252h130v-124l-117 -213q117 -105 117 -280v-324q0 -178 -121.5 -286t-338.5 -108q-99 0 -193 27l-141 -257h-128v123zM375 381q0 -26 6 -46l274 501q-34 11 -81 11
q-94 0 -146.5 -46t-52.5 -120v-300zM491 225q45 -10 83 -10q94 0 145 45.5t51 120.5v300q0 23 -6 41z" />
    <glyph glyph-name="ugrave" unicode="&#xf9;" horiz-adv-x="1209" 
d="M148 383v679h264v-663q0 -45 11.5 -80t33 -58t50.5 -34.5t65 -11.5q119 0 217 110v737h263v-1062h-152l-77 103q-137 -128 -310 -128q-113 0 -195 49t-126 141t-44 218zM373 1389v91h237l144 -284h-212z" />
    <glyph glyph-name="uacute" unicode="&#xfa;" horiz-adv-x="1209" 
d="M148 383v679h264v-663q0 -45 11.5 -80t33 -58t50.5 -34.5t65 -11.5q119 0 217 110v737h263v-1062h-152l-77 103q-137 -128 -310 -128q-113 0 -195 49t-126 141t-44 218zM450 1196l144 284h238v-91l-171 -193h-211z" />
    <glyph glyph-name="ucircumflex" unicode="&#xfb;" horiz-adv-x="1209" 
d="M148 383v679h264v-663q0 -45 11.5 -80t33 -58t50.5 -34.5t65 -11.5q119 0 217 110v737h263v-1062h-152l-77 103q-137 -128 -310 -128q-113 0 -195 49t-126 141t-44 218zM308 1196v83l191 201h209l192 -201v-83h-200l-98 110l-97 -110h-197z" />
    <glyph glyph-name="udieresis" unicode="&#xfc;" horiz-adv-x="1209" 
d="M148 383v679h264v-663q0 -45 11.5 -80t33 -58t50.5 -34.5t65 -11.5q119 0 217 110v737h263v-1062h-152l-77 103q-137 -128 -310 -128q-113 0 -195 49t-126 141t-44 218zM269 1207v223h265v-223h-265zM681 1207v223h263v-223h-263z" />
    <glyph glyph-name="yacute" unicode="&#xfd;" horiz-adv-x="1043" 
d="M37 939v123h243l252 -704l236 704h240v-123l-491 -1264h-215v96l100 229zM391 1196l145 284h236v-91l-170 -193h-211z" />
    <glyph glyph-name="thorn" unicode="&#xfe;" horiz-adv-x="1207" 
d="M158 -325v1755h264v-443q114 100 282 100q82 0 151 -25.5t119.5 -73.5t78.5 -122.5t28 -167.5v-333q0 -185 -104 -287.5t-273 -102.5q-168 0 -282 100v-400h-264zM422 327q112 -112 226 -112q70 0 119.5 47t49.5 123v292q0 76 -49.5 123t-119.5 47q-114 0 -226 -111v-409
z" />
    <glyph glyph-name="ydieresis" unicode="&#xff;" horiz-adv-x="1043" 
d="M37 939v123h243l252 -704l236 704h240v-123l-491 -1264h-215v96l100 229zM186 1207v223h264v-223h-264zM598 1207v223h263v-223h-263z" />
    <glyph glyph-name="dotlessi" unicode="&#x131;" horiz-adv-x="579" 
d="M158 0v1062h264v-1062h-264z" />
    <glyph glyph-name="OE" unicode="&#x152;" horiz-adv-x="2006" 
d="M138 482v455q0 240 151.5 376t414.5 136q127 0 277 -60v31h925v-252h-637v-336h544v-240h-544v-341h641v-251h-929v29q-158 -60 -277 -60q-263 0 -414.5 136t-151.5 377zM426 468q0 -102 73.5 -168t204.5 -66q129 0 203 63t74 159v492q0 106 -72 172t-205 66
q-131 0 -204.5 -66t-73.5 -169v-483z" />
    <glyph glyph-name="oe" unicode="&#x153;" horiz-adv-x="1785" 
d="M112 369v324q0 179 121.5 286.5t340.5 107.5q205 0 328 -102q129 102 331 102t322 -103.5t120 -285.5v-253h-641v-80q0 -68 52.5 -109t146.5 -41q149 0 176 108h264q-11 -109 -66 -187t-150.5 -119.5t-223.5 -41.5q-208 0 -333 98q-119 -98 -326 -98q-219 0 -340.5 107.5
t-121.5 286.5zM375 381q0 -74 52.5 -120t146.5 -46t145 45.5t51 120.5v300q0 75 -51 120.5t-145 45.5t-146.5 -46t-52.5 -120v-300zM1034 644h377v54q0 69 -49.5 109t-138.5 40q-90 0 -139.5 -40t-49.5 -109v-54z" />
    <glyph glyph-name="Ydieresis" unicode="&#x178;" horiz-adv-x="1252" 
d="M16 1324v96h284l329 -588l342 588h266v-96l-467 -750v-574h-288v561zM269 1563v240h282v-240h-282zM710 1563v240h281v-240h-281z" />
    <glyph glyph-name="florin" unicode="&#x192;" horiz-adv-x="757" 
d="M-87 -110h42q98 0 140.5 30t48.5 103l65 811h-138v228h156q29 372 417 372q12 0 78 -4v-236h-43q-97 0 -139.5 -29.5t-48.5 -102.5h231v-228h-250l-64 -811q-30 -371 -418 -371q-12 0 -77 3v235z" />
    <glyph glyph-name="circumflex" unicode="&#x2c6;" horiz-adv-x="826" 
d="M118 1196v83l190 201h209l193 -201v-83h-201l-97 110l-98 -110h-196z" />
    <glyph glyph-name="caron" unicode="&#x2c7;" horiz-adv-x="826" 
d="M118 1397v83h201l97 -134l97 134h197v-83l-193 -201h-209z" />
    <glyph glyph-name="breve" unicode="&#x2d8;" horiz-adv-x="826" 
d="M81 1436v24h225v-23q0 -89 108 -89q111 0 111 89v23h221v-24q0 -129 -90.5 -204t-242 -75t-242 75t-90.5 204z" />
    <glyph glyph-name="dotaccent" unicode="&#x2d9;" horiz-adv-x="497" 
d="M118 1207v223h263v-223h-263z" />
    <glyph glyph-name="ring" unicode="&#x2da;" horiz-adv-x="681" 
d="M117 1355q0 87 65 148q67 61 158.5 61t156.5 -61q67 -61 67 -148t-67 -148q-65 -61 -156.5 -61t-158.5 61q-65 61 -65 148zM272 1345.5q2 -21.5 20 -39.5q20 -19 48.5 -19t48.5 19q20 20 20 48t-20 47q-18 18 -40 20t-39 -9t-28.5 -28t-9.5 -38.5z" />
    <glyph glyph-name="ogonek" unicode="&#x2db;" horiz-adv-x="575" 
d="M97 -176q0 82 102 176h147q-36 -30 -55.5 -60t-19 -53.5t24 -38t67.5 -14.5h63v-159h-116q-99 0 -156 40t-57 109z" />
    <glyph glyph-name="tilde" unicode="&#x2dc;" horiz-adv-x="979" 
d="M118 1281q98 209 243 209q59 0 128 -43l49 -29q25 -13 40 -20t30 -8t22.5 0.5t20 14t20 23.5t25.5 38q5 8 8 12l157 -93q-97 -209 -242 -209q-59 0 -128 43l-49 30q-26 13 -40.5 19.5t-30 7.5t-22.5 -0.5t-19.5 -14t-20 -23t-24.5 -37.5q-6 -9 -9 -13z" />
    <glyph glyph-name="hungarumlaut" unicode="&#x2dd;" horiz-adv-x="970" 
d="M118 1196l143 284h238v-91l-170 -193h-211zM474 1196l143 284h236v-91l-168 -193h-211z" />
    <glyph glyph-name="Omega" unicode="&#x3a9;" horiz-adv-x="1469" 
d="M136 0v251h164q-33 25 -56.5 52.5t-38 56t-23 64t-11.5 71t-3 83.5v359q0 240 151.5 376t414.5 136t413 -135q155 -137 155 -377v-359q0 -120 -27 -194t-107 -133h167v-251h-492v251q58 16 97.5 64.5t56.5 110t17 133.5v392q0 103 -74.5 169t-205.5 66t-204.5 -66
t-73.5 -169v-392q0 -72 17 -133.5t56.5 -110t97.5 -64.5v-251h-491z" />
    <glyph glyph-name="pi" unicode="&#x3c0;" horiz-adv-x="1434" 
d="M56 834v228h1323v-228h-201v-834h-263v834h-394v-834h-264v834h-201z" />
    <glyph glyph-name="afii10023" unicode="&#x401;" horiz-adv-x="1203" 
d="M178 0v1420h925v-252h-637v-336h544v-240h-544v-341h641v-251h-929zM280 1557v240h281v-240h-281zM720 1557v240h282v-240h-282z" />
    <glyph glyph-name="afii10051" unicode="&#x402;" horiz-adv-x="1524" 
d="M37 1168v252h1093v-252h-457v-309q122 19 244 19q163 0 281 -53t178.5 -152t60.5 -235q0 -204 -109.5 -321t-309.5 -117h-148v251h109q78 0 122 46t44 129q0 92 -67 140.5t-190 48.5q-114 0 -215 -15v-600h-288v1168h-348z" />
    <glyph glyph-name="afii10052" unicode="&#x403;" horiz-adv-x="1147" 
d="M178 0v1420h892v-252h-604v-1168h-288zM468 1545l155 306h255v-100l-183 -206h-227z" />
    <glyph glyph-name="afii10053" unicode="&#x404;" horiz-adv-x="1339" 
d="M138 480v459q0 241 150.5 375.5t419.5 134.5q215 0 362 -123q153 -126 153 -369h-264q-1 109 -76.5 169t-193.5 60q-87 0 -146.5 -28.5t-88 -81.5t-28.5 -128v-118h450v-240h-450v-120q0 -75 28.5 -127.5t88 -80.5t146.5 -28q120 0 194.5 58t75.5 170h264
q0 -101 -29.5 -185t-79.5 -140t-116.5 -94.5t-139.5 -56t-150 -17.5q-269 0 -419.5 134.5t-150.5 376.5z" />
    <glyph glyph-name="afii10054" unicode="&#x405;" horiz-adv-x="1313" 
d="M87 460h288q0 -124 85 -176q85 -50 199 -50q110 0 171.5 42t61.5 111q0 64 -69 104q-40 24 -81 39q-23 12 -51 19q-114 43 -130 49l-58 23q-60 22 -99 39.5t-77 40.5t-79 53q-124 95 -124 268q0 195 141 311t383 116q124 0 222 -29t168.5 -87t108 -149.5t37.5 -212.5
h-288q0 110 -68 162.5t-184 52.5q-71 0 -123 -18t-79.5 -51t-27.5 -78q0 -67 54 -102q43 -24 64 -33q6 -2 13.5 -5.5t13 -5.5t8.5 -3l85 -31l58 -19q36 -12 126 -47l110 -49q62 -27 104 -61q68 -52 109.5 -123t36.5 -158q0 -197 -146 -315t-407 -118q-242 0 -399 128
q-157 129 -157 363z" />
    <glyph glyph-name="afii10055" unicode="&#x406;" horiz-adv-x="644" 
d="M178 0v1420h288v-1420h-288z" />
    <glyph glyph-name="afii10056" unicode="&#x407;" horiz-adv-x="644" 
d="M-37 1557v240h283v-240h-283zM178 0v1420h288v-1420h-288zM404 1557v240h283v-240h-283z" />
    <glyph glyph-name="afii10057" unicode="&#x408;" horiz-adv-x="1184" 
d="M37 424v63h288v-63q0 -190 209 -190q94 0 150.5 49.5t56.5 150.5v986h287v-996q0 -234 -138 -345q-137 -110 -356 -110q-497 0 -497 455z" />
    <glyph glyph-name="afii10058" unicode="&#x409;" horiz-adv-x="2049" 
d="M41 0v263q55 2 91 10t65.5 29t46 52t28.5 87t17 125.5t7 175.5v678h923v-536h340q93 0 169 -31.5t127.5 -89t79 -139.5t27.5 -182q0 -204 -107.5 -323t-295.5 -119h-628v1168h-372v-475q0 -371 -125 -535q-126 -158 -393 -158zM1219 251h288q71 0 117.5 50.5t46.5 140
t-46.5 140.5t-117.5 51h-288v-382z" />
    <glyph glyph-name="afii10059" unicode="&#x40a;" horiz-adv-x="2103" 
d="M178 0v1420h288v-536h519v536h288v-536h341q187 0 295.5 -119.5t108.5 -322.5t-108.5 -322.5t-295.5 -119.5h-629v633h-519v-633h-288zM1273 251h288q71 0 118 50.5t47 140t-47 140.5t-118 51h-288v-382z" />
    <glyph glyph-name="afii10060" unicode="&#x40b;" horiz-adv-x="1550" 
d="M37 1168v252h1093v-252h-457v-309q119 19 233 19q528 0 528 -428v-450h-289v418q0 197 -261 197q-104 0 -211 -19v-596h-288v1168h-348z" />
    <glyph glyph-name="afii10061" unicode="&#x40c;" horiz-adv-x="1290" 
d="M178 0v1420h288v-584h151l342 584h268v-96l-359 -598l389 -631v-95h-286l-354 584h-151v-584h-288zM542 1545l153 306h256v-100l-183 -206h-226z" />
    <glyph glyph-name="afii10062" unicode="&#x40e;" horiz-adv-x="1209" 
d="M16 1324v96h266l353 -694l307 694h252v-96l-590 -1324h-275v95l160 323zM282 1774v27h225v-25q0 -89 110 -89q109 0 109 89v25h222v-27q0 -128 -88.5 -198.5t-242.5 -70.5t-244.5 70.5t-90.5 198.5z" />
    <glyph glyph-name="afii10145" unicode="&#x40f;" horiz-adv-x="1441" 
d="M178 0v1420h288v-1169h509v1169h288v-1420h-412v-280h-263v280h-410z" />
    <glyph glyph-name="afii10017" unicode="&#x410;" 
d="M37 0v95l490 1325h282l493 -1325v-95h-284l-114 333h-484l-118 -333h-265zM505 572h312l-154 462z" />
    <glyph glyph-name="afii10018" unicode="&#x411;" horiz-adv-x="1354" 
d="M178 0v1420h992v-252h-704v-284h385q190 0 298 -118.5t108 -324t-108 -323.5t-298 -118h-673zM466 251h335q45 0 82 21.5t59.5 65.5t22.5 104q0 89 -47 140t-117 51h-335v-382z" />
    <glyph glyph-name="afii10019" unicode="&#x412;" horiz-adv-x="1352" 
d="M178 0v1420h600q198 0 309 -102t111 -290q0 -205 -158 -292q215 -94 215 -337q0 -194 -109.5 -296.5t-309.5 -102.5h-658zM466 251h355q64 0 105 44.5t41 126.5q0 80 -41 124t-105 44h-355v-339zM466 830h296q42 0 74.5 18t52.5 57.5t20 94.5q0 81 -41.5 124.5
t-105.5 43.5h-296v-338z" />
    <glyph glyph-name="afii10020" unicode="&#x413;" horiz-adv-x="1147" 
d="M178 0v1420h892v-252h-604v-1168h-288z" />
    <glyph glyph-name="afii10021" unicode="&#x414;" horiz-adv-x="1461" 
d="M47 251h111q64 80 107 205q39 112 39 324v640h931v-1169h160v-531h-263v280h-822v-280h-263v531zM466 251h480v917h-379v-388q0 -138 -18 -248q-13 -98 -34 -161q-17 -54 -49 -120z" />
    <glyph glyph-name="afii10022" unicode="&#x415;" horiz-adv-x="1203" 
d="M178 0v1420h925v-252h-637v-336h544v-240h-544v-341h641v-251h-929z" />
    <glyph glyph-name="afii10024" unicode="&#x416;" horiz-adv-x="1919" 
d="M58 0v95l341 635l-312 594v96h263l300 -584h167v584h288v-584h166l300 584h263v-96l-311 -594l340 -635v-95h-290l-296 584h-172v-584h-288v584h-173l-296 -584h-290z" />
    <glyph glyph-name="afii10025" unicode="&#x417;" horiz-adv-x="1277" 
d="M97 466h288q0 -117 74 -174.5t200 -57.5q110 0 170.5 46t60.5 132q0 176 -225 176h-183v240h183q93 0 143.5 44.5t50.5 125.5q0 85 -55.5 136.5t-153.5 51.5q-67 0 -117.5 -24t-80.5 -77.5t-30 -131.5h-288q0 247 146 373q145 123 370 123q235 0 368 -114.5t133 -306.5
t-176 -310q205 -94 205 -306q0 -204 -138.5 -323.5t-382.5 -119.5q-241 0 -401.5 124t-160.5 373z" />
    <glyph glyph-name="afii10026" unicode="&#x418;" horiz-adv-x="1461" 
d="M178 0v1420h288v-905l554 905h263v-1420h-287v904l-554 -904h-264z" />
    <glyph glyph-name="afii10027" unicode="&#x419;" horiz-adv-x="1461" 
d="M178 0v1420h288v-905l554 905h263v-1420h-287v904l-554 -904h-264zM397 1774v27h226v-25q0 -89 109 -89q110 0 110 89v25h222v-27q0 -128 -89 -198.5t-243 -70.5q-102 0 -177 31t-116.5 92t-41.5 146z" />
    <glyph glyph-name="afii10028" unicode="&#x41a;" horiz-adv-x="1290" 
d="M178 0v1420h288v-584h151l342 584h268v-96l-359 -598l389 -631v-95h-286l-354 584h-151v-584h-288z" />
    <glyph glyph-name="afii10029" unicode="&#x41b;" horiz-adv-x="1396" 
d="M41 0v263q55 2 91 10t65.5 29t46 52t28.5 87t17 125.5t7 175.5v678h923v-1420h-288v1168h-372v-475q0 -371 -125 -535q-126 -158 -393 -158z" />
    <glyph glyph-name="afii10030" unicode="&#x41c;" horiz-adv-x="1650" 
d="M178 0v1420h278l374 -627l372 627h270v-1420h-278v909l-279 -467h-179l-280 467v-909h-278z" />
    <glyph glyph-name="afii10031" unicode="&#x41d;" horiz-adv-x="1451" 
d="M178 0v1420h288v-584h519v584h288v-1420h-288v584h-519v-584h-288z" />
    <glyph glyph-name="afii10032" unicode="&#x41e;" horiz-adv-x="1406" 
d="M138 482v455q0 240 151.5 376t414.5 136t414 -136t151 -376v-455q0 -241 -151 -377t-414 -136t-414.5 136t-151.5 377zM426 468q0 -102 73.5 -168t204.5 -66t204 66t73 168v483q0 103 -73 169t-204 66t-204.5 -66t-73.5 -169v-483z" />
    <glyph glyph-name="afii10033" unicode="&#x41f;" horiz-adv-x="1439" 
d="M178 0v1420h1083v-1420h-288v1168h-507v-1168h-288z" />
    <glyph glyph-name="afii10034" unicode="&#x420;" horiz-adv-x="1306" 
d="M178 0v1420h635q189 0 298.5 -120.5t109.5 -328.5q0 -205 -109.5 -325.5t-298.5 -120.5h-347v-525h-288zM466 776h294q75 0 122 51.5t47 145.5q0 93 -47.5 144t-121.5 51h-294v-392z" />
    <glyph glyph-name="afii10035" unicode="&#x421;" horiz-adv-x="1339" 
d="M138 480v459q0 244 144.5 377t412.5 133q227 0 377 -125q151 -127 151 -371v-20h-288v20q0 113 -72 173t-186 60q-124 0 -187.5 -58.5t-63.5 -168.5v-499q0 -109 63.5 -167.5t187.5 -58.5q115 0 186.5 58.5t71.5 173.5v21h288v-21q0 -247 -151 -373q-147 -124 -377 -124
q-268 0 -412.5 133.5t-144.5 377.5z" />
    <glyph glyph-name="afii10036" unicode="&#x422;" horiz-adv-x="1157" 
d="M37 1168v252h1085v-252h-398v-1168h-288v1168h-399z" />
    <glyph glyph-name="afii10037" unicode="&#x423;" horiz-adv-x="1209" 
d="M16 1324v96h266l353 -694l307 694h252v-96l-590 -1324h-275v95l160 323z" />
    <glyph glyph-name="afii10038" unicode="&#x424;" horiz-adv-x="1793" 
d="M97 661v146q0 237 168 371t408 134h79v156h288v-156h82q238 0 405 -136q170 -133 170 -369v-146q0 -235 -170 -371q-168 -134 -405 -134h-82v-181h-288v181h-79q-240 0 -408 134t-168 371zM385 667q0 -108 75 -183q77 -76 201 -76h91v652h-91q-120 0 -198 -75t-78 -182
v-136zM1040 408h94q122 0 198.5 76t76.5 183v136q0 107 -77.5 182t-197.5 75h-94v-652z" />
    <glyph glyph-name="afii10039" unicode="&#x425;" 
d="M56 0v95l435 643l-394 586v96h294l278 -457l296 457h275v-96l-397 -583l438 -646v-95h-292l-326 507l-330 -507h-277z" />
    <glyph glyph-name="afii10040" unicode="&#x426;" horiz-adv-x="1475" 
d="M178 0v1420h288v-1169h495v1169h288v-1169h160v-531h-264v280h-967z" />
    <glyph glyph-name="afii10041" unicode="&#x427;" horiz-adv-x="1343" 
d="M118 921v499h288v-467q0 -197 261 -197q113 0 211 22v642h288v-1420h-288v515q-143 -22 -234 -22q-526 0 -526 428z" />
    <glyph glyph-name="afii10042" unicode="&#x428;" horiz-adv-x="2037" 
d="M178 0v1420h288v-1169h410v1169h288v-1169h407v1169h288v-1420h-1681z" />
    <glyph glyph-name="afii10043" unicode="&#x429;" horiz-adv-x="2085" 
d="M178 0v1420h288v-1169h410v1169h288v-1169h407v1169h288v-1169h161v-531h-264v280h-1578z" />
    <glyph glyph-name="afii10044" unicode="&#x42a;" horiz-adv-x="1449" 
d="M16 1168v252h603v-536h340q188 0 295.5 -119.5t107.5 -323t-107.5 -322.5t-295.5 -119h-628v1168h-315zM619 251h287q34 0 64 12.5t52.5 36t35 60t12.5 82t-12.5 82t-35 60t-52.5 36.5t-64 13h-287v-382z" />
    <glyph glyph-name="afii10045" unicode="&#x42b;" horiz-adv-x="1824" 
d="M178 0v1420h288v-536h341q187 0 295.5 -119.5t108.5 -322.5t-108 -322.5t-296 -119.5h-629zM466 251h288q72 0 118.5 50.5t46.5 140.5q0 60 -22.5 104t-59 65.5t-83.5 21.5h-288v-382zM1358 0v1420h288v-1420h-288z" />
    <glyph glyph-name="afii10046" unicode="&#x42c;" horiz-adv-x="1296" 
d="M178 0v1420h288v-536h341q187 0 295.5 -119.5t108.5 -322.5t-108 -322.5t-296 -119.5h-629zM466 251h288q72 0 118.5 50.5t46.5 140.5q0 60 -22.5 104t-59 65.5t-83.5 21.5h-288v-382z" />
    <glyph glyph-name="afii10047" unicode="&#x42d;" horiz-adv-x="1341" 
d="M120 462h263q2 -113 75.5 -170.5t193.5 -57.5q131 0 198 61.5t67 174.5v120h-451v240h451v118q0 114 -67 176t-198 62q-118 0 -192.5 -60t-76.5 -169h-263q0 243 149 369q151 123 366 123q269 0 419.5 -134.5t150.5 -375.5v-459q0 -242 -150.5 -376.5t-419.5 -134.5
q-78 0 -150.5 17.5t-139.5 56t-116.5 94.5t-79 140t-29.5 185z" />
    <glyph glyph-name="afii10048" unicode="&#x42e;" horiz-adv-x="1925" 
d="M178 0v1420h288v-584h232v119q0 232 146 363t398 131q255 0 400.5 -131t145.5 -363v-491q0 -232 -145.5 -363.5t-400.5 -131.5q-166 0 -289 59t-189 171t-66 265v120h-232v-584h-288zM985 452q0 -96 67.5 -157t190 -61t190.5 61t68 157v515q0 97 -68 158t-190.5 61
t-190 -61t-67.5 -158v-515z" />
    <glyph glyph-name="afii10049" unicode="&#x42f;" horiz-adv-x="1321" 
d="M79 0v95l267 450q-112 56 -174 161.5t-62 248.5q0 220 114.5 342.5t326.5 122.5h592v-1420h-288v507h-228l-281 -507h-267zM404 961q0 -211 221 -211h230v418h-240q-211 0 -211 -207z" />
    <glyph glyph-name="afii10065" unicode="&#x430;" horiz-adv-x="1147" 
d="M87 292q0 167 109 256t321 89h219v67q0 143 -171 143q-83 0 -126.5 -32.5t-43.5 -88.5h-257q0 167 110 264t317 97q210 0 322.5 -98t112.5 -267v-722h-153l-77 103q-136 -128 -325 -128q-151 0 -257 83q-101 82 -101 234zM350 327q0 -112 149 -112q143 0 237 104v117
h-219q-87 0 -127 -31t-40 -78z" />
    <glyph glyph-name="afii10066" unicode="&#x431;" horiz-adv-x="1161" 
d="M128 365v371q0 225 70.5 352t227.5 173l257 77q61 21 61 82v10h264v-10q0 -56 -7.5 -97t-24.5 -73.5t-45 -55.5q-38 -32 -76.5 -48.5t-126.5 -42.5l-188 -53q-93 -25 -132 -74t-39 -150v-31q28 43 71.5 77t104 55t126.5 21q112 0 196.5 -42t133.5 -131t49 -216v-190
q0 -181 -127 -288q-124 -106 -333 -106q-213 0 -337.5 104t-124.5 286zM391 381q0 -36 13 -66t37.5 -52.5t62.5 -35t86 -12.5q94 0 145.5 45.5t51.5 120.5v161q0 76 -53 122t-134 46q-121 0 -209 -104v-225z" />
    <glyph glyph-name="afii10067" unicode="&#x432;" horiz-adv-x="1167" 
d="M158 0v1062h490q370 0 370 -284q0 -150 -105 -231q153 -72 153 -235q0 -88 -24.5 -148.5t-76.5 -96.5t-124.5 -51.5t-175.5 -15.5h-507zM422 229h259q104 0 104 102q0 101 -104 101h-259v-203zM422 633h217q48 0 75 27.5t27 71.5q0 102 -102 102h-217v-201z" />
    <glyph glyph-name="afii10068" unicode="&#x433;" horiz-adv-x="960" 
d="M158 0v1062h726v-228h-462v-834h-264z" />
    <glyph glyph-name="afii10069" unicode="&#x434;" horiz-adv-x="1300" 
d="M52 229h100q101 90 101 367v466h828v-833h154v-480h-258v251h-665v-251h-260v480zM438 229h379v605h-314v-281q0 -178 -65 -324z" />
    <glyph glyph-name="afii10070" unicode="&#x435;" horiz-adv-x="1126" 
d="M112 365v328q0 178 126 286q128 108 336 108q203 0 322.5 -103.5t119.5 -285.5v-253h-641v-76q0 -72 51.5 -113t147.5 -41q149 0 176 108h264q-17 -165 -131.5 -256.5t-308.5 -91.5q-213 0 -337.5 104t-124.5 286zM375 644h377v54q0 69 -50 109t-139 40q-90 0 -139 -40
t-49 -109v-54z" />
    <glyph glyph-name="afii10072" unicode="&#x436;" horiz-adv-x="1611" 
d="M77 0v124l266 416l-250 399v123h217l259 -418h106v418h264v-418h107l258 418h217v-123l-250 -399l265 -416v-124h-232l-252 416h-113v-416h-264v416h-112l-251 -416h-235z" />
    <glyph glyph-name="afii10073" unicode="&#x437;" horiz-adv-x="1116" 
d="M97 391h255q0 -176 207 -176q79 0 124 31t45 85q0 101 -116 101h-160v211h158q47 0 73.5 27t26.5 71q0 50 -40.5 78t-112.5 28q-182 0 -182 -170h-257q1 198 115.5 304t331.5 106q128 0 224 -39t148 -111.5t52 -170.5q0 -142 -111 -217q130 -72 130 -226
q0 -166 -115 -257t-326 -91q-219 0 -343.5 112t-126.5 304z" />
    <glyph glyph-name="afii10074" unicode="&#x438;" horiz-adv-x="1250" 
d="M158 0v1062h264v-654l408 654h263v-1062h-263v655l-408 -655h-264z" />
    <glyph glyph-name="afii10075" unicode="&#x439;" horiz-adv-x="1250" 
d="M158 0v1062h264v-654l408 654h263v-1062h-263v655l-408 -655h-264zM292 1436v24h225v-23q0 -89 108 -89q111 0 111 89v23h221v-24q0 -86 -41 -149t-116 -96.5t-175 -33.5q-152 0 -242.5 75t-90.5 204z" />
    <glyph glyph-name="afii10076" unicode="&#x43a;" horiz-adv-x="1134" 
d="M158 0v1062h264v-418h112l287 418h225v-123l-276 -399l290 -416v-124h-241l-287 416h-110v-416h-264z" />
    <glyph glyph-name="afii10077" unicode="&#x43b;" horiz-adv-x="1234" 
d="M65 0v240h26q166 0 166 198v624h819v-1062h-263v834h-308v-394q0 -215 -110 -328q-106 -112 -265 -112h-65z" />
    <glyph glyph-name="afii10078" unicode="&#x43c;" horiz-adv-x="1420" 
d="M158 0v1062h264l294 -468l284 468h263v-1062h-263v655l-230 -377h-122l-226 377v-655h-264z" />
    <glyph glyph-name="afii10079" unicode="&#x43d;" horiz-adv-x="1228" 
d="M158 0v1062h264v-416h385v416h263v-1062h-263v418h-385v-418h-264z" />
    <glyph glyph-name="afii10080" unicode="&#x43e;" horiz-adv-x="1145" 
d="M112 369v324q0 179 121.5 286.5t340.5 107.5q217 0 338.5 -107.5t121.5 -286.5v-324q0 -178 -121.5 -286t-338.5 -108q-219 0 -340.5 107.5t-121.5 286.5zM375 381q0 -74 52.5 -120t146.5 -46t145 45.5t51 120.5v300q0 75 -51 120.5t-145 45.5t-146.5 -46t-52.5 -120
v-300z" />
    <glyph glyph-name="afii10081" unicode="&#x43f;" horiz-adv-x="1217" 
d="M158 0v1062h902v-1062h-263v834h-375v-834h-264z" />
    <glyph glyph-name="afii10082" unicode="&#x440;" horiz-adv-x="1207" 
d="M158 -325v1387h152l77 -105q136 130 317 130q82 0 151 -25.5t119.5 -73.5t78.5 -122.5t28 -167.5v-333q0 -185 -104 -287.5t-273 -102.5q-168 0 -282 100v-400h-264zM422 327q112 -112 226 -112q70 0 119.5 47t49.5 123v292q0 76 -49.5 123t-119.5 47q-114 0 -226 -111
v-409z" />
    <glyph glyph-name="afii10083" unicode="&#x441;" horiz-adv-x="1100" 
d="M112 369v324q0 181 122 287.5t327 106.5q202 0 319.5 -105.5t117.5 -292.5v-12h-264v12q0 74 -45 116t-128 42q-186 0 -186 -149v-333q0 -150 186 -150q81 0 127 42t46 114v20h264v-14q0 -184 -122 -294q-120 -108 -315 -108q-135 0 -237 48t-157 137.5t-55 208.5z" />
    <glyph glyph-name="afii10084" unicode="&#x442;" horiz-adv-x="1002" 
d="M37 834v228h930v-228h-332v-834h-264v834h-334z" />
    <glyph glyph-name="afii10085" unicode="&#x443;" horiz-adv-x="1043" 
d="M37 939v123h243l252 -704l236 704h240v-123l-491 -1264h-215v96l100 229z" />
    <glyph glyph-name="afii10086" unicode="&#x444;" horiz-adv-x="1664" 
d="M128 339v385q0 174 93 267q96 96 231 96q157 0 248 -104v447h263v-447q94 104 250 104q134 0 230 -96q93 -93 93 -267v-385q0 -175 -93 -268q-96 -96 -230 -96q-156 0 -250 104v-404h-263v404q-91 -104 -248 -104q-135 0 -231 96q-93 93 -93 268zM391 375q0 -70 43 -115
t106 -45q94 0 160 63v507q-65 62 -160 62q-63 0 -106 -45t-43 -115v-312zM963 278q70 -63 163 -63q62 0 104.5 45t42.5 115v312q0 70 -42.5 115t-104.5 45q-95 0 -163 -62v-507z" />
    <glyph glyph-name="afii10087" unicode="&#x445;" horiz-adv-x="1072" 
d="M77 0v124l294 408l-290 407v123h238l217 -330l220 330h223v-123l-281 -397l300 -418v-124h-236l-230 352l-230 -352h-225z" />
    <glyph glyph-name="afii10088" unicode="&#x446;" horiz-adv-x="1271" 
d="M158 0v1062h264v-833h363v833h263v-833h157v-480h-261v251h-786z" />
    <glyph glyph-name="afii10089" unicode="&#x447;" horiz-adv-x="1161" 
d="M97 691v371h264v-342q0 -144 211 -144q47 0 169 18v468h263v-1062h-263v361q-127 -24 -214 -24q-430 0 -430 354z" />
    <glyph glyph-name="afii10090" unicode="&#x448;" horiz-adv-x="1658" 
d="M158 0v1062h264v-833h276v833h263v-833h276v833h264v-1062h-1343z" />
    <glyph glyph-name="afii10091" unicode="&#x449;" horiz-adv-x="1722" 
d="M158 0v1062h264v-833h276v833h263v-833h276v833h264v-833h155v-480h-259v251h-1239z" />
    <glyph glyph-name="afii10092" unicode="&#x44a;" horiz-adv-x="1197" 
d="M-4 834v228h540v-328h269q156 0 246 -99t90 -268t-90 -268t-246 -99h-534v834h-275zM536 229h202q69 0 104.5 37.5t35.5 100.5q0 138 -140 138h-202v-276z" />
    <glyph glyph-name="afii10093" unicode="&#x44b;" horiz-adv-x="1563" 
d="M158 0v1062h264v-328h249q156 0 246.5 -99t90.5 -268t-90.5 -268t-246.5 -99h-513zM422 229h182q69 0 104.5 37.5t35.5 100.5q0 138 -140 138h-182v-276zM1141 0v1062h264v-1062h-264z" />
    <glyph glyph-name="afii10094" unicode="&#x44c;" horiz-adv-x="1084" 
d="M158 0v1062h264v-328h269q156 0 246.5 -99t90.5 -268t-90.5 -268t-246.5 -99h-533zM422 229h203q69 0 104 37.5t35 100.5q0 138 -139 138h-203v-276z" />
    <glyph glyph-name="afii10095" unicode="&#x44d;" horiz-adv-x="1114" 
d="M103 383v8h264v-12q0 -75 50 -119.5t136 -44.5q188 0 188 160v49h-285v211h285v52q0 160 -188 160q-86 0 -136 -44.5t-50 -119.5v-6h-264v6q0 189 120 296.5t326 107.5q209 0 332 -108t123 -292v-312q0 -184 -123 -292t-332 -108q-133 0 -233.5 49.5t-156.5 142
t-56 216.5z" />
    <glyph glyph-name="afii10096" unicode="&#x44e;" horiz-adv-x="1602" 
d="M158 0v1062h264v-416h168v56q0 174 119 279.5t333 105.5q107 0 192.5 -28.5t141.5 -79.5t86 -121.5t30 -155.5v-341q0 -174 -118.5 -280t-331.5 -106q-214 0 -333 106t-119 280v55h-168v-416h-264zM853 373q0 -70 49.5 -114t139.5 -44q89 0 138 44t49 114v316
q0 71 -49 114.5t-138 43.5q-90 0 -139.5 -43.5t-49.5 -114.5v-316z" />
    <glyph glyph-name="afii10097" unicode="&#x44f;" horiz-adv-x="1132" 
d="M91 718q0 160 87 252t226 92h571v-1062h-263v377h-126l-243 -377h-246v124l193 267q-199 76 -199 327zM354 710q0 -18 3.5 -34t9.5 -29.5t16.5 -24.5t24 -18.5t31.5 -11.5t39 -4h234v246h-234q-124 0 -124 -124z" />
    <glyph glyph-name="afii10071" unicode="&#x451;" horiz-adv-x="1126" 
d="M112 365v328q0 178 126 286q128 108 336 108q203 0 322.5 -103.5t119.5 -285.5v-253h-641v-76q0 -72 51.5 -113t147.5 -41q149 0 176 108h264q-17 -165 -131.5 -256.5t-308.5 -91.5q-213 0 -337.5 104t-124.5 286zM238 1207v223h263v-223h-263zM375 644h377v54
q0 69 -50 109t-139 40q-90 0 -139 -40t-49 -109v-54zM648 1207v223h265v-223h-265z" />
    <glyph glyph-name="afii10099" unicode="&#x452;" horiz-adv-x="1213" 
d="M25 1076v187h157v167h264v-167h384v-187h-384v-279q120 99 280 99q172 0 270.5 -109.5t98.5 -302.5v-443q0 -154 -89 -272q-87 -117 -274 -117q-39 0 -75 3v235h45q130 0 130 155v423q0 91 -45 140t-120 49q-120 0 -221 -112v-545h-264v1076h-157z" />
    <glyph glyph-name="afii10100" unicode="&#x453;" horiz-adv-x="960" 
d="M158 0v1062h726v-228h-462v-834h-264zM371 1196l144 284h237v-91l-170 -193h-211z" />
    <glyph glyph-name="afii10101" unicode="&#x454;" horiz-adv-x="1114" 
d="M112 375v312q0 122 55 212.5t157.5 139t240.5 48.5q206 0 326.5 -107.5t120.5 -296.5v-6h-264v6q0 49 -22 86.5t-64.5 57.5t-100.5 20q-186 0 -186 -160v-52h284v-211h-284v-49q0 -160 186 -160q58 0 100.5 20.5t64.5 57.5t22 86v12h264v-8q0 -187 -122.5 -297.5
t-324.5 -110.5q-208 0 -330.5 108t-122.5 292z" />
    <glyph glyph-name="afii10102" unicode="&#x455;" horiz-adv-x="1132" 
d="M99 365h262q4 -35 23 -63t50.5 -47.5t75.5 -29.5t98 -10q71 0 113.5 24t42.5 65q0 58 -71 73l-294 75q-277 70 -277 294q0 159 115 250t316 91q206 0 324.5 -95.5t124.5 -269.5h-264q-9 125 -204 125q-53 0 -88.5 -11t-52 -30t-16.5 -44q0 -54 91 -75l302 -75
q250 -61 250 -287q0 -162 -120.5 -256t-323.5 -94q-211 0 -340 106q-131 107 -137 284z" />
    <glyph glyph-name="afii10103" unicode="&#x456;" horiz-adv-x="579" 
d="M158 0v1062h264v-1062h-264zM158 1207v223h264v-223h-264z" />
    <glyph glyph-name="afii10104" unicode="&#x457;" horiz-adv-x="579" 
d="M-47 1207v223h264v-223h-264zM158 0v1062h264v-1062h-264zM365 1207v223h264v-223h-264z" />
    <glyph glyph-name="afii10105" unicode="&#x458;" horiz-adv-x="581" 
d="M-14 -110h45q129 0 129 155v1017h264v-1021q0 -154 -89 -272q-87 -117 -275 -117q-38 0 -74 3v235zM160 1207v223h264v-223h-264z" />
    <glyph glyph-name="afii10106" unicode="&#x459;" horiz-adv-x="1739" 
d="M65 0v240h26q166 0 166 198v624h819v-328h270q157 0 247 -99t90 -268t-90 -268t-247 -99h-533v834h-308v-394q0 -215 -110 -328q-106 -112 -265 -112h-65zM1076 229h203q69 0 105 37.5t36 100.5q0 138 -141 138h-203v-276z" />
    <glyph glyph-name="afii10107" unicode="&#x45a;" horiz-adv-x="1733" 
d="M158 0v1062h264v-416h385v416h263v-328h270q157 0 247 -99t90 -268t-90 -268t-247 -99h-533v418h-385v-418h-264zM1070 229h203q69 0 104.5 37.5t35.5 100.5q0 138 -140 138h-203v-276z" />
    <glyph glyph-name="afii10108" unicode="&#x45b;" horiz-adv-x="1219" 
d="M25 1076v187h157v167h264v-167h384v-187h-384v-279q120 99 280 99q172 0 270.5 -109.5t98.5 -302.5v-484h-263v468q0 91 -45 140t-120 49q-120 0 -221 -112v-545h-264v1076h-157z" />
    <glyph glyph-name="afii10109" unicode="&#x45c;" horiz-adv-x="1134" 
d="M158 0v1062h264v-418h112l287 418h225v-123l-276 -399l290 -416v-124h-241l-287 416h-110v-416h-264zM442 1196l144 284h237v-91l-171 -193h-210z" />
    <glyph glyph-name="afii10110" unicode="&#x45e;" horiz-adv-x="1043" 
d="M37 939v123h243l252 -704l236 704h240v-123l-491 -1264h-215v96l100 229zM195 1436v24h225v-23q0 -89 107 -89q112 0 112 89v23h220v-24q0 -129 -90.5 -204t-242 -75t-241.5 75t-90 204z" />
    <glyph glyph-name="afii10193" unicode="&#x45f;" horiz-adv-x="1217" 
d="M158 0v1062h264v-833h375v833h263v-1062h-322v-251h-258v251h-322z" />
    <glyph glyph-name="afii10050" unicode="&#x490;" horiz-adv-x="1126" 
d="M178 0v1420h609v263h263v-515h-584v-1168h-288z" />
    <glyph glyph-name="afii10098" unicode="&#x491;" horiz-adv-x="950" 
d="M158 0v1062h457v258h259v-486h-452v-834h-264z" />
    <glyph glyph-name="endash" unicode="&#x2013;" horiz-adv-x="1226" 
d="M118 525v219h991v-219h-991z" />
    <glyph glyph-name="emdash" unicode="&#x2014;" horiz-adv-x="1735" 
d="M118 525v219h1500v-219h-1500z" />
    <glyph glyph-name="quoteleft" unicode="&#x2018;" horiz-adv-x="526" 
d="M101 898v112l175 420h186l-101 -532h-260z" />
    <glyph glyph-name="quoteright" unicode="&#x2019;" horiz-adv-x="526" 
d="M65 898l101 532h260v-112l-175 -420h-186z" />
    <glyph glyph-name="quotesinglbase" unicode="&#x201a;" horiz-adv-x="526" 
d="M65 -242l101 532h260v-112l-175 -420h-186z" />
    <glyph glyph-name="quotedblleft" unicode="&#x201c;" horiz-adv-x="940" 
d="M101 898v112l175 420h186l-101 -532h-260zM515 898v112l174 420h187l-102 -532h-259z" />
    <glyph glyph-name="quotedblright" unicode="&#x201d;" horiz-adv-x="940" 
d="M65 898l101 532h260v-112l-175 -420h-186zM478 898l102 532h260v-112l-175 -420h-187z" />
    <glyph glyph-name="quotedblbase" unicode="&#x201e;" horiz-adv-x="940" 
d="M65 -242l101 532h260v-112l-175 -420h-186zM478 -242l102 532h260v-112l-175 -420h-187z" />
    <glyph glyph-name="dagger" unicode="&#x2020;" horiz-adv-x="1108" 
d="M56 834v228h368v368h263v-368h365v-228h-365v-1159h-263v1159h-368z" />
    <glyph glyph-name="daggerdbl" unicode="&#x2021;" horiz-adv-x="1108" 
d="M56 251v229h368v354h-368v228h368v368h263v-368h365v-228h-365v-354h365v-229h-365v-576h-263v576h-368z" />
    <glyph glyph-name="bullet" unicode="&#x2022;" horiz-adv-x="919" 
d="M118 641v16q0 162 89.5 249.5t253 87.5t253 -87.5t89.5 -249.5v-16q0 -162 -91 -249.5t-252 -87.5q-108 0 -184.5 39t-117 114.5t-40.5 183.5z" />
    <glyph glyph-name="ellipsis" unicode="&#x2026;" horiz-adv-x="1550" 
d="M138 0v290h290v-290h-290zM631 0v290h290v-290h-290zM1124 0v290h289v-290h-289z" />
    <glyph glyph-name="perthousand" unicode="&#x2030;" horiz-adv-x="2335" 
d="M77 1039v95q0 154 83.5 234.5t236.5 80.5t237 -80.5t84 -234.5v-95q0 -155 -84 -236t-237 -81t-236.5 81t-83.5 236zM296 0v95l830 1325h186v-96l-830 -1324h-186zM308 1002q0 -39 24 -65t65 -26q40 0 65 26t25 65v168q0 39 -25 65t-65 26q-41 0 -65 -26t-24 -65v-168z
M888 286v95q0 155 84 236t236.5 81t236.5 -81t84 -236v-95q0 -155 -84 -236t-236.5 -81t-236.5 81t-84 236zM1119 249q0 -39 24.5 -65t65.5 -26q40 0 64.5 26.5t24.5 64.5v169q0 25 -11 45.5t-31.5 33t-46.5 12.5q-41 0 -65.5 -26t-24.5 -65v-169zM1618 286v95q0 153 84 235
t236 82q153 0 236.5 -81t83.5 -236v-95q0 -155 -83.5 -236t-236.5 -81q-152 0 -236 82.5t-84 234.5zM1851 249q0 -15 3.5 -28.5t11 -25t18 -19.5t24.5 -13t30 -5q40 0 65 26.5t25 64.5v169q0 25 -11 45.5t-31.5 33t-47.5 12.5q-40 0 -63.5 -26t-23.5 -65v-169z" />
    <glyph glyph-name="guilsinglleft" unicode="&#x2039;" horiz-adv-x="681" 
d="M73 637l260 425h226v-75l-211 -350l211 -353v-75h-226z" />
    <glyph glyph-name="guilsinglright" unicode="&#x203a;" horiz-adv-x="681" 
d="M122 209v75l211 353l-211 350v75h226l260 -425l-260 -428h-226z" />
    <glyph glyph-name="fraction" unicode="&#x2044;" horiz-adv-x="804" 
d="M-105 0v95l829 1325h187v-96l-830 -1324h-186z" />
    <glyph glyph-name="Euro" unicode="&#x20ac;" horiz-adv-x="1370" 
d="M60 418v209h171v164h-171v209h174v10q17 207 151.5 323t366.5 116q215 0 359 -125q142 -125 142 -371v-20h-247v20q0 127 -70.5 192.5t-185.5 65.5q-226 0 -253 -201v-10h316v-209h-318v-164h318v-209h-318q27 -209 255 -209q256 0 256 257v21h247v-21
q0 -245 -132.5 -371t-368.5 -126q-229 0 -366 115.5t-157 333.5h-169z" />
    <glyph glyph-name="afii61352" unicode="&#x2116;" horiz-adv-x="2076" 
d="M178 0v1420h242l497 -882v882h263v-1420h-243l-495 882v-882h-264zM1354 397v201h641v-201h-641zM1354 1039v95q0 154 84 234.5t237 80.5q76 0 135 -20t100.5 -59t63 -99t21.5 -137v-95q0 -104 -38.5 -175t-109.5 -106.5t-172 -35.5q-153 0 -237 81t-84 236zM1586 1002
q0 -39 24 -65t65 -26q40 0 64.5 26t24.5 65v168q0 39 -24.5 65t-64.5 26q-41 0 -65 -26t-24 -65v-168z" />
    <glyph glyph-name="trademark" unicode="&#x2122;" horiz-adv-x="1386" 
d="M16 1285v135h522v-135h-186v-521h-151v521h-185zM643 764v656h148l172 -281l178 281h144v-656h-149v408l-126 -207h-95l-120 203v-404h-152z" />
    <glyph glyph-name="partialdiff" unicode="&#x2202;" horiz-adv-x="1157" 
d="M89 312q0 49 19 251q19 190 133.5 290t288.5 100q187 0 281 -154q0 18 1 49.5t1 33.5v2q-9 310 -322 310q-100 0 -222 -24l17 235q115 29 271 29q234 0 364 -142q131 -141 131 -371q0 -142 -38 -556q-17 -183 -150.5 -286.5t-346.5 -103.5q-195 0 -311.5 90.5
t-116.5 246.5zM354 363q0 -67 48 -107.5t136 -40.5q63 0 110.5 22t72.5 59t29 85l18 229q-75 104 -192 104q-83 0 -141 -46t-66 -123q-15 -124 -15 -182z" />
    <glyph glyph-name="uni2206" unicode="&#x2206;" 
d="M37 0v97l490 1323h282l493 -1323v-97h-1265zM395 251h532l-264 783z" />
    <glyph glyph-name="product" unicode="&#x220f;" horiz-adv-x="1378" 
d="M178 -152v1572h1022v-1572h-263v1332h-495v-1332h-264z" />
    <glyph glyph-name="summation" unicode="&#x2211;" horiz-adv-x="1157" 
d="M97 87l307 550l-307 543v240h937v-240h-643l307 -543l-307 -550h669v-239h-963v239z" />
    <glyph glyph-name="radical" unicode="&#x221a;" horiz-adv-x="1114" 
d="M-2 677v199h343l237 -704l328 1444h199v-93l-389 -1675h-225l-311 829h-182z" />
    <glyph glyph-name="infinity" unicode="&#x221e;" horiz-adv-x="1836" 
d="M118 655.5q0 170.5 111 281.5q113 115 298 115q191 0 382 -191l12 -12l12 12q191 191 379 191q186 0 296 -115q112 -112 112 -281.5t-112 -284.5q-111 -114 -296 -114q-188 0 -383 195l-8 8l-8 -8q-197 -197 -386 -197q-185 0 -298 116q-111 114 -111 284.5zM381 655
q0 -65 44.5 -107.5t108.5 -42.5t112 42q26 19 49 41q20 20 21 22q38 38 40 45q-85 96 -135 123q-45 25 -87 25q-64 0 -108.5 -41t-44.5 -107zM1085 655l72 -79q31 -27 72 -49t77 -22q43 0 78 19t55.5 53.5t20.5 78t-20.5 77.5t-55.5 52t-78 18q-38 0 -83 -25
q-39 -20 -66 -46z" />
    <glyph glyph-name="integral" unicode="&#x222b;" horiz-adv-x="636" 
d="M4 -95h67q117 0 117 118v1068q0 152 92.5 240.5t249.5 88.5h103v-230h-68q-119 0 -119 -118v-1068q0 -152 -90.5 -240.5t-247.5 -88.5h-104v230z" />
    <glyph glyph-name="approxequal" unicode="&#x2248;" horiz-adv-x="1086" 
d="M126 337q110 235 273 235q66 0 143 -49l54 -34q48 -31 79 -31q51 0 108 99l178 -103q-110 -235 -274 -235q-67 0 -142 48l-54 35q-48 31 -79 31q-51 0 -108 -99zM126 851q110 236 273 236q68 0 143 -48l54 -35q48 -31 79 -31q51 0 108 99l178 -103q-110 -235 -274 -235
q-65 0 -142 49l-54 34q-48 30 -79 30q-51 0 -108 -99z" />
    <glyph glyph-name="notequal" unicode="&#x2260;" horiz-adv-x="1161" 
d="M126 0v95l133 211h-133v219h276l138 219h-414v219h553l182 286h176v-96l-122 -190h122v-219h-263l-137 -219h400v-219h-542l-195 -306h-174z" />
    <glyph glyph-name="lessequal" unicode="&#x2264;" horiz-adv-x="1078" 
d="M126 0v221h827v-221h-827zM126 700v215l702 316h125v-183l-539 -241l539 -240v-182h-125z" />
    <glyph glyph-name="greaterequal" unicode="&#x2265;" horiz-adv-x="1078" 
d="M126 0v221h827v-221h-827zM126 385v182l539 240l-539 241v183h125l702 -316v-215l-702 -315h-125z" />
    <glyph glyph-name="lozenge" unicode="&#x25ca;" horiz-adv-x="1134" 
d="M97 710l371 710h201l370 -710l-372 -710h-199zM377 712l190 -402l193 400l-193 399z" />
    <glyph glyph-name="uni25FC" unicode="&#x25fc;" horiz-adv-x="1064" 
d="M0 0v1064h1064v-1064h-1064z" />
    </font>
</defs>
</svg>
